<?xml version="1.0" encoding="utf-8"?>
<!-- Generator: Adobe Illustrator 22.0.1, SVG Export Plug-In . SVG Version: 6.00 Build 0)  -->
<svg version="1.1" id="Layer_1" xmlns="http://www.w3.org/2000/svg" xmlns:xlink="http://www.w3.org/1999/xlink" x="0px" y="0px"
	 viewBox="0 0 566 100" style="enable-background:new 0 0 566 100;" xml:space="preserve">
<style type="text/css">
	.st0{fill:#FFFFFF;}
	.st1{fill:#555B63;}
	.st2{fill:none;}
	.st3{font-family:'SegoeUI-Semibold';}
	.st4{font-size:81.6722px;}
	.st5{letter-spacing:-3;}
</style>
<g>
	<path class="st0" d="M52.2,82.5c0,0.8,0.9,2.2,1.3,2.1c8.1-0.5,15.2-3.4,21-8.9C67.1,68.3,59.8,61,52.3,53.5
		c-0.1,0.9-0.2,1.7-0.2,2.5c0,3.6,0,7.2,0,10.8C52.1,72.1,52.1,77.3,52.2,82.5z"/>
	<path class="st0" d="M52.3,15.1c0,10.2,0,20.4,0,30.8c7.4-7.4,14.7-14.7,22-21.9C69.9,18.8,59.1,14.4,52.3,15.1z"/>
	<path class="st0" d="M83.4,50.9C74.5,51,65.7,51,56.9,51c-0.7,0-1.4,0.2-2.2,0.3C62.2,58.7,69.4,66,77,73.7
		c0.3-0.5,0.6-1.1,0.9-1.5c4.4-5.4,7.1-11.4,7.8-18.4C86,51.6,85.6,50.9,83.4,50.9z"/>
	<path class="st0" d="M77.2,26.7c-7.5,7.4-14.8,14.6-22.1,21.7c10,0,20.3,0,30.7,0C85.6,39.8,82.6,32.5,77.2,26.7z"/>
	<path class="st0" d="M49.6,84.7c0-10.5,0-20.7,0-31.2C42,61,34.8,68.2,27.4,75.6C33.6,81.4,40.9,84.4,49.6,84.7z"/>
	<path class="st0" d="M49.6,15.1c-6.9-0.7-18.8,4.3-21.8,9c7.3,7.3,14.5,14.5,21.8,21.8C49.6,35.6,49.6,25.3,49.6,15.1z"/>
	<path class="st0" d="M16.1,48.4c10.5,0,20.8,0,30.9,0C39.7,41,32.5,33.8,25.2,26.3C19.4,32.5,16.4,39.8,16.1,48.4z"/>
	<path class="st0" d="M47.5,51c-1.3,0-2.2,0-3.1,0c-7.9,0-15.8,0-23.7,0c-6.1,0-4.8,0.1-4.1,4.8c1,6.8,3.9,12.7,8.6,17.6
		C32.6,66,39.8,58.7,47.5,51z"/>
	<path class="st1" d="M51.2,2.9C25.1,2.9,4.1,23.7,4,49.8C3.9,75.8,24.9,97,50.9,97.1c26,0.1,47.2-20.9,47.3-46.9
		C98.3,24,77.4,3,51.2,2.9z M77.2,26.7c5.4,5.8,8.3,13.1,8.6,21.7c-10.4,0-20.7,0-30.7,0C62.4,41.3,69.7,34.1,77.2,26.7z M52.3,46
		c0-10.4,0-20.6,0-30.8c6.7-0.7,17.5,3.7,22,8.9C67.1,31.3,59.8,38.5,52.3,46z M52.1,56.1c0-0.8,0.1-1.6,0.2-2.5
		c7.5,7.5,14.7,14.8,22.2,22.2c-5.8,5.5-12.9,8.4-21,8.9c-0.4,0-1.3-1.4-1.3-2.1c-0.1-5.2-0.1-10.4-0.1-15.6
		C52.1,63.3,52.1,59.7,52.1,56.1z M77,73.7c-7.7-7.7-14.9-15-22.3-22.5c0.8-0.1,1.5-0.3,2.2-0.3c8.9,0,17.7,0.1,26.5-0.1
		c2.3,0,2.6,0.7,2.4,2.9c-0.8,6.9-3.4,13-7.8,18.4C77.6,72.6,77.3,73.2,77,73.7z M20.7,51c7.9,0.1,15.8,0,23.7,0c0.9,0,1.8,0,3.1,0
		c-7.7,7.8-14.9,15-22.3,22.4c-4.7-4.9-7.7-10.8-8.6-17.6C15.9,51.1,14.6,50.9,20.7,51z M47,48.4c-10.1,0-20.4,0-30.9,0
		c0.3-8.6,3.3-15.9,9.1-22.1C32.5,33.7,39.7,41,47,48.4z M27.7,24.1c3-4.6,14.9-9.7,21.8-9c0,10.2,0,20.4,0,30.8
		C42.2,38.6,35,31.4,27.7,24.1z M49.6,84.7c-8.7-0.3-16-3.3-22.2-9.1C34.8,68.2,42,61,49.6,53.5C49.6,64,49.6,74.2,49.6,84.7z"/>
</g>
<rect x="78.7" y="-92.4" class="st2" width="443.5" height="89.8"/>
<text transform="matrix(1 0 0 1 104.2286 80.1103)" class="st1 st3 st4 st5">MOONLIGHT</text>
</svg>
