<?xml version="1.0" encoding="UTF-8" standalone="no"?>
<!-- Generator: Adobe Illustrator 22.0.1, SVG Export Plug-In . SVG Version: 6.00 Build 0)  -->

<svg
   xmlns:dc="http://purl.org/dc/elements/1.1/"
   xmlns:cc="http://creativecommons.org/ns#"
   xmlns:rdf="http://www.w3.org/1999/02/22-rdf-syntax-ns#"
   xmlns:svg="http://www.w3.org/2000/svg"
   xmlns="http://www.w3.org/2000/svg"
   xmlns:sodipodi="http://sodipodi.sourceforge.net/DTD/sodipodi-0.dtd"
   xmlns:inkscape="http://www.inkscape.org/namespaces/inkscape"
   version="1.1"
   id="Layer_1"
   x="0px"
   y="0px"
   viewBox="0 0 590.74664 94.200355"
   xml:space="preserve"
   sodipodi:docname="moonlight.svg"
   width="590.74664"
   height="94.200356"
   inkscape:version="0.92.1 r15371"><metadata
     id="metadata3711"><rdf:RDF><cc:Work
         rdf:about=""><dc:format>image/svg+xml</dc:format><dc:type
           rdf:resource="http://purl.org/dc/dcmitype/StillImage" /><dc:title></dc:title></cc:Work></rdf:RDF></metadata><defs
     id="defs3709" /><sodipodi:namedview
     pagecolor="#ffffff"
     bordercolor="#666666"
     borderopacity="1"
     objecttolerance="10"
     gridtolerance="10"
     guidetolerance="10"
     inkscape:pageopacity="0"
     inkscape:pageshadow="2"
     inkscape:window-width="1920"
     inkscape:window-height="1001"
     id="namedview3707"
     showgrid="false"
     inkscape:zoom="1.5547703"
     inkscape:cx="288.9823"
     inkscape:cy="124.61567"
     inkscape:window-x="-9"
     inkscape:window-y="-9"
     inkscape:window-maximized="1"
     inkscape:current-layer="text3704" /><style
     type="text/css"
     id="style3680">
	.st0{fill:#FFFFFF;}
	.st1{fill:#555B63;}
	.st2{fill:none;}
	.st3{font-family:'SegoeUI-Semibold';}
	.st4{font-size:81.6722px;}
	.st5{letter-spacing:-3;}
</style><rect
     x="74.700356"
     y="-95.300003"
     class="st2"
     width="443.5"
     height="89.800003"
     id="rect3702"
     style="fill:none" /><g
     aria-label="MOONLIGHT"
     style="font-size:81.67220306px;font-family:SegoeUI-Semibold;letter-spacing:-3;fill:#555b63"
     id="text3704"><g
       id="g4568"><g
         transform="translate(-3.9996443,-2.9)"
         id="g3700"
         style=""><path
           style="fill:#ffffff"
           inkscape:connector-curvature="0"
           id="path3682"
           d="m 52.2,82.5 c 0,0.8 0.9,2.2 1.3,2.1 8.1,-0.5 15.2,-3.4 21,-8.9 C 67.1,68.3 59.8,61 52.3,53.5 c -0.1,0.9 -0.2,1.7 -0.2,2.5 0,3.6 0,7.2 0,10.8 0,5.3 0,10.5 0.1,15.7 z"
           class="st0" /><path
           style="fill:#ffffff"
           inkscape:connector-curvature="0"
           id="path3684"
           d="m 52.3,15.1 c 0,10.2 0,20.4 0,30.8 C 59.7,38.5 67,31.2 74.3,24 69.9,18.8 59.1,14.4 52.3,15.1 Z"
           class="st0" /><path
           style="fill:#ffffff"
           inkscape:connector-curvature="0"
           id="path3686"
           d="M 83.4,50.9 C 74.5,51 65.7,51 56.9,51 c -0.7,0 -1.4,0.2 -2.2,0.3 7.5,7.4 14.7,14.7 22.3,22.4 0.3,-0.5 0.6,-1.1 0.9,-1.5 4.4,-5.4 7.1,-11.4 7.8,-18.4 0.3,-2.2 -0.1,-2.9 -2.3,-2.9 z"
           class="st0" /><path
           style="fill:#ffffff"
           inkscape:connector-curvature="0"
           id="path3688"
           d="m 77.2,26.7 c -7.5,7.4 -14.8,14.6 -22.1,21.7 10,0 20.3,0 30.7,0 -0.2,-8.6 -3.2,-15.9 -8.6,-21.7 z"
           class="st0" /><path
           style="fill:#ffffff"
           inkscape:connector-curvature="0"
           id="path3690"
           d="m 49.6,84.7 c 0,-10.5 0,-20.7 0,-31.2 C 42,61 34.8,68.2 27.4,75.6 c 6.2,5.8 13.5,8.8 22.2,9.1 z"
           class="st0" /><path
           style="fill:#ffffff"
           inkscape:connector-curvature="0"
           id="path3692"
           d="m 49.6,15.1 c -6.9,-0.7 -18.8,4.3 -21.8,9 7.3,7.3 14.5,14.5 21.8,21.8 0,-10.3 0,-20.6 0,-30.8 z"
           class="st0" /><path
           style="fill:#ffffff"
           inkscape:connector-curvature="0"
           id="path3694"
           d="m 16.1,48.4 c 10.5,0 20.8,0 30.9,0 C 39.7,41 32.5,33.8 25.2,26.3 19.4,32.5 16.4,39.8 16.1,48.4 Z"
           class="st0" /><path
           style="fill:#ffffff"
           inkscape:connector-curvature="0"
           id="path3696"
           d="m 47.5,51 c -1.3,0 -2.2,0 -3.1,0 -7.9,0 -15.8,0 -23.7,0 -6.1,0 -4.8,0.1 -4.1,4.8 1,6.8 3.9,12.7 8.6,17.6 C 32.6,66 39.8,58.7 47.5,51 Z"
           class="st0" /><path
           style="fill:#555b63"
           inkscape:connector-curvature="0"
           id="path3698"
           d="M 51.2,2.9 C 25.1,2.9 4.1,23.7 4,49.8 3.9,75.8 24.9,97 50.9,97.1 76.9,97.2 98.1,76.2 98.2,50.2 98.3,24 77.4,3 51.2,2.9 Z m 26,23.8 c 5.4,5.8 8.3,13.1 8.6,21.7 -10.4,0 -20.7,0 -30.7,0 7.3,-7.1 14.6,-14.3 22.1,-21.7 z M 52.3,46 c 0,-10.4 0,-20.6 0,-30.8 6.7,-0.7 17.5,3.7 22,8.9 -7.2,7.2 -14.5,14.4 -22,21.9 z m -0.2,10.1 c 0,-0.8 0.1,-1.6 0.2,-2.5 7.5,7.5 14.7,14.8 22.2,22.2 -5.8,5.5 -12.9,8.4 -21,8.9 -0.4,0 -1.3,-1.4 -1.3,-2.1 -0.1,-5.2 -0.1,-10.4 -0.1,-15.6 0,-3.7 0,-7.3 0,-10.9 z M 77,73.7 C 69.3,66 62.1,58.7 54.7,51.2 c 0.8,-0.1 1.5,-0.3 2.2,-0.3 8.9,0 17.7,0.1 26.5,-0.1 2.3,0 2.6,0.7 2.4,2.9 -0.8,6.9 -3.4,13 -7.8,18.4 -0.4,0.5 -0.7,1.1 -1,1.6 z M 20.7,51 c 7.9,0.1 15.8,0 23.7,0 0.9,0 1.8,0 3.1,0 C 39.8,58.8 32.6,66 25.2,73.4 20.5,68.5 17.5,62.6 16.6,55.8 15.9,51.1 14.6,50.9 20.7,51 Z M 47,48.4 c -10.1,0 -20.4,0 -30.9,0 0.3,-8.6 3.3,-15.9 9.1,-22.1 C 32.5,33.7 39.7,41 47,48.4 Z M 27.7,24.1 c 3,-4.6 14.9,-9.7 21.8,-9 0,10.2 0,20.4 0,30.8 C 42.2,38.6 35,31.4 27.7,24.1 Z M 49.6,84.7 C 40.9,84.4 33.6,81.4 27.4,75.6 34.8,68.2 42,61 49.6,53.5 c 0,10.5 0,20.7 0,31.2 z"
           class="st1" /></g><path
         id="path4520"
         style="font-style:normal;font-variant:normal;font-weight:normal;font-stretch:normal;font-size:81.6720047px;font-family:'Eras Demi ITC';-inkscape-font-specification:'Eras Demi ITC, Normal';font-variant-ligatures:normal;font-variant-caps:normal;font-variant-numeric:normal;font-feature-settings:normal;text-align:start;writing-mode:lr-tb;text-anchor:start;fill:#666c77;fill-opacity:1"
         d="m 103.9377,77.210297 1.03685,-9.012634 2.63201,-31.663853 0.91721,-13.758224 q 5.70269,0.07976 8.33469,0.07976 2.11359,0 7.69663,-0.07976 0.63806,3.230192 0.9571,4.586075 0.31903,1.355883 1.23624,4.346801 0.91722,2.990918 2.35286,7.257961 2.11358,6.460384 3.78849,12.761251 l 3.0308,11.405368 5.34378,-14.63556 7.77638,-19.022239 q 0.39879,-0.957094 0.79758,-2.19334 0.43867,-1.276125 1.43564,-4.506317 4.74559,0.07976 8.45433,0.07976 2.47249,0 7.89602,-0.07976 -0.5583,11.485126 -0.83745,25.402865 -0.27916,13.87786 -0.27916,20.737033 0,3.309949 0.0798,8.294813 -3.94801,-0.07976 -5.38365,-0.07976 -2.0737,0 -5.50329,0.07976 0.23927,-4.067649 0.31903,-6.699657 l 0.67794,-23.727951 q 0.11964,-5.024742 0.11964,-9.889969 l -0.0399,-3.230192 -14.71532,38.802179 -1.71479,4.74559 q -3.86825,-0.07976 -5.30389,-0.07976 -1.79456,0 -5.62293,0.07976 l -6.85917,-24.565408 q -0.35891,-1.316004 -1.67492,-5.503289 l -2.47249,-8.135298 q -0.35891,-1.156488 -0.5583,-1.874308 -0.15952,-0.7577 -0.7577,-3.30995 l -0.51843,5.1045 q -0.19939,2.432614 -0.59818,8.135298 l -1.55528,24.724923 q -0.0798,1.83443 -0.11964,5.423532 l -5.14438,-0.07976 q -1.316,0 -5.22413,0.07976 z" /><path
         id="path4522"
         style="font-style:normal;font-variant:normal;font-weight:normal;font-stretch:normal;font-size:81.6720047px;font-family:'Eras Demi ITC';-inkscape-font-specification:'Eras Demi ITC, Normal';font-variant-ligatures:normal;font-variant-caps:normal;font-variant-numeric:normal;font-feature-settings:normal;text-align:start;writing-mode:lr-tb;text-anchor:start;fill:#666c77;fill-opacity:1"
         d="m 205.3008,21.818493 q 5.94196,0 11.40537,1.635035 5.46341,1.635035 9.69057,5.343774 4.22717,3.668859 6.38063,8.573965 2.15346,4.905106 2.15346,11.445247 0,6.141352 -2.03383,11.764278 -2.03382,5.583047 -6.30086,9.650696 -4.26705,4.027769 -10.4084,5.981836 -6.10147,1.954066 -12.84101,1.954066 -6.38062,0 -12.2827,-1.79455 -5.8622,-1.794551 -10.12924,-5.622927 -4.22717,-3.828375 -6.0616,-8.773359 -1.83443,-4.984864 -1.83443,-10.767306 0,-6.340746 2.2731,-12.123188 2.31298,-5.782442 6.73954,-9.570938 4.46643,-3.788496 10.40839,-5.742563 5.98184,-1.954066 12.84101,-1.954066 z m -0.63806,8.494207 q -6.02172,0 -10.48816,2.791524 -4.46643,2.751644 -6.73953,7.576992 -2.23322,4.785469 -2.23322,10.368517 0,5.184258 2.15346,9.570938 2.19334,4.346801 6.69966,6.659777 4.50631,2.273098 9.73045,2.273098 3.94801,0 7.53711,-1.355883 3.58911,-1.355883 6.18124,-4.107527 2.632,-2.791524 3.94801,-6.699657 1.316,-3.908133 1.316,-8.135297 0,-3.948012 -1.19637,-7.576993 -1.15648,-3.628981 -3.62898,-6.22111 -2.47249,-2.632008 -5.98183,-3.868254 -3.46947,-1.276125 -7.29784,-1.276125 z" /><path
         id="path4524"
         style="font-style:normal;font-variant:normal;font-weight:normal;font-stretch:normal;font-size:81.6720047px;font-family:'Eras Demi ITC';-inkscape-font-specification:'Eras Demi ITC, Normal';font-variant-ligatures:normal;font-variant-caps:normal;font-variant-numeric:normal;font-feature-settings:normal;text-align:start;writing-mode:lr-tb;text-anchor:start;fill:#666c77;fill-opacity:1"
         d="m 270.41397,21.818493 q 5.94195,0 11.40536,1.635035 5.46341,1.635035 9.69058,5.343774 4.22716,3.668859 6.38062,8.573965 2.15347,4.905106 2.15347,11.445247 0,6.141352 -2.03383,11.764278 -2.03382,5.583047 -6.30087,9.650696 -4.26704,4.027769 -10.40839,5.981836 -6.10147,1.954066 -12.84101,1.954066 -6.38063,0 -12.2827,-1.79455 -5.8622,-1.794551 -10.12925,-5.622927 -4.22716,-3.828375 -6.06159,-8.773359 -1.83443,-4.984864 -1.83443,-10.767306 0,-6.340746 2.2731,-12.123188 2.31297,-5.782442 6.73953,-9.570938 4.46644,-3.788496 10.4084,-5.742563 5.98183,-1.954066 12.84101,-1.954066 z M 269.7759,30.3127 q -6.02171,0 -10.48815,2.791524 -4.46644,2.751644 -6.73953,7.576992 -2.23322,4.785469 -2.23322,10.368517 0,5.184258 2.15346,9.570938 2.19334,4.346801 6.69965,6.659777 4.50632,2.273098 9.73046,2.273098 3.94801,0 7.53711,-1.355883 3.5891,-1.355883 6.18123,-4.107527 2.63201,-2.791524 3.94801,-6.699657 1.31601,-3.908133 1.31601,-8.135297 0,-3.948012 -1.19637,-7.576993 -1.15649,-3.628981 -3.62898,-6.22111 -2.47249,-2.632008 -5.98184,-3.868254 Q 273.60428,30.3127 269.7759,30.3127 Z" /><path
         id="path4526"
         style="font-style:normal;font-variant:normal;font-weight:normal;font-stretch:normal;font-size:81.6720047px;font-family:'Eras Demi ITC';-inkscape-font-specification:'Eras Demi ITC, Normal';font-variant-ligatures:normal;font-variant-caps:normal;font-variant-numeric:normal;font-feature-settings:normal;text-align:start;writing-mode:lr-tb;text-anchor:start;fill:#666c77;fill-opacity:1"
         d="m 304.58112,77.210297 q 0.7577,-7.138325 1.15649,-16.031322 l 0.91722,-19.540665 q 0.47854,-10.607789 0.47854,-18.862724 4.62596,0.07976 7.85615,0.07976 2.39273,0 6.97881,-0.07976 4.50631,7.856145 12.44222,20.497759 7.9359,12.641614 12.80113,20.936427 l 1.47552,-37.007627 q 0.0399,-1.316004 0.0399,-4.426559 3.74862,0.07976 5.66281,0.07976 0.7577,0 5.58305,-0.07976 l -0.99698,14.63556 -1.23624,25.043954 -0.47855,14.755197 q -4.14741,-0.07976 -7.05857,-0.07976 -2.31297,0 -7.49723,0.07976 -1.99395,-3.549223 -3.0308,-5.264016 -1.63503,-2.632008 -6.97881,-10.847063 -3.50934,-5.423532 -8.77336,-13.877861 -3.86825,-6.221109 -6.61989,-10.847063 -0.31904,6.460383 -0.99698,23.967224 -0.27915,7.138325 -0.43867,16.868779 -3.74861,-0.07976 -5.42353,-0.07976 -1.316,0 -5.8622,0.07976 z" /><path
         id="path4528"
         style="font-style:normal;font-variant:normal;font-weight:normal;font-stretch:normal;font-size:81.6720047px;font-family:'Eras Demi ITC';-inkscape-font-specification:'Eras Demi ITC, Normal';font-variant-ligatures:normal;font-variant-caps:normal;font-variant-numeric:normal;font-feature-settings:normal;text-align:start;writing-mode:lr-tb;text-anchor:start;fill:#666c77;fill-opacity:1"
         d="m 365.58676,77.210297 q 1.19637,-12.003552 1.91419,-26.718869 0.71782,-14.755196 0.83746,-27.715842 4.06764,0.07976 6.77941,0.07976 1.83443,0 5.8622,-0.07976 -0.51843,7.178204 -0.95709,16.350353 l -0.79758,15.991442 q -0.35891,6.859173 -0.51843,13.638587 l 6.85917,0.07976 q 9.6507,0 12.6815,-0.03988 3.03079,-0.07976 5.98183,-0.239274 -0.35891,3.908134 -0.63806,8.653724 -10.48815,-0.07976 -17.94551,-0.07976 l -12.56185,0.03988 z" /><path
         id="path4530"
         style="font-style:normal;font-variant:normal;font-weight:normal;font-stretch:normal;font-size:81.6720047px;font-family:'Eras Demi ITC';-inkscape-font-specification:'Eras Demi ITC, Normal';font-variant-ligatures:normal;font-variant-caps:normal;font-variant-numeric:normal;font-feature-settings:normal;text-align:start;writing-mode:lr-tb;text-anchor:start;fill:#666c77;fill-opacity:1"
         d="m 406.81246,77.210297 q 0.9571,-13.718345 1.55528,-28.114631 0.59818,-14.436165 0.59818,-22.053036 l -0.0399,-4.267044 6.65978,0.07976 q 0.55831,0 6.10147,-0.07976 -1.63503,20.976306 -2.0737,54.434711 l -5.8622,-0.07976 q -1.47552,0 -6.93893,0.07976 z" /><path
         id="path4532"
         style="font-style:normal;font-variant:normal;font-weight:normal;font-stretch:normal;font-size:81.6720047px;font-family:'Eras Demi ITC';-inkscape-font-specification:'Eras Demi ITC, Normal';font-variant-ligatures:normal;font-variant-caps:normal;font-variant-numeric:normal;font-feature-settings:normal;text-align:start;writing-mode:lr-tb;text-anchor:start;fill:#666c77;fill-opacity:1"
         d="m 459.20426,46.104748 q 5.50329,0.07976 10.52803,0.07976 6.58002,0 10.9667,-0.07976 -1.03685,13.359434 -1.47552,29.669908 -6.6199,1.316004 -11.96367,1.83443 -5.34378,0.558304 -9.09239,0.558304 -7.01869,0 -13.04041,-1.475519 -5.98183,-1.47552 -10.12924,-4.785469 -4.14741,-3.30995 -6.34075,-8.693602 -2.15346,-5.423532 -2.15346,-11.445247 0,-5.144379 1.59516,-9.929848 1.63503,-4.785469 4.78547,-8.77336 3.19031,-3.987891 7.65675,-6.619899 4.50632,-2.671887 9.53106,-3.628981 5.06462,-0.996972 10.68755,-0.996972 7.7365,0 17.78599,2.073703 0.0399,4.546195 0.43867,9.531059 -9.41143,-3.190313 -17.0283,-3.190313 -4.9051,0 -9.29178,1.395762 -4.3468,1.395762 -7.53712,4.346801 -3.15043,2.911161 -4.82534,7.257962 -1.63504,4.306922 -1.63504,8.932875 0,5.144379 1.87431,9.212028 1.91419,4.02777 6.38062,6.260989 4.46644,2.233218 10.24888,2.233218 2.11359,0 4.98487,-0.35891 2.87128,-0.398789 5.98183,-1.316004 l 0.63807,-13.997497 -3.15044,-0.03988 q -2.67188,0 -6.77941,0.119637 0.35891,-5.343774 0.35891,-8.175176 z" /><path
         id="path4534"
         style="font-style:normal;font-variant:normal;font-weight:normal;font-stretch:normal;font-size:81.6720047px;font-family:'Eras Demi ITC';-inkscape-font-specification:'Eras Demi ITC, Normal';font-variant-ligatures:normal;font-variant-caps:normal;font-variant-numeric:normal;font-feature-settings:normal;text-align:start;writing-mode:lr-tb;text-anchor:start;fill:#666c77;fill-opacity:1"
         d="m 487.11044,77.210297 0.91721,-14.316529 q 0.7577,-11.724399 1.07673,-21.734005 0.31903,-10.049485 0.31903,-13.997497 l -0.0399,-4.38668 q 4.70571,0.07976 6.65978,0.07976 1.47552,0 6.02172,-0.07976 l -1.03686,17.985388 -0.11963,4.147407 27.19741,-0.03988 0.47855,-10.767306 q 0.15952,-5.543168 0.15952,-7.29784 v -4.02777 l 6.65977,0.07976 q 0.87734,0 5.98184,-0.07976 l -1.316,21.734006 -0.59819,16.111079 -0.15951,9.451301 q -0.0798,5.822321 -0.0798,7.138325 l -6.22111,-0.07976 q -1.15649,0 -6.6199,0.07976 1.03685,-11.285731 1.316,-23.727951 h -27.23729 l -0.5583,14.675438 -0.15952,9.052513 -6.54014,-0.07976 q -1.07673,0 -6.10147,0.07976 z" /><path
         id="path4536"
         style="font-style:normal;font-variant:normal;font-weight:normal;font-stretch:normal;font-size:81.6720047px;font-family:'Eras Demi ITC';-inkscape-font-specification:'Eras Demi ITC, Normal';font-variant-ligatures:normal;font-variant-caps:normal;font-variant-numeric:normal;font-feature-settings:normal;text-align:start;writing-mode:lr-tb;text-anchor:start;fill:#666c77;fill-opacity:1"
         d="m 559.12265,77.210297 0.87734,-11.644642 0.87734,-17.347325 0.5583,-17.068173 h -2.79152 l -2.59213,0.03988 -2.4725,0.03988 -9.21202,0.279152 q 0.31903,-5.742562 0.35891,-8.733481 11.48512,0.07976 24.04698,0.07976 l 14.31653,-0.03988 7.65675,-0.03988 q -0.39879,5.622927 -0.39879,8.653724 -7.21808,-0.358911 -13.83798,-0.358911 h -3.07068 l -0.47855,7.297841 -1.15648,28.074751 -0.0798,4.705712 q -0.0399,2.91116 -0.0399,6.061594 l -6.06159,-0.07976 q -0.99698,0 -6.50027,0.07976 z" /></g></g></svg>