<?xml version="1.0" standalone="no"?><!-- Generator: Gravit.io --><svg xmlns="http://www.w3.org/2000/svg" xmlns:xlink="http://www.w3.org/1999/xlink" style="isolation:isolate" viewBox="0 0 568.929 116.145" width="568.929" height="116.145"><g id="null"><g id="null"><path d=" M 84.564 54.915 C 84.564 55.283 84.309 55.539 83.798 55.681 C 83.185 55.844 81.285 55.926 78.097 55.926 C 75.175 55.926 73.295 55.844 72.457 55.681 C 71.762 55.538 71.323 55.078 71.139 54.302 C 70.444 51.36 69.903 49.786 69.514 49.582 C 69.187 49.439 66.449 49.368 61.3 49.368 C 57.826 49.368 55.977 49.46 55.752 49.643 C 55.404 49.97 55.016 51.064 54.587 52.923 C 54.199 54.619 53.729 55.539 53.177 55.682 C 52.482 55.845 50.153 55.927 46.188 55.927 C 43.062 55.927 41.499 55.631 41.499 55.038 C 41.499 54.507 43.808 47.978 48.426 35.452 C 53.432 21.904 56.15 14.456 56.579 13.107 C 56.824 12.331 57.11 11.942 57.437 11.942 C 57.989 11.942 58.842 11.993 59.997 12.095 C 61.151 12.198 62.015 12.248 62.587 12.248 C 63.139 12.248 63.951 12.212 65.024 12.141 C 66.097 12.07 66.899 12.034 67.43 12.034 C 67.818 12.034 68.176 12.371 68.503 13.046 C 69.504 15.192 72.426 22.548 77.269 35.115 C 82.133 47.763 84.564 54.363 84.564 54.915 Z  M 62.833 26.991 C 62.404 27.89 61.678 29.842 60.657 32.845 C 59.553 36.033 59.002 37.903 59.002 38.454 C 59.002 38.822 59.615 39.026 60.841 39.067 C 61.474 39.109 62.516 39.129 63.967 39.129 C 65.316 39.129 66.061 38.965 66.205 38.639 C 66.246 38.537 66.266 38.393 66.266 38.21 C 66.266 37.536 65.796 35.676 64.856 32.631 C 63.936 29.688 63.262 27.809 62.833 26.991 Z " fill="rgb(252,252,252)"/></g><g id="null"><path d=" M 119.967 12.186 C 119.967 11.737 119.885 12.411 119.721 14.209 C 119.496 16.478 119.323 19.379 119.2 22.914 C 119.036 26.919 118.955 31.477 118.955 36.585 C 118.955 45.024 119.19 51.032 119.66 54.608 C 119.701 54.996 119.721 55.242 119.721 55.343 C 119.721 55.568 119.568 55.7 119.262 55.742 C 118.526 55.844 115.818 55.895 111.139 55.895 C 110.035 55.895 109.402 55.681 109.239 55.251 C 109.197 54.475 109.157 53.698 109.116 52.921 C 109.095 52.758 109.014 52.594 108.871 52.431 C 108.748 52.492 108.595 52.615 108.412 52.799 C 106.205 54.966 103.446 56.048 100.136 56.048 C 95.824 56.048 92.37 54.536 89.776 51.512 C 87.303 48.631 86.067 44.993 86.067 40.6 C 86.067 36.145 87.283 32.477 89.714 29.596 C 92.289 26.531 95.762 24.998 100.136 24.998 C 103.221 24.998 105.622 25.979 107.339 27.94 C 107.625 28.267 107.829 28.431 107.952 28.431 C 108.136 28.431 108.228 28.165 108.228 27.634 C 108.228 26.06 108.187 23.71 108.105 20.584 C 108.023 17.458 107.982 15.118 107.982 13.565 C 107.982 12.973 108.145 12.635 108.472 12.554 C 109.78 12.492 111.578 12.37 113.867 12.186 C 117.954 11.676 119.763 11.42 119.292 11.42 C 119.742 11.42 119.967 11.676 119.967 12.186 Z  M 108.412 40.355 C 108.412 38.741 107.849 37.326 106.726 36.11 C 105.602 34.894 104.243 34.286 102.649 34.286 C 100.973 34.286 99.64 34.894 98.649 36.11 C 97.658 37.326 97.162 38.782 97.162 40.478 C 97.162 42.133 97.662 43.533 98.664 44.677 C 99.686 45.903 101.014 46.516 102.649 46.516 C 104.284 46.516 105.653 45.903 106.756 44.677 C 107.859 43.451 108.412 42.011 108.412 40.355 Z " fill="rgb(252,252,252)"/></g><g id="null"><path d=" M 153.991 34.409 C 153.991 37.903 153.878 39.967 153.654 40.6 C 153.184 42.051 151.774 44.514 149.424 47.987 C 147.381 50.97 145.633 53.3 144.183 54.975 C 143.651 55.609 142.047 55.925 139.37 55.925 C 137.04 55.925 135.528 55.843 134.834 55.68 C 134.405 55.578 134.047 55.373 133.761 55.067 C 132.535 53.739 130.788 51.43 128.519 48.14 C 126.087 44.605 124.637 42.183 124.166 40.875 C 123.655 39.465 123.4 37.35 123.4 34.53 C 123.4 33.733 123.41 32.533 123.431 30.928 C 123.451 29.324 123.461 28.113 123.461 27.296 C 123.461 26.765 123.818 26.499 124.534 26.499 C 125.576 26.499 127.144 26.53 129.239 26.591 C 131.334 26.653 132.902 26.683 133.944 26.683 C 134.414 26.683 134.649 27 134.649 27.633 C 134.649 28.205 134.608 29.069 134.526 30.223 C 134.444 31.378 134.403 32.251 134.403 32.844 C 134.403 34.969 134.464 36.706 134.587 38.055 C 134.648 38.75 135.24 40.058 136.364 41.978 C 137.529 44.001 138.377 45.013 138.908 45.013 C 139.418 45.013 140.236 44.022 141.36 42.039 C 142.443 40.18 143.025 38.913 143.107 38.238 C 143.27 36.787 143.352 35.03 143.352 32.966 C 143.352 32.374 143.29 31.48 143.168 30.284 C 143.045 29.088 142.984 28.205 142.984 27.633 C 142.984 27 143.198 26.683 143.628 26.683 C 144.118 26.683 144.849 26.693 145.819 26.713 C 146.79 26.734 147.52 26.744 148.011 26.744 C 148.501 26.744 149.241 26.703 150.233 26.621 C 151.224 26.539 151.965 26.498 152.455 26.498 C 152.966 26.498 153.303 26.764 153.466 27.295 C 153.817 28.462 153.991 30.833 153.991 34.409 Z " fill="rgb(252,252,252)"/></g><g id="null"><path d=" M 186.236 39.037 C 186.236 41.101 185.572 42.276 184.244 42.562 C 184.019 42.603 181.904 42.828 177.899 43.236 C 175.488 43.502 171.892 43.818 167.11 44.186 C 167.396 45.515 168.264 46.526 169.715 47.22 C 170.9 47.792 172.248 48.078 173.761 48.078 C 175.579 48.078 177.408 47.588 179.247 46.607 C 180.023 46.116 180.8 45.626 181.577 45.136 C 182.006 45.34 182.726 46.383 183.738 48.262 C 184.749 50.142 185.255 51.338 185.255 51.848 C 185.255 51.991 185.102 52.226 184.796 52.553 C 182.302 55.23 178.43 56.568 173.179 56.568 C 168.316 56.568 164.392 55.148 161.409 52.308 C 158.344 49.427 156.811 45.575 156.811 40.752 C 156.811 36.052 158.18 32.2 160.918 29.196 C 163.738 26.09 167.478 24.537 172.137 24.537 C 176.06 24.537 179.391 25.968 182.129 28.829 C 184.867 31.69 186.236 35.094 186.236 39.037 Z  M 175.508 37.167 C 175.508 35.9 175.058 34.787 174.159 33.826 C 173.26 32.866 172.187 32.386 170.941 32.386 C 169.653 32.386 168.591 32.928 167.753 34.011 C 166.976 35.012 166.588 36.187 166.588 37.536 C 166.588 38.088 166.874 38.364 167.446 38.364 C 168.958 38.364 171.308 38.129 174.496 37.659 C 175.171 37.556 175.508 37.392 175.508 37.167 Z " fill="rgb(252,252,252)"/></g><g id="null"><path d=" M 220.075 54.792 C 220.075 55.343 219.789 55.661 219.217 55.742 C 218.645 55.823 217.153 55.865 214.742 55.865 C 212.167 55.865 210.573 55.803 209.96 55.681 C 209.347 55.558 209.041 55.14 209.041 54.424 C 209.041 53.464 209.071 52.013 209.133 50.071 C 209.195 48.13 209.225 46.669 209.225 45.688 C 209.225 44.932 209.204 43.803 209.164 42.301 C 209.122 40.799 209.102 39.67 209.102 38.914 C 209.102 36.115 207.886 34.715 205.455 34.715 C 204.658 34.715 203.728 35.063 202.666 35.757 C 201.521 36.534 200.949 37.3 200.949 38.056 L 200.949 54.608 C 200.949 55.282 200.632 55.661 199.999 55.742 C 199.284 55.823 197.823 55.865 195.616 55.865 C 193.225 55.865 191.672 55.803 190.957 55.681 C 190.323 55.579 190.007 55.242 190.007 54.669 C 190.007 53.075 190.017 50.674 190.038 47.466 C 190.058 44.258 190.068 41.847 190.068 40.233 C 190.068 35.145 189.67 31.15 188.873 28.248 C 188.832 28.064 188.812 27.911 188.812 27.788 C 188.812 27.461 188.965 27.236 189.271 27.114 C 190.559 26.971 192.275 26.746 194.42 26.44 C 197.669 25.807 199.498 25.49 199.907 25.49 C 200.132 25.49 200.305 26.18 200.428 27.559 C 200.551 28.938 200.724 29.628 200.949 29.628 C 200.724 29.628 201.823 28.918 204.244 27.498 C 206.665 26.078 208.785 25.368 210.604 25.368 C 213.199 25.368 215.365 25.981 217.102 27.207 C 219.043 28.617 220.014 30.579 220.014 33.092 L 220.014 42.87 C 220.014 44.199 220.024 46.186 220.045 48.832 C 220.064 51.477 220.075 53.464 220.075 54.792 Z " fill="rgb(252,252,252)"/></g><g id="null"><path d=" M 245.7 46.7 C 245.7 47.313 245.623 48.243 245.47 49.49 C 245.317 50.737 245.24 51.651 245.24 52.233 C 245.24 52.815 245.179 53.189 245.056 53.352 C 244.933 53.516 244.596 53.75 244.044 54.057 C 241.408 55.508 238.485 56.233 235.278 56.233 C 229.372 56.233 226.42 53.975 226.42 49.459 C 226.42 48.11 226.471 46.083 226.573 43.375 C 226.675 40.667 226.726 38.64 226.726 37.291 C 226.726 36.392 226.205 35.942 225.163 35.942 C 225.081 35.942 224.949 35.942 224.765 35.942 C 224.581 35.963 224.448 35.973 224.367 35.973 C 223.59 35.973 223.202 35.697 223.202 35.145 C 223.202 34.818 223.227 34.317 223.279 33.643 C 223.33 32.969 223.356 32.468 223.356 32.141 C 223.356 31.712 223.33 31.058 223.279 30.18 C 223.228 29.302 223.202 28.647 223.202 28.218 C 223.202 27.81 223.856 27.585 225.164 27.544 C 225.9 27.524 226.298 27.319 226.359 26.931 C 226.482 26.155 226.523 24.929 226.482 23.253 C 226.4 20.617 226.359 19.36 226.359 19.483 C 226.359 17.112 226.584 15.927 227.033 15.927 C 227.585 15.927 228.371 16.05 229.393 16.295 C 230.558 16.561 231.365 16.714 231.814 16.755 C 232.856 16.898 234.429 17.092 236.534 17.337 C 237.045 17.379 237.301 17.552 237.301 17.858 C 237.301 18.675 237.234 19.911 237.102 21.566 C 236.969 23.221 236.903 24.468 236.903 25.306 C 236.903 26.307 237.199 26.808 237.792 26.808 C 238.507 26.808 239.59 26.777 241.041 26.716 C 242.492 26.655 243.585 26.624 244.321 26.624 C 244.77 26.624 244.995 26.777 244.995 27.084 C 244.995 27.554 244.944 28.259 244.842 29.199 C 244.739 30.139 244.689 30.844 244.689 31.314 C 244.689 31.805 244.699 32.52 244.72 33.46 C 244.74 34.4 244.751 35.115 244.751 35.606 C 244.751 36.035 244.455 36.25 243.862 36.25 C 243.453 36.25 242.769 36.235 241.808 36.204 C 240.847 36.173 240.163 36.158 239.755 36.158 L 237.456 36.158 C 237.149 36.158 236.996 36.608 236.996 37.507 C 236.996 37.997 236.996 38.723 236.996 39.683 C 237.016 40.664 237.027 41.39 237.027 41.859 C 237.027 43.575 237.221 44.761 237.609 45.415 C 238.161 46.293 239.244 46.733 240.858 46.733 C 241.369 46.733 242.1 46.616 243.05 46.38 C 244 46.145 244.669 46.027 245.058 46.027 C 245.485 46.026 245.7 46.251 245.7 46.7 Z " fill="rgb(252,252,252)"/></g><g id="null"><path d=" M 280.458 27.819 C 280.458 29.332 280.386 31.6 280.243 34.624 C 280.1 37.648 280.029 39.916 280.029 41.429 C 280.029 42.9 280.08 45.107 280.182 48.05 C 280.284 50.993 280.335 53.19 280.335 54.64 C 280.335 55.192 280.08 55.539 279.569 55.682 C 278.792 55.886 277.148 55.989 274.634 55.989 C 272.406 55.989 270.854 55.927 269.975 55.805 C 269.586 55.744 269.341 55.498 269.239 55.07 C 269.178 54.457 269.116 53.844 269.055 53.231 C 268.953 52.292 268.81 51.821 268.626 51.821 C 268.912 51.821 267.879 52.516 265.53 53.905 C 263.18 55.295 261.045 55.989 259.124 55.989 C 253.708 55.989 250.5 53.547 249.499 48.663 C 249.049 46.394 248.824 43.105 248.824 38.793 C 248.824 34.134 249.202 30.456 249.958 27.759 C 250.183 26.921 250.602 26.502 251.215 26.502 C 252.154 26.502 253.585 26.512 255.506 26.533 C 257.426 26.554 258.857 26.563 259.798 26.563 C 260.431 26.563 260.748 26.829 260.748 27.36 C 260.748 27.503 260.727 27.717 260.686 28.004 C 260.257 30.783 260.042 33.603 260.042 36.464 C 260.042 40.019 260.154 42.451 260.379 43.759 C 260.747 46.007 262.085 47.131 264.395 47.131 C 265.294 47.131 266.27 46.733 267.322 45.936 C 268.374 45.139 268.921 44.311 268.962 43.453 C 269.003 42.697 269.024 37.568 269.024 28.066 C 269.024 27.392 269.075 26.993 269.177 26.871 C 269.3 26.667 269.667 26.564 270.28 26.564 C 271.281 26.564 272.788 26.575 274.801 26.595 C 276.813 26.616 278.321 26.626 279.322 26.626 C 279.935 26.626 280.292 26.779 280.395 27.086 C 280.437 27.247 280.458 27.492 280.458 27.819 Z " fill="rgb(252,252,252)"/></g><g id="null"><path d=" M 305.838 36.585 C 305.838 37.382 305.399 37.78 304.52 37.78 C 304.132 37.78 303.565 37.755 302.819 37.703 C 302.073 37.652 301.516 37.626 301.149 37.626 C 299.453 37.626 298.298 37.892 297.685 38.423 C 297.072 38.955 296.765 40.027 296.765 41.641 C 296.765 42.52 296.781 43.853 296.812 45.641 C 296.842 47.43 296.858 48.763 296.858 49.641 C 296.858 50.234 296.898 51.118 296.98 52.292 C 297.062 53.467 297.103 54.341 297.103 54.913 C 297.103 55.403 296.765 55.679 296.091 55.741 C 295.111 55.822 293.609 55.864 291.585 55.864 C 289.644 55.864 288.091 55.802 286.926 55.68 C 286.252 55.598 285.915 55.262 285.915 54.668 C 285.915 53.034 285.925 50.587 285.946 47.327 C 285.966 44.068 285.976 41.621 285.976 39.986 C 285.976 35.184 285.537 31.23 284.658 28.124 C 284.617 27.94 284.597 27.787 284.597 27.664 C 284.597 27.358 284.75 27.154 285.056 27.051 C 286.18 26.928 287.825 26.704 289.991 26.377 C 293.22 25.744 294.885 25.427 294.987 25.427 C 295.355 25.427 295.59 26.071 295.692 27.358 C 295.794 28.645 295.978 29.289 296.244 29.289 C 295.958 29.289 296.796 28.753 298.758 27.68 C 300.719 26.607 302.61 26.071 304.428 26.071 C 305.573 26.071 306.145 26.316 306.145 26.807 C 306.145 27.4 306.083 28.237 305.961 29.32 C 305.838 30.485 305.767 31.323 305.746 31.834 C 305.746 32.427 305.756 33.213 305.776 34.194 C 305.817 35.4 305.838 36.197 305.838 36.585 Z " fill="rgb(252,252,252)"/></g><g id="null"><path d=" M 337.501 39.037 C 337.501 41.101 336.836 42.276 335.508 42.562 C 335.283 42.603 333.168 42.828 329.163 43.236 C 326.752 43.502 323.155 43.818 318.374 44.186 C 318.66 45.515 319.528 46.526 320.979 47.22 C 322.164 47.792 323.512 48.078 325.025 48.078 C 326.843 48.078 328.672 47.588 330.511 46.607 C 331.287 46.116 332.064 45.626 332.841 45.136 C 333.27 45.34 333.99 46.383 335.001 48.262 C 336.013 50.142 336.519 51.338 336.519 51.848 C 336.519 51.991 336.366 52.226 336.059 52.553 C 333.566 55.23 329.694 56.568 324.443 56.568 C 319.579 56.568 315.656 55.148 312.672 52.308 C 309.607 49.427 308.074 45.575 308.074 40.752 C 308.074 36.052 309.443 32.2 312.181 29.196 C 315 26.09 318.741 24.537 323.399 24.537 C 327.323 24.537 330.653 25.968 333.392 28.829 C 336.131 31.691 337.501 35.094 337.501 39.037 Z  M 326.772 37.167 C 326.772 35.9 326.323 34.787 325.423 33.826 C 324.524 32.866 323.45 32.386 322.204 32.386 C 320.917 32.386 319.854 32.928 319.016 34.011 C 318.24 35.012 317.851 36.187 317.851 37.536 C 317.851 38.088 318.137 38.364 318.709 38.364 C 320.221 38.364 322.571 38.129 325.759 37.659 C 326.435 37.556 326.772 37.392 326.772 37.167 Z " fill="rgb(252,252,252)"/></g><g id="null"><path d=" M 397.118 54.7 C 397.159 55.252 396.873 55.528 396.26 55.528 C 395.871 55.528 394.753 55.303 392.904 54.854 C 391.054 54.405 389.916 54.098 389.487 53.935 C 385.216 55.611 381.119 56.448 377.195 56.448 C 370.882 56.448 365.701 54.344 361.655 50.134 C 357.65 45.986 355.647 40.744 355.647 34.41 C 355.647 27.932 357.588 22.558 361.471 18.287 C 365.476 13.873 370.676 11.666 377.073 11.666 C 380.178 11.666 383.1 12.259 385.84 13.444 C 388.802 14.752 391.132 16.591 392.828 18.961 C 393.175 19.452 393.349 19.799 393.349 20.003 C 393.349 20.657 392.435 22.123 390.606 24.401 C 388.777 26.68 387.597 27.818 387.066 27.818 C 386.944 27.818 386.473 27.4 385.656 26.561 C 384.655 25.56 383.634 24.784 382.592 24.232 C 381.038 23.394 379.321 22.975 377.443 22.975 C 374.378 22.975 371.945 24.12 370.147 26.408 C 368.471 28.512 367.634 31.138 367.634 34.285 C 367.634 37.616 368.502 40.252 370.239 42.193 C 372.037 44.196 374.581 45.197 377.871 45.197 C 379.955 45.197 382.285 44.676 384.859 43.634 C 384.797 42.96 384.614 41.243 384.307 38.485 C 384.041 36.36 383.909 34.643 383.909 33.336 C 383.909 32.948 384.042 32.712 384.307 32.631 C 384.41 32.59 384.573 32.569 384.797 32.569 C 385.39 32.569 386.284 32.626 387.48 32.737 C 388.675 32.85 389.58 32.906 390.193 32.906 C 390.846 32.906 391.827 32.86 393.135 32.768 C 394.443 32.676 395.423 32.63 396.077 32.63 C 396.588 32.63 396.844 32.967 396.844 33.641 C 396.844 34.622 396.787 36.104 396.675 38.086 C 396.563 40.068 396.506 41.549 396.506 42.53 C 396.506 45.166 396.7 49.11 397.089 54.362 L 397.118 54.7 Z " fill="rgb(252,252,252)"/></g><g id="null"><path d=" M 431.999 40.355 C 431.999 41.929 432.091 44.268 432.274 47.374 C 432.459 50.48 432.55 52.81 432.55 54.363 C 432.55 55.18 432.193 55.619 431.477 55.681 C 428.944 55.865 426.041 55.957 422.772 55.957 C 422.384 55.957 422.124 55.37 421.991 54.194 C 421.858 53.019 421.7 52.422 421.516 52.401 C 421.352 52.483 421.137 52.657 420.871 52.922 C 418.583 55.232 416.131 56.386 413.516 56.386 C 409.531 56.386 406.231 54.813 403.615 51.666 C 401.142 48.723 399.907 45.209 399.907 41.122 C 399.907 36.402 401.183 32.601 403.738 29.72 C 406.394 26.737 410.032 25.245 414.65 25.245 C 417.858 25.245 420.392 26.369 422.252 28.617 C 422.333 28.72 422.405 28.77 422.467 28.77 C 422.651 28.77 422.86 28.275 423.095 27.284 C 423.329 26.293 423.611 25.797 423.938 25.797 C 424.694 25.797 426.134 26.012 428.26 26.441 C 430.282 26.85 431.734 27.197 432.613 27.483 C 432.92 27.606 433.073 27.769 433.073 27.973 C 433.073 28.055 433.042 28.269 432.98 28.617 C 432.325 32.314 431.999 36.228 431.999 40.355 Z  M 422.129 40.539 C 422.129 38.802 421.582 37.366 420.489 36.232 C 419.395 35.098 417.97 34.531 416.214 34.531 C 414.456 34.531 413.036 35.093 411.953 36.217 C 410.869 37.341 410.328 38.782 410.328 40.539 C 410.328 42.194 410.9 43.615 412.045 44.799 C 413.19 45.985 414.578 46.577 416.214 46.577 C 417.95 46.577 419.37 46.01 420.474 44.876 C 421.578 43.742 422.129 42.297 422.129 40.539 Z " fill="rgb(252,252,252)"/></g><g id="null"><path d=" M 487.08 54.547 C 487.08 55.263 486.773 55.661 486.16 55.743 C 485.547 55.824 484.034 55.866 481.624 55.866 C 479.13 55.866 477.578 55.804 476.965 55.682 C 476.352 55.56 476.045 55.059 476.045 54.18 C 476.045 53.241 476.076 51.835 476.137 49.966 C 476.199 48.096 476.229 46.692 476.229 45.751 C 476.229 42.175 476.188 39.631 476.107 38.119 C 475.984 35.688 474.83 34.472 472.643 34.472 C 471.682 34.472 470.728 34.876 469.778 35.683 C 468.827 36.491 468.301 37.384 468.199 38.365 C 468.117 39.223 468.077 41.737 468.077 45.905 C 468.077 46.866 468.107 48.322 468.169 50.273 C 468.23 52.225 468.261 53.691 468.261 54.671 C 468.261 55.345 467.964 55.683 467.372 55.683 L 458.084 55.683 C 457.512 55.683 457.226 55.265 457.226 54.426 C 457.226 53.466 457.257 52.025 457.319 50.104 C 457.38 48.184 457.411 46.732 457.411 45.751 C 457.411 44.995 457.39 43.851 457.349 42.318 C 457.308 40.786 457.287 39.631 457.287 38.855 C 457.287 35.933 456.174 34.472 453.946 34.472 C 453.047 34.472 452.076 34.82 451.034 35.514 C 449.889 36.27 449.318 37.067 449.318 37.905 C 449.318 39.765 449.328 42.544 449.348 46.242 C 449.368 49.94 449.378 52.709 449.378 54.548 C 449.378 55.059 449.317 55.376 449.194 55.498 C 449.071 55.62 448.755 55.702 448.244 55.744 C 447.324 55.825 445.873 55.867 443.891 55.867 C 442.604 55.867 441.143 55.805 439.508 55.683 C 439.018 55.642 438.726 55.571 438.634 55.469 C 438.542 55.367 438.496 55.06 438.496 54.549 C 438.496 52.915 438.506 50.468 438.526 47.208 C 438.547 43.949 438.557 41.502 438.557 39.867 C 438.557 36.516 438.312 32.746 437.821 28.557 C 437.78 28.312 437.76 28.128 437.76 28.005 C 437.76 27.658 437.903 27.422 438.189 27.3 C 438.638 27.116 439.487 26.963 440.733 26.84 C 442.266 26.697 443.174 26.606 443.462 26.564 C 443.666 26.523 444.473 26.309 445.883 25.92 C 446.884 25.634 447.692 25.491 448.305 25.491 C 448.693 25.491 448.897 26.201 448.918 27.621 C 448.938 29.041 449.02 29.751 449.163 29.751 C 449.367 29.669 449.601 29.526 449.868 29.322 C 451.707 27.892 453.157 26.911 454.221 26.38 C 455.794 25.624 457.5 25.246 459.339 25.246 C 461.219 25.246 462.895 25.665 464.366 26.503 C 466.021 27.443 467.094 28.761 467.584 30.457 C 468.667 28.986 470.159 27.749 472.06 26.748 C 473.96 25.747 475.809 25.246 477.608 25.246 C 480.305 25.246 482.502 25.87 484.198 27.116 C 486.119 28.526 487.08 30.539 487.08 33.155 C 487.08 34.238 487.049 35.867 486.987 38.044 C 486.926 40.22 486.895 41.85 486.895 42.933 C 486.895 44.22 486.926 46.157 486.987 48.742 C 487.049 51.324 487.08 53.26 487.08 54.547 Z " fill="rgb(252,252,252)"/></g><g id="null"><path d=" M 520.981 39.037 C 520.981 41.101 520.316 42.276 518.988 42.562 C 518.763 42.603 516.648 42.828 512.643 43.236 C 510.232 43.502 506.635 43.818 501.854 44.186 C 502.14 45.515 503.008 46.526 504.459 47.22 C 505.644 47.792 506.992 48.078 508.505 48.078 C 510.323 48.078 512.152 47.588 513.991 46.607 C 514.767 46.116 515.544 45.626 516.321 45.136 C 516.75 45.34 517.47 46.383 518.481 48.262 C 519.493 50.142 519.999 51.338 519.999 51.848 C 519.999 51.991 519.846 52.226 519.539 52.553 C 517.046 55.23 513.174 56.568 507.923 56.568 C 503.059 56.568 499.136 55.148 496.152 52.308 C 493.087 49.427 491.554 45.575 491.554 40.752 C 491.554 36.052 492.923 32.2 495.661 29.196 C 498.48 26.09 502.221 24.537 506.879 24.537 C 510.803 24.537 514.133 25.968 516.872 28.829 C 519.611 31.691 520.981 35.094 520.981 39.037 Z  M 510.253 37.167 C 510.253 35.9 509.804 34.787 508.904 33.826 C 508.005 32.866 506.931 32.386 505.685 32.386 C 504.398 32.386 503.335 32.928 502.497 34.011 C 501.721 35.012 501.332 36.187 501.332 37.536 C 501.332 38.088 501.618 38.364 502.19 38.364 C 503.702 38.364 506.052 38.129 509.24 37.659 C 509.916 37.556 510.253 37.392 510.253 37.167 Z " fill="rgb(252,252,252)"/></g></g><g id="null"><g id="null"><path d=" M 222.201 96.161 C 222.201 100.309 220.454 103.865 216.96 106.828 C 213.895 109.443 210.166 111.108 205.772 111.824 C 205.608 111.844 205.476 111.854 205.374 111.854 C 204.904 111.854 203.862 110.418 202.248 107.547 C 200.634 104.677 199.827 102.924 199.827 102.29 C 199.827 102.065 199.98 101.923 200.287 101.861 C 203.249 101.186 205.211 100.615 206.172 100.144 C 208.297 99.081 209.36 97.508 209.36 95.424 C 209.36 94.096 208.665 92.614 207.276 90.979 C 204.865 88.201 203.557 86.658 203.353 86.351 C 201.943 84.226 201.238 81.876 201.238 79.301 C 201.238 75.562 202.965 72.455 206.418 69.983 C 209.238 67.94 212.701 66.612 216.809 65.999 C 217.034 65.978 217.207 65.969 217.33 65.969 C 217.637 65.969 217.882 66.214 218.066 66.704 C 218.597 68.196 219.833 70.893 221.774 74.796 C 221.836 74.919 221.866 75.022 221.866 75.103 C 221.866 75.451 221.682 75.624 221.314 75.624 C 221.15 75.624 220.874 75.593 220.486 75.531 C 220.097 75.47 219.801 75.439 219.597 75.439 C 218.126 75.439 216.839 75.776 215.735 76.451 C 214.406 77.227 213.743 78.31 213.743 79.7 C 213.743 80.947 214.478 82.479 215.95 84.298 C 218.545 87.568 219.904 89.284 220.027 89.447 C 221.475 91.697 222.201 93.934 222.201 96.161 Z " fill="rgb(252,252,252)"/></g><g id="null"><path d=" M 247.581 101.281 C 247.581 101.893 247.504 102.824 247.351 104.07 C 247.198 105.316 247.121 106.231 247.121 106.813 C 247.121 107.395 247.06 107.768 246.937 107.932 C 246.814 108.095 246.477 108.33 245.925 108.636 C 243.289 110.087 240.366 110.813 237.159 110.813 C 231.253 110.813 228.301 108.555 228.301 104.039 C 228.301 102.69 228.352 100.663 228.454 97.955 C 228.556 95.248 228.607 93.22 228.607 91.871 C 228.607 90.972 228.086 90.522 227.044 90.522 C 226.962 90.522 226.83 90.522 226.646 90.522 C 226.462 90.543 226.329 90.552 226.248 90.552 C 225.471 90.552 225.083 90.277 225.083 89.725 C 225.083 89.398 225.108 88.897 225.16 88.223 C 225.211 87.548 225.237 87.048 225.237 86.721 C 225.237 86.291 225.211 85.638 225.16 84.759 C 225.109 83.88 225.083 83.227 225.083 82.797 C 225.083 82.389 225.737 82.164 227.045 82.123 C 227.781 82.102 228.179 81.898 228.24 81.51 C 228.363 80.734 228.404 79.507 228.363 77.831 C 228.281 75.195 228.24 73.938 228.24 74.061 C 228.24 71.691 228.465 70.505 228.914 70.505 C 229.466 70.505 230.252 70.627 231.274 70.873 C 232.439 71.139 233.246 71.292 233.695 71.332 C 234.737 71.476 236.31 71.67 238.415 71.915 C 238.926 71.956 239.182 72.129 239.182 72.436 C 239.182 73.253 239.115 74.49 238.983 76.145 C 238.85 77.8 238.784 79.047 238.784 79.884 C 238.784 80.886 239.08 81.386 239.673 81.386 C 240.388 81.386 241.471 81.356 242.922 81.294 C 244.373 81.232 245.466 81.202 246.202 81.202 C 246.651 81.202 246.876 81.355 246.876 81.662 C 246.876 82.132 246.825 82.837 246.723 83.777 C 246.62 84.716 246.57 85.422 246.57 85.891 C 246.57 86.381 246.58 87.097 246.601 88.037 C 246.621 88.977 246.632 89.692 246.632 90.183 C 246.632 90.613 246.336 90.828 245.743 90.828 C 245.334 90.828 244.65 90.812 243.689 90.781 C 242.729 90.751 242.044 90.735 241.636 90.735 L 239.337 90.735 C 239.03 90.735 238.877 91.185 238.877 92.084 C 238.877 92.575 238.877 93.301 238.877 94.261 C 238.897 95.241 238.908 95.967 238.908 96.437 C 238.908 98.154 239.102 99.339 239.49 99.993 C 240.042 100.872 241.125 101.311 242.739 101.311 C 243.25 101.311 243.981 101.194 244.931 100.958 C 245.881 100.724 246.55 100.605 246.939 100.605 C 247.366 100.606 247.581 100.831 247.581 101.281 Z " fill="rgb(252,252,252)"/></g><g id="null"><path d=" M 282.339 82.399 C 282.339 83.912 282.267 86.18 282.124 89.204 C 281.981 92.228 281.91 94.497 281.91 96.009 C 281.91 97.481 281.961 99.687 282.063 102.63 C 282.165 105.572 282.216 107.769 282.216 109.22 C 282.216 109.772 281.961 110.119 281.45 110.262 C 280.673 110.466 279.029 110.569 276.515 110.569 C 274.287 110.569 272.735 110.507 271.856 110.385 C 271.467 110.323 271.222 110.078 271.12 109.649 C 271.059 109.037 270.997 108.423 270.936 107.81 C 270.834 106.871 270.691 106.4 270.507 106.4 C 270.793 106.4 269.76 107.095 267.411 108.485 C 265.061 109.875 262.926 110.569 261.005 110.569 C 255.589 110.569 252.381 108.128 251.38 103.243 C 250.93 100.975 250.705 97.685 250.705 93.374 C 250.705 88.715 251.083 85.036 251.839 82.339 C 252.064 81.502 252.483 81.082 253.096 81.082 C 254.035 81.082 255.466 81.093 257.387 81.113 C 259.307 81.134 260.738 81.143 261.679 81.143 C 262.312 81.143 262.629 81.409 262.629 81.94 C 262.629 82.084 262.608 82.298 262.567 82.584 C 262.138 85.363 261.923 88.184 261.923 91.044 C 261.923 94.6 262.035 97.032 262.26 98.339 C 262.628 100.587 263.966 101.711 266.276 101.711 C 267.175 101.711 268.151 101.313 269.203 100.516 C 270.255 99.719 270.802 98.891 270.843 98.034 C 270.884 97.278 270.905 92.148 270.905 82.646 C 270.905 81.972 270.956 81.574 271.058 81.451 C 271.181 81.247 271.548 81.144 272.161 81.144 C 273.162 81.144 274.669 81.155 276.682 81.175 C 278.694 81.196 280.202 81.205 281.203 81.205 C 281.816 81.205 282.173 81.358 282.276 81.665 C 282.318 81.827 282.339 82.073 282.339 82.399 Z " fill="rgb(252,252,252)"/></g><g id="null"><path d=" M 319.887 66.767 C 319.887 66.318 319.805 66.992 319.642 68.789 C 319.416 71.058 319.244 73.959 319.121 77.494 C 318.957 81.5 318.876 86.057 318.876 91.165 C 318.876 99.604 319.11 105.612 319.581 109.187 C 319.622 109.576 319.643 109.821 319.643 109.923 C 319.643 110.148 319.49 110.28 319.183 110.321 C 318.448 110.423 315.74 110.474 311.06 110.474 C 309.956 110.474 309.323 110.259 309.16 109.83 C 309.119 109.054 309.078 108.277 309.038 107.5 C 309.017 107.337 308.935 107.174 308.793 107.01 C 308.67 107.072 308.517 107.194 308.333 107.378 C 306.126 109.544 303.367 110.627 300.057 110.627 C 295.745 110.627 292.292 109.114 289.697 106.09 C 287.224 103.209 285.989 99.572 285.989 95.179 C 285.989 90.724 287.204 87.056 289.636 84.175 C 292.21 81.11 295.684 79.576 300.057 79.576 C 303.143 79.576 305.544 80.557 307.26 82.519 C 307.546 82.846 307.75 83.009 307.873 83.009 C 308.057 83.009 308.148 82.743 308.148 82.212 C 308.148 80.639 308.107 78.288 308.026 75.162 C 307.944 72.035 307.903 69.696 307.903 68.142 C 307.903 67.549 308.067 67.212 308.394 67.13 C 309.701 67.069 311.499 66.946 313.789 66.763 C 317.876 66.252 319.684 65.996 319.214 65.996 C 319.662 66 319.887 66.256 319.887 66.767 Z  M 308.332 94.935 C 308.332 93.322 307.769 91.907 306.646 90.69 C 305.521 89.475 304.163 88.867 302.569 88.867 C 300.893 88.867 299.56 89.475 298.569 90.69 C 297.578 91.907 297.083 93.362 297.083 95.058 C 297.083 96.713 297.583 98.113 298.585 99.257 C 299.606 100.484 300.935 101.096 302.569 101.096 C 304.203 101.096 305.573 100.484 306.676 99.257 C 307.78 98.031 308.332 96.59 308.332 94.935 Z " fill="rgb(252,252,252)"/></g><g id="null"><path d=" M 335.764 96.192 C 335.764 97.684 335.795 99.907 335.856 102.859 C 335.918 105.812 335.948 108.024 335.948 109.495 C 335.948 109.925 335.693 110.181 335.182 110.262 C 334.487 110.385 332.923 110.446 330.493 110.446 C 328.041 110.446 326.467 110.385 325.772 110.262 C 325.322 110.181 325.046 110.047 324.944 109.864 C 324.903 109.783 324.883 109.476 324.883 108.944 C 324.883 107.535 324.913 105.415 324.975 102.585 C 325.037 99.755 325.067 97.624 325.067 96.193 C 325.067 90.39 324.842 85.772 324.393 82.339 C 324.351 82.013 324.331 81.798 324.331 81.695 C 324.331 81.287 324.606 81.082 325.158 81.082 C 325.73 81.082 326.603 81.144 327.779 81.267 C 328.954 81.389 329.838 81.451 330.43 81.451 C 331.022 81.451 331.911 81.4 333.096 81.298 C 334.282 81.196 335.17 81.145 335.763 81.145 C 336.253 81.145 336.498 81.35 336.498 81.758 C 336.498 81.84 336.477 82.033 336.437 82.34 C 335.989 86.323 335.764 90.941 335.764 96.192 Z  M 336.561 73.418 C 336.561 76.974 334.558 78.751 330.553 78.751 C 328.837 78.751 327.416 78.302 326.293 77.402 C 325.066 76.422 324.453 75.093 324.453 73.418 C 324.453 71.824 325.087 70.517 326.353 69.494 C 327.518 68.555 328.917 68.084 330.552 68.084 C 332.146 68.084 333.526 68.564 334.691 69.525 C 335.938 70.547 336.561 71.845 336.561 73.418 Z " fill="rgb(252,252,252)"/></g><g id="null"><path d=" M 371.167 95.181 C 371.167 99.839 369.742 103.62 366.892 106.522 C 364.042 109.424 360.296 110.875 355.658 110.875 C 351.163 110.875 347.464 109.444 344.562 106.584 C 341.661 103.723 340.209 100.045 340.209 95.549 C 340.209 90.809 341.599 86.962 344.378 84.009 C 347.156 81.056 350.917 79.579 355.657 79.579 C 360.275 79.579 364.014 81.025 366.876 83.917 C 369.736 86.808 371.167 90.563 371.167 95.181 Z  M 361.113 95.181 C 361.113 93.567 360.612 92.141 359.611 90.905 C 358.61 89.669 357.312 89.051 355.718 89.051 C 354.104 89.051 352.776 89.685 351.734 90.951 C 350.753 92.137 350.262 93.547 350.262 95.181 C 350.262 96.835 350.752 98.256 351.734 99.441 C 352.776 100.709 354.104 101.341 355.718 101.341 C 357.312 101.341 358.63 100.708 359.672 99.441 C 360.632 98.256 361.113 96.835 361.113 95.181 Z " fill="rgb(252,252,252)"/></g></g></svg>