<?xml version="1.0" standalone="no"?><!-- Generator: Gravit.io --><svg xmlns="http://www.w3.org/2000/svg" xmlns:xlink="http://www.w3.org/1999/xlink" style="isolation:isolate" viewBox="0 0 505 155" width="505" height="155"><path d=" M 96.102 138.641 L 68.724 138.641 L 68.724 130.044 Q 64.801 134.968 60.795 137.222 Q 53.783 141.145 44.852 141.145 Q 30.412 141.145 19.144 131.212 Q 5.705 119.36 5.705 99.828 Q 5.705 79.962 19.478 68.11 Q 30.412 58.678 44.602 58.678 Q 52.865 58.678 60.127 62.183 Q 64.3 64.187 68.724 68.778 L 68.724 61.182 L 96.102 61.182 L 96.102 138.641 Z  M 69.559 99.911 Q 69.559 92.566 64.384 87.475 Q 59.209 82.299 51.863 82.299 Q 43.684 82.299 38.425 88.476 Q 34.168 93.484 34.168 99.911 Q 34.168 106.338 38.425 111.347 Q 43.6 117.523 51.863 117.523 Q 59.292 117.523 64.384 112.432 Q 69.559 107.34 69.559 99.911 Z " fill="rgb(255,255,255)"/><path d=" M 162.1 86.473 Q 156.341 83.718 150.414 83.718 Q 136.892 83.718 132.886 94.736 Q 131.384 98.743 131.384 105.504 L 131.384 138.641 L 104.006 138.641 L 104.006 61.182 L 131.384 61.182 L 131.384 73.869 Q 135.724 67.108 140.732 64.103 Q 147.493 60.097 156.758 60.097 Q 158.928 60.097 162.1 60.347 L 162.1 86.473 L 162.1 86.473 Z " fill="rgb(255,255,255)"/><path d=" M 221.922 136.971 Q 213.408 141.228 204.059 141.228 Q 182.858 141.228 170.421 126.872 Q 160.405 115.27 160.405 99.995 Q 160.405 84.637 170.421 73.118 Q 182.858 58.761 204.059 58.761 Q 213.575 58.761 221.922 63.102 L 221.922 86.389 Q 214.66 81.298 207.732 81.298 Q 199.552 81.298 194.21 86.556 Q 188.868 91.815 188.868 99.995 Q 188.868 108.175 194.21 113.433 Q 199.552 118.692 207.732 118.692 Q 214.576 118.692 221.922 113.684 L 221.922 136.971 Z " fill="rgb(255,255,255)"/><path d=" M 313.962 138.641 L 286.584 138.641 L 286.584 130.044 Q 282.661 134.968 278.655 137.222 Q 271.643 141.145 262.712 141.145 Q 248.272 141.145 237.004 131.212 Q 223.565 119.36 223.565 99.828 Q 223.565 79.962 237.338 68.11 Q 248.272 58.678 262.462 58.678 Q 270.725 58.678 277.987 62.183 Q 282.16 64.187 286.584 68.778 L 286.584 61.182 L 313.962 61.182 L 313.962 138.641 L 313.962 138.641 Z  M 287.419 99.911 Q 287.419 92.566 282.244 87.475 Q 277.069 82.299 269.724 82.299 Q 261.544 82.299 256.285 88.476 Q 252.028 93.484 252.028 99.911 Q 252.028 106.338 256.285 111.347 Q 261.46 117.523 269.724 117.523 Q 277.152 117.523 282.244 112.432 Q 287.419 107.34 287.419 99.911 Z " fill="rgb(255,255,255)"/><path d=" M 409.174 138.641 L 381.796 138.641 L 381.796 130.044 Q 377.873 134.968 373.867 137.222 Q 366.855 141.145 357.924 141.145 Q 343.484 141.145 332.216 131.212 Q 318.777 119.36 318.777 99.828 Q 318.777 79.962 332.55 68.11 Q 343.484 58.678 357.674 58.678 Q 365.937 58.678 373.199 62.183 Q 377.373 64.187 381.796 68.778 L 381.796 13.271 L 409.174 13.271 L 409.174 138.641 L 409.174 138.641 Z  M 382.631 99.911 Q 382.631 92.566 377.456 87.475 Q 372.281 82.299 364.936 82.299 Q 356.756 82.299 351.497 88.476 Q 347.24 93.484 347.24 99.911 Q 347.24 106.338 351.497 111.347 Q 356.672 117.523 364.936 117.523 Q 372.364 117.523 377.456 112.432 Q 382.631 107.34 382.631 99.911 Z " fill="rgb(255,255,255)"/><path d=" M 499.295 104.919 L 441.701 104.919 Q 441.701 122.364 458.562 122.364 Q 467.159 122.364 471.75 115.019 L 498.21 115.019 Q 495.038 125.536 488.861 131.296 Q 477.676 141.729 458.896 141.729 Q 435.024 141.729 423.004 127.206 Q 413.99 116.355 413.99 100.746 Q 413.99 82.216 425.258 70.614 Q 436.526 59.012 457.06 59.012 Q 482.351 59.012 493.202 77.375 Q 499.295 87.725 499.295 101.414 L 499.295 104.919 L 499.295 104.919 Z  M 473.753 89.227 Q 470.832 76.373 458.145 76.373 Q 451.133 76.373 446.793 80.463 Q 443.371 83.718 442.453 89.227 L 473.753 89.227 Z " fill="rgb(255,255,255)"/></svg>