<?xml version="1.0" standalone="no"?><!-- Generator: Gravit.io --><svg xmlns="http://www.w3.org/2000/svg" xmlns:xlink="http://www.w3.org/1999/xlink" style="isolation:isolate" viewBox="0 0 568.929 116.145" width="568.929" height="116.145"><g id="null"><path d=" M 358.58 26.897 L 358.58 24.416 L 375.765 24.416 L 375.765 46.389 L 363.564 46.389 L 363.564 50.715 L 359.367 50.715 L 359.367 55.566 L 354.53 55.566 L 354.53 76.674 L 358.71 76.674 L 358.71 81.131 L 363.302 81.131 L 363.302 85.851 L 375.765 85.851 L 375.765 108.095 L 358.71 108.095 L 358.71 105.358 L 353.462 105.358 L 353.462 102.793 L 349.265 102.793 L 349.265 99.203 L 345.46 99.203 L 345.46 94.442 L 341 94.442 L 341 89.753 L 336.804 89.753 L 336.804 84.113 L 332.734 84.113 L 332.734 48.142 L 336.804 48.142 L 336.804 42.718 L 340.869 42.718 L 340.869 37.813 L 345.593 37.813 L 345.593 33.124 L 349.265 33.124 L 349.265 29.74 L 353.07 29.74 L 353.07 26.897 L 358.58 26.897 Z " fill="rgb(255,255,255)"/></g><g id="null"><path d=" M 405.199 26.488 L 405.199 24.311 L 423.564 24.311 L 423.564 26.488 L 428.812 26.488 L 428.812 29.242 L 432.75 29.242 L 432.75 33.179 L 436.947 33.179 L 436.947 37.378 L 441.277 37.378 L 441.277 42.23 L 445.738 42.23 L 445.738 108.041 L 425.468 108.041 L 425.468 51.019 L 421.074 51.019 L 421.074 46.955 L 410.449 46.955 L 410.449 50.757 L 405.726 50.757 L 405.726 55.35 L 400.869 55.35 L 400.869 76.603 L 405.46 76.603 L 405.46 81.324 L 409.66 81.324 L 409.66 85.128 L 420.941 85.128 L 420.941 108.041 L 405.199 108.041 L 405.199 106.251 L 399.689 106.251 L 399.689 103.496 L 396.146 103.496 L 396.146 99.692 L 391.949 99.692 L 391.949 95.232 L 387.88 95.232 L 387.88 90.115 L 383.814 90.115 L 383.814 84.474 L 379.353 84.474 L 379.353 48.265 L 383.158 48.265 L 383.158 42.718 L 387.751 42.718 L 387.751 37.901 L 391.949 37.901 L 391.949 33.047 L 395.884 33.047 L 395.884 29.504 L 399.951 29.504 L 399.951 26.481 L 405.199 26.488 Z " fill="rgb(255,255,255)"/></g><g id="null"><path d=" M 29.042 26.488 L 29.042 24.311 L 47.408 24.311 L 47.408 26.488 L 52.656 26.488 L 52.656 29.242 L 56.593 29.242 L 56.593 33.179 L 60.791 33.179 L 60.791 37.378 L 65.121 37.378 L 65.121 42.231 L 69.582 42.231 L 69.582 108.041 L 49.312 108.041 L 49.312 51.02 L 44.917 51.02 L 44.917 46.955 L 34.292 46.955 L 34.292 50.757 L 29.57 50.757 L 29.57 55.351 L 24.712 55.351 L 24.712 76.602 L 29.304 76.602 L 29.304 81.324 L 33.503 81.324 L 33.503 85.129 L 44.785 85.129 L 44.785 108.041 L 29.042 108.041 L 29.042 106.252 L 23.533 106.252 L 23.533 103.496 L 19.99 103.496 L 19.99 99.692 L 15.792 99.692 L 15.792 95.233 L 11.725 95.233 L 11.725 90.115 L 7.658 90.115 L 7.658 84.475 L 3.197 84.475 L 3.197 48.265 L 7.001 48.265 L 7.001 42.718 L 11.596 42.718 L 11.596 37.901 L 15.792 37.901 L 15.792 33.047 L 19.728 33.047 L 19.728 29.504 L 23.794 29.504 L 23.794 26.481 L 29.042 26.488 Z " fill="rgb(255,255,255)"/></g><g id="null"><path d=" M 491.369 46.077 L 491.369 24.31 L 475.423 24.31 L 475.423 26.595 L 470.388 26.608 L 470.388 29.293 L 466.027 29.293 L 466.027 32.986 L 461.662 32.986 L 461.662 37.685 L 457.802 37.685 L 457.802 42.385 L 453.605 42.385 L 453.605 48.259 L 449.242 48.259 L 449.242 84.177 L 453.773 84.177 L 453.773 89.884 L 457.802 89.884 L 457.802 95.086 L 462 95.086 L 462 99.954 L 466.195 99.954 L 466.195 103.647 L 470.388 103.647 L 470.388 106.163 L 476.097 106.163 L 476.097 108.042 L 495.228 108.042 L 495.228 106.332 L 500.433 106.332 L 500.433 103.31 L 503.958 103.31 L 503.958 99.115 L 507.82 99.115 L 507.82 94.247 L 512.517 94.247 L 512.517 89.547 L 516.714 89.547 L 516.714 7.138 L 495.06 7.138 L 495.06 81.323 L 491.369 81.323 L 491.369 85.185 L 479.955 85.185 L 479.955 81.323 L 476.097 81.323 L 476.097 76.288 L 471.564 76.288 L 471.564 55.31 L 476.431 55.31 L 476.431 50.945 L 480.628 50.945 L 480.628 46.077 L 491.369 46.077 Z " fill="rgb(255,255,255)"/></g><g id="null"><path d=" M 525.328 47.705 L 525.328 42.423 L 528.984 42.423 L 528.984 37.819 L 533.318 37.819 L 533.318 33.077 L 537.113 33.077 L 537.113 29.284 L 541.447 29.284 L 541.447 26.17 L 546.322 26.17 L 546.322 24.31 L 566.095 24.31 L 566.095 46.486 L 552.281 46.486 L 552.281 49.872 L 547.812 49.872 L 547.812 52.446 L 543.746 52.446 L 543.746 55.426 L 566.095 55.426 L 566.095 76.148 L 543.882 76.148 L 543.882 79.399 L 548.083 79.399 L 548.083 81.971 L 552.009 81.971 L 552.009 85.223 L 566.095 85.223 L 566.095 108.042 L 546.322 108.042 L 546.322 106.214 L 541.714 106.214 L 541.714 103.372 L 537.515 103.372 L 537.515 99.579 L 533.591 99.579 L 533.591 95.379 L 528.984 95.379 L 528.984 89.963 L 525.328 89.963 L 525.328 84.003 L 520.451 84.003 L 520.451 47.69 L 525.328 47.705 Z " fill="rgb(255,255,255)"/></g><g id="null"><path d=" M 136.836 55.95 L 136.836 42.491 L 132.682 42.491 L 132.682 37.509 L 128.407 37.509 L 128.407 32.929 L 124.547 32.929 L 124.547 29.381 L 120.48 29.381 L 120.48 26.584 L 115.46 26.584 L 115.46 24.311 L 94.691 24.311 L 94.691 26.584 L 89.152 26.584 L 89.152 29.381 L 85.431 29.381 L 85.431 32.929 L 81.537 32.929 L 81.537 37.509 L 77.037 37.509 L 77.037 42.229 L 73.314 42.229 L 73.314 64.166 L 77.468 64.166 L 77.468 68.449 L 81.709 68.449 L 81.709 72.382 L 110.874 72.382 L 110.874 76.752 L 115.201 76.752 L 115.201 81.035 L 110.7 81.035 L 110.7 85.492 L 99.537 85.492 L 99.537 80.861 L 95.556 80.861 L 95.556 76.49 L 73.314 76.49 L 73.314 89.862 L 77.468 89.862 L 77.468 94.407 L 81.795 94.407 L 81.795 98.953 L 86.124 98.953 L 86.124 102.536 L 89.93 102.536 L 89.93 105.332 L 95.123 105.332 L 95.123 108.042 L 115.72 108.042 L 115.72 105.332 L 120.394 105.332 L 120.394 102.536 L 124.547 102.536 L 124.547 98.953 L 128.701 98.953 L 128.701 94.495 L 132.769 94.495 L 132.769 89.95 L 136.836 89.95 L 136.836 68.974 L 131.817 68.974 L 131.817 64.865 L 127.576 64.865 L 127.576 59.971 L 99.45 59.971 L 99.45 55.601 L 95.21 55.601 L 95.21 51.318 L 99.45 51.318 L 99.45 46.686 L 110.614 46.686 L 110.614 51.668 L 114.768 51.668 L 114.768 55.95 L 136.836 55.95 Z " fill="rgb(255,255,255)"/></g><g id="null"><path d=" M 183.471 86.1 L 183.471 81.475 L 179.239 81.475 L 179.239 77.115 L 175.353 77.115 L 175.353 46.836 L 188.221 46.836 L 188.221 39.071 L 183.212 39.071 L 183.212 34.272 L 178.547 34.272 L 178.547 30.608 L 175.353 30.608 L 175.353 16.909 L 153.241 16.909 L 153.241 30.608 L 150.39 30.608 L 150.39 34.272 L 146.072 34.272 L 146.072 39.071 L 140.631 39.071 L 140.631 46.836 L 153.241 46.836 L 153.241 84.093 L 157.56 84.093 L 157.56 89.327 L 161.187 89.327 L 161.187 94.389 L 165.419 94.389 L 165.419 99.536 L 169.134 99.536 L 169.134 103.375 L 172.847 103.375 L 172.847 106.168 L 178.461 106.168 L 178.461 108 L 194.095 108 L 194.095 86.1 L 183.471 86.1 Z " fill="rgb(255,255,255)"/></g><g id="null"><path d=" M 243.015 72.016 L 247.726 72.016 L 247.726 67.298 L 251.659 67.298 L 251.659 61.968 L 254.019 61.968 L 254.019 42.309 L 251.134 42.309 L 251.134 37.94 L 247.464 37.94 L 247.464 33.309 L 243.181 33.309 L 243.181 29.639 L 238.461 29.639 L 238.461 26.844 L 233.917 26.844 L 233.917 24.31 L 219.846 24.31 L 219.846 26.844 L 215.914 26.844 L 215.914 29.639 L 211.544 29.639 L 211.544 33.309 L 206.825 33.309 L 206.825 37.94 L 202.63 37.94 L 202.63 42.221 L 197.911 42.221 L 197.911 108.015 L 219.41 108.015 L 219.41 46.677 L 233.917 46.677 L 233.917 58.386 L 229.46 58.386 L 229.46 61.531 L 222.73 61.531 L 222.73 77.171 L 235.839 108.015 L 258.038 108.015 L 243.015 72.016 Z " fill="rgb(255,255,255)"/></g><g id="null"><path d=" M 325.389 48.171 L 325.389 42.577 L 321.063 42.577 L 321.063 37.853 L 316.654 37.853 L 316.654 33.134 L 312.761 33.134 L 312.761 29.74 L 308.784 29.74 L 308.784 26.93 L 303.764 26.93 L 303.764 24.31 L 282.924 24.31 L 282.924 26.932 L 278 26.932 L 278 29.554 L 273.676 29.554 L 273.676 33.137 L 270.132 33.137 L 270.132 37.856 L 265.548 37.856 L 265.548 42.58 L 261.571 42.58 L 261.571 48.174 L 257.333 48.174 L 257.333 48.262 L 257.333 84.092 L 257.333 84.183 L 261.571 84.183 L 261.571 89.775 L 265.548 89.775 L 265.548 94.501 L 270.132 94.501 L 270.132 99.22 L 273.676 99.22 L 273.676 102.803 L 278 102.803 L 278 105.426 L 282.929 105.426 L 282.929 108.047 L 283.015 108.047 L 303.421 108.047 L 303.769 108.047 L 303.769 105.426 L 308.785 105.426 L 308.785 102.803 L 312.762 102.803 L 312.762 99.22 L 316.658 99.22 L 316.658 94.501 L 321.067 94.501 L 321.067 89.775 L 325.393 89.775 L 325.393 84.117 L 329.283 84.117 L 329.283 84.024 L 329.283 48.259 L 329.283 48.171 L 325.389 48.171 L 325.389 48.171 Z  M 303.166 76.402 L 303.166 81.126 L 298.842 81.126 L 298.842 85.496 L 287.779 85.496 L 287.779 81.126 L 283.8 81.126 L 283.8 76.402 L 279.131 76.402 L 279.131 55.949 L 283.8 55.949 L 283.8 51.223 L 287.779 51.223 L 287.779 46.86 L 298.842 46.86 L 298.842 51.229 L 303.166 51.229 L 303.166 55.955 L 307.49 55.955 L 307.49 76.402 L 303.166 76.402 L 303.166 76.402 Z " fill="rgb(255,255,255)"/></g></svg>