<?xml version="1.0" standalone="no"?><!-- Generator: Gravit.io --><svg xmlns="http://www.w3.org/2000/svg" xmlns:xlink="http://www.w3.org/1999/xlink" style="isolation:isolate" viewBox="0 0 566.93 79.219" width="566.93" height="79.219"><g id="null"><g id="null"><g id="_x23_ffffffff"><path d=" M 123.437 3.436 C 126.511 -0.498 132.873 -1.168 136.644 2.129 C 138.186 3.428 139.266 5.22 139.819 7.149 C 146.8 31.17 153.813 55.182 160.785 79.207 C 156.665 79.211 152.543 79.201 148.423 79.211 C 146.48 72.588 144.582 65.953 142.664 59.322 C 134.697 59.304 126.732 59.318 118.766 59.314 C 116.815 65.941 114.89 72.572 112.974 79.21 C 108.876 79.196 104.779 79.206 100.68 79.202 C 107.313 56.288 113.953 33.37 120.618 10.463 C 121.41 8.071 121.708 5.392 123.437 3.436 Z  M 130.71 18.154 C 127.789 28.106 124.927 38.078 122.022 48.035 C 127.813 48.062 133.601 48.045 139.389 48.045 C 136.491 38.082 133.608 28.119 130.71 18.154 Z " fill="rgb(255,255,255)"/><path d=" M 210.231 3.953 C 212.378 0.839 216.529 -0.674 220.184 0.287 C 223.529 1.058 226.089 3.941 226.972 7.186 C 233.947 31.191 240.945 55.187 247.919 79.191 C 243.794 79.224 239.669 79.191 235.544 79.209 C 233.626 72.58 231.728 65.943 229.796 59.314 C 221.842 59.318 213.889 59.298 205.936 59.32 C 204.035 65.955 202.076 72.572 200.173 79.205 C 196.079 79.209 191.987 79.203 187.893 79.209 C 194.522 56.168 201.229 33.146 207.912 10.122 C 208.613 8.041 208.883 5.749 210.231 3.953 Z  M 209.228 48.045 C 214.994 48.053 220.758 48.049 226.524 48.049 C 223.656 38.065 220.742 28.093 217.88 18.11 C 215.001 28.09 212.094 38.061 209.228 48.045 Z " fill="rgb(255,255,255)"/><path d=" M 151.56 0.167 C 166.466 0.167 181.371 0.167 196.272 0.167 C 196.272 4.188 196.272 8.205 196.272 12.226 C 190.785 12.23 185.298 12.22 179.813 12.23 C 179.813 34.555 179.817 56.883 179.81 79.207 C 175.881 79.207 171.948 79.207 168.018 79.207 C 168.018 56.883 168.015 34.556 168.022 12.23 C 162.533 12.22 157.048 12.23 151.56 12.226 C 151.56 8.206 151.557 4.189 151.56 0.167 Z " fill="rgb(255,255,255)"/><path d=" M 261.023 0.657 C 262.156 0.266 263.365 0.133 264.56 0.162 C 269.259 0.179 273.958 0.165 278.658 0.168 C 286.572 0.313 294.126 5.224 297.552 12.347 C 299.923 16.973 300.167 22.352 299.57 27.426 C 299.16 32.739 296.93 38.051 292.847 41.571 C 290.689 43.497 288.001 44.661 285.694 46.372 C 284.425 47.339 284.365 49.214 285.018 50.558 C 291.255 60.187 297.742 69.662 304.108 79.21 C 299.451 79.218 294.795 79.196 290.136 79.218 C 284.038 70.062 278.006 60.859 271.934 51.689 C 270.149 49.08 269.664 45.623 270.733 42.644 C 271.567 40.359 273.564 38.686 275.788 37.824 C 280.034 36.205 284.219 33.658 286.57 29.652 C 288.358 26.642 288.267 22.927 287.463 19.631 C 286.521 15.354 282.353 11.987 277.95 12.136 C 274.903 12.157 271.859 12.12 268.818 12.15 C 267.441 12.118 266.146 13.315 266.163 14.711 C 266.149 36.212 266.171 57.715 266.157 79.215 C 262.197 79.209 258.24 79.215 254.279 79.211 C 254.272 56.065 254.286 32.914 254.272 9.768 C 254.291 5.707 257.176 1.89 261.023 0.657 Z " fill="rgb(255,255,255)"/><path d=" M 310.335 0.167 C 314.499 0.167 318.663 0.167 322.833 0.167 C 322.829 26.516 322.839 52.859 322.825 79.209 C 318.663 79.199 314.499 79.209 310.335 79.205 C 310.335 52.857 310.335 26.512 310.335 0.167 Z " fill="rgb(255,255,255)"/></g></g></g><g id="null"><path d=" M 527.328 79.205 C 505.492 79.205 487.724 61.439 487.724 39.602 C 487.724 17.764 505.492 0 527.328 0 C 549.166 0 566.93 17.765 566.93 39.603 C 566.929 61.439 549.166 79.205 527.328 79.205 Z  M 527.328 2.908 C 507.094 2.908 490.633 19.369 490.633 39.602 C 490.633 59.836 507.094 76.297 527.328 76.297 C 547.56 76.297 564.021 59.836 564.021 39.602 C 564.021 19.37 547.56 2.908 527.328 2.908 Z  M 527.328 66.582 C 512.455 66.582 500.351 54.48 500.351 39.606 C 500.351 24.731 512.455 12.63 527.328 12.63 C 542.201 12.63 554.303 24.731 554.303 39.606 C 554.302 54.48 542.201 66.582 527.328 66.582 Z  M 527.328 15.54 C 514.057 15.54 503.26 26.337 503.26 39.606 C 503.26 52.877 514.057 63.674 527.328 63.674 C 540.598 63.674 551.394 52.877 551.394 39.606 C 551.394 26.336 540.597 15.54 527.328 15.54 Z " fill="rgb(255,255,255)"/></g><g id="null"><path d=" M 446.257 79.205 C 424.421 79.205 406.653 61.439 406.653 39.602 C 406.654 17.764 424.421 0 446.257 0 C 468.095 0 485.859 17.765 485.859 39.603 C 485.859 61.439 468.095 79.205 446.257 79.205 Z  M 446.257 2.908 C 426.025 2.908 409.562 19.369 409.562 39.602 C 409.562 59.836 426.025 76.297 446.257 76.297 C 466.489 76.297 482.95 59.836 482.95 39.602 C 482.951 19.37 466.49 2.908 446.257 2.908 Z  M 446.257 66.582 C 431.382 66.582 419.28 54.48 419.28 39.606 C 419.28 24.731 431.382 12.63 446.257 12.63 C 461.13 12.63 473.232 24.731 473.232 39.606 C 473.232 54.48 461.13 66.582 446.257 66.582 Z  M 446.257 15.54 C 432.986 15.54 422.189 26.337 422.189 39.606 C 422.189 52.877 432.986 63.674 446.257 63.674 C 459.528 63.674 470.323 52.877 470.323 39.606 C 470.324 26.336 459.527 15.54 446.257 15.54 Z " fill="rgb(255,255,255)"/></g><g id="null"><path d=" M 378.4 79.205 C 363.105 79.205 350.664 66.764 350.664 51.467 C 350.664 42.289 355.301 33.625 362.861 28.491 C 360.929 25.511 359.918 22.081 359.918 18.482 C 359.917 8.292 368.208 0 378.4 0 C 388.592 0 396.884 8.292 396.884 18.481 C 396.884 22.08 395.868 25.508 393.937 28.49 C 401.5 33.624 406.136 42.286 406.136 51.466 C 406.138 66.764 393.695 79.205 378.4 79.205 Z  M 378.4 2.908 C 369.812 2.908 362.824 9.894 362.824 18.482 C 362.824 21.961 363.951 25.255 366.08 28.006 L 367.086 29.303 L 365.676 30.144 C 358.209 34.611 353.572 42.781 353.572 51.467 C 353.572 65.156 364.711 76.297 378.4 76.297 C 392.091 76.297 403.23 65.156 403.23 51.467 C 403.23 42.779 398.591 34.61 391.125 30.144 L 389.719 29.303 L 390.721 28.006 C 392.852 25.255 393.977 21.961 393.977 18.482 C 393.976 9.895 386.988 2.908 378.4 2.908 Z  M 378.4 67.693 C 369.455 67.693 362.175 60.418 362.175 51.466 C 362.175 42.523 369.452 35.241 378.4 35.241 C 387.345 35.241 394.625 42.518 394.625 51.466 C 394.625 60.418 387.347 67.693 378.4 67.693 Z  M 378.4 38.151 C 371.056 38.151 365.084 44.127 365.084 51.469 C 365.084 58.813 371.059 64.787 378.4 64.787 C 385.744 64.787 391.716 58.812 391.716 51.469 C 391.716 44.127 385.744 38.151 378.4 38.151 Z  M 378.4 26.639 C 373.904 26.639 370.248 22.981 370.248 18.485 C 370.248 13.99 373.904 10.334 378.4 10.334 C 382.896 10.334 386.552 13.99 386.552 18.485 C 386.554 22.981 382.896 26.639 378.4 26.639 Z  M 378.4 13.24 C 375.507 13.24 373.156 15.594 373.156 18.484 C 373.156 21.378 375.508 23.73 378.4 23.73 C 381.295 23.73 383.646 21.376 383.646 18.484 C 383.646 15.593 381.294 13.24 378.4 13.24 Z " fill="rgb(255,255,255)"/></g><g id="null"><g id="null"><path d=" M 70.453 0.003 L 8.761 0.003 C 3.942 0.003 0 3.946 0 8.765 L 0 70.457 C 0 75.275 3.942 79.219 8.761 79.219 L 70.453 79.219 C 75.272 79.219 79.215 75.276 79.215 70.457 L 79.215 8.765 C 79.215 3.947 75.273 0.003 70.453 0.003 Z  M 34.269 31.85 C 34.094 35.54 33.863 39.239 33.252 42.887 C 32.832 45.403 31.961 47.83 30.883 50.133 C 29.122 53.844 26.355 56.985 23.244 59.625 C 20.462 62.074 17.14 63.857 13.647 65.063 C 11.671 65.747 9.637 66.268 7.567 66.561 C 7.569 63.991 7.569 61.418 7.567 58.848 C 10.059 58.473 12.456 57.588 14.681 56.418 C 17.322 55.022 19.699 53.145 21.7 50.93 C 23.767 48.645 25.413 45.998 26.663 43.188 C 28.135 39.959 28.923 36.467 29.458 32.975 C 30.13 28.533 30.409 24.037 30.513 19.55 C 30.53 18.03 30.517 16.508 30.521 14.986 C 31.824 14.982 33.127 14.986 34.432 14.984 C 34.437 18.048 34.432 21.115 34.434 24.179 C 34.447 26.736 34.375 29.293 34.269 31.85 Z  M 43.205 14.983 C 43.206 32.175 43.206 49.369 43.205 66.559 C 40.81 66.565 38.416 66.549 36.022 66.571 C 35.991 61.09 36.017 55.604 36.009 50.125 C 36.006 38.415 36.014 26.703 36.005 14.991 C 38.405 14.974 40.805 14.987 43.205 14.983 C 43.205 14.982 43.205 14.982 43.205 14.983 Z  M 71.648 66.555 C 69.592 66.276 67.576 65.744 65.614 65.078 C 63.278 64.265 61.018 63.213 58.942 61.861 C 57.427 60.888 56.05 59.722 54.726 58.506 C 52.544 56.492 50.592 54.207 49.125 51.617 C 47.978 49.599 47.14 47.422 46.485 45.201 C 45.884 42.969 45.628 40.658 45.395 38.364 C 44.944 33.402 44.775 28.417 44.807 23.436 C 44.807 20.619 44.806 17.802 44.807 14.983 C 46.104 14.982 47.4 14.979 48.695 14.984 C 48.653 20.225 48.832 25.479 49.456 30.685 C 49.968 34.73 50.689 38.806 52.3 42.574 C 53.827 46.22 56.029 49.609 58.898 52.342 C 61.638 54.955 64.958 56.963 68.565 58.119 C 69.572 58.439 70.601 58.691 71.648 58.846 C 71.647 61.416 71.646 63.984 71.648 66.555 Z " fill="rgb(255,255,255)"/></g></g></svg>