<?xml version="1.0" standalone="no"?><!-- Generator: Gravit.io --><svg xmlns="http://www.w3.org/2000/svg" xmlns:xlink="http://www.w3.org/1999/xlink" style="isolation:isolate" viewBox="0 0 1317.953 340.515" width="1317.953" height="340.515"><g id="layer1"><path d=" M 28.808 259.477 C 16.808 255.477 7.008 247.277 2.408 237.477 C -1.092 230.077 -0.792 222.477 3.408 207.477 C 5.308 200.877 8.208 190.477 9.908 184.377 C 11.508 178.377 15.608 163.277 19.008 150.877 C 22.408 138.477 26.008 125.277 27.108 121.377 C 33.208 98.277 50.308 81.077 72.508 75.377 C 80.408 73.377 136.508 73.177 135.708 75.177 C 135.508 75.777 130.208 94.877 124.008 117.377 C 98.708 209.577 93.108 230.077 88.908 245.577 L 84.508 261.877 L 60.008 261.777 C 37.408 261.777 35.008 261.577 28.808 259.477 Z " fill="rgb(255,255,255)"/><path d=" M 703.008 261.477 C 703.008 261.277 704.408 257.977 706.108 254.177 C 711.708 241.677 715.908 228.177 729.608 178.077 C 737.108 150.677 745.408 120.277 748.108 110.377 C 751.508 97.877 753.208 89.577 753.708 83.177 L 754.308 73.877 L 1013.508 73.877 C 1266.708 73.877 1272.908 73.877 1280.308 75.777 C 1292.008 78.777 1299.508 83.177 1307.708 91.677 C 1318.008 102.377 1320.408 115.277 1315.508 132.877 C 1314.008 138.077 1311.108 148.677 1309.008 156.377 C 1290.608 224.377 1290.008 226.077 1284.808 233.777 C 1276.708 245.877 1262.508 256.377 1248.808 260.277 C 1243.708 261.777 1218.608 261.877 973.108 261.877 C 824.508 261.877 703.008 261.677 703.008 261.477 Z  M 832.508 218.377 C 851.008 213.477 869.108 197.777 877.908 178.777 C 881.308 171.477 882.408 167.877 884.608 157.177 L 885.008 154.877 L 861.008 154.877 L 836.908 154.877 L 835.108 159.177 C 834.108 161.477 831.408 167.377 829.108 172.177 C 826.908 177.077 825.008 181.177 825.008 181.377 C 825.008 181.577 828.508 181.877 832.808 182.077 L 840.508 182.377 L 836.208 185.277 C 827.808 190.977 814.608 188.777 809.208 180.777 C 807.108 177.877 806.908 176.477 807.308 171.277 C 808.008 161.777 813.608 153.877 823.008 148.877 C 827.208 146.577 838.808 146.977 844.108 149.677 C 846.608 150.877 849.008 151.877 849.408 151.877 C 850.108 151.877 877.008 128.877 877.008 128.277 C 877.008 127.177 858.908 117.477 856.508 117.277 C 854.908 117.077 851.008 116.277 848.008 115.377 C 834.308 111.377 815.908 116.877 799.308 130.077 C 784.308 141.877 776.208 156.177 774.508 173.377 C 772.308 195.377 785.108 213.977 805.708 218.777 C 811.908 220.277 826.108 219.977 832.508 218.377 Z  M 1219.008 215.677 C 1223.108 213.777 1228.408 210.477 1230.608 208.477 C 1239.408 200.877 1245.008 188.977 1245.008 178.177 C 1245.008 167.577 1240.608 161.877 1228.208 156.177 C 1214.008 149.777 1212.008 148.677 1212.008 146.877 C 1212.008 144.577 1216.208 141.877 1219.608 141.877 C 1223.008 141.877 1232.508 144.677 1237.208 146.977 C 1239.308 148.077 1241.208 148.877 1241.508 148.877 C 1241.708 148.877 1245.608 141.677 1250.008 132.877 C 1254.408 124.077 1257.708 116.877 1257.308 116.877 C 1256.808 116.877 1251.108 115.777 1244.508 114.377 C 1234.108 112.377 1232.308 112.177 1231.408 113.477 C 1230.608 114.477 1227.808 114.877 1220.408 114.877 C 1206.808 114.877 1199.108 117.377 1190.208 124.577 C 1179.408 133.377 1173.908 151.577 1178.908 162.377 C 1182.008 168.977 1186.108 171.977 1200.708 177.777 C 1210.308 181.677 1211.808 182.877 1210.208 186.377 C 1207.608 191.977 1196.908 190.477 1180.708 182.177 L 1178.008 180.777 L 1171.008 195.077 C 1167.208 202.977 1164.008 209.677 1164.008 210.077 C 1164.008 211.277 1171.808 214.977 1179.508 217.577 C 1185.708 219.577 1188.008 219.877 1199.008 219.577 C 1210.908 219.277 1211.808 219.077 1219.008 215.677 Z  M 906.908 211.177 L 910.508 203.877 L 924.808 203.877 L 939.008 203.877 L 939.008 211.377 L 939.008 218.877 L 956.108 218.877 L 973.108 218.877 L 972.508 212.177 C 972.208 208.377 971.308 195.677 970.508 183.877 C 969.708 172.077 968.308 153.177 967.508 141.877 C 966.708 130.577 966.008 120.377 966.008 119.077 L 966.008 116.877 L 940.308 117.077 L 914.608 117.377 L 907.308 129.877 C 903.308 136.777 900.008 142.677 900.008 143.177 C 900.008 143.577 901.408 143.877 903.008 143.877 C 904.708 143.877 906.008 144.077 906.008 144.277 C 906.008 144.677 896.108 165.277 880.408 197.777 C 875.208 208.377 871.008 217.477 871.008 217.977 C 871.008 218.577 877.908 218.777 887.208 218.677 L 903.408 218.377 L 906.908 211.177 Z  M 1008.008 218.077 C 1008.008 217.677 1009.408 211.077 1011.008 203.377 C 1012.708 195.677 1014.808 186.277 1015.608 182.377 C 1016.408 178.577 1017.608 172.777 1018.308 169.577 L 1019.508 163.677 L 1027.008 173.777 L 1034.508 183.777 L 1045.208 173.177 C 1051.108 167.277 1056.108 162.677 1056.308 162.977 C 1056.508 163.177 1054.308 174.677 1051.408 188.377 C 1048.508 202.177 1045.908 214.577 1045.608 216.177 L 1045.108 218.877 L 1060.008 218.877 C 1068.308 218.877 1075.008 218.477 1075.008 218.077 C 1075.008 217.677 1079.508 195.877 1085.008 169.777 C 1090.608 143.777 1095.308 121.177 1095.708 119.677 L 1096.308 116.877 L 1080.408 116.877 L 1064.508 116.877 L 1054.108 127.277 L 1043.708 137.777 L 1036.808 127.277 L 1030.008 116.877 L 1013.508 117.077 L 997.008 117.377 L 990.508 132.377 C 986.908 140.577 984.008 147.477 984.008 147.577 C 984.008 147.777 985.608 147.877 987.508 147.877 C 990.808 147.877 991.008 148.077 990.408 150.677 C 990.108 152.177 989.608 154.077 989.408 154.877 C 989.108 155.577 988.008 160.777 986.908 166.377 C 984.208 179.277 982.808 186.277 979.108 203.377 C 977.408 211.077 976.008 217.677 976.008 218.077 C 976.008 218.577 983.208 218.877 992.008 218.877 C 1000.808 218.877 1008.008 218.577 1008.008 218.077 Z  M 1153.808 203.177 L 1160.908 187.377 L 1143.008 187.077 C 1124.008 186.777 1124.308 186.877 1125.608 182.177 C 1126.208 179.877 1126.508 179.877 1141.408 179.877 L 1156.708 179.877 L 1162.708 167.177 L 1168.708 154.377 L 1150.308 154.077 L 1131.908 153.877 L 1132.208 151.077 L 1132.508 148.377 L 1148.908 147.877 L 1165.308 147.377 L 1172.608 130.577 C 1176.708 121.277 1180.008 113.577 1180.008 113.277 C 1180.008 113.077 1173.508 112.877 1165.608 112.877 C 1152.008 112.877 1151.108 112.977 1150.508 114.877 C 1149.908 116.777 1149.008 116.877 1128.608 116.877 L 1107.308 116.877 L 1100.608 131.877 C 1097.008 140.077 1094.008 147.077 1094.008 147.277 C 1094.008 147.577 1095.508 147.877 1097.308 148.077 L 1100.708 148.377 L 1093.408 182.877 C 1089.408 201.877 1086.108 217.677 1086.008 218.177 C 1086.008 218.577 1099.708 218.877 1116.408 218.877 L 1146.708 218.877 L 1153.808 203.177 Z " fill="rgb(255,255,255)"/><path d=" M 924.808 173.177 C 925.908 171.077 928.908 164.777 931.508 159.077 C 934.208 153.477 936.508 149.077 936.808 149.377 C 937.008 149.577 937.508 155.877 937.908 163.377 L 938.508 176.877 L 930.708 176.877 L 923.008 176.877 L 924.808 173.177 Z " fill="rgb(255,255,255)"/></g><g id="layer2"><path d=" M 152.008 340.177 C 131.508 336.977 114.808 328.577 101.008 314.877 C 94.008 307.977 91.608 304.677 88.008 297.377 L 83.508 288.377 L 83.508 276.377 C 83.508 264.477 83.508 264.277 91.208 237.377 C 95.408 222.577 103.808 191.977 110.008 169.377 C 116.208 146.877 124.608 116.477 128.608 101.877 C 132.708 87.277 136.208 74.577 136.508 73.477 C 137.308 70.377 143.108 60.677 148.708 53.177 C 166.408 29.577 202.608 7.477 233.008 1.477 C 240.808 -0.023 260.308 -0.123 466.508 0.077 L 691.508 0.377 L 698.508 2.977 C 708.408 6.677 713.508 9.377 721.008 14.977 C 737.108 26.877 748.008 43.277 752.208 62.177 C 755.208 75.977 754.308 86.977 748.108 109.577 C 745.408 119.377 737.008 149.877 729.508 177.377 C 713.808 234.677 712.008 240.377 704.108 257.777 C 685.608 298.377 655.008 325.977 615.508 337.677 L 606.508 340.377 L 380.508 340.477 C 256.208 340.577 153.408 340.477 152.008 340.177 Z  M 201.908 287.577 C 206.008 280.377 210.708 271.977 212.408 269.177 L 215.508 263.877 L 251.908 263.877 L 288.308 263.877 L 287.608 276.677 C 287.308 283.677 286.708 291.977 286.408 295.177 L 285.708 300.877 L 329.008 300.877 L 372.308 300.877 L 371.708 236.677 C 371.308 201.277 370.708 142.577 370.308 106.177 L 369.708 39.877 L 305.108 39.877 L 240.508 39.877 L 235.608 47.677 C 232.908 51.877 228.408 58.977 225.608 63.377 C 222.708 67.777 217.008 76.677 213.008 83.177 C 208.908 89.577 203.408 98.177 200.908 102.177 L 196.308 109.377 L 205.108 109.877 L 213.908 110.377 L 207.408 122.377 C 203.808 128.977 197.708 140.277 193.808 147.377 C 189.908 154.577 182.308 168.477 177.008 178.377 C 171.608 188.277 164.408 201.577 161.008 207.877 C 157.608 214.177 153.108 222.577 151.008 226.377 C 148.908 230.277 144.708 238.077 141.508 243.877 C 133.408 258.677 122.408 279.077 117.708 287.877 C 115.508 291.977 113.108 296.277 112.408 297.377 C 111.608 298.477 111.008 299.677 111.008 300.077 C 111.008 300.577 129.808 300.877 152.808 300.877 L 194.508 300.877 L 201.908 287.577 Z  M 517.808 260.377 C 528.908 238.077 538.008 219.677 538.008 219.377 C 538.008 219.077 525.908 218.877 511.008 218.877 C 496.208 218.877 484.008 218.677 484.008 218.477 C 484.008 217.977 490.408 194.177 499.008 162.877 C 502.408 150.477 507.808 130.677 511.008 118.877 C 524.208 69.777 528.308 55.077 530.108 48.977 C 531.108 45.477 532.008 42.077 532.008 41.277 C 532.008 40.077 525.508 39.877 491.508 39.877 L 451.008 39.877 L 431.808 78.177 C 421.208 99.177 412.408 116.677 412.208 117.177 C 412.008 117.577 416.008 117.877 421.008 117.877 C 430.008 117.877 430.108 117.877 429.408 120.177 C 429.008 121.377 427.908 125.277 426.908 128.877 C 426.008 132.477 422.508 145.377 419.108 157.677 C 408.408 196.577 400.908 223.977 397.008 238.377 C 392.908 253.577 381.108 296.277 380.308 299.177 C 379.808 300.777 383.008 300.877 438.608 300.877 L 497.508 300.877 L 517.808 260.377 Z  M 664.508 260.877 C 675.508 238.877 684.708 220.377 684.808 219.877 C 685.008 219.277 675.408 218.877 658.108 218.877 C 643.208 218.877 631.008 218.577 631.008 218.277 C 631.008 217.877 633.308 209.277 636.108 198.977 C 640.908 181.577 643.508 172.077 658.908 115.177 C 666.608 86.977 676.608 50.377 678.008 45.877 C 678.508 43.977 679.008 41.777 679.008 41.077 C 679.008 40.077 670.708 39.877 638.408 40.077 L 597.808 40.377 L 578.408 78.877 C 567.808 100.077 559.008 117.477 559.008 117.677 C 559.008 117.777 563.008 117.877 567.908 117.877 L 576.908 117.877 L 574.108 128.177 C 572.508 133.777 568.708 147.877 565.508 159.377 C 562.408 170.977 557.408 189.177 554.508 199.877 C 549.508 217.977 543.408 240.277 532.308 280.877 C 529.808 289.977 527.608 298.177 527.308 299.177 C 526.808 300.777 530.008 300.877 585.608 300.877 L 644.508 300.877 L 664.508 260.877 Z " fill="rgb(255,255,255)"/><path d=" M 251.008 195.177 C 251.008 194.877 253.108 190.677 255.708 185.977 C 258.208 181.277 261.908 174.477 263.808 170.877 C 265.708 167.277 268.708 161.677 270.508 158.377 C 277.508 145.477 288.408 125.277 289.808 122.577 C 290.608 120.977 291.308 119.877 291.508 120.077 C 291.608 120.277 291.508 137.377 291.208 158.177 L 290.708 195.877 L 270.908 195.877 C 259.908 195.877 251.008 195.577 251.008 195.177 Z " fill="rgb(255,255,255)"/></g></svg>