<?xml version="1.0" standalone="no"?><!-- Generator: Gravit.io --><svg xmlns="http://www.w3.org/2000/svg" xmlns:xlink="http://www.w3.org/1999/xlink" style="isolation:isolate" viewBox="0 0 306.476 56.197" width="306.476" height="56.197"><g id="text4594"><g id="g5124"><g id="g5117"><path d=" M 26.3 1.15 L 25.628 3.166 L 4.647 3.166 L 1.138 18.174 L 4.647 18.174 L 4.647 54.238 L 20.626 54.238 L 20.626 37.141 L 34.364 37.141 L 37.874 22.728 L 20.626 22.728 L 20.626 19.07 L 36.53 19.07 L 40.86 1.15 L 26.3 1.15 Z  M 196.864 1.15 L 193.579 13.844 L 208.438 13.844 L 211.872 1.15 L 196.864 1.15 Z  M 229.737 8.244 L 214.878 11.902 L 214.878 16.906 L 213.309 16.906 L 209.802 30.867 L 214.878 30.867 L 214.878 54.238 L 229.737 54.238 L 229.737 30.867 L 232.35 30.867 L 235.86 16.906 L 229.737 16.906 L 229.737 8.244 Z  M 190.507 16.158 C 188.765 16.108 186.898 16.483 184.907 17.279 C 182.816 18.076 181.274 19.171 180.278 20.564 L 180.278 16.906 L 165.794 16.906 L 162.284 30.943 L 165.794 30.943 L 165.794 54.238 L 180.278 54.238 L 180.278 38.633 C 180.278 37.787 180.378 36.966 180.577 36.17 C 180.826 35.373 181.174 34.675 181.622 34.078 C 182.07 33.431 182.617 32.934 183.265 32.586 C 183.912 32.188 184.634 31.988 185.431 31.988 C 186.227 31.988 186.923 32.088 187.52 32.287 L 191.852 16.232 L 190.507 16.158 Z  M 254.645 16.158 C 248.921 16.158 244.242 17.9 240.608 21.385 C 237.024 24.919 235.231 29.5 235.231 35.125 C 235.231 41.696 237.82 46.698 242.997 50.133 C 247.427 53.07 253.101 54.537 260.02 54.537 C 260.916 54.537 262.087 54.462 263.53 54.312 C 264.974 54.213 266.716 54.04 268.757 53.791 L 272.192 40.799 C 266.866 41.944 263.107 42.516 260.917 42.516 C 256.238 42.516 253.201 41.221 251.808 38.633 L 274.134 38.633 L 274.134 36.691 C 274.134 30.917 272.316 26.065 268.683 22.133 C 264.999 18.151 260.32 16.158 254.645 16.158 L 254.645 16.158 Z  M 58.983 16.232 C 53.558 16.232 49.151 18.074 45.766 21.758 C 42.431 25.392 40.765 29.997 40.765 35.572 C 40.765 41.297 42.706 45.9 46.589 49.385 C 50.422 52.869 55.251 54.487 61.075 54.238 L 62.866 54.238 L 66.077 49.012 L 66.077 54.238 L 81.011 54.238 L 84.595 39.902 L 81.011 39.902 L 81.011 16.906 L 68.018 16.906 L 67.421 18.623 C 64.932 17.03 62.119 16.232 58.983 16.232 L 58.983 16.232 Z  M 141.493 16.383 C 135.868 16.383 131.163 18.174 127.38 21.758 C 123.447 25.392 121.481 30.022 121.481 35.646 C 121.481 41.321 123.374 45.976 127.157 49.609 C 130.94 53.243 135.668 55.061 141.343 55.061 C 147.117 55.061 151.946 53.268 155.829 49.684 C 159.712 46.05 161.653 41.346 161.653 35.572 C 161.653 29.947 159.712 25.342 155.829 21.758 C 151.946 18.174 147.168 16.383 141.493 16.383 Z  M 289.882 16.383 C 287.891 16.383 286.049 16.682 284.356 17.279 C 282.714 17.827 281.295 18.647 280.1 19.742 C 278.906 20.837 277.986 22.182 277.339 23.775 C 276.692 25.318 276.368 27.061 276.368 29.002 C 276.368 31.939 277.536 34.353 279.876 36.244 C 281.369 37.439 283.561 38.534 286.448 39.529 C 288.788 40.375 289.956 40.998 289.956 41.396 C 289.956 42.641 289.185 43.264 287.641 43.264 C 285.899 43.264 283.137 42.118 279.354 39.828 L 276.292 51.85 C 281.917 53.841 286.771 54.836 290.852 54.836 C 295.034 54.836 298.418 53.841 301.007 51.85 C 303.894 49.709 305.339 46.597 305.339 42.516 C 305.339 39.678 304.144 37.313 301.755 35.422 C 300.162 34.227 297.946 33.083 295.108 31.988 C 292.719 31.092 291.524 30.37 291.524 29.822 C 291.524 28.777 292.171 28.254 293.466 28.254 C 295.158 28.254 297.399 29.275 300.186 31.316 L 303.696 20.34 C 299.166 17.702 294.561 16.383 289.882 16.383 Z  M 82.634 16.906 L 93.46 54.238 L 110.708 54.238 L 122.134 16.906 L 106.751 16.906 L 102.794 37.215 L 98.239 16.906 L 82.634 16.906 Z  M 193.431 16.906 L 189.847 30.867 L 193.356 30.867 L 193.356 54.238 L 208.288 54.238 L 211.872 39.902 L 208.288 39.902 L 208.288 16.906 L 193.431 16.906 Z  M 254.495 26.687 C 255.839 26.687 256.936 27.109 257.782 27.955 C 258.628 28.801 259.05 29.898 259.05 31.242 L 249.718 31.242 C 249.718 29.848 250.165 28.751 251.061 27.955 C 251.957 27.109 253.101 26.687 254.495 26.687 L 254.495 26.687 Z  M 61.448 30.121 C 62.543 30.121 63.587 30.495 64.583 31.242 C 65.578 31.939 66.077 32.81 66.077 33.855 L 66.077 39.828 L 62.268 39.828 C 58.286 39.828 56.296 38.285 56.296 35.199 C 56.296 33.855 56.819 32.685 57.864 31.689 C 58.909 30.644 60.104 30.121 61.448 30.121 Z  M 147.977 44.977 L 141.56 41.597 L 135.139 44.967 L 136.37 37.82 L 131.181 32.754 L 138.358 31.717 L 141.573 25.216 L 144.777 31.722 L 151.953 32.77 L 146.756 37.828 L 147.977 44.977 Z " fill-rule="evenodd" fill="rgb(255,255,255)"/></g></g></g></svg>