<?xml version="1.0" standalone="no"?><!-- Generator: Gravit.io --><svg xmlns="http://www.w3.org/2000/svg" xmlns:xlink="http://www.w3.org/1999/xlink" style="isolation:isolate" viewBox="0 0 397.328 103.708" width="397.328" height="103.708"><g id="g4658"><g id="g8003"><g id="text7708"><path d=" M 367.002 29.776 Q 368.324 29.776 369.545 30.081 Q 369.952 30.183 370.054 30.183 Q 370.257 30.081 370.461 29.572 Q 372.089 25.604 373.615 21.738 Q 375.243 17.872 376.566 14.616 Q 377.99 11.258 379.008 8.918 Q 380.025 6.476 380.534 5.56 Q 381.144 4.238 381.653 3.831 Q 382.263 3.424 382.772 3.424 Q 383.586 3.424 384.4 3.831 Q 385.316 4.238 386.537 5.662 Q 387.656 6.985 387.656 8.206 Q 387.758 9.325 386.944 11.258 Q 385.825 13.903 383.993 17.872 Q 382.162 21.738 379.618 28.657 Q 378.499 31.709 377.481 35.067 Q 376.566 38.424 375.853 41.578 Q 375.141 44.732 374.633 47.48 Q 374.124 50.227 374.022 52.16 Q 373.513 57.247 375.955 57.247 Q 377.176 57.247 379.313 55.517 Q 381.449 53.788 383.688 51.448 Q 386.028 49.107 387.961 46.869 Q 389.894 44.631 390.607 43.511 Q 391.522 42.189 392.336 41.985 Q 393.15 41.782 393.659 42.596 Q 394.066 43.308 393.761 44.631 Q 393.455 45.852 392.743 47.276 Q 391.522 49.718 389.182 52.77 Q 386.842 55.823 383.891 58.57 Q 380.941 61.317 377.685 63.148 Q 374.429 64.98 371.478 64.98 Q 369.952 64.98 368.833 64.268 Q 367.714 63.555 367.002 62.436 Q 366.289 61.215 365.984 59.893 Q 365.679 58.468 365.781 57.145 Q 365.882 55.416 365.984 54.398 Q 366.086 53.279 366.289 52.363 Q 366.391 51.753 366.086 51.753 Q 365.882 51.651 365.475 52.16 Q 364.56 53.279 363.237 54.602 Q 361.914 55.924 360.49 57.247 Q 359.167 58.468 357.844 59.587 Q 356.522 60.605 355.606 61.215 Q 352.248 63.555 349.4 64.573 Q 346.551 65.59 344.821 65.59 Q 343.091 65.59 341.667 64.268 Q 340.242 62.843 340.242 58.977 Q 340.242 57.349 340.751 55.11 Q 341.26 52.77 342.481 50.023 Q 343.702 47.276 345.635 44.325 Q 347.568 41.273 350.417 38.119 Q 354.589 33.54 358.658 31.709 Q 362.728 29.776 367.002 29.776 L 367.002 29.776 Z  M 364.967 35.677 Q 363.542 35.677 360.592 38.119 Q 357.743 40.561 354.792 44.732 Q 351.536 49.311 350.722 51.448 Q 349.908 53.483 349.908 54.602 Q 349.908 56.331 351.231 56.331 Q 352.147 56.331 353.876 55.314 Q 355.708 54.195 358.15 51.855 Q 359.472 50.532 360.795 48.7 Q 362.22 46.869 363.44 45.038 Q 364.661 43.206 365.577 41.782 Q 366.493 40.256 366.696 39.645 Q 367.205 38.628 367.103 38.017 Q 367.103 37.305 366.798 36.796 Q 366.188 35.677 364.967 35.677 L 364.967 35.677 Z  M 308.497 55.314 Q 308.497 51.855 310.328 46.767 Q 312.16 41.68 315.517 36.796 Q 316.23 35.779 317.552 34.253 Q 318.875 32.625 320.401 31.302 Q 322.029 29.878 323.759 28.86 Q 325.489 27.843 327.116 27.843 Q 328.541 27.843 329.355 28.453 Q 330.169 28.962 330.678 29.878 Q 331.288 30.691 332.204 30.793 Q 334.849 30.997 336.477 32.625 Q 338.105 34.151 338.105 37.101 Q 338.105 39.849 336.884 42.087 Q 335.765 44.224 334.239 45.953 Q 332.611 47.581 329.864 49.209 Q 327.218 50.735 323.047 50.735 Q 322.233 50.735 321.419 50.532 Q 320.605 50.227 319.892 49.921 Q 318.977 49.514 318.57 50.43 Q 318.163 51.244 317.959 51.956 Q 317.756 52.669 317.756 53.788 Q 317.756 55.517 318.875 56.535 Q 320.096 57.552 322.334 57.552 Q 324.573 57.552 327.422 56.84 Q 330.372 56.128 333.628 54.602 Q 336.986 52.974 340.649 50.328 Q 344.311 47.683 348.178 43.715 Q 348.992 42.901 349.602 42.901 Q 350.314 42.901 350.62 43.41 Q 351.027 44.122 350.62 45.343 Q 350.314 46.564 349.297 47.887 Q 346.652 51.244 343.091 54.398 Q 339.529 57.552 335.358 59.994 Q 331.288 62.436 326.71 63.962 Q 322.233 65.387 317.756 65.387 Q 316.026 65.387 314.296 64.675 Q 312.669 64.064 311.346 62.741 Q 310.023 61.419 309.209 59.587 Q 308.497 57.756 308.497 55.314 L 308.497 55.314 Z  M 322.233 44.834 Q 323.454 44.834 324.776 44.122 Q 326.201 43.308 327.32 42.189 Q 328.541 41.07 329.253 39.849 Q 330.067 38.526 330.067 37.407 Q 330.067 36.288 329.355 35.779 Q 328.744 35.168 327.727 35.168 Q 326.913 35.168 325.997 35.982 Q 325.082 36.796 324.064 38.017 Q 323.148 39.238 322.334 40.663 Q 321.52 42.087 321.113 43.308 Q 320.808 44.224 321.012 44.529 Q 321.215 44.834 322.233 44.834 L 322.233 44.834 Z  M 278.048 39.95 Q 278.15 38.322 277.946 37.61 Q 277.845 36.898 277.641 36.389 Q 277.438 35.881 277.539 35.067 Q 277.743 34.151 278.455 32.93 Q 279.371 31.302 280.693 29.674 Q 282.118 27.944 283.848 27.944 Q 284.865 27.944 285.577 28.962 Q 286.289 29.878 286.595 31.404 Q 287.002 32.93 287.103 34.66 Q 287.205 36.389 287.205 37.915 Q 287.205 39.442 287.002 41.477 Q 286.798 43.41 286.493 45.546 Q 286.289 47.581 286.086 49.514 Q 285.882 51.448 285.781 52.669 Q 285.577 54.602 285.984 55.517 Q 286.391 56.433 286.9 56.433 Q 287.205 56.433 289.545 53.584 Q 291.885 50.634 296.057 43.511 Q 297.176 41.578 297.38 40.459 Q 297.583 39.34 297.38 38.424 Q 297.176 37.61 297.278 36.593 Q 297.38 35.474 298.092 34.253 Q 298.804 33.032 299.516 31.912 Q 300.229 30.793 301.348 29.369 Q 302.162 28.555 302.772 28.046 Q 303.484 27.436 304.604 27.436 Q 305.011 27.436 305.621 27.944 Q 306.333 28.351 306.944 29.165 Q 307.656 29.878 308.165 30.793 Q 308.673 31.709 308.673 32.726 Q 308.673 33.642 308.266 35.168 Q 307.961 36.593 307.249 38.322 Q 306.537 40.052 305.112 42.697 Q 303.688 45.343 301.958 48.293 Q 300.229 51.244 298.194 54.195 Q 296.261 57.044 294.531 59.18 Q 286.289 69.355 281.1 75.561 Q 276.013 81.768 275.199 83.091 Q 273.775 85.024 274.08 85.431 Q 275.606 85.939 275.606 87.364 Q 275.606 88.483 274.589 89.5 Q 273.673 90.518 272.35 91.434 Q 271.129 92.349 269.807 92.96 Q 268.484 93.672 267.67 94.079 Q 266.144 94.791 265.432 95.605 Q 264.618 96.419 263.702 97.844 Q 262.786 99.268 261.565 99.777 Q 260.344 100.286 258.92 100.286 Q 257.292 100.286 256.173 99.166 Q 254.952 98.149 255.461 96.724 Q 255.867 95.3 256.58 94.079 Q 257.19 92.858 258.208 91.535 Q 259.734 89.5 260.853 88.788 Q 261.972 88.076 262.583 87.873 Q 264.007 87.364 264.821 85.736 Q 265.432 84.413 266.653 82.684 Q 267.772 80.954 270.214 77.495 Q 272.045 75.154 274.589 71.797 Q 277.234 68.439 280.693 64.268 Q 281.304 63.555 280.999 63.555 L 280.286 63.555 Q 278.862 63.555 278.15 61.317 Q 277.438 58.977 277.641 53.788 L 278.048 39.95 Z  M 258.984 28.351 Q 260.103 28.351 260.816 29.165 Q 261.63 29.878 262.138 30.488 Q 262.444 31.404 263.461 30.691 Q 264.682 29.572 265.903 30.386 Q 268.04 31.607 268.04 32.523 Q 268.141 33.439 267.938 34.151 Q 265.903 38.729 264.682 43.41 Q 263.461 47.988 263.461 52.567 Q 263.461 55.212 264.173 56.433 Q 264.886 57.552 266.005 57.552 Q 266.92 57.552 268.548 56.433 Q 270.176 55.314 272.313 53.381 Q 274.45 51.346 276.79 48.599 Q 279.232 45.852 281.674 42.494 Q 282.487 41.68 283.2 41.782 Q 283.912 41.782 284.217 42.29 Q 284.624 43.003 284.319 44.325 Q 284.014 45.546 283.301 46.971 Q 281.572 50.328 279.028 53.584 Q 276.484 56.84 273.636 59.486 Q 270.787 62.131 267.836 63.759 Q 264.987 65.387 262.545 65.387 Q 259.696 65.387 257.763 63.25 Q 255.932 61.113 255.627 57.959 Q 255.423 56.84 255.423 56.026 Q 255.423 55.212 255.423 54.398 Q 255.321 53.279 254.507 54.093 Q 253.999 54.602 252.879 55.721 Q 251.76 56.84 250.336 58.061 Q 249.013 59.282 247.487 60.503 Q 246.063 61.724 245.045 62.436 Q 241.077 65.387 238.025 65.387 Q 237.516 65.387 236.6 64.98 Q 235.786 64.573 234.972 63.861 Q 234.158 63.047 233.446 61.927 Q 232.836 60.808 232.836 59.384 Q 232.836 57.858 233.548 55.212 Q 234.26 52.567 236.702 47.887 Q 238.737 43.817 241.687 40.256 Q 244.638 36.593 247.894 33.642 Q 250.031 31.811 251.862 30.793 Q 253.693 29.674 255.118 29.165 Q 256.542 28.657 257.56 28.555 Q 258.577 28.351 258.984 28.351 L 258.984 28.351 Z  M 255.22 35.982 Q 254.507 35.982 253.185 37 Q 251.964 38.017 249.725 40.663 Q 248.403 42.189 247.182 44.02 Q 246.063 45.75 245.147 47.48 Q 244.231 49.107 243.621 50.634 Q 243.01 52.16 242.807 53.177 Q 242.603 54.195 242.705 55.11 Q 242.908 55.924 243.519 55.924 Q 244.129 55.924 245.147 55.314 Q 246.266 54.602 247.385 53.584 Q 248.708 52.465 249.929 50.939 Q 251.252 49.311 253.592 46.666 Q 254.711 45.445 255.728 43.715 Q 256.746 41.985 257.051 41.477 Q 257.56 40.663 257.662 39.849 Q 257.865 38.933 257.662 38.119 Q 257.458 37.407 256.848 36.694 Q 256.237 35.982 255.22 35.982 L 255.22 35.982 Z  M 210.735 58.773 Q 210.735 57.654 211.041 55.619 Q 211.346 53.483 212.16 50.125 Q 213.076 46.767 214.602 41.985 Q 216.23 37.203 218.875 30.691 Q 223.555 18.991 226.302 13.293 Q 229.05 7.493 230.169 6.069 Q 231.39 4.543 232.814 4.543 Q 233.933 4.543 234.646 5.255 Q 237.189 7.392 237.087 9.223 Q 236.986 10.953 235.358 14.107 Q 232.509 19.601 230.27 24.892 Q 228.032 30.081 226.201 34.761 Q 224.471 39.442 223.148 43.41 Q 221.927 47.378 221.012 50.227 Q 219.791 54.195 220.198 55.619 Q 220.605 56.942 221.826 56.942 Q 223.047 56.942 224.98 55.924 Q 226.913 54.805 229.253 52.974 Q 231.695 51.041 234.239 48.497 Q 236.884 45.852 239.428 42.799 Q 240.14 41.985 240.649 41.985 Q 241.259 41.985 241.564 42.494 Q 242.175 43.817 240.852 46.462 Q 239.733 48.7 236.986 51.956 Q 234.34 55.212 230.779 58.163 Q 227.32 61.113 223.352 63.25 Q 219.384 65.387 215.924 65.387 Q 213.686 65.387 212.16 63.454 Q 210.735 61.52 210.735 58.773 L 210.735 58.773 Z  M 212.778 30.183 Q 212.778 31.912 211.964 33.744 Q 211.252 35.575 210.031 37.305 Q 208.81 38.933 207.284 40.357 Q 205.86 41.782 204.435 42.697 Q 203.621 43.308 202.4 44.02 Q 201.179 44.732 199.755 45.445 Q 198.33 46.157 196.804 46.767 Q 195.278 47.378 193.853 47.785 Q 192.938 47.988 192.124 48.09 Q 191.31 48.192 190.699 48.192 Q 190.089 48.192 189.377 47.785 Q 188.766 47.276 188.766 46.462 Q 188.766 45.75 189.071 44.936 Q 189.478 44.122 189.987 43.613 Q 190.598 42.799 191.92 41.884 Q 193.243 40.866 194.871 39.747 Q 196.194 38.831 197.72 38.017 Q 199.246 37.101 200.569 36.084 Q 201.891 35.067 202.807 33.846 Q 203.723 32.523 203.723 30.997 Q 203.723 29.369 202.807 28.25 Q 201.891 27.029 200.569 26.316 Q 199.348 25.604 197.923 25.299 Q 196.601 24.994 195.685 24.994 Q 194.362 24.994 193.853 26.113 Q 192.938 28.148 192.022 30.691 Q 191.106 33.133 189.275 38.119 Q 187.647 42.596 186.223 46.869 Q 184.798 51.142 183.679 55.416 Q 183.17 56.637 183.475 57.145 Q 183.781 57.552 184.9 57.858 Q 186.324 58.265 188.664 58.57 Q 191.106 58.773 192.836 58.977 Q 194.566 59.18 194.464 60.198 Q 194.362 61.215 192.938 62.233 Q 191.819 63.047 189.173 63.759 Q 186.63 64.471 183.374 64.471 Q 182.56 64.471 181.644 64.573 Q 180.83 64.776 180.22 65.489 Q 179.711 65.997 178.693 66.404 Q 177.778 66.811 176.658 66.811 Q 174.115 66.811 172.385 65.59 Q 170.655 64.471 169.842 62.741 Q 168.621 59.994 172.69 58.366 Q 173.504 58.061 174.013 57.654 Q 174.624 57.145 175.031 56.331 Q 175.641 53.788 176.76 50.125 Q 177.879 46.462 179.1 42.596 Q 180.321 38.628 181.542 34.863 Q 182.763 30.997 183.679 28.046 Q 184.086 26.927 183.984 26.622 Q 183.882 26.215 183.068 26.723 Q 181.949 27.334 180.321 28.148 Q 178.795 28.962 178.286 28.962 Q 177.676 28.962 176.862 28.758 Q 176.048 28.555 175.438 27.843 Q 174.929 27.334 174.827 26.418 Q 174.827 25.401 176.15 24.282 Q 177.879 22.755 180.321 21.534 Q 182.865 20.313 185.103 19.499 Q 185.816 19.194 186.019 18.991 Q 186.324 18.787 186.528 18.279 Q 186.935 17.261 187.85 15.938 Q 188.868 14.616 190.292 14.616 Q 191.106 14.616 192.429 15.328 Q 193.853 15.938 195.583 17.668 Q 196.092 18.177 196.397 18.38 Q 196.702 18.482 197.313 18.482 Q 198.636 18.482 200.569 18.991 Q 202.502 19.499 204.435 20.415 Q 206.47 21.331 208.2 22.552 Q 210.031 23.773 211.15 25.197 Q 212.066 26.418 212.371 27.843 Q 212.778 29.267 212.778 30.183 L 212.778 30.183 Z  M 133.025 57.451 Q 134.348 57.451 135.773 57.044 Q 137.299 56.535 138.723 55.924 Q 140.249 55.314 141.572 54.602 Q 142.895 53.89 143.811 53.279 Q 144.726 52.669 145.235 52.872 Q 145.744 52.974 145.845 53.584 Q 145.947 54.093 145.642 54.907 Q 145.438 55.619 144.828 56.331 Q 143.404 57.756 140.046 60.198 Q 136.79 62.64 130.685 64.573 Q 128.345 65.387 126.31 65.387 Q 124.072 65.387 121.935 63.861 Q 119.799 62.334 119.799 59.689 Q 119.799 58.061 120.918 55.11 Q 121.325 54.093 122.037 51.956 Q 122.749 49.718 123.461 47.48 Q 124.275 45.241 124.886 43.41 Q 125.598 41.477 125.802 40.968 Q 126.005 40.459 125.903 40.154 Q 125.903 39.849 125.089 39.95 Q 124.479 40.052 123.461 40.154 Q 122.546 40.154 121.528 40.357 Q 120.714 40.459 120.104 40.154 Q 119.493 39.747 118.985 39.34 Q 118.476 38.831 118.476 37.915 Q 118.578 36.898 119.188 36.186 Q 119.9 35.372 120.409 34.965 Q 121.019 34.456 122.139 34.253 Q 123.054 34.049 124.275 33.846 Q 125.598 33.54 127.124 33.235 Q 127.836 33.032 128.243 32.828 Q 128.752 32.523 129.057 31.709 Q 129.261 31.302 129.871 29.674 Q 130.482 28.046 131.194 26.113 Q 131.906 24.078 132.618 22.247 Q 133.331 20.415 133.738 19.601 Q 134.45 18.177 136.18 17.159 Q 137.909 16.142 139.028 16.142 Q 140.351 16.142 141.47 17.261 Q 143.709 19.499 142.081 22.348 Q 140.351 25.401 139.232 28.148 Q 138.113 30.895 137.807 31.607 Q 137.604 32.218 138.011 32.319 Q 138.52 32.319 139.028 32.319 Q 140.758 32.319 142.793 32.218 Q 144.93 32.116 146.965 32.014 Q 149.101 31.912 150.831 31.912 Q 152.662 31.811 153.68 31.811 Q 154.596 31.811 154.901 32.218 Q 155.206 32.523 155.003 33.133 Q 154.901 33.642 154.392 34.151 Q 153.985 34.66 153.476 34.965 Q 152.154 35.677 147.779 36.796 Q 143.505 37.814 136.688 38.729 Q 135.671 38.933 135.264 39.238 Q 134.857 39.442 134.45 40.256 Q 133.941 41.477 133.229 43.104 Q 132.618 44.732 132.008 46.462 Q 131.499 48.192 130.991 49.82 Q 130.584 51.346 130.482 52.465 Q 130.075 54.805 130.482 56.128 Q 130.991 57.451 133.025 57.451 L 133.025 57.451 Z  M 111.873 28.25 Q 113.806 28.25 115.027 28.657 Q 116.248 28.962 117.265 29.674 Q 118.283 30.386 118.588 31.2 Q 118.995 31.912 118.995 32.828 Q 118.995 34.253 117.977 34.965 Q 117.062 35.575 115.739 35.575 Q 113.399 35.575 110.957 36.084 Q 108.617 36.491 106.684 37.305 Q 104.751 38.119 103.53 39.136 Q 102.41 40.154 102.41 41.375 Q 102.41 42.799 103.224 44.529 Q 104.14 46.157 105.463 47.887 Q 107.192 50.125 108.21 52.262 Q 109.329 54.398 109.329 56.433 Q 109.329 57.552 108.515 59.18 Q 107.701 60.808 106.785 61.622 Q 106.277 62.131 105.361 62.741 Q 104.445 63.25 103.326 63.861 Q 102.309 64.471 101.189 64.98 Q 100.172 65.59 99.358 65.895 Q 97.018 66.811 95.492 66.811 Q 94.474 66.811 93.253 66.506 Q 92.134 66.302 91.117 65.794 Q 90.099 65.285 89.285 64.573 Q 88.573 63.861 88.471 63.047 Q 88.471 62.538 88.573 62.029 Q 88.776 61.419 89.285 60.91 Q 90.404 59.689 91.32 59.079 Q 92.236 58.366 92.948 58.061 Q 94.271 57.349 95.492 58.265 Q 96.306 58.57 96.814 58.773 Q 97.425 58.875 98.544 58.875 Q 99.561 58.875 100.07 58.468 Q 100.681 57.959 100.681 57.451 Q 100.681 56.637 100.07 55.416 Q 99.46 54.093 98.341 52.669 Q 97.527 51.651 96.509 49.921 Q 95.492 48.09 94.983 46.971 Q 94.576 46.055 94.271 44.936 Q 93.965 43.715 93.965 42.697 Q 93.965 39.95 95.899 37.203 Q 97.832 34.456 100.07 32.726 Q 101.291 31.709 102.716 30.895 Q 104.242 30.081 105.87 29.471 Q 107.498 28.86 109.024 28.555 Q 110.652 28.25 111.873 28.25 L 111.873 28.25 Z  M 72.484 28.351 Q 73.603 28.351 74.315 29.165 Q 75.129 29.878 75.638 30.488 Q 75.943 31.404 76.96 30.691 Q 78.181 29.572 79.402 30.386 Q 81.539 31.607 81.539 32.523 Q 81.641 33.439 81.437 34.151 Q 79.402 38.729 78.181 43.41 Q 76.96 47.988 76.96 52.567 Q 76.96 55.212 77.673 56.433 Q 78.385 57.552 79.504 57.552 Q 80.42 57.552 82.048 56.433 Q 83.676 55.314 85.812 53.381 Q 87.949 51.346 90.289 48.599 Q 92.731 45.852 95.173 42.494 Q 95.987 41.68 96.699 41.782 Q 97.411 41.782 97.717 42.29 Q 98.124 43.003 97.818 44.325 Q 97.513 45.546 96.801 46.971 Q 95.071 50.328 92.528 53.584 Q 89.984 56.84 87.135 59.486 Q 84.286 62.131 81.336 63.759 Q 78.487 65.387 76.045 65.387 Q 73.196 65.387 71.263 63.25 Q 69.431 61.113 69.126 57.959 Q 68.922 56.84 68.922 56.026 Q 68.922 55.212 68.922 54.398 Q 68.821 53.279 68.007 54.093 Q 67.498 54.602 66.379 55.721 Q 65.26 56.84 63.835 58.061 Q 62.513 59.282 60.986 60.503 Q 59.562 61.724 58.544 62.436 Q 54.576 65.387 51.524 65.387 Q 51.015 65.387 50.1 64.98 Q 49.286 64.573 48.472 63.861 Q 47.658 63.047 46.945 61.927 Q 46.335 60.808 46.335 59.384 Q 46.335 57.858 47.047 55.212 Q 47.759 52.567 50.201 47.887 Q 52.236 43.817 55.187 40.256 Q 58.137 36.593 61.393 33.642 Q 63.53 31.811 65.361 30.793 Q 67.193 29.674 68.617 29.165 Q 70.042 28.657 71.059 28.555 Q 72.077 28.351 72.484 28.351 L 72.484 28.351 Z  M 68.719 35.982 Q 68.007 35.982 66.684 37 Q 65.463 38.017 63.225 40.663 Q 61.902 42.189 60.681 44.02 Q 59.562 45.75 58.646 47.48 Q 57.73 49.107 57.12 50.634 Q 56.51 52.16 56.306 53.177 Q 56.103 54.195 56.204 55.11 Q 56.408 55.924 57.018 55.924 Q 57.629 55.924 58.646 55.314 Q 59.765 54.602 60.885 53.584 Q 62.207 52.465 63.428 50.939 Q 64.751 49.311 67.091 46.666 Q 68.21 45.445 69.228 43.715 Q 70.245 41.985 70.55 41.477 Q 71.059 40.663 71.161 39.849 Q 71.364 38.933 71.161 38.119 Q 70.957 37.407 70.347 36.694 Q 69.736 35.982 68.719 35.982 L 68.719 35.982 Z  M 30.542 58.366 Q 33.391 58.366 36.443 57.858 Q 39.597 57.349 42.243 56.23 Q 44.176 55.416 44.278 56.433 Q 44.481 57.451 43.362 58.672 Q 40.31 62.233 35.324 63.861 Q 30.339 65.489 25.048 65.489 Q 23.013 65.489 20.876 65.285 Q 18.74 65.183 17.112 64.98 Q 15.382 64.675 14.466 64.471 Q 13.551 64.369 13.042 64.369 Q 12.228 64.369 11.414 64.675 Q 10.6 65.082 9.481 65.692 Q 8.362 66.302 6.937 65.997 Q 5.614 65.692 5.309 64.268 Q 5.106 63.555 4.699 62.741 Q 4.292 61.826 3.783 60.91 Q 3.274 60.096 3.478 58.773 Q 3.681 57.451 4.597 56.637 Q 6.123 55.11 7.446 55.11 Q 7.853 55.11 8.158 54.907 Q 8.463 54.703 8.769 53.89 Q 9.888 51.448 11.109 48.09 Q 12.33 44.732 13.449 41.171 Q 14.67 37.61 15.687 34.151 Q 16.806 30.59 17.519 27.843 Q 18.027 26.113 17.213 26.011 Q 16.094 25.808 14.67 24.994 Q 13.347 24.078 13.347 22.857 Q 13.347 21.636 14.975 21.331 Q 17.315 20.822 19.147 19.805 Q 20.978 18.686 21.894 17.566 Q 23.013 16.142 25.048 16.142 Q 26.778 16.142 28.507 17.261 Q 30.237 18.38 30.847 19.906 Q 31.56 21.636 30.237 23.264 Q 29.423 24.18 28.711 25.808 Q 27.998 27.334 27.49 28.657 Q 27.185 29.471 26.778 30.691 Q 26.371 31.912 25.557 34.049 Q 24.844 36.084 23.725 39.035 Q 22.606 41.985 20.978 46.157 Q 19.554 49.718 18.638 51.855 Q 17.824 53.991 17.417 54.805 Q 17.213 55.314 17.315 55.823 Q 17.417 56.331 18.129 56.535 Q 18.841 56.84 20.368 57.145 Q 21.894 57.451 23.623 57.756 Q 25.455 58.061 27.286 58.265 Q 29.118 58.366 30.542 58.366 L 30.542 58.366 Z " fill="rgb(255,255,255)"/></g></g></g></svg>