<?xml version="1.0" standalone="no"?><!-- Generator: Gravit.io --><svg xmlns="http://www.w3.org/2000/svg" xmlns:xlink="http://www.w3.org/1999/xlink" style="isolation:isolate" viewBox="0 0 169.5 67.609" width="169.5" height="67.609"><g id="null"><path d=" M 77.599 28.495 C 77.599 34.123 73.188 36.937 64.367 36.937 C 62.836 36.937 60.451 36.895 57.212 36.81 C 57.388 32.539 57.477 27.724 57.477 22.364 C 57.477 17.217 57.389 12.826 57.212 9.191 L 60.505 9.191 C 61.129 9.191 62.175 9.17 63.645 9.128 C 65.115 9.086 66.264 9.064 67.09 9.064 C 73.093 9.064 76.094 11.101 76.094 15.173 C 76.094 18.313 74.556 20.391 71.48 21.409 L 71.48 21.727 C 73.119 21.996 74.549 22.664 75.769 23.731 C 76.989 24.801 77.599 26.388 77.599 28.495 Z  M 70.627 16.85 C 70.627 14.319 69.109 13.053 66.074 13.053 C 64.678 13.053 63.438 13.159 62.355 13.371 C 62.503 14.8 62.578 17.253 62.578 20.732 C 63.093 20.76 63.635 20.774 64.204 20.774 C 68.486 20.773 70.627 19.466 70.627 16.85 Z  M 72.111 28.729 C 72.111 25.915 69.747 24.507 65.017 24.507 C 64.082 24.507 63.276 24.543 62.599 24.613 C 62.599 27.569 62.66 30.291 62.782 32.78 C 63.242 32.894 63.933 32.95 64.855 32.95 C 67.362 32.95 69.198 32.636 70.363 32.006 C 71.528 31.376 72.111 30.284 72.111 28.729 Z " fill="rgb(249,248,225)"/><path d=" M 102.478 28.495 C 102.478 34.123 98.067 36.937 89.246 36.937 C 87.715 36.937 85.33 36.895 82.092 36.81 C 82.268 32.539 82.356 27.724 82.356 22.364 C 82.356 17.217 82.268 12.826 82.092 9.191 L 85.384 9.191 C 86.007 9.191 87.054 9.17 88.524 9.128 C 89.995 9.086 91.143 9.064 91.969 9.064 C 97.972 9.064 100.973 11.101 100.973 15.173 C 100.973 18.313 99.436 20.391 96.36 21.409 L 96.36 21.727 C 98 21.996 99.429 22.664 100.649 23.731 C 101.868 24.801 102.478 26.388 102.478 28.495 Z  M 95.506 16.85 C 95.506 14.319 93.988 13.053 90.953 13.053 C 89.557 13.053 88.317 13.159 87.233 13.371 C 87.382 14.8 87.457 17.253 87.457 20.732 C 87.972 20.76 88.514 20.774 89.083 20.774 C 93.365 20.773 95.506 19.466 95.506 16.85 Z  M 96.99 28.729 C 96.99 25.915 94.625 24.507 89.897 24.507 C 88.962 24.507 88.155 24.543 87.478 24.613 C 87.478 27.569 87.539 30.291 87.661 32.78 C 88.121 32.894 88.812 32.95 89.734 32.95 C 92.241 32.95 94.077 32.636 95.242 32.006 C 96.407 31.376 96.99 30.284 96.99 28.729 Z " fill="rgb(249,248,225)"/><path d=" M 125.913 31.783 L 125.567 36.662 C 123.642 37.142 121.746 37.383 119.876 37.383 C 115.229 37.383 111.688 36.044 109.256 33.363 C 106.823 30.683 105.608 27.427 105.608 23.594 C 105.608 19.621 106.899 16.163 109.48 13.221 C 112.061 10.28 115.602 8.809 120.1 8.809 C 121.753 8.809 123.319 9.007 124.795 9.403 L 124.084 14.303 C 122.484 13.765 120.953 13.497 119.49 13.497 C 116.739 13.497 114.693 14.406 113.351 16.223 C 112.009 18.04 111.339 20.25 111.339 22.852 C 111.339 25.511 112.134 27.816 113.728 29.767 C 115.32 31.719 117.552 32.695 120.424 32.695 C 122.106 32.695 123.935 32.392 125.913 31.783 Z " fill="rgb(249,248,225)"/></g><g id="null"><path d=" M 62.958 50.963 L 59.765 41.869 C 59.747 41.828 59.711 41.788 59.639 41.788 C 59.567 41.788 59.478 41.842 59.478 41.924 L 59.478 50.963 L 57.989 50.963 L 57.989 41.001 L 60.734 41.001 L 63.532 48.737 C 63.568 48.818 63.622 48.859 63.694 48.859 C 63.802 48.859 63.892 48.804 63.909 48.723 L 66.636 41 L 69.417 41 L 69.417 50.962 L 67.928 50.962 L 67.928 41.978 C 67.928 41.896 67.856 41.855 67.802 41.855 C 67.73 41.855 67.658 41.882 67.623 41.951 L 64.466 50.963 L 62.958 50.963 Z " fill="rgb(249,248,225)"/><path d=" M 73.093 50.081 L 74.205 50.081 L 74.205 41.91 L 73.093 41.91 L 73.093 41.001 L 77.237 41.001 L 77.237 41.91 L 76.071 41.91 L 76.071 50.081 L 77.237 50.081 L 77.237 50.963 L 73.093 50.963 L 73.093 50.081 Z " fill="rgb(249,248,225)"/><path d=" M 86.456 43.893 C 86.312 42.928 85.703 42.06 84.268 42.06 C 82.958 42.06 82.402 42.833 82.116 43.363 C 81.632 44.259 81.577 45.643 81.577 45.753 C 81.577 47.938 82.098 50.068 84.268 50.068 C 85.309 50.068 85.847 49.499 86.008 49.308 C 86.366 48.846 86.438 48.276 86.474 47.951 L 88.268 48.195 C 88.196 48.982 87.82 49.837 87.031 50.434 C 85.901 51.289 84.609 51.289 84.107 51.289 C 83.03 51.289 79.784 50.868 79.784 46.077 C 79.784 43.783 80.555 40.879 84.268 40.879 C 85.111 40.879 86.206 41.068 87.013 41.693 C 87.91 42.384 88.089 43.172 88.179 43.647 L 86.456 43.893 Z " fill="rgb(249,248,225)"/><path d=" M 91.766 41.001 L 95.82 41.001 C 99.498 41.001 100.287 42.684 100.287 43.702 C 100.287 45.574 98.655 46.077 97.471 46.361 L 100.915 50.963 L 98.763 50.963 L 95.641 46.539 L 93.614 46.539 L 93.614 50.963 L 91.766 50.963 L 91.766 41.001 Z  M 93.596 42.168 L 93.596 45.467 C 94.6 45.481 95.892 45.481 96.573 45.371 C 97.292 45.249 98.421 44.964 98.421 43.851 C 98.421 42.683 97.382 42.167 95.408 42.167 L 93.596 42.167 L 93.596 42.168 Z " fill="rgb(249,248,225)"/><path d=" M 110.995 43.268 C 111.39 44.15 111.497 45.317 111.497 46.01 C 111.497 48.385 110.618 51.262 107.066 51.262 C 103.837 51.262 102.617 48.805 102.617 46.145 C 102.617 44.625 102.941 43.241 103.694 42.332 C 104.789 41.002 106.097 40.853 107.066 40.853 C 109.291 40.852 110.457 42.073 110.995 43.268 Z  M 107.103 42.046 C 105.973 42.046 105.274 42.643 104.897 43.58 C 104.645 44.177 104.502 45.059 104.502 46.103 C 104.502 47.367 104.734 50.026 107.031 50.026 C 108.896 50.026 109.613 48.574 109.613 46.049 C 109.614 44.733 109.453 42.046 107.103 42.046 Z " fill="rgb(249,248,225)"/></g><path d=" M 9.46 10.039 C 9.46 9.011 10.295 8.176 11.323 8.176 C 12.351 8.176 13.186 9.011 13.186 10.039 C 13.186 11.067 12.351 11.902 11.323 11.902 C 10.295 11.902 9.46 11.067 9.46 10.039 Z " fill="rgb(249,248,225)"/><path d=" M 14.377 10.039 C 14.377 9.011 15.212 8.176 16.24 8.176 C 17.268 8.176 18.103 9.011 18.103 10.039 C 18.103 11.067 17.268 11.902 16.24 11.902 C 15.212 11.902 14.377 11.067 14.377 10.039 Z " fill="rgb(249,248,225)"/><path d=" M 19.294 10.039 C 19.294 9.011 20.129 8.176 21.157 8.176 C 22.185 8.176 23.02 9.011 23.02 10.039 C 23.02 11.067 22.185 11.902 21.157 11.902 C 20.129 11.902 19.294 11.067 19.294 10.039 Z " fill="rgb(249,248,225)"/><path d=" M 24.212 10.039 C 24.212 9.011 25.047 8.176 26.075 8.176 C 27.103 8.176 27.938 9.011 27.938 10.039 C 27.938 11.067 27.103 11.902 26.075 11.902 C 25.047 11.902 24.212 11.067 24.212 10.039 Z " fill="rgb(249,248,225)"/><path d=" M 29.129 10.039 C 29.129 9.011 29.964 8.176 30.992 8.176 C 32.02 8.176 32.855 9.011 32.855 10.039 C 32.855 11.067 32.02 11.902 30.992 11.902 C 29.964 11.902 29.129 11.067 29.129 10.039 Z " fill="rgb(249,248,225)"/><path d=" M 34.046 10.039 C 34.046 9.011 34.881 8.176 35.909 8.176 C 36.937 8.176 37.772 9.011 37.772 10.039 C 37.772 11.067 36.937 11.902 35.909 11.902 C 34.881 11.902 34.046 11.067 34.046 10.039 Z " fill="rgb(249,248,225)"/><path d=" M 38.963 10.039 C 38.963 9.011 39.798 8.176 40.826 8.176 C 41.854 8.176 42.689 9.011 42.689 10.039 C 42.689 11.067 41.854 11.902 40.826 11.902 C 39.798 11.902 38.963 11.067 38.963 10.039 Z " fill="rgb(249,248,225)"/><path d=" M 43.88 10.039 C 43.88 9.011 44.715 8.176 45.743 8.176 C 46.771 8.176 47.606 9.011 47.606 10.039 C 47.606 11.067 46.771 11.902 45.743 11.902 C 44.715 11.902 43.88 11.067 43.88 10.039 Z " fill="rgb(249,248,225)"/><path d=" M 48.797 10.039 C 48.797 9.011 49.632 8.176 50.66 8.176 C 51.688 8.176 52.523 9.011 52.523 10.039 C 52.523 11.067 51.688 11.902 50.66 11.902 C 49.632 11.902 48.797 11.067 48.797 10.039 Z " fill="rgb(249,248,225)"/><path d=" M 11.886 12.854 C 11.886 11.826 12.721 10.991 13.749 10.991 C 14.777 10.991 15.612 11.826 15.612 12.854 C 15.612 13.882 14.777 14.717 13.749 14.717 C 12.721 14.717 11.886 13.882 11.886 12.854 Z " fill="rgb(249,248,225)"/><path d=" M 26.638 12.854 C 26.638 11.826 27.473 10.991 28.501 10.991 C 29.529 10.991 30.364 11.826 30.364 12.854 C 30.364 13.882 29.529 14.717 28.501 14.717 C 27.473 14.717 26.638 13.882 26.638 12.854 Z " fill="rgb(249,248,225)"/><path d=" M 31.555 12.854 C 31.555 11.826 32.39 10.991 33.418 10.991 C 34.446 10.991 35.281 11.826 35.281 12.854 C 35.281 13.882 34.446 14.717 33.418 14.717 C 32.39 14.717 31.555 13.882 31.555 12.854 Z " fill="rgb(249,248,225)"/><path d=" M 46.306 12.854 C 46.306 11.826 47.141 10.991 48.169 10.991 C 49.197 10.991 50.032 11.826 50.032 12.854 C 50.032 13.882 49.197 14.717 48.169 14.717 C 47.141 14.717 46.306 13.882 46.306 12.854 Z " fill="rgb(249,248,225)"/><path d=" M 9.46 15.584 C 9.46 14.556 10.295 13.721 11.323 13.721 C 12.351 13.721 13.186 14.556 13.186 15.584 C 13.186 16.612 12.351 17.447 11.323 17.447 C 10.295 17.447 9.46 16.612 9.46 15.584 Z " fill="rgb(249,248,225)"/><path d=" M 19.294 15.584 C 19.294 14.556 20.129 13.721 21.157 13.721 C 22.185 13.721 23.02 14.556 23.02 15.584 C 23.02 16.612 22.185 17.447 21.157 17.447 C 20.129 17.447 19.294 16.612 19.294 15.584 Z " fill="rgb(249,248,225)"/><path d=" M 29.129 15.584 C 29.129 14.556 29.964 13.721 30.992 13.721 C 32.02 13.721 32.855 14.556 32.855 15.584 C 32.855 16.612 32.02 17.447 30.992 17.447 C 29.964 17.447 29.129 16.612 29.129 15.584 Z " fill="rgb(249,248,225)"/><path d=" M 38.963 15.584 C 38.963 14.556 39.798 13.721 40.826 13.721 C 41.854 13.721 42.689 14.556 42.689 15.584 C 42.689 16.612 41.854 17.447 40.826 17.447 C 39.798 17.447 38.963 16.612 38.963 15.584 Z " fill="rgb(249,248,225)"/><path d=" M 48.797 15.584 C 48.797 14.556 49.632 13.721 50.66 13.721 C 51.688 13.721 52.523 14.556 52.523 15.584 C 52.523 16.612 51.688 17.447 50.66 17.447 C 49.632 17.447 48.797 16.612 48.797 15.584 Z " fill="rgb(249,248,225)"/><path d=" M 16.803 18.4 C 16.803 17.372 17.638 16.537 18.666 16.537 C 19.694 16.537 20.529 17.372 20.529 18.4 C 20.529 19.428 19.694 20.263 18.666 20.263 C 17.638 20.263 16.803 19.428 16.803 18.4 Z " fill="rgb(249,248,225)"/><path d=" M 21.721 18.4 C 21.721 17.372 22.556 16.537 23.584 16.537 C 24.612 16.537 25.447 17.372 25.447 18.4 C 25.447 19.428 24.612 20.263 23.584 20.263 C 22.556 20.263 21.721 19.428 21.721 18.4 Z " fill="rgb(249,248,225)"/><path d=" M 36.472 18.4 C 36.472 17.372 37.307 16.537 38.335 16.537 C 39.363 16.537 40.198 17.372 40.198 18.4 C 40.198 19.428 39.363 20.263 38.335 20.263 C 37.307 20.263 36.472 19.428 36.472 18.4 Z " fill="rgb(249,248,225)"/><path d=" M 41.389 18.4 C 41.389 17.372 42.224 16.537 43.252 16.537 C 44.28 16.537 45.115 17.372 45.115 18.4 C 45.115 19.428 44.28 20.263 43.252 20.263 C 42.224 20.263 41.389 19.428 41.389 18.4 Z " fill="rgb(249,248,225)"/><path d=" M 9.46 20.999 C 9.46 19.971 10.295 19.136 11.323 19.136 C 12.351 19.136 13.186 19.971 13.186 20.999 C 13.186 22.027 12.351 22.862 11.323 22.862 C 10.295 22.862 9.46 22.027 9.46 20.999 Z " fill="rgb(249,248,225)"/><path d=" M 19.294 20.999 C 19.294 19.971 20.129 19.136 21.157 19.136 C 22.185 19.136 23.02 19.971 23.02 20.999 C 23.02 22.027 22.185 22.862 21.157 22.862 C 20.129 22.862 19.294 22.027 19.294 20.999 Z " fill="rgb(249,248,225)"/><path d=" M 38.963 20.999 C 38.963 19.971 39.798 19.136 40.826 19.136 C 41.854 19.136 42.689 19.971 42.689 20.999 C 42.689 22.027 41.854 22.862 40.826 22.862 C 39.798 22.862 38.963 22.027 38.963 20.999 Z " fill="rgb(249,248,225)"/><path d=" M 48.797 20.999 C 48.797 19.971 49.632 19.136 50.66 19.136 C 51.688 19.136 52.523 19.971 52.523 20.999 C 52.523 22.027 51.688 22.862 50.66 22.862 C 49.632 22.862 48.797 22.027 48.797 20.999 Z " fill="rgb(249,248,225)"/><path d=" M 11.886 23.815 C 11.886 22.787 12.721 21.952 13.749 21.952 C 14.777 21.952 15.612 22.787 15.612 23.815 C 15.612 24.843 14.777 25.678 13.749 25.678 C 12.721 25.678 11.886 24.843 11.886 23.815 Z " fill="rgb(249,248,225)"/><path d=" M 26.638 23.815 C 26.638 22.787 27.473 21.952 28.501 21.952 C 29.529 21.952 30.364 22.787 30.364 23.815 C 30.364 24.843 29.529 25.678 28.501 25.678 C 27.473 25.678 26.638 24.843 26.638 23.815 Z " fill="rgb(249,248,225)"/><path d=" M 31.555 23.815 C 31.555 22.787 32.39 21.952 33.418 21.952 C 34.446 21.952 35.281 22.787 35.281 23.815 C 35.281 24.843 34.446 25.678 33.418 25.678 C 32.39 25.678 31.555 24.843 31.555 23.815 Z " fill="rgb(249,248,225)"/><path d=" M 46.306 23.815 C 46.306 22.787 47.141 21.952 48.169 21.952 C 49.197 21.952 50.032 22.787 50.032 23.815 C 50.032 24.843 49.197 25.678 48.169 25.678 C 47.141 25.678 46.306 24.843 46.306 23.815 Z " fill="rgb(249,248,225)"/><path d=" M 9.46 26.544 C 9.46 25.516 10.295 24.681 11.323 24.681 C 12.351 24.681 13.186 25.516 13.186 26.544 C 13.186 27.572 12.351 28.407 11.323 28.407 C 10.295 28.407 9.46 27.572 9.46 26.544 Z " fill="rgb(249,248,225)"/><path d=" M 14.377 26.544 C 14.377 25.516 15.212 24.681 16.24 24.681 C 17.268 24.681 18.103 25.516 18.103 26.544 C 18.103 27.572 17.268 28.407 16.24 28.407 C 15.212 28.407 14.377 27.572 14.377 26.544 Z " fill="rgb(249,248,225)"/><path d=" M 29.129 26.544 C 29.129 25.516 29.964 24.681 30.992 24.681 C 32.02 24.681 32.855 25.516 32.855 26.544 C 32.855 27.572 32.02 28.407 30.992 28.407 C 29.964 28.407 29.129 27.572 29.129 26.544 Z " fill="rgb(249,248,225)"/><path d=" M 43.88 26.544 C 43.88 25.516 44.715 24.681 45.743 24.681 C 46.771 24.681 47.606 25.516 47.606 26.544 C 47.606 27.572 46.771 28.407 45.743 28.407 C 44.715 28.407 43.88 27.572 43.88 26.544 Z " fill="rgb(249,248,225)"/><path d=" M 48.797 26.544 C 48.797 25.516 49.632 24.681 50.66 24.681 C 51.688 24.681 52.523 25.516 52.523 26.544 C 52.523 27.572 51.688 28.407 50.66 28.407 C 49.632 28.407 48.797 27.572 48.797 26.544 Z " fill="rgb(249,248,225)"/><path d=" M 11.886 29.36 C 11.886 28.332 12.721 27.497 13.749 27.497 C 14.777 27.497 15.612 28.332 15.612 29.36 C 15.612 30.388 14.777 31.223 13.749 31.223 C 12.721 31.223 11.886 30.388 11.886 29.36 Z " fill="rgb(249,248,225)"/><path d=" M 16.803 29.36 C 16.803 28.332 17.638 27.497 18.666 27.497 C 19.694 27.497 20.529 28.332 20.529 29.36 C 20.529 30.388 19.694 31.223 18.666 31.223 C 17.638 31.223 16.803 30.388 16.803 29.36 Z " fill="rgb(249,248,225)"/><path d=" M 21.721 29.36 C 21.721 28.332 22.556 27.497 23.584 27.497 C 24.612 27.497 25.447 28.332 25.447 29.36 C 25.447 30.388 24.612 31.223 23.584 31.223 C 22.556 31.223 21.721 30.388 21.721 29.36 Z " fill="rgb(249,248,225)"/><path d=" M 26.638 29.36 C 26.638 28.332 27.473 27.497 28.501 27.497 C 29.529 27.497 30.364 28.332 30.364 29.36 C 30.364 30.388 29.529 31.223 28.501 31.223 C 27.473 31.223 26.638 30.388 26.638 29.36 Z " fill="rgb(249,248,225)"/><path d=" M 31.555 29.36 C 31.555 28.332 32.39 27.497 33.418 27.497 C 34.446 27.497 35.281 28.332 35.281 29.36 C 35.281 30.388 34.446 31.223 33.418 31.223 C 32.39 31.223 31.555 30.388 31.555 29.36 Z " fill="rgb(249,248,225)"/><path d=" M 36.472 29.36 C 36.472 28.332 37.307 27.497 38.335 27.497 C 39.363 27.497 40.198 28.332 40.198 29.36 C 40.198 30.388 39.363 31.223 38.335 31.223 C 37.307 31.223 36.472 30.388 36.472 29.36 Z " fill="rgb(249,248,225)"/><path d=" M 41.389 29.36 C 41.389 28.332 42.224 27.497 43.252 27.497 C 44.28 27.497 45.115 28.332 45.115 29.36 C 45.115 30.388 44.28 31.223 43.252 31.223 C 42.224 31.223 41.389 30.388 41.389 29.36 Z " fill="rgb(249,248,225)"/><path d=" M 9.46 32.22 C 9.46 31.192 10.295 30.357 11.323 30.357 C 12.351 30.357 13.186 31.192 13.186 32.22 C 13.186 33.248 12.351 34.083 11.323 34.083 C 10.295 34.083 9.46 33.248 9.46 32.22 Z " fill="rgb(249,248,225)"/><path d=" M 14.377 32.22 C 14.377 31.192 15.212 30.357 16.24 30.357 C 17.268 30.357 18.103 31.192 18.103 32.22 C 18.103 33.248 17.268 34.083 16.24 34.083 C 15.212 34.083 14.377 33.248 14.377 32.22 Z " fill="rgb(249,248,225)"/><path d=" M 19.294 32.22 C 19.294 31.192 20.129 30.357 21.157 30.357 C 22.185 30.357 23.02 31.192 23.02 32.22 C 23.02 33.248 22.185 34.083 21.157 34.083 C 20.129 34.083 19.294 33.248 19.294 32.22 Z " fill="rgb(249,248,225)"/><path d=" M 24.212 32.22 C 24.212 31.192 25.047 30.357 26.075 30.357 C 27.103 30.357 27.938 31.192 27.938 32.22 C 27.938 33.248 27.103 34.083 26.075 34.083 C 25.047 34.083 24.212 33.248 24.212 32.22 Z " fill="rgb(249,248,225)"/><path d=" M 29.129 32.22 C 29.129 31.192 29.964 30.357 30.992 30.357 C 32.02 30.357 32.855 31.192 32.855 32.22 C 32.855 33.248 32.02 34.083 30.992 34.083 C 29.964 34.083 29.129 33.248 29.129 32.22 Z " fill="rgb(249,248,225)"/><path d=" M 48.797 32.22 C 48.797 31.192 49.632 30.357 50.66 30.357 C 51.688 30.357 52.523 31.192 52.523 32.22 C 52.523 33.248 51.688 34.083 50.66 34.083 C 49.632 34.083 48.797 33.248 48.797 32.22 Z " fill="rgb(249,248,225)"/><path d=" M 11.886 35.036 C 11.886 34.008 12.721 33.173 13.749 33.173 C 14.777 33.173 15.612 34.008 15.612 35.036 C 15.612 36.064 14.777 36.899 13.749 36.899 C 12.721 36.899 11.886 36.064 11.886 35.036 Z " fill="rgb(249,248,225)"/><path d=" M 16.803 35.036 C 16.803 34.008 17.638 33.173 18.666 33.173 C 19.694 33.173 20.529 34.008 20.529 35.036 C 20.529 36.064 19.694 36.899 18.666 36.899 C 17.638 36.899 16.803 36.064 16.803 35.036 Z " fill="rgb(249,248,225)"/><path d=" M 21.721 35.036 C 21.721 34.008 22.556 33.173 23.584 33.173 C 24.612 33.173 25.447 34.008 25.447 35.036 C 25.447 36.064 24.612 36.899 23.584 36.899 C 22.556 36.899 21.721 36.064 21.721 35.036 Z " fill="rgb(249,248,225)"/><path d=" M 26.638 35.036 C 26.638 34.008 27.473 33.173 28.501 33.173 C 29.529 33.173 30.364 34.008 30.364 35.036 C 30.364 36.064 29.529 36.899 28.501 36.899 C 27.473 36.899 26.638 36.064 26.638 35.036 Z " fill="rgb(249,248,225)"/><path d=" M 31.555 35.036 C 31.555 34.008 32.39 33.173 33.418 33.173 C 34.446 33.173 35.281 34.008 35.281 35.036 C 35.281 36.064 34.446 36.899 33.418 36.899 C 32.39 36.899 31.555 36.064 31.555 35.036 Z " fill="rgb(249,248,225)"/><path d=" M 14.377 37.765 C 14.377 36.737 15.212 35.902 16.24 35.902 C 17.268 35.902 18.103 36.737 18.103 37.765 C 18.103 38.793 17.268 39.628 16.24 39.628 C 15.212 39.628 14.377 38.793 14.377 37.765 Z " fill="rgb(249,248,225)"/><path d=" M 19.294 37.765 C 19.294 36.737 20.129 35.902 21.157 35.902 C 22.185 35.902 23.02 36.737 23.02 37.765 C 23.02 38.793 22.185 39.628 21.157 39.628 C 20.129 39.628 19.294 38.793 19.294 37.765 Z " fill="rgb(249,248,225)"/><path d=" M 24.212 37.765 C 24.212 36.737 25.047 35.902 26.075 35.902 C 27.103 35.902 27.938 36.737 27.938 37.765 C 27.938 38.793 27.103 39.628 26.075 39.628 C 25.047 39.628 24.212 38.793 24.212 37.765 Z " fill="rgb(249,248,225)"/><path d=" M 29.129 37.765 C 29.129 36.737 29.964 35.902 30.992 35.902 C 32.02 35.902 32.855 36.737 32.855 37.765 C 32.855 38.793 32.02 39.628 30.992 39.628 C 29.964 39.628 29.129 38.793 29.129 37.765 Z " fill="rgb(249,248,225)"/><path d=" M 48.797 37.765 C 48.797 36.737 49.632 35.902 50.66 35.902 C 51.688 35.902 52.523 36.737 52.523 37.765 C 52.523 38.793 51.688 39.628 50.66 39.628 C 49.632 39.628 48.797 38.793 48.797 37.765 Z " fill="rgb(249,248,225)"/><path d=" M 16.803 40.581 C 16.803 39.553 17.638 38.718 18.666 38.718 C 19.694 38.718 20.529 39.553 20.529 40.581 C 20.529 41.609 19.694 42.444 18.666 42.444 C 17.638 42.444 16.803 41.609 16.803 40.581 Z " fill="rgb(249,248,225)"/><path d=" M 21.721 40.581 C 21.721 39.553 22.556 38.718 23.584 38.718 C 24.612 38.718 25.447 39.553 25.447 40.581 C 25.447 41.609 24.612 42.444 23.584 42.444 C 22.556 42.444 21.721 41.609 21.721 40.581 Z " fill="rgb(249,248,225)"/><path d=" M 26.638 40.581 C 26.638 39.553 27.473 38.718 28.501 38.718 C 29.529 38.718 30.364 39.553 30.364 40.581 C 30.364 41.609 29.529 42.444 28.501 42.444 C 27.473 42.444 26.638 41.609 26.638 40.581 Z " fill="rgb(249,248,225)"/><path d=" M 31.555 40.581 C 31.555 39.553 32.39 38.718 33.418 38.718 C 34.446 38.718 35.281 39.553 35.281 40.581 C 35.281 41.609 34.446 42.444 33.418 42.444 C 32.39 42.444 31.555 41.609 31.555 40.581 Z " fill="rgb(249,248,225)"/><path d=" M 19.294 43.181 C 19.294 42.153 20.129 41.318 21.157 41.318 C 22.185 41.318 23.02 42.153 23.02 43.181 C 23.02 44.209 22.185 45.044 21.157 45.044 C 20.129 45.044 19.294 44.209 19.294 43.181 Z " fill="rgb(249,248,225)"/><path d=" M 24.212 43.181 C 24.212 42.153 25.047 41.318 26.075 41.318 C 27.103 41.318 27.938 42.153 27.938 43.181 C 27.938 44.209 27.103 45.044 26.075 45.044 C 25.047 45.044 24.212 44.209 24.212 43.181 Z " fill="rgb(249,248,225)"/><path d=" M 29.129 43.181 C 29.129 42.153 29.964 41.318 30.992 41.318 C 32.02 41.318 32.855 42.153 32.855 43.181 C 32.855 44.209 32.02 45.044 30.992 45.044 C 29.964 45.044 29.129 44.209 29.129 43.181 Z " fill="rgb(249,248,225)"/><path d=" M 34.046 43.181 C 34.046 42.153 34.881 41.318 35.909 41.318 C 36.937 41.318 37.772 42.153 37.772 43.181 C 37.772 44.209 36.937 45.044 35.909 45.044 C 34.881 45.044 34.046 44.209 34.046 43.181 Z " fill="rgb(249,248,225)"/><path d=" M 48.797 43.181 C 48.797 42.153 49.632 41.318 50.66 41.318 C 51.688 41.318 52.523 42.153 52.523 43.181 C 52.523 44.209 51.688 45.044 50.66 45.044 C 49.632 45.044 48.797 44.209 48.797 43.181 Z " fill="rgb(249,248,225)"/><path d=" M 21.721 45.996 C 21.721 44.968 22.556 44.133 23.584 44.133 C 24.612 44.133 25.447 44.968 25.447 45.996 C 25.447 47.024 24.612 47.859 23.584 47.859 C 22.556 47.859 21.721 47.024 21.721 45.996 Z " fill="rgb(249,248,225)"/><path d=" M 26.638 45.996 C 26.638 44.968 27.473 44.133 28.501 44.133 C 29.529 44.133 30.364 44.968 30.364 45.996 C 30.364 47.024 29.529 47.859 28.501 47.859 C 27.473 47.859 26.638 47.024 26.638 45.996 Z " fill="rgb(249,248,225)"/><path d=" M 31.555 45.996 C 31.555 44.968 32.39 44.133 33.418 44.133 C 34.446 44.133 35.281 44.968 35.281 45.996 C 35.281 47.024 34.446 47.859 33.418 47.859 C 32.39 47.859 31.555 47.024 31.555 45.996 Z " fill="rgb(249,248,225)"/><path d=" M 36.472 45.996 C 36.472 44.968 37.307 44.133 38.335 44.133 C 39.363 44.133 40.198 44.968 40.198 45.996 C 40.198 47.024 39.363 47.859 38.335 47.859 C 37.307 47.859 36.472 47.024 36.472 45.996 Z " fill="rgb(249,248,225)"/><path d=" M 24.212 48.726 C 24.212 47.698 25.047 46.863 26.075 46.863 C 27.103 46.863 27.938 47.698 27.938 48.726 C 27.938 49.754 27.103 50.589 26.075 50.589 C 25.047 50.589 24.212 49.754 24.212 48.726 Z " fill="rgb(249,248,225)"/><path d=" M 29.129 48.726 C 29.129 47.698 29.964 46.863 30.992 46.863 C 32.02 46.863 32.855 47.698 32.855 48.726 C 32.855 49.754 32.02 50.589 30.992 50.589 C 29.964 50.589 29.129 49.754 29.129 48.726 Z " fill="rgb(249,248,225)"/><path d=" M 34.046 48.726 C 34.046 47.698 34.881 46.863 35.909 46.863 C 36.937 46.863 37.772 47.698 37.772 48.726 C 37.772 49.754 36.937 50.589 35.909 50.589 C 34.881 50.589 34.046 49.754 34.046 48.726 Z " fill="rgb(249,248,225)"/><path d=" M 38.963 48.726 C 38.963 47.698 39.798 46.863 40.826 46.863 C 41.854 46.863 42.689 47.698 42.689 48.726 C 42.689 49.754 41.854 50.589 40.826 50.589 C 39.798 50.589 38.963 49.754 38.963 48.726 Z " fill="rgb(249,248,225)"/><path d=" M 48.797 48.726 C 48.797 47.698 49.632 46.863 50.66 46.863 C 51.688 46.863 52.523 47.698 52.523 48.726 C 52.523 49.754 51.688 50.589 50.66 50.589 C 49.632 50.589 48.797 49.754 48.797 48.726 Z " fill="rgb(249,248,225)"/><path d=" M 26.638 51.541 C 26.638 50.513 27.473 49.678 28.501 49.678 C 29.529 49.678 30.364 50.513 30.364 51.541 C 30.364 52.569 29.529 53.404 28.501 53.404 C 27.473 53.404 26.638 52.569 26.638 51.541 Z " fill="rgb(249,248,225)"/><path d=" M 36.472 51.541 C 36.472 50.513 37.307 49.678 38.335 49.678 C 39.363 49.678 40.198 50.513 40.198 51.541 C 40.198 52.569 39.363 53.404 38.335 53.404 C 37.307 53.404 36.472 52.569 36.472 51.541 Z " fill="rgb(249,248,225)"/><path d=" M 41.389 51.541 C 41.389 50.513 42.224 49.678 43.252 49.678 C 44.28 49.678 45.115 50.513 45.115 51.541 C 45.115 52.569 44.28 53.404 43.252 53.404 C 42.224 53.404 41.389 52.569 41.389 51.541 Z " fill="rgb(249,248,225)"/><path d=" M 24.212 54.285 C 24.212 53.257 25.047 52.422 26.075 52.422 C 27.103 52.422 27.938 53.257 27.938 54.285 C 27.938 55.313 27.103 56.148 26.075 56.148 C 25.047 56.148 24.212 55.313 24.212 54.285 Z " fill="rgb(249,248,225)"/><path d=" M 34.046 54.285 C 34.046 53.257 34.881 52.422 35.909 52.422 C 36.937 52.422 37.772 53.257 37.772 54.285 C 37.772 55.313 36.937 56.148 35.909 56.148 C 34.881 56.148 34.046 55.313 34.046 54.285 Z " fill="rgb(249,248,225)"/><path d=" M 43.88 54.285 C 43.88 53.257 44.715 52.422 45.743 52.422 C 46.771 52.422 47.606 53.257 47.606 54.285 C 47.606 55.313 46.771 56.148 45.743 56.148 C 44.715 56.148 43.88 55.313 43.88 54.285 Z " fill="rgb(249,248,225)"/><path d=" M 48.797 54.285 C 48.797 53.257 49.632 52.422 50.66 52.422 C 51.688 52.422 52.523 53.257 52.523 54.285 C 52.523 55.313 51.688 56.148 50.66 56.148 C 49.632 56.148 48.797 55.313 48.797 54.285 Z " fill="rgb(249,248,225)"/><path d=" M 11.886 57.102 C 11.886 56.074 12.721 55.239 13.749 55.239 C 14.777 55.239 15.612 56.074 15.612 57.102 C 15.612 58.13 14.777 58.965 13.749 58.965 C 12.721 58.965 11.886 58.13 11.886 57.102 Z " fill="rgb(249,248,225)"/><path d=" M 16.803 57.102 C 16.803 56.074 17.638 55.239 18.666 55.239 C 19.694 55.239 20.529 56.074 20.529 57.102 C 20.529 58.13 19.694 58.965 18.666 58.965 C 17.638 58.965 16.803 58.13 16.803 57.102 Z " fill="rgb(249,248,225)"/><path d=" M 21.721 57.102 C 21.721 56.074 22.556 55.239 23.584 55.239 C 24.612 55.239 25.447 56.074 25.447 57.102 C 25.447 58.13 24.612 58.965 23.584 58.965 C 22.556 58.965 21.721 58.13 21.721 57.102 Z " fill="rgb(249,248,225)"/><path d=" M 26.638 57.102 C 26.638 56.074 27.473 55.239 28.501 55.239 C 29.529 55.239 30.364 56.074 30.364 57.102 C 30.364 58.13 29.529 58.965 28.501 58.965 C 27.473 58.965 26.638 58.13 26.638 57.102 Z " fill="rgb(249,248,225)"/><path d=" M 31.555 57.102 C 31.555 56.074 32.39 55.239 33.418 55.239 C 34.446 55.239 35.281 56.074 35.281 57.102 C 35.281 58.13 34.446 58.965 33.418 58.965 C 32.39 58.965 31.555 58.13 31.555 57.102 Z " fill="rgb(249,248,225)"/><path d=" M 36.472 57.102 C 36.472 56.074 37.307 55.239 38.335 55.239 C 39.363 55.239 40.198 56.074 40.198 57.102 C 40.198 58.13 39.363 58.965 38.335 58.965 C 37.307 58.965 36.472 58.13 36.472 57.102 Z " fill="rgb(249,248,225)"/><path d=" M 46.306 57.102 C 46.306 56.074 47.141 55.239 48.169 55.239 C 49.197 55.239 50.032 56.074 50.032 57.102 C 50.032 58.13 49.197 58.965 48.169 58.965 C 47.141 58.965 46.306 58.13 46.306 57.102 Z " fill="rgb(249,248,225)"/><path d=" M 48.797 59.83 C 48.797 58.802 49.632 57.967 50.66 57.967 C 51.688 57.967 52.523 58.802 52.523 59.83 C 52.523 60.858 51.688 61.693 50.66 61.693 C 49.632 61.693 48.797 60.858 48.797 59.83 Z " fill="rgb(249,248,225)"/></svg>