<?xml version="1.0" standalone="no"?><!-- Generator: Gravit.io --><svg xmlns="http://www.w3.org/2000/svg" xmlns:xlink="http://www.w3.org/1999/xlink" style="isolation:isolate" viewBox="0 0 568.929 116.145" width="568.929" height="116.145"><path d=" M 487.102 108.83 C 471.286 108.827 455.96 106.3 448.584 104.774 L 448.584 104.774 C 444.79 103.995 441.208 102.68 438.366 99.763 L 438.366 99.763 C 435.525 96.849 433.594 92.539 432.555 86.176 L 432.555 86.176 C 431.492 79.638 430.869 67.127 430.865 54.861 L 430.865 54.861 C 430.879 43.206 431.414 31.979 432.839 26.205 L 432.839 26.205 C 433.578 23.231 434.85 20.492 436.995 18.178 L 436.995 18.178 C 439.138 15.862 442.09 14.017 446.038 12.598 L 446.038 12.598 C 453.944 9.768 465.932 8.482 484.844 8.473 L 484.844 8.473 L 510.847 8.473 C 525.029 8.474 535.321 9.211 542.91 10.76 L 542.91 10.76 C 550.485 12.309 555.462 14.697 558.692 18.178 L 558.692 18.178 C 560.838 20.492 562.111 23.231 562.85 26.205 L 562.85 26.205 C 564.274 31.979 564.807 43.206 564.82 54.861 L 564.82 54.861 C 564.816 67.127 564.192 79.64 563.132 86.176 L 563.132 86.176 C 562.094 92.539 560.162 96.849 557.321 99.763 L 557.321 99.763 C 554.479 102.68 550.899 103.994 547.105 104.774 L 547.105 104.774 C 539.728 106.299 524.404 108.827 508.586 108.83 L 508.586 108.83 L 508.586 106.949 L 508.586 105.066 C 524.002 105.069 539.166 102.576 546.34 101.09 L 546.34 101.09 C 549.823 100.365 552.514 99.298 554.626 97.133 L 554.626 97.133 C 556.739 94.968 558.446 91.501 559.417 85.569 L 559.417 85.569 C 560.414 79.488 561.06 66.965 561.054 54.861 L 561.054 54.861 C 561.065 43.391 560.457 32.091 559.198 27.118 L 559.198 27.118 C 558.557 24.572 557.57 22.514 555.929 20.735 L 555.929 20.735 C 554.284 18.959 551.923 17.418 548.374 16.139 L 548.374 16.139 C 541.29 13.575 529.568 12.226 510.845 12.236 L 510.845 12.236 L 484.842 12.236 C 470.796 12.235 460.694 12.98 453.529 14.447 L 453.529 14.447 C 446.346 15.915 442.208 18.078 439.757 20.735 L 439.757 20.735 C 438.115 22.514 437.13 24.572 436.488 27.118 L 436.488 27.118 C 435.227 32.093 434.616 43.391 434.63 54.861 L 434.63 54.861 C 434.625 66.964 435.27 79.487 436.27 85.569 L 436.27 85.569 C 437.239 91.502 438.947 94.968 441.059 97.133 L 441.059 97.133 C 443.174 99.298 445.864 100.365 449.345 101.09 L 449.345 101.09 C 456.522 102.575 471.685 105.069 487.101 105.066 L 487.101 105.066 L 508.587 105.066 L 508.587 106.949 L 508.587 108.83 L 487.102 108.83 L 487.102 108.83 Z " fill="rgb(255,255,255)"/><path d=" M 475.328 19.199 L 475.328 98.231 L 494.019 98.231 L 494.019 68.249 L 520.363 68.249 L 520.363 51.565 L 494.019 51.565 L 494.019 35.884 L 520.113 35.884 L 520.113 19.074 L 475.328 19.199 Z " fill="rgb(255,255,255)"/><g id="null"><g id="null"><path d=" M 124.563 85.678 L 124.563 22.46 L 106.499 22.46 L 106.499 50.301 L 84.679 50.301 L 84.679 22.46 L 65.862 22.46 L 65.862 95.462 L 84.679 95.462 L 84.679 67.614 L 107.252 67.614 L 107.252 95.463 L 139.617 95.463 C 147.475 80.417 147.663 79.853 154.671 67.614 C 159.827 67.681 164.471 67.561 168.964 67.614 L 168.964 95.463 L 187.781 95.463 L 187.781 22.46 L 159.179 22.46 C 146.918 42.813 137.005 65.506 124.563 85.678 Z  M 166.895 40.086 L 169.153 40.086 L 169.153 49.864 L 163.131 49.864 C 164.471 46.688 165.663 44.1 166.895 40.086 Z  M 4.902 54.818 L 4.714 59.214 L 4.902 63.85 C 8.199 87.597 31.525 103.26 58.335 93.957 L 58.335 71.377 C 54.556 74.23 50.432 78.806 42.528 78.903 C 15.168 79.226 18.909 40.795 41.776 40.524 C 49.987 40.419 53.119 43.316 58.335 48.796 L 58.335 25.471 C 32.864 14.474 7.748 31.206 4.902 54.818 Z  M 238.203 60.086 C 227.696 46.297 220.297 35.504 209.609 22.46 L 193.803 22.46 L 193.803 95.462 L 212.62 95.462 L 212.62 58.581 C 223.647 69.374 230.173 84.677 241.214 95.462 L 257.021 95.462 L 257.021 22.46 L 238.204 22.46 L 238.204 60.086 L 238.203 60.086 Z  M 396.997 79.656 L 396.997 22.46 L 378.187 22.46 L 378.187 95.462 L 418.072 95.462 L 418.072 79.656 L 396.997 79.656 Z  M 331.528 95.462 L 372.919 95.462 L 372.919 78.904 L 351.09 78.904 L 351.09 68.366 L 372.918 68.366 L 372.918 50.302 L 351.09 50.302 L 351.09 39.772 L 372.918 39.772 L 372.918 22.46 L 331.527 22.46 L 331.527 95.462 L 331.528 95.462 Z  M 306.69 60.086 C 295.309 45.793 289.168 36.761 278.088 22.46 L 262.289 22.46 L 262.289 95.462 L 281.099 95.462 L 281.099 58.581 C 292.051 71.384 298.696 82.298 309.701 95.462 L 325.507 95.462 L 325.507 22.46 L 306.69 22.46 L 306.69 60.086 Z " fill="rgb(255,255,255)"/></g></g></svg>