<?xml version="1.0" encoding="UTF-8" standalone="no"?>
<!-- Generator: Adobe Illustrator 16.0.3, SVG Export Plug-In . SVG Version: 6.00 Build 0)  -->

<svg
   xmlns:dc="http://purl.org/dc/elements/1.1/"
   xmlns:cc="http://creativecommons.org/ns#"
   xmlns:rdf="http://www.w3.org/1999/02/22-rdf-syntax-ns#"
   xmlns:svg="http://www.w3.org/2000/svg"
   xmlns="http://www.w3.org/2000/svg"
   xmlns:sodipodi="http://sodipodi.sourceforge.net/DTD/sodipodi-0.dtd"
   xmlns:inkscape="http://www.inkscape.org/namespaces/inkscape"
   version="1.1"
   id="Ebene_1"
   x="0px"
   y="0px"
   width="566.929px"
   height="178.654px"
   viewBox="0 0 566.929 178.654"
   enable-background="new 0 0 566.929 178.654"
   xml:space="preserve"
   inkscape:version="0.91 r13725"
   sodipodi:docname="col.svg"><metadata
     id="metadata26"><rdf:RDF><cc:Work
         rdf:about=""><dc:format>image/svg+xml</dc:format><dc:type
           rdf:resource="http://purl.org/dc/dcmitype/StillImage" /><dc:title></dc:title></cc:Work></rdf:RDF></metadata><defs
     id="defs24" /><sodipodi:namedview
     pagecolor="#ffffff"
     bordercolor="#666666"
     borderopacity="1"
     objecttolerance="10"
     gridtolerance="10"
     guidetolerance="10"
     inkscape:pageopacity="0"
     inkscape:pageshadow="2"
     inkscape:window-width="640"
     inkscape:window-height="480"
     id="namedview22"
     showgrid="false"
     inkscape:zoom="1.0160002"
     inkscape:cx="270.75497"
     inkscape:cy="118.6487"
     inkscape:current-layer="g3" /><g
     id="g3"><linearGradient
       id="SVGID_1_"
       gradientUnits="userSpaceOnUse"
       x1="7.4766"
       y1="846.3237"
       x2="561.1177"
       y2="846.3237"
       gradientTransform="matrix(1 0 0 1 -0.0947 -757.002)"><stop
         offset="0"
         style="stop-color:#F090A7"
         id="stop8" /><stop
         offset="0.1495"
         style="stop-color:#EF7B75"
         id="stop10" /><stop
         offset="0.2564"
         style="stop-color:#EE6E5E"
         id="stop12" /><stop
         offset="0.5894"
         style="stop-color:#FCE72C"
         id="stop14" /><stop
         offset="0.8131"
         style="stop-color:#ACDEE4"
         id="stop16" /><stop
         offset="1"
         style="stop-color:#A3DDF2"
         id="stop18" /></linearGradient><path
       d="M279.773,91.536v22.885h-64.96c-7.426,0-7.01,7.381,0,7.381c0,0,28.543,0,42.814,0   c33.358,0,33.348,49.458,0,49.458c-22.392,0-67.174,0-67.174,0v-22.145c0,0,42.814,0,64.221,0c7.687,0,7.166-7.382,0-7.382   c-13.287,0-39.861,0-39.861,0c-34.278,0-34.157-50.197,0-50.197C236.466,91.536,279.773,91.536,279.773,91.536z M428.888,91.536   h76.033c13.646,0,25.805,10.596,25.836,25.1v54.625h-27.313v-47.242c0-7.886-4.689-9.484-10.336-9.597h-36.908v56.839h-27.314   V91.536H428.888z M357.285,113.77c-7.258,0.043-10.336,4.6-10.336,10.246v14.764c0,6.133,5.273,10.334,10.336,10.334h30.266   c3.59,0,9.598-2.43,9.598-10.334v-14.764c0-4.968-3.021-10.463-9.598-10.427L357.285,113.77z M346.949,91.536h50.936   c16.17,0,26.574,11.012,26.574,24.359v29.525c0,20.938-18.09,25.838-26.574,25.838h-50.936c-19.133,0-27.313-15.396-27.313-25.838   v-29.525C319.636,98.893,334.851,91.536,346.949,91.536z M287.156,91.536h27.313v79.724h-27.313V91.536z M155.757,91.536h27.313   v79.724h-27.313V91.536z M31.741,91.536h30.266l29.527,51.673l34.695-51.673h25.099l-47.244,79.726H79.269L31.741,91.536z    M275.345,7.382h86.367v19.932h-59.793v7.382h59.793v19.932h-59.793c0,7.327,5.384,10.334,11.072,10.334h48.721v21.407h-62.746   c-14.059,0-23.724-11.67-23.691-24.359L275.345,7.382z M205.954,7.382h26.575v47.244c0,6.786,5.115,10.404,11.073,10.334h28.79   v21.407h-41.339c-11.737,0-25.098-5.275-25.098-24.359L205.954,7.382L205.954,7.382z M451.035,7.381H391.24   c-17.203,0-24.32,15.824-24.359,24.359v29.527c0,19.149,15.754,25.948,24.359,25.837h59.795V64.959h-45.77   c-3.258,0-11.072-2.411-11.072-9.597V39.861c0-7.384,5.559-10.335,11.072-10.335h45.77V7.381L451.035,7.381z M493.849,29.616   c-7.258,0.042-10.336,4.6-10.336,10.245v14.765c0,6.133,5.273,10.334,10.336,10.334h30.266c3.59,0,9.598-2.431,9.598-10.334V39.863   c0-4.965-3.025-10.463-9.598-10.424L493.849,29.616z M483.513,7.382h50.938c16.166,0,26.572,11.012,26.572,24.359v29.527   c0,20.938-18.09,25.837-26.572,25.837h-50.938c-19.131,0-27.313-15.395-27.313-25.837V31.741   C456.201,14.74,471.416,7.382,483.513,7.382L483.513,7.382z M133.611,29.616c-7.257,0.043-10.334,4.6-10.334,10.246v14.765   c0,6.133,5.273,10.334,10.334,10.334h30.266c3.588,0,9.596-2.431,9.596-10.334V39.863c0-4.965-3.025-10.463-9.596-10.424   L133.611,29.616z M123.277,7.382h50.935c16.167,0,26.576,11.012,26.576,24.359v29.527c0,20.938-18.091,25.837-26.576,25.837   h-50.935c-19.132,0-26.575-15.395-26.575-25.837V31.741C96.702,14.74,111.179,7.382,123.277,7.382z M91.535,7.382H31.742   c-17.204,0-24.321,15.824-24.36,24.359v29.527c0,19.149,15.753,25.948,24.36,25.837h59.793V64.961H45.029   c-3.256,0-11.073-2.412-11.073-9.597V39.863c0-7.384,5.559-10.335,11.073-10.335h46.506V7.382z"
       id="path20"
       fill="url(#SVGID_1_)"
       style="fill:#ffffff;fill-opacity:1" /></g></svg>