<?xml version="1.0" standalone="no"?><!-- Generator: Gravit.io --><svg xmlns="http://www.w3.org/2000/svg" xmlns:xlink="http://www.w3.org/1999/xlink" style="isolation:isolate" viewBox="0 0 302.341 66.534" width="302.341" height="66.534"><linearGradient id="_lgradient_0" x1="0%" y1="50%" x2="100%" y2="50%"><stop offset="100%" stop-opacity="1" style="stop-color:rgb(255,255,255)"/><stop offset="100%" stop-opacity="1" style="stop-color:rgb(0,0,0)"/></linearGradient><path d=" M 73.591 0 C 73.408 -0.001 73.232 0.072 73.102 0.201 L 69.823 3.48 C 69.694 3.609 69.622 3.785 69.623 3.968 L 69.623 23.642 C 69.622 23.825 69.694 24.001 69.823 24.13 L 73.102 27.409 C 73.232 27.538 73.408 27.611 73.591 27.61 L 93.264 27.61 C 93.645 27.61 93.953 27.301 93.954 26.92 L 93.954 20.363 C 93.953 19.982 93.645 19.674 93.264 19.673 L 77.559 19.673 L 77.559 7.937 L 89.985 7.937 C 90.246 7.937 90.485 7.79 90.602 7.557 L 93.881 0.999 C 93.988 0.785 93.977 0.531 93.851 0.328 C 93.726 0.124 93.503 0 93.264 0 L 73.591 0 Z  M 96.184 0 C 95.804 0 95.495 0.309 95.495 0.69 L 95.495 23.642 C 95.494 23.825 95.567 24.001 95.696 24.13 L 98.974 27.409 C 99.104 27.538 99.28 27.611 99.463 27.61 L 115.858 27.61 C 116.119 27.61 116.357 27.463 116.475 27.23 L 119.753 20.672 C 119.801 20.576 119.826 20.47 119.826 20.363 L 119.826 0.69 C 119.826 0.309 119.517 0 119.137 0 L 112.579 0 C 112.198 0 111.89 0.309 111.889 0.69 L 111.889 19.673 L 103.432 19.673 L 103.432 0.69 C 103.431 0.309 103.123 0 102.742 0 L 96.184 0 Z  M 125.336 0 C 125.153 -0.001 124.977 0.072 124.847 0.201 L 121.568 3.48 C 121.439 3.609 121.367 3.785 121.367 3.968 L 121.367 13.805 C 121.367 13.988 121.439 14.164 121.568 14.294 L 124.847 17.573 C 124.977 17.702 125.153 17.774 125.336 17.773 L 137.762 17.773 L 137.762 19.673 L 122.057 19.673 C 121.676 19.674 121.368 19.982 121.367 20.363 L 121.367 26.92 C 121.368 27.301 121.676 27.61 122.057 27.61 L 138.451 27.61 C 138.634 27.611 138.81 27.538 138.94 27.409 L 145.498 20.852 C 145.627 20.722 145.699 20.546 145.698 20.363 L 145.698 10.526 C 145.698 10.145 145.39 9.837 145.009 9.837 L 129.304 9.837 L 129.304 7.937 L 145.009 7.937 C 145.27 7.937 145.509 7.79 145.626 7.557 L 148.905 0.999 C 149.012 0.785 149 0.531 148.875 0.328 C 148.749 0.124 148.527 0 148.288 0 L 125.336 0 Z  M 151.208 0 C 150.827 0 150.519 0.309 150.518 0.69 L 150.518 7.247 C 150.519 7.628 150.827 7.936 151.208 7.937 L 158.716 7.937 L 158.716 26.92 C 158.716 27.301 159.024 27.61 159.405 27.61 L 165.963 27.61 C 166.344 27.61 166.652 27.301 166.652 26.92 L 166.652 7.937 L 170.881 7.937 C 171.064 7.937 171.24 7.865 171.37 7.736 L 177.928 1.178 C 178.125 0.981 178.185 0.684 178.077 0.426 C 177.97 0.168 177.718 0 177.439 0 L 151.208 0 Z  M 183.638 0 C 183.455 -0.001 183.279 0.072 183.149 0.201 L 179.87 3.48 C 179.741 3.609 179.669 3.785 179.67 3.968 L 179.67 23.642 C 179.669 23.825 179.741 24.001 179.87 24.13 L 183.149 27.409 C 183.279 27.538 183.455 27.611 183.638 27.61 L 200.032 27.61 C 200.216 27.611 200.391 27.538 200.521 27.409 L 203.8 24.13 C 203.929 24.001 204.001 23.825 204.001 23.642 L 204.001 3.968 C 204.001 3.785 203.929 3.609 203.8 3.48 L 200.521 0.201 C 200.391 0.072 200.216 -0.001 200.032 0 L 183.638 0 Z  M 209.51 0 C 209.327 -0.001 209.151 0.072 209.022 0.201 L 205.743 3.48 C 205.614 3.609 205.541 3.785 205.542 3.968 L 205.542 26.92 C 205.542 27.301 205.851 27.61 206.231 27.61 L 212.789 27.61 C 213.17 27.61 213.478 27.301 213.479 26.92 L 213.479 7.937 L 215.379 7.937 L 215.379 26.92 C 215.379 27.301 215.687 27.61 216.068 27.61 L 222.626 27.61 C 223.007 27.61 223.315 27.301 223.315 26.92 L 223.315 7.937 L 225.215 7.937 L 225.215 26.92 C 225.216 27.301 225.524 27.61 225.905 27.61 L 232.462 27.61 C 232.843 27.61 233.152 27.301 233.152 26.92 L 233.152 3.968 C 233.153 3.785 233.08 3.609 232.951 3.48 L 229.672 0.201 C 229.543 0.072 229.367 -0.001 229.184 0 L 220.986 0 C 220.725 0 220.487 0.147 220.369 0.38 L 219.347 2.425 L 218.324 0.38 C 218.207 0.147 217.968 0 217.708 0 L 209.51 0 Z  M 187.606 7.937 L 196.064 7.937 L 196.064 19.673 L 187.606 19.673 L 187.606 7.937 Z  M 4.455 35.024 C 4.272 35.023 4.096 35.095 3.966 35.224 L 0.201 38.99 C 0.072 39.12 -0.001 39.296 0 39.479 L 0 62.079 C -0.001 62.262 0.072 62.438 0.201 62.567 L 3.966 66.333 C 4.096 66.462 4.272 66.534 4.455 66.534 L 27.055 66.534 C 27.436 66.533 27.744 66.225 27.744 65.844 L 27.744 58.311 C 27.744 57.93 27.436 57.622 27.055 57.621 L 8.91 57.621 L 8.91 43.936 L 23.287 43.936 C 23.548 43.936 23.787 43.789 23.904 43.556 L 27.672 36.023 C 27.779 35.809 27.768 35.555 27.642 35.351 C 27.516 35.148 27.294 35.024 27.055 35.024 L 4.455 35.024 Z  M 34.174 35.024 C 33.991 35.023 33.815 35.095 33.685 35.224 L 29.92 38.99 C 29.791 39.12 29.718 39.296 29.719 39.479 L 29.719 62.079 C 29.718 62.262 29.791 62.438 29.92 62.567 L 33.685 66.333 C 33.815 66.462 33.991 66.534 34.174 66.534 L 53.006 66.534 C 53.189 66.534 53.365 66.462 53.495 66.333 L 57.263 62.567 C 57.392 62.438 57.464 62.262 57.463 62.079 L 57.463 39.479 C 57.464 39.296 57.392 39.12 57.263 38.99 L 53.495 35.224 C 53.365 35.095 53.189 35.023 53.006 35.024 L 34.174 35.024 Z  M 60.128 35.024 C 59.747 35.024 59.438 35.333 59.438 35.713 L 59.438 65.844 C 59.438 66.225 59.747 66.533 60.128 66.534 L 82.727 66.534 C 82.988 66.534 83.227 66.387 83.344 66.154 L 87.11 58.62 C 87.217 58.407 87.206 58.152 87.08 57.949 C 86.954 57.745 86.732 57.621 86.493 57.621 L 68.35 57.621 L 68.35 35.713 C 68.35 35.333 68.042 35.024 67.661 35.024 L 60.128 35.024 Z  M 89.847 35.024 C 89.466 35.024 89.157 35.333 89.157 35.713 L 89.157 65.844 C 89.157 66.225 89.466 66.533 89.847 66.534 L 112.446 66.534 C 112.707 66.534 112.946 66.387 113.063 66.154 L 116.829 58.62 C 116.936 58.407 116.925 58.152 116.799 57.949 C 116.673 57.745 116.451 57.621 116.212 57.621 L 98.069 57.621 L 98.069 35.713 C 98.069 35.333 97.761 35.024 97.38 35.024 L 89.847 35.024 Z  M 119.568 35.024 C 119.187 35.024 118.879 35.333 118.878 35.713 L 118.878 65.844 C 118.879 66.225 119.187 66.533 119.568 66.534 L 142.165 66.534 C 142.546 66.533 142.855 66.225 142.855 65.844 L 142.855 58.311 C 142.855 57.93 142.546 57.622 142.165 57.621 L 127.791 57.621 L 127.791 55.235 L 142.165 55.235 C 142.546 55.235 142.855 54.926 142.855 54.545 L 142.855 47.012 C 142.855 46.631 142.546 46.323 142.165 46.323 L 127.791 46.323 L 127.791 43.936 L 142.165 43.936 C 142.546 43.936 142.855 43.627 142.855 43.246 L 142.855 35.713 C 142.855 35.333 142.546 35.024 142.165 35.024 L 119.568 35.024 Z  M 149.287 35.024 C 149.104 35.023 148.928 35.095 148.798 35.224 L 145.032 38.99 C 144.903 39.12 144.831 39.296 144.832 39.479 L 144.832 62.079 C 144.831 62.262 144.903 62.438 145.032 62.567 L 148.798 66.333 C 148.928 66.462 149.104 66.534 149.287 66.534 L 171.884 66.534 C 172.265 66.533 172.574 66.225 172.574 65.844 L 172.574 58.311 C 172.574 57.93 172.265 57.622 171.884 57.621 L 153.742 57.621 L 153.742 43.936 L 168.119 43.936 C 168.38 43.936 168.619 43.789 168.736 43.556 L 172.501 36.023 C 172.608 35.809 172.597 35.555 172.471 35.351 C 172.346 35.148 172.124 35.024 171.884 35.024 L 149.287 35.024 Z  M 175.24 35.024 C 174.86 35.024 174.551 35.333 174.551 35.713 L 174.551 43.246 C 174.551 43.627 174.86 43.936 175.24 43.936 L 183.967 43.936 L 183.967 65.844 C 183.967 66.225 184.276 66.533 184.656 66.534 L 192.19 66.534 C 192.57 66.533 192.879 66.225 192.879 65.844 L 192.879 43.936 L 201.606 43.936 C 201.986 43.936 202.295 43.627 202.295 43.246 L 202.295 35.713 C 202.295 35.333 201.986 35.024 201.606 35.024 L 175.24 35.024 Z  M 204.959 35.024 C 204.579 35.024 204.27 35.333 204.27 35.713 L 204.27 65.844 C 204.27 66.225 204.579 66.533 204.959 66.534 L 212.493 66.534 C 212.873 66.533 213.182 66.225 213.182 65.844 L 213.182 35.713 C 213.182 35.333 212.873 35.024 212.493 35.024 L 204.959 35.024 Z  M 219.614 35.024 C 219.431 35.023 219.255 35.095 219.125 35.224 L 215.357 38.99 C 215.228 39.12 215.156 39.296 215.157 39.479 L 215.157 62.079 C 215.156 62.262 215.228 62.438 215.357 62.567 L 219.125 66.333 C 219.255 66.462 219.431 66.534 219.614 66.534 L 238.446 66.534 C 238.629 66.534 238.805 66.462 238.935 66.333 L 242.7 62.567 C 242.829 62.438 242.902 62.262 242.901 62.079 L 242.901 39.479 C 242.902 39.296 242.829 39.12 242.7 38.99 L 238.935 35.224 C 238.805 35.095 238.629 35.023 238.446 35.024 L 219.614 35.024 Z  M 245.567 35.024 C 245.187 35.024 244.878 35.333 244.878 35.713 L 244.878 65.844 C 244.878 66.225 245.187 66.533 245.567 66.534 L 253.098 66.534 C 253.479 66.533 253.788 66.225 253.788 65.844 L 253.788 49.934 L 261.898 66.154 C 262.015 66.387 262.254 66.534 262.514 66.534 L 271.931 66.534 C 272.311 66.533 272.62 66.225 272.62 65.844 L 272.62 35.713 C 272.62 35.333 272.311 35.024 271.931 35.024 L 264.399 35.024 C 264.019 35.024 263.71 35.333 263.71 35.713 L 263.71 51.623 L 255.6 35.404 C 255.483 35.171 255.244 35.024 254.983 35.024 L 245.567 35.024 Z  M 279.052 35.024 C 278.869 35.023 278.693 35.095 278.563 35.224 L 274.797 38.99 C 274.668 39.12 274.596 39.296 274.597 39.479 L 274.597 50.78 C 274.596 50.963 274.668 51.139 274.797 51.269 L 278.563 55.034 C 278.693 55.163 278.869 55.235 279.052 55.235 L 293.429 55.235 L 293.429 57.621 L 275.286 57.621 C 274.906 57.622 274.597 57.93 274.597 58.311 L 274.597 65.844 C 274.597 66.225 274.906 66.533 275.286 66.534 L 294.118 66.534 C 294.302 66.534 294.477 66.462 294.607 66.333 L 302.141 58.8 C 302.27 58.67 302.342 58.494 302.341 58.311 L 302.341 47.012 C 302.341 46.631 302.032 46.323 301.652 46.323 L 283.509 46.323 L 283.509 43.936 L 301.652 43.936 C 302.032 43.936 302.341 43.627 302.341 43.246 L 302.341 35.713 C 302.341 35.333 302.032 35.024 301.652 35.024 L 279.052 35.024 Z  M 38.631 43.936 L 48.551 43.936 L 48.551 57.621 L 38.631 57.621 L 38.631 43.936 Z  M 224.069 43.936 L 233.989 43.936 L 233.989 57.621 L 224.069 57.621 L 224.069 43.936 Z " fill="url(#_lgradient_0)"/></svg>