<?xml version="1.0" encoding="UTF-8" standalone="no"?>
<svg
   xmlns:dc="http://purl.org/dc/elements/1.1/"
   xmlns:cc="http://creativecommons.org/ns#"
   xmlns:rdf="http://www.w3.org/1999/02/22-rdf-syntax-ns#"
   xmlns:svg="http://www.w3.org/2000/svg"
   xmlns="http://www.w3.org/2000/svg"
   xmlns:sodipodi="http://sodipodi.sourceforge.net/DTD/sodipodi-0.dtd"
   xmlns:inkscape="http://www.inkscape.org/namespaces/inkscape"
   height="74.3323"
   width="248.032"
   version="1.1"
   id="svg2"
   inkscape:version="0.91 r13725"
   sodipodi:docname="logo.svg">
  <metadata
     id="metadata50">
    <rdf:RDF>
      <cc:Work
         rdf:about="">
        <dc:format>image/svg+xml</dc:format>
        <dc:type
           rdf:resource="http://purl.org/dc/dcmitype/StillImage" />
        <dc:title></dc:title>
      </cc:Work>
    </rdf:RDF>
  </metadata>
  <defs
     id="defs48" />
  <sodipodi:namedview
     pagecolor="#ffffff"
     bordercolor="#666666"
     borderopacity="1"
     objecttolerance="10"
     gridtolerance="10"
     guidetolerance="10"
     inkscape:pageopacity="0"
     inkscape:pageshadow="2"
     inkscape:window-width="640"
     inkscape:window-height="480"
     id="namedview46"
     showgrid="false"
     inkscape:zoom="2.1408528"
     inkscape:cx="87.757187"
     inkscape:cy="45.166302"
     inkscape:current-layer="svg2" />
  <g
     fill-rule="evenodd"
     transform="translate(-225.984 -495.196)"
     fill="#231f20"
     id="g4"
     style="fill:#ffffff;fill-opacity:1">
    <path
       d="m247.339 509.369h12.6621l-4.53562 26.6464h-12.2838l4.15725-26.6464"
       id="path6"
       style="fill:#ffffff;fill-opacity:1" />
    <path
       d="m242.425 539.985h12.4728l-0.378 3.02351h10.394l-1.51162 10.7724h-23.2452l2.26803-13.7959"
       id="path8"
       style="fill:#ffffff;fill-opacity:1" />
    <path
       d="m404.95 511.637h11.5275l-1.13375 7.56h-11.5288l1.135-7.56"
       id="path10"
       style="fill:#ffffff;fill-opacity:1" />
    <path
       d="m403.343 522.409h11.5275l-2.0775 13.9844h-11.5288l2.07875-13.9844"
       id="path12"
       style="fill:#ffffff;fill-opacity:1" />
    <path
       d="m400.698 539.985h11.5275l-2.07875 13.7959h-11.5288l2.08-13.7959"
       id="path14"
       style="fill:#ffffff;fill-opacity:1" />
    <path
       d="m347.972 539.985h11.5272l-2.07875 13.7959h-11.5271l2.07863-13.7959"
       id="path16"
       style="fill:#ffffff;fill-opacity:1" />
    <path
       d="m277.48 539.985c-0.0967 0.89263-0.16412 2.02788-0.0635 3.04838 0.13675 1.24512 0.62013 2.24025 1.80225 2.24025 1.55613 0 2.49363-1.36863 3.03125-2.98688 0.30425-0.83975 0.5215-1.5375 0.67925-2.331l10.7421-0.0284-2.1885 13.8921h-9.55075l0.5605-2.76762c-2.36563 3.01225-4.26125 3.73588-8.24313 3.73588-7.606 0-8.82125-8.4375-8.33937-14.7992l11.5699-0.004"
       id="path18"
       style="fill:#ffffff;fill-opacity:1" />
    <path
       d="m283.408 536.394c0.008-0.79151-0.002-1.25938-0.0401-1.81451-0.11075-1.43112-0.559-2.67525-1.99025-2.67525-1.49363 0-2.38713 1.49313-3.01213 3.29788-0.0899 0.28125-0.168 0.55125-0.51912 1.18837l-11.6699-0.009c1.54975-6.65187 5.03613-14.4346 12.6324-14.5909 2.07413-0.0425 5.94775 0.24 7.46337 3.20375l0.331 0.0638 0.48975-2.6775h9.35988l-2.15575 14.0126-10.8891 0.0005"
       id="path20"
       style="fill:#ffffff;fill-opacity:1" />
    <path
       d="m297.136 536.393c-0.69675-1.39063-0.98825-3.05613-0.7115-5.03813 0.94825-6.78325 6.04738-10.2258 13.7013-10.2258 3.29824 0 5.59074 0.77375 8.22699 2.3925l-1.25537 8.70925c-1.914-1.60113-5.38038-2.45213-7.434-2.45213-0.87113 0-1.95313 0.2055-2.21975 1.23976-0.38725 1.50087 1.29437 2.32662 3.33975 3.04874 1.691 0.59725 3.129 1.33888 4.27587 2.3125l-17.9232 0.0133"
       id="path22"
       style="fill:#ffffff;fill-opacity:1" />
    <path
       d="m317.674 540.015c0.52063 1.42775 0.67638 3.1465 0.42288 4.96051-1.03563 7.40525-7.38962 10.1895-14.1724 10.1895-4.48037 0-6.36525-0.83449-9.92775-2.95025l1.59288-9.74662c1.21388 1.55575 5.32512 4.03612 8.07662 3.895 1.05663-0.0541 3.19038-0.78125 3.3555-1.96375 0.165-1.18213-0.34275-2.05275-2.99712-2.897-1.24262-0.395-2.42287-0.8115-3.46825-1.45563l17.1176-0.0317"
       id="path24"
       style="fill:#ffffff;fill-opacity:1" />
    <path
       d="m330.292 539.99c-0.459 2.77938-0.5635 7.14163 1.96925 7.45025 1.63138 0.19825 3.332-1.125 3.84763-4.47612h10.2466c-1.78562 10.5322-7.958 12.4439-15.3009 12.3901-8-0.0585-12.7895-6.57125-12.2021-15.3774l11.4395 0.0131"
       id="path26"
       style="fill:#ffffff;fill-opacity:1" />
    <path
       d="m437.825 536.393c1.50375-8.25712 5.52625-15.0009 17.0275-15.2634 2.25625-0.0512 4.05125 0.7125 4.99 1.2575l-1.4875 8.94087c-4.56375-1.8505-7.04625 1.78225-7.9225 5.07763l-12.6075-0.0126"
       id="path28"
       style="fill:#ffffff;fill-opacity:1" />
    <path
       d="m450.169 539.991c0.3075 2.05712 1.49125 3.97562 3.8 3.97562l2.51-0.189-1.4625 10.0049c-1.7825 0.47025-3.4825 0.75337-5.79 0.72125-8.78-0.12262-12.3788-6.57963-11.8675-14.525l12.81 0.0122"
       id="path30"
       style="fill:#ffffff;fill-opacity:1" />
    <path
       d="m385.304 539.99c-1.375 2.22612-2.74875 3.86863-5.86625 3.5855l0.53875-3.59475-12.1412 0.007-2.19375 13.7924h12.2838c10.165 0 17.1425-4.44775 20.5638-13.8218l-13.185 0.0312"
       id="path32"
       style="fill:#ffffff;fill-opacity:1" />
    <path
       d="m380.433 536.402 2.40625-15.5034c4.9125 0 6.04625 3.77875 5.1025 10.5825-0.23625 1.70025-0.56625 3.49613-1.01 4.94875l12.7812 0.0136c0.4625-1.9135 0.66625-4.039 0.89-6.28512 1.70125-17.0085-7.55875-20.7885-16.8188-20.7885h-11.5288l-1.60625 12.095c-1.89 0.3775-6.52 0.945-8.97625 4.2525-0.4725 0.47125-0.75625 0.28375-0.66125-0.28375l0.4725-3.02375h-10.8668l-2.0785 13.9844h11.5278c0.4725-1.98438 5.67-4.91313 8.88125-3.40188l-0.53875 3.39113 12.0238 0.0185"
       id="path34"
       style="fill:#ffffff;fill-opacity:1" />
    <path
       d="m415.439 536.393c-0.6975-1.39063-0.98875-3.05613-0.71125-5.03813 0.9475-6.78325 6.04625-10.2258 13.7012-10.2258 3.2975 0 5.59125 0.77375 8.2275 2.3925l-1.25625 8.70925c-1.915-1.60112-5.38-2.45213-7.43375-2.45213-0.87125 0-1.95375 0.2055-2.22 1.23976-0.3875 1.50087 1.295 2.32662 3.34 3.04875 1.69 0.59724 3.12875 1.33887 4.27625 2.3125l-17.9238 0.0133"
       id="path36"
       style="fill:#ffffff;fill-opacity:1" />
    <path
       d="m435.978 540.015c0.52 1.42775 0.675 3.1465 0.42125 4.96051-1.03375 7.40525-7.38875 10.1895-14.1712 10.1895-4.48 0-6.365-0.83449-9.9275-2.95025l1.5925-9.74662c1.21375 1.55575 5.325 4.03612 8.07625 3.895 1.0575-0.0541 3.19-0.78125 3.35625-1.96375 0.165-1.18213-0.34375-2.05275-2.9975-2.897-1.24375-0.395-2.4225-0.8115-3.46875-1.45563l17.1188-0.0317"
       id="path38"
       style="fill:#ffffff;fill-opacity:1" />
    <path
       d="m453.594 515.322h2.37875v0.35125h-0.99125v2.57875h-0.39625v-2.57875h-0.99125v-0.35125"
       id="path40"
       style="fill:#ffffff;fill-opacity:1" />
    <path
       d="m458.752 518.252v-1.73c0-0.0862 0.009-0.45625 0.009-0.73h-0.009l-0.82375 2.46h-0.3925l-0.82375-2.45625h-0.007c0 0.27 0.007 0.64 0.007 0.72625v1.73h-0.38375v-2.93h0.5675l0.83625 2.47625h0.007l0.8325-2.47625h0.56375v2.93h-0.38375"
       id="path42"
       style="fill:#ffffff;fill-opacity:1" />
    <path
       d="m334.921 521.129c-9.2495 0.0625-13.8012 6.55375-15.5976 15.2604l27.9282 0.006c0.3095-4.0385 0.163-7.95125-1.05712-9.72625-2.129-3.0975-4.93175-5.5825-11.2735-5.54zm0.18063 7.2925c2.17774 0 2.53224 2.36387 2.34187 4.16862h-5.66263c0.17288-1.67975 1.26713-4.16862 3.32076-4.16862"
       id="path44"
       style="fill:#ffffff;fill-opacity:1" />
  </g>
</svg>
