<?xml version="1.0" standalone="no"?><!-- Generator: Gravit.io --><svg xmlns="http://www.w3.org/2000/svg" xmlns:xlink="http://www.w3.org/1999/xlink" style="isolation:isolate" viewBox="0 0 568.929 116.145" width="568.929" height="116.145"><path d=" M 35.216 87.073 L 35.216 33.865 L 83.168 33.865 C 86.383 33.865 89.119 34.178 91.376 34.801 C 93.631 35.426 95.444 36.349 96.812 37.573 C 98.18 38.797 99.175 40.309 99.8 42.109 C 100.424 43.909 100.736 45.985 100.736 48.337 L 100.736 72.6 C 100.736 74.954 100.423 77.029 99.8 78.829 C 99.175 80.63 98.18 82.142 96.812 83.365 C 95.444 84.589 93.631 85.514 91.376 86.137 C 89.119 86.761 86.383 87.073 83.168 87.073 L 35.216 87.073 L 35.216 87.073 Z  M 45.656 76.633 L 83.24 76.633 C 85.592 76.633 87.308 76.262 88.388 75.516 C 89.468 74.773 90.008 73.657 90.008 72.168 L 90.008 48.768 C 90.008 47.281 89.468 46.165 88.388 45.42 C 87.308 44.676 85.592 44.304 83.24 44.304 L 45.656 44.304 L 45.656 76.633 Z " fill="rgb(255,255,255)"/><path d=" M 109.952 87.073 L 109.952 33.865 L 175.4 33.865 L 175.4 44.305 L 120.392 44.305 L 120.392 51.289 L 165.392 51.289 L 165.392 61.009 L 120.392 61.009 L 120.392 76.634 L 175.544 76.634 L 175.544 87.073 L 109.952 87.073 L 109.952 87.073 Z " fill="rgb(255,255,255)"/><path d=" M 183.175 87.073 L 183.175 76.633 L 229.255 76.633 C 231.607 76.633 233.323 76.262 234.403 75.516 C 235.483 74.773 236.022 73.657 236.022 72.168 L 236.022 66.696 C 236.022 65.209 235.483 64.092 234.403 63.347 C 233.323 62.604 231.606 62.232 229.255 62.232 L 198.583 62.232 C 188.311 62.232 183.175 58.416 183.175 50.784 L 183.175 44.088 C 183.175 37.273 188.262 33.864 198.439 33.864 L 244.591 33.864 L 244.591 44.304 L 198.08 44.304 C 196.496 44.304 195.416 44.46 194.84 44.772 C 194.264 45.085 193.976 45.576 193.976 46.248 L 193.976 49.416 C 193.976 50.28 194.264 50.892 194.84 51.252 C 195.416 51.612 196.52 51.792 198.152 51.792 L 229.184 51.792 C 232.4 51.792 235.135 52.105 237.392 52.728 C 239.648 53.353 241.46 54.276 242.829 55.5 C 244.197 56.724 245.192 58.236 245.816 60.036 C 246.44 61.836 246.753 63.913 246.753 66.264 L 246.753 72.6 C 246.753 74.954 246.44 77.029 245.816 78.829 C 245.192 80.63 244.197 82.142 242.829 83.365 C 241.461 84.588 239.648 85.514 237.392 86.137 C 235.135 86.761 232.4 87.073 229.184 87.073 L 183.175 87.073 L 183.175 87.073 Z " fill="rgb(255,255,255)"/><path d=" M 255.823 87.073 L 255.823 33.865 L 266.263 33.865 L 266.263 53.881 L 272.599 53.881 L 304.927 33.865 L 324.798 33.865 L 283.11 58.489 L 327.318 87.073 L 308.022 87.073 L 272.598 63.096 L 266.262 63.096 L 266.262 87.073 L 255.823 87.073 L 255.823 87.073 Z " fill="rgb(255,255,255)"/><path d=" M 352.302 87.073 L 352.302 44.304 L 324.727 44.304 L 324.727 33.864 L 390.319 33.864 L 390.319 44.304 L 362.743 44.304 L 362.743 87.072 L 352.302 87.072 L 352.302 87.073 Z " fill="rgb(255,255,255)"/><path d=" M 412.135 87.073 C 408.87 87.073 406.122 86.761 403.891 86.137 C 401.659 85.514 399.859 84.588 398.491 83.365 C 397.123 82.142 396.127 80.63 395.504 78.829 C 394.879 77.029 394.567 74.954 394.567 72.6 L 394.567 48.337 C 394.567 45.985 394.879 43.909 395.504 42.109 C 396.127 40.309 397.123 38.797 398.491 37.573 C 399.859 36.349 401.659 35.426 403.891 34.801 C 406.122 34.178 408.87 33.865 412.135 33.865 L 442.591 33.865 C 445.806 33.865 448.542 34.178 450.799 34.801 C 453.054 35.426 454.866 36.349 456.235 37.573 C 457.604 38.797 458.599 40.309 459.223 42.109 C 459.846 43.909 460.159 45.985 460.159 48.337 L 460.159 72.6 C 460.159 74.954 459.846 77.029 459.223 78.829 C 458.599 80.63 457.603 82.142 456.235 83.365 C 454.867 84.588 453.054 85.514 450.799 86.137 C 448.542 86.761 445.806 87.073 442.591 87.073 L 412.135 87.073 L 412.135 87.073 Z  M 405.295 72.168 C 405.295 73.656 405.835 74.772 406.914 75.516 C 407.994 76.262 409.71 76.633 412.062 76.633 L 442.662 76.633 C 445.014 76.633 446.73 76.262 447.81 75.516 C 448.89 74.773 449.43 73.657 449.43 72.168 L 449.43 48.768 C 449.43 47.281 448.89 46.165 447.81 45.42 C 446.73 44.676 445.013 44.304 442.662 44.304 L 412.062 44.304 C 409.709 44.304 407.994 44.677 406.914 45.42 C 405.835 46.165 405.295 47.281 405.295 48.768 L 405.295 72.168 Z " fill="rgb(255,255,255)"/><path d=" M 469.375 87.073 L 469.375 33.865 L 517.399 33.865 C 520.614 33.865 523.35 34.178 525.607 34.801 C 527.862 35.426 529.674 36.349 531.043 37.573 C 532.412 38.797 533.406 40.309 534.031 42.109 C 534.654 43.909 534.967 45.985 534.967 48.337 L 534.967 55.249 C 534.967 57.602 534.654 59.677 534.031 61.478 C 533.406 63.278 532.411 64.79 531.043 66.013 C 529.675 67.238 527.862 68.162 525.607 68.785 C 523.35 69.409 520.614 69.722 517.399 69.722 L 479.815 69.722 L 479.815 87.074 L 469.375 87.074 L 469.375 87.073 Z  M 479.815 60 L 517.47 60 C 519.822 60 521.538 59.629 522.618 58.884 C 523.698 58.14 524.238 57.024 524.238 55.536 L 524.238 48.768 C 524.238 47.281 523.698 46.165 522.618 45.42 C 521.538 44.676 519.821 44.304 517.47 44.304 L 479.815 44.304 L 479.815 60 L 479.815 60 Z " fill="rgb(255,255,255)"/></svg>