<?xml version="1.0" standalone="no"?><!-- Generator: Gravit.io --><svg xmlns="http://www.w3.org/2000/svg" xmlns:xlink="http://www.w3.org/1999/xlink" style="isolation:isolate" viewBox="0 0 566.929 129.21" width="566.929" height="129.21"><g id="Layer_2"><g id="null"><g id="null"><path d=" M 288.25 73.605 L 295.035 58.016 L 286.556 57.949 L 282.186 68.061 L 275.27 61.864 C 280.423 56.841 281.077 55.668 281.337 50.839 C 281.598 46.014 277.227 40.077 269.073 40.077 C 260.919 40.077 257.658 46.796 257.658 51.233 C 257.658 55.668 260.072 58.407 263.073 61.277 C 258.051 64.605 254.071 67.67 254.071 77.388 C 254.071 84.826 260.66 91.349 270.052 91.349 C 279.445 91.349 283.49 83.845 284.728 81.173 C 287.86 84.041 294.97 90.499 294.97 90.499 L 300.124 84.826 L 288.25 73.605 L 288.25 73.605 Z  M 269.466 47.773 C 271.444 47.773 273.51 48.904 273.51 51.362 C 273.51 54.231 269.531 56.579 269.531 56.579 C 266.249 53.861 265.422 53.384 265.422 51.035 C 265.421 48.686 267.66 47.773 269.466 47.773 Z  M 269.987 83.651 C 266.856 83.651 261.638 82.738 261.638 76.931 C 261.638 71.126 263.855 69.855 269.009 66.493 C 269.009 66.493 277.162 73.866 278.924 75.365 C 276.446 82.345 273.119 83.651 269.987 83.651 Z " fill="rgb(255,255,255)"/></g></g><g id="null"><path d=" M 121.232 90.125 L 155.065 39.247 L 163.414 39.247 L 163.414 74.382 L 187.071 39.333 L 195.595 39.333 L 195.595 90.125 L 187.071 90.125 L 187.071 54.988 L 163.414 90.299 L 154.978 90.299 L 154.978 54.815 L 131.496 90.125 L 121.232 90.125 Z " fill="rgb(255,255,255)"/><path d=" M 202.901 90.212 L 202.901 39.333 L 229.08 39.333 L 229.08 47.944 L 211.512 47.944 L 211.512 60.903 L 229.08 60.903 L 229.08 69.6 L 211.423 69.6 L 211.423 81.602 L 228.992 81.602 L 228.992 90.212 L 202.901 90.212 Z " fill="rgb(255,255,255)"/><g id="null"><g id="null"><path d=" M 110.1 39.333 L 76.267 90.387 L 86.705 90.387 L 93.922 79.252 L 110.274 79.252 L 110.274 90.387 L 118.71 90.387 L 118.71 39.333 L 110.1 39.333 L 110.1 39.333 Z  M 110.187 70.47 L 99.837 70.47 L 110.187 54.901 L 110.187 70.47 L 110.187 70.47 Z " fill="rgb(255,255,255)"/></g></g><g id="null"><g id="null"><path d=" M 81.937 65.474 L 55.307 65.474 L 55.307 73.774 L 72.575 73.852 C 69.578 80.536 62.866 85.191 55.068 85.191 C 44.476 85.191 35.89 76.604 35.89 66.011 C 35.89 55.42 44.476 46.834 55.068 46.834 C 61.646 46.834 67.448 50.146 70.903 55.19 L 79.672 55.182 C 75.507 45.733 66.058 39.136 55.068 39.136 C 40.226 39.136 28.193 51.169 28.193 66.011 C 28.193 80.855 40.226 92.886 55.068 92.886 C 69.91 92.886 81.943 80.855 81.943 66.011 C 81.943 65.832 81.94 65.652 81.937 65.474 Z " fill="rgb(255,255,255)"/></g></g><rect x="55.307" y="65.424" width="27.092" height="8.479" transform="matrix(1,0,0,1,0,0)" fill="rgb(255,255,255)"/><rect x="61.96" y="55.25" width="26.266" height="5.349" transform="matrix(1,0,0,1,0,0)" fill="rgb(255,255,255)"/></g><g id="null"><g id="null"><g id="null"><path d=" M 401.653 37.884 L 367.822 88.937 L 378.258 88.937 L 385.477 77.802 L 401.827 77.802 L 401.827 88.937 L 410.264 88.937 L 410.264 37.884 L 401.653 37.884 L 401.653 37.884 Z  M 401.74 69.019 L 391.392 69.019 L 401.74 53.452 L 401.74 69.019 L 401.74 69.019 Z " fill="rgb(255,255,255)"/></g></g><g id="null"><g id="null"><path d=" M 480.065 75.239 C 476.683 79.158 471.681 81.636 466.1 81.636 C 455.916 81.636 447.662 73.382 447.662 63.198 C 447.662 53.015 455.917 44.759 466.1 44.759 C 471.464 44.759 476.29 47.05 479.66 50.704 L 489.528 50.701 C 485.045 42.251 476.157 36.498 465.926 36.498 C 451.179 36.498 439.226 48.451 439.226 63.198 C 439.226 77.946 451.179 89.899 465.926 89.899 C 476.342 89.899 485.366 83.933 489.768 75.235 L 480.065 75.239 L 480.065 75.239 Z " fill="rgb(255,255,255)"/></g></g><path d=" M 320.943 38.063 L 320.943 89.03 L 329.726 89.03 L 352.949 54.241 L 352.949 88.942 L 361.82 88.942 L 395.391 38.149 L 384.868 38.149 L 361.733 73.288 L 361.733 38.236 L 353.036 38.236 L 329.726 73.374 L 329.726 38.063 L 320.943 38.063 Z " fill="rgb(255,255,255)"/><path d=" M 413.309 37.978 L 441.485 37.978 L 441.485 46.586 L 431.659 46.586 L 431.659 88.769 L 422.96 88.769 L 422.96 46.674 L 413.221 46.674 L 413.309 37.978 Z " fill="rgb(255,255,255)"/><path d=" M 492.192 38.063 L 492.192 89.032 L 500.802 89.032 L 500.802 67.375 L 516.544 67.375 L 516.544 88.857 L 525.33 88.857 L 525.33 38.149 L 516.72 38.149 L 516.72 58.676 L 500.802 58.676 L 500.802 38.149 L 492.192 38.063 Z " fill="rgb(255,255,255)"/></g></g></svg>