<?xml version="1.0" standalone="no"?><!-- Generator: Gravit.io --><svg xmlns="http://www.w3.org/2000/svg" xmlns:xlink="http://www.w3.org/1999/xlink" style="isolation:isolate" viewBox="0 0 566.93 124.23" width="566.93" height="124.23"><g id="null"><g id="null"><g id="Layer_6"><line x1="29.248" y1="99.123" x2="28.12" y2="98.282"/></g><g id="_x33_D_PART"><path d=" M 89.451 62.438 L 89.451 82.608 L 53.699 103.224 L 18.222 82.608 L 16.628 83.691 L 53.699 105.427 L 91.065 83.824 L 91.065 61.505 L 89.451 62.438 Z " fill="rgb(255,255,255)"/></g><g id="black_line_thing"><path d=" M 89.451 82.52 L 91.065 83.685 L 91.065 83.824 L 90.963 83.9 L 89.308 82.69 L 89.451 82.608 L 89.451 82.52 Z " fill="rgb(255,255,255)"/></g><g id="dark_purple_top_line"><path d=" M 54.004 62.205 L 28.814 47.455 L 28.416 47.853 L 53.699 62.851 L 54.004 62.205 Z " fill="rgb(255,255,255)"/><path d=" M 53.922 62.205 L 54.107 62.205 L 54.14 62.413 L 53.813 62.413 L 53.922 62.205 Z " fill="rgb(255,255,255)"/></g><g id="top_black_line"><path d=" M 54.004 62.851 L 54.004 62.205 L 107.627 31.206 L 107.785 31.647 L 54.004 62.851 Z " fill="rgb(255,255,255)"/></g><g id="LOGO_DARK_LINES"><path d=" M 54.004 124.23 L 54.363 105.729 L 91.582 84.28 L 91.72 61.312 L 91.065 61.312 L 91.065 83.824 L 53.699 105.427 L 53.565 124.23 L 54.004 124.23 Z " fill="rgb(255,255,255)"/></g><g id="LOGO"><path d=" M 54.004 91.212 L 54.004 62.851 L 107.785 31.647 L 107.785 93.197 L 54.004 124.23 L 54.004 105.573 L 91.361 84.062 L 91.361 61.332 L 78.85 68.566 L 78.85 76.595 L 54.004 91.212 Z " fill="rgb(255,255,255)"/></g><g id="BOTTOM_LAIN_LEFT_LIGHT_LINE"><path d=" M 53.402 124.23 L 53.699 124.23 L 53.699 105.427 L 52.642 104.806 L 53.402 124.23" fill="rgb(255,255,255)"/></g><g id="underneath"><path d=" M 16.542 40.703 L 16.771 40.897 L 16.862 83.532 L 16.628 83.691 L 16.486 83.601 L 16.542 40.703" fill="rgb(255,255,255)"/></g><g id="LEFT_3D_PURPLE_SHADOW"><path d=" M 18.222 82.608 L 16.628 83.691 L 16.628 40.755 L 54.004 19.174 L 54.004 21.3 L 18.26 41.987 L 18.222 82.608 Z " fill="rgb(255,255,255)"/></g><g id="MAIN_DARK_PURPLE_LINE"><path d=" M 54.004 62.094 L 54.004 91.212 L 53.699 91.417 L 53.699 62.851 L 53.699 62.028 L 54.004 62.094 Z " fill="rgb(255,255,255)"/></g><g id="logo_LEFT_side"><path d=" M 28.416 47.853 L 28.416 76.802 L 53.699 91.417 L 53.699 62.851 L 28.416 47.853 Z " fill="rgb(255,255,255)"/><path d=" M 53.402 123.926 L 53.402 105.251 L 16.628 83.691 L 16.628 40.964 L 0 31.206 L 0 93.302 L 53.402 124.23 L 53.402 123.926 Z " fill="rgb(255,255,255)"/></g><g id="left_purple_line"><rect x="16.343" y="40.755" width="0.285" height="42.938" transform="matrix(1,0,0,1,0,0)" fill="rgb(255,255,255)"/><path d=" M 16.628 40.755 L 0.214 30.992 L 0 31.206 L 16.486 40.897 L 16.628 40.755 Z " fill="rgb(255,255,255)"/></g><g id="BOTTOM_PURPLE_LINE"><path d=" M 53.402 105.251 L 53.402 105.603 L 16.343 84.015 L 16.343 83.691 L 16.628 83.691 L 53.402 105.251 Z " fill="rgb(255,255,255)"/></g><g id="top_middle_light_line"><path d=" M 54.004 19.174 L 77.901 33.142 L 77.901 35.231 L 54.004 21.3 L 54.004 19.174 Z " fill="rgb(255,255,255)"/></g><g id="top_right"><path d=" M 77.901 33.142 L 77.901 35.231 L 94.454 25.524 L 94.454 23.552 L 77.901 33.142 Z " fill="rgb(255,255,255)"/></g><g id="MAIN_TOP"><path d=" M 53.833 0 L 94.454 23.552 L 77.901 33.142 L 54.004 19.174 L 16.628 40.755 L 0.214 30.992 L 53.833 0 Z " fill="rgb(255,255,255)"/><path d=" M 28.814 47.455 L 53.68 33.409 L 77.369 46.781 L 106.232 30.192 L 107.627 31.206 L 54.004 62.205 L 28.814 47.455 Z " fill="rgb(255,255,255)"/></g></g><g id="null"><path d=" M 373.52 21.158 L 373.52 16.209 L 359.377 16.209 C 357.561 16.209 355.844 16.613 354.323 17.319 C 352.81 18.029 351.597 19.037 350.689 20.251 C 349.781 21.46 349.375 22.78 349.273 24.291 L 349.273 39.543 C 349.373 40.96 349.781 42.272 350.586 43.487 C 351.498 44.697 352.707 45.603 354.123 46.411 C 355.639 47.121 357.25 47.526 359.176 47.526 L 373.516 47.526 L 373.516 42.577 L 359.777 42.577 C 358.667 42.577 357.659 42.271 356.755 41.666 C 355.94 41.062 355.437 40.354 355.437 39.347 L 355.437 33.69 L 373.519 33.69 L 373.519 28.637 L 355.437 28.637 L 355.437 24.495 C 355.437 23.482 355.94 22.678 356.755 22.068" fill="rgb(255,255,255)"/><path d=" M 457.952 16.21 L 457.952 47.527 L 473.054 47.527 C 474.97 47.429 476.679 47.122 478.193 46.42 C 479.802 45.616 481.011 44.708 481.916 43.499 C 482.824 42.296 483.223 40.884 483.324 39.372 L 483.324 24.266 C 483.222 22.759 482.824 21.445 481.916 20.238 C 481.012 19.03 479.805 18.025 478.193 17.317 C 476.679 16.612 474.968 16.21 473.054 16.21 L 457.952 16.21 L 457.952 16.21 L 457.952 16.21 Z  M 475.778 22.052 C 476.676 22.656 477.081 23.459 477.182 24.47 L 477.182 39.273 C 477.078 40.279 476.676 41.085 475.778 41.689 C 474.969 42.392 473.958 42.694 472.85 42.694 L 464.092 42.694 L 464.092 21.046 L 472.85 21.046 C 473.958 21.046 474.969 21.347 475.778 22.052 Z " fill="rgb(255,255,255)"/><path d=" M 531.958 17.302 C 530.47 16.61 528.786 16.309 526.905 16.209 L 521.452 16.209 C 519.567 16.308 517.886 16.609 516.395 17.302 C 514.811 18.096 513.62 18.982 512.729 20.176 C 511.834 21.362 511.34 22.752 511.34 24.239 L 511.34 39.598 C 511.34 41.084 511.834 42.375 512.729 43.565 C 513.62 44.755 514.811 45.744 516.395 46.439 C 517.885 47.132 519.567 47.528 521.452 47.528 L 526.905 47.528 C 528.786 47.528 530.468 47.132 531.958 46.439 C 533.542 45.745 534.731 44.755 535.624 43.565 C 536.517 42.374 537.011 40.988 537.011 39.598 L 537.011 24.238 C 536.915 22.751 536.517 21.361 535.624 20.175 C 534.731 18.981 533.542 18.095 531.958 17.302 Z  M 529.579 21.958 C 530.47 22.652 530.966 23.442 530.966 24.34 L 530.966 39.399 C 530.966 40.291 530.47 41.085 529.579 41.778 C 528.786 42.375 527.792 42.772 526.706 42.772 L 521.651 42.772 C 520.557 42.772 519.567 42.376 518.674 41.778 C 517.885 41.084 517.389 40.291 517.389 39.399 L 517.389 24.34 C 517.389 23.443 517.885 22.652 518.674 21.958 C 519.567 21.362 520.557 21.065 521.651 20.966 L 526.706 20.966 C 527.793 21.067 528.786 21.363 529.579 21.958 Z " fill="rgb(255,255,255)"/><path d=" M 169.301 16.21 L 163.138 16.21 L 163.138 36.213 L 152.634 16.21 L 144.249 16.21 L 144.249 47.527 L 150.412 47.527 L 150.412 23.083 L 163.24 47.527 L 169.301 47.527 L 169.301 16.21" fill="rgb(255,255,255)"/><path d=" M 269.711 16.21 L 263.548 16.21 L 263.548 36.213 L 253.043 16.21 L 244.658 16.21 L 244.658 47.527 L 250.821 47.527 L 250.821 23.083 L 263.649 47.527 L 269.711 47.527 L 269.711 16.21 Z " fill="rgb(255,255,255)"/><path d=" M 428.299 16.21 L 422.137 16.21 L 422.137 36.213 L 411.633 16.21 L 403.246 16.21 L 403.246 47.527 L 409.409 47.527 L 409.409 23.083 L 422.237 47.527 L 428.299 47.527 L 428.299 16.21 Z " fill="rgb(255,255,255)"/><path d=" M 210.526 47.527 L 210.526 16.21 L 203.456 16.21 L 203.456 47.527 L 210.526 47.527 L 210.526 47.527 Z " fill="rgb(255,255,255)"/><path d=" M 296.922 16.21 L 296.922 21.159 L 307.323 21.159 L 307.323 47.528 L 313.994 47.528 L 313.994 21.158 L 324.498 21.158 L 324.498 16.209 L 296.92 16.209 L 296.92 16.209" fill="rgb(255,255,255)"/></g><g id="null"><path d=" M 543.92 69.03 L 543.92 60.567 L 501.203 60.567 L 501.203 100.796 L 544.316 100.796 L 544.316 91.734 L 512.461 91.734 L 512.461 84.164 L 530.777 84.164 L 530.777 75.707 L 512.461 75.707 L 512.461 69.03 L 543.92 69.03 L 543.92 69.03 Z " fill="rgb(255,255,255)"/><path d=" M 496.374 68.755 C 496.47 65.97 495.677 63.778 493.981 62.481 C 492.385 61.087 489.901 60.391 486.514 60.391 L 451.366 60.391 L 451.366 100.716 L 484.024 100.716 C 492.587 100.617 496.768 97.829 496.768 92.154 L 496.768 87.271 C 496.768 83.889 495.276 81.401 492.186 80.009 C 494.975 78.711 496.374 76.522 496.374 73.433 L 496.374 68.755 L 496.374 68.755 L 496.374 68.755 Z  M 485.52 68.955 C 485.918 69.354 486.122 69.755 486.016 70.351 L 486.016 74.036 C 486.12 74.531 485.918 75.031 485.52 75.329 L 482.725 75.824 L 462.618 75.824 L 462.618 68.558 L 482.725 68.558 C 484.227 68.558 485.221 68.757 485.52 68.955 L 485.52 68.955 L 485.52 68.955 Z  M 462.618 91.855 L 462.618 83.988 L 482.829 83.988 C 484.325 83.988 485.222 84.189 485.718 84.488 C 486.12 84.889 486.314 85.486 486.314 86.481 L 486.314 89.367 C 486.314 90.264 486.123 90.961 485.718 91.258 C 485.222 91.658 484.325 91.855 482.829 91.855 L 462.618 91.855 Z " fill="rgb(255,255,255)"/><path d=" M 446.614 60.458 L 435.364 60.458 L 435.364 91.625 L 410.968 91.625 L 410.968 60.458 L 399.72 60.458 L 399.72 90.729 C 399.614 93.215 400.015 95.213 400.71 96.704 C 401.31 98.099 402.507 99.194 404.099 99.793 C 405.696 100.488 407.783 100.786 410.569 100.689 L 435.662 100.689 C 438.451 100.786 440.639 100.488 442.232 99.793 C 443.822 99.194 444.921 98.099 445.621 96.704" fill="rgb(255,255,255)"/><path d=" M 394.09 64.607 C 393.385 63.118 392.194 62.119 390.702 61.421 C 389.106 60.819 386.918 60.523 384.229 60.523 L 359.638 60.523 C 356.849 60.523 354.757 60.821 353.16 61.421 C 351.569 62.118 350.374 63.117 349.778 64.607 C 349.081 66.101 348.682 68.091 348.785 70.581 L 348.785 90.795 C 348.682 93.279 349.081 95.275 349.778 96.766 C 350.374 98.162 351.569 99.257 353.16 99.859 C 354.757 100.552 356.848 100.85 359.638 100.752 L 384.23 100.752 C 386.918 100.85 389.107 100.553 390.703 99.859 C 392.195 99.257 393.387 98.162 394.09 96.766 C 394.687 95.277 395.086 93.281 395.086 90.795 L 395.086 83.424 L 383.83 83.529 L 383.83 91.691 L 359.937 91.691 L 359.937 69.39 L 383.83 69.39 L 383.83 76.555 L 395.086 76.555 L 395.086 70.581 C 395.086 67.996 394.687 66.007 394.09 64.607 Z " fill="rgb(255,255,255)"/><path d=" M 340.461 69.03 L 340.461 60.567 L 297.743 60.567 L 297.743 100.796 L 340.859 100.796 L 340.859 91.734 L 308.998 91.734 L 308.998 84.164 L 327.319 84.164 L 327.319 75.707 L 308.998 75.707 L 308.998 69.03 L 340.461 69.03 L 340.461 69.03 Z " fill="rgb(255,255,255)"/><path d=" M 282.411 60.458 L 265.284 88.938 L 248.259 60.458 L 238.005 60.458 L 238.005 93.617 L 217.989 60.458 L 207.933 60.458 L 183.939 100.686 L 214.007 100.686 L 214.007 91.625 L 200.565 91.625 L 213.012 71.612 L 229.84 100.684 L 248.359 100.684 L 248.359 79.179 L 261.201 100.684 L 269.467 100.684 L 282.409 79.179 L 282.409 100.684 L 292.763 100.684 L 292.763 60.457 L 282.409 60.457 L 282.409 60.457" fill="rgb(255,255,255)"/><path d=" M 184.83 69.307 L 184.83 60.537 L 146.892 60.537 C 144.207 60.537 142.013 60.837 140.418 61.436 C 138.828 62.132 137.732 63.134 137.037 64.623 C 136.337 66.116 136.039 68.106 136.039 70.598 L 136.039 90.808 C 136.039 93.294 136.337 95.291 137.037 96.783 C 137.733 98.178 138.829 99.273 140.418 99.874 C 142.012 100.566 144.207 100.865 146.892 100.769 L 174.476 100.769 C 178.454 100.866 181.244 100.17 182.934 98.678 C 184.529 97.083 185.325 94.495 185.228 90.81 L 185.228 76.57 L 159.14 76.57 L 159.14 85.04 L 174.275 85.04 L 174.275 91.707 L 147.29 91.707 L 147.29 69.307 L 184.83 69.307 Z " fill="rgb(255,255,255)"/></g></g></svg>