<?xml version="1.0" standalone="no"?><!-- Generator: Gravit.io --><svg xmlns="http://www.w3.org/2000/svg" xmlns:xlink="http://www.w3.org/1999/xlink" style="isolation:isolate" viewBox="0 0 596.929 144.145" width="596.929" height="144.145"><path d=" M 548.056 46.853 L 547.827 46.721 L 363.343 46.721 L 344.321 14 L 253.374 14 L 234.347 46.721 L 49.106 46.721 L 14 66.605 L 14 110.259 L 48.88 130.018 L 49.108 130.145 L 547.825 130.145 L 582.675 110.404 L 582.929 110.259 L 582.929 66.607 L 548.056 46.853 Z " fill="none" vector-effect="non-scaling-stroke" stroke-width="7" stroke="rgb(255,255,255)" stroke-linejoin="miter" stroke-linecap="butt" stroke-miterlimit="4"/><path d=" M 324.46 28.469 L 317.329 50.195 L 320.85 50.195 L 327.996 29.216 C 328.256 28.257 329.039 27.557 329.959 27.557 C 330.89 27.557 331.672 28.257 331.933 29.216 L 337.974 46.962 L 328.495 46.962 L 328.495 50.194 L 342.6 50.194 L 335.468 28.468 C 334.784 26.072 332.575 24.322 329.958 24.322 C 327.351 24.321 325.146 26.071 324.46 28.469 Z  M 328.638 41.961 L 329.886 38.255 L 331.187 41.961 L 328.638 41.961 Z  M 328.121 31.323 L 321.734 50.195 L 325.851 50.195 L 328.494 42.373 L 328.494 46.07 L 336.789 46.07 L 331.863 31.323 C 331.613 30.502 330.867 28.141 329.99 28.141 C 329.109 28.141 328.363 30.501 328.121 31.323 L 328.121 31.323 Z  M 305.572 28.438 L 317.916 28.438 L 317.916 24.908 L 305.277 24.908 C 301.869 24.908 299.105 27.679 299.105 31.088 L 299.105 44.024 C 299.105 47.433 301.869 50.196 305.277 50.196 L 317.916 50.196 L 317.916 33.726 L 307.924 33.726 L 307.924 36.96 L 314.385 36.96 L 314.385 46.662 L 305.572 46.662 C 303.945 46.662 302.636 45.347 302.636 43.724 L 302.636 31.374 C 302.634 29.755 303.945 28.438 305.572 28.438 Z  M 307.923 37.844 L 307.923 41.375 L 309.978 41.375 L 309.978 42.257 L 307.923 42.257 C 307.437 42.257 307.04 41.861 307.04 41.375 L 307.04 33.727 C 307.04 33.241 307.436 32.844 307.923 32.844 L 317.915 32.844 L 317.915 29.32 L 306.454 29.32 C 304.827 29.32 303.509 30.636 303.509 32.258 L 303.509 42.843 C 303.509 44.465 304.827 45.781 306.454 45.781 L 313.509 45.781 L 313.509 37.843 L 307.923 37.844 L 307.923 37.844 Z  M 285.292 28.438 L 297.636 28.438 L 297.636 24.908 L 284.995 24.908 C 281.587 24.908 278.825 27.679 278.825 31.088 L 278.825 43.88 C 278.825 47.288 281.587 50.059 284.995 50.059 L 297.636 50.059 L 297.636 46.528 L 285.292 46.528 C 283.671 46.528 282.354 45.214 282.354 43.59 L 282.354 31.376 C 282.354 29.755 283.671 28.438 285.292 28.438 L 285.292 28.438 Z  M 294.987 36.961 L 294.987 33.727 L 286.76 33.727 C 286.76 33.241 287.155 32.844 287.643 32.844 L 297.635 32.844 L 297.635 29.32 L 286.174 29.32 C 284.553 29.32 283.238 30.636 283.238 32.258 L 283.238 36.961 L 294.987 36.961 L 294.987 36.961 Z  M 294.987 38.14 L 294.987 41.374 L 286.76 41.374 C 286.76 41.859 287.155 42.256 287.643 42.256 L 297.635 42.256 L 297.635 45.778 L 286.174 45.778 C 284.553 45.778 283.238 44.464 283.238 42.84 L 283.238 38.137 L 294.987 38.14 L 294.987 38.14 Z  M 264.784 42.547 L 257.372 42.547 L 257.372 45.78 L 268.686 45.78 L 268.831 45.78 C 270.954 45.704 272.651 43.953 272.651 41.814 C 272.651 39.625 270.878 37.842 268.686 37.842 L 264.227 37.842 C 262.424 37.156 260.893 35.368 260.893 33.283 C 260.893 30.604 263.36 28.435 266.038 28.435 L 277.065 28.435 L 277.065 24.907 L 265.596 24.907 C 261.055 24.907 257.371 28.597 257.371 33.14 C 257.371 37.69 261.35 41.374 265.892 41.374 L 265.892 41.336 L 265.915 41.374 L 268.54 41.374 C 268.86 41.374 269.126 41.633 269.126 41.96 C 269.126 42.286 268.858 42.546 268.54 42.546 L 264.784 42.546 L 264.784 42.547 Z  M 269.646 32.554 L 277.066 32.554 L 277.066 29.32 L 265.75 29.32 L 265.598 29.32 C 263.475 29.396 261.78 31.147 261.78 33.286 C 261.78 35.484 263.559 37.259 265.753 37.259 L 270.212 37.259 C 272.015 37.951 273.538 39.732 273.538 41.817 C 273.538 44.497 271.073 46.666 268.392 46.666 L 257.374 46.666 L 257.374 50.196 L 268.833 50.196 C 273.378 50.196 277.067 46.513 277.067 41.964 C 277.067 37.421 273.088 33.73 268.544 33.73 L 268.544 33.776 L 268.515 33.731 L 265.896 33.731 C 265.568 33.731 265.31 33.472 265.31 33.145 C 265.31 32.826 265.568 32.559 265.896 32.559 L 269.646 32.554 L 269.646 32.554 Z " fill="rgb(255,255,255)"/><g id="null"><linearGradient id="_lgradient_0" x1="15.205029013539646%" y1="105.22298696211803%" x2="82.73100303951368%" y2="378.7129987129993%"><stop offset="0%" stop-opacity="1" style="stop-color:rgb(255,255,255)"/><stop offset="39%" stop-opacity="1" style="stop-color:rgb(119,116,137)"/><stop offset="98%" stop-opacity="1" style="stop-color:rgb(217,221,233)"/></linearGradient><path d=" M 275.669 62.433 L 275.669 114.606 L 258.101 114.606 L 258.101 95.333 L 224.429 76.171 L 224.429 114.606 L 206.86 114.606 L 206.86 62.433 L 225.161 62.433 L 258.101 81.173 L 258.101 62.433 L 275.669 62.433 Z " fill="url(#_lgradient_0)"/></g><g id="null"><linearGradient id="_lgradient_1" x1="15.205029013539646%" y1="105.22298696211803%" x2="82.73100303951368%" y2="378.7129987129993%"><stop offset="0%" stop-opacity="1" style="stop-color:rgb(255,255,255)"/><stop offset="39%" stop-opacity="1" style="stop-color:rgb(119,116,137)"/><stop offset="98%" stop-opacity="1" style="stop-color:rgb(217,221,233)"/></linearGradient><rect x="448.251" y="62.179" width="18.262" height="52.509" transform="matrix(1,0,0,1,0,0)" fill="url(#_lgradient_1)"/></g><g id="null"><linearGradient id="_lgradient_2" x1="15.205029013539646%" y1="105.22298696211803%" x2="82.73100303951368%" y2="378.7129987129993%"><stop offset="0%" stop-opacity="1" style="stop-color:rgb(255,255,255)"/><stop offset="39%" stop-opacity="1" style="stop-color:rgb(119,116,137)"/><stop offset="98%" stop-opacity="1" style="stop-color:rgb(217,221,233)"/></linearGradient><path d=" M 335.921 72.68 L 305.917 72.68 L 305.917 83.182 L 341.921 83.182 L 324.669 93.684 L 305.917 93.684 L 305.917 104.186 L 354.673 104.186 L 337.421 114.688 L 287.915 114.688 L 287.915 74.182 L 305.917 62.179 L 353.173 62.179 L 335.921 72.68 Z " fill="url(#_lgradient_2)"/></g><g id="null"><linearGradient id="_lgradient_3" x1="15.205029013539646%" y1="105.22298696211803%" x2="82.73100303951368%" y2="378.7129987129993%"><stop offset="0%" stop-opacity="1" style="stop-color:rgb(255,255,255)"/><stop offset="39%" stop-opacity="1" style="stop-color:rgb(119,116,137)"/><stop offset="98%" stop-opacity="1" style="stop-color:rgb(217,221,233)"/></linearGradient><path d=" M 176.399 72.878 L 146.563 72.878 L 146.563 83.317 L 182.366 83.317 L 165.21 93.762 L 146.563 93.762 L 146.563 104.204 L 195.047 104.204 L 177.89 114.647 L 128.66 114.647 L 128.66 74.368 L 146.563 62.433 L 193.555 62.433 L 176.399 72.878 Z " fill="url(#_lgradient_3)"/></g><g id="null"><linearGradient id="_lgradient_4" x1="15.205029013539646%" y1="105.22298696211803%" x2="82.73100303951368%" y2="378.7129987129993%"><stop offset="0%" stop-opacity="1" style="stop-color:rgb(255,255,255)"/><stop offset="39%" stop-opacity="1" style="stop-color:rgb(119,116,137)"/><stop offset="98%" stop-opacity="1" style="stop-color:rgb(217,221,233)"/></linearGradient><path d=" M 44.562 74.372 L 62.47 62.433 L 116.942 62.433 L 99.779 72.882 L 62.47 72.882 L 62.47 104.219 L 96.048 104.219 L 96.048 91.534 L 75.155 91.534 L 92.317 81.089 L 113.958 81.089 L 113.958 102.727 L 96.048 114.667 L 44.562 114.667 L 44.562 74.372 Z " fill="url(#_lgradient_4)"/></g><g id="null"><path d=" M 437.089 104.034 L 419.587 114.688 L 365.558 114.688 L 383.06 104.034 L 417.304 104.034 L 417.304 93.382 L 365.558 93.382 L 365.558 72.835 L 383.06 62.179 L 437.851 62.179 L 420.349 72.835 L 384.582 72.835 L 384.582 82.725 L 437.089 82.725 L 437.089 104.034 Z " fill="rgb(194,196,210)"/><linearGradient id="_lgradient_5" x1="15.205029013539646%" y1="105.22298696211803%" x2="82.73100303951368%" y2="378.7129987129993%"><stop offset="0%" stop-opacity="1" style="stop-color:rgb(255,255,255)"/><stop offset="39%" stop-opacity="1" style="stop-color:rgb(119,116,137)"/><stop offset="98%" stop-opacity="1" style="stop-color:rgb(217,221,233)"/></linearGradient><path d=" M 417.304 104.034 L 417.304 93.382 L 365.558 93.382 L 365.558 72.835 L 383.06 62.179 L 437.851 62.179 L 420.349 72.835 L 384.582 72.835 L 384.582 82.725 L 437.089 82.725 L 437.089 104.034 L 419.587 114.688 L 365.558 114.688 L 383.06 104.034 L 417.304 104.034 Z " fill="url(#_lgradient_5)"/></g><g id="null"><path d=" M 548.447 104.034 L 530.945 114.688 L 476.914 114.688 L 494.417 104.034 L 528.662 104.034 L 528.662 93.382 L 476.914 93.382 L 476.914 72.835 L 494.417 62.179 L 549.207 62.179 L 531.705 72.835 L 495.939 72.835 L 495.939 82.725 L 548.447 82.725 L 548.447 104.034 Z " fill="rgb(194,196,210)"/><linearGradient id="_lgradient_6" x1="15.205029013539646%" y1="105.22298696211803%" x2="82.73100303951368%" y2="378.7129987129993%"><stop offset="0%" stop-opacity="1" style="stop-color:rgb(255,255,255)"/><stop offset="39%" stop-opacity="1" style="stop-color:rgb(119,116,137)"/><stop offset="98%" stop-opacity="1" style="stop-color:rgb(217,221,233)"/></linearGradient><path d=" M 528.662 104.034 L 528.662 93.382 L 476.914 93.382 L 476.914 72.835 L 494.417 62.179 L 549.207 62.179 L 531.705 72.835 L 495.939 72.835 L 495.939 82.725 L 548.447 82.725 L 548.447 104.034 L 530.945 114.688 L 476.914 114.688 L 494.417 104.034 L 528.662 104.034 Z " fill="url(#_lgradient_6)"/></g></svg>