<?xml version="1.0" standalone="no"?><!-- Generator: Gravit.io --><svg xmlns="http://www.w3.org/2000/svg" xmlns:xlink="http://www.w3.org/1999/xlink" style="isolation:isolate" viewBox="0 0 239.76 78.763" width="239.76" height="78.763"><g id="g5"><path d=" M 159.353 16.817 C 159.757 16.843 160.163 16.868 160.568 16.896 C 163.675 17.11 166.646 17.839 169.421 19.281 C 171.403 20.312 173.162 21.646 174.73 23.236 C 176.433 24.964 177.841 26.9 178.901 29.084 C 179.68 30.687 180.22 32.37 180.595 34.109 C 181.053 36.243 181.204 38.402 181.113 40.575 C 180.967 44.061 180.196 47.393 178.552 50.495 C 177.405 52.659 175.91 54.557 174.132 56.237 C 171.28 58.929 167.939 60.685 164.099 61.5 C 162.678 61.8 161.245 61.989 159.793 62.034 C 159.728 62.037 159.662 62.056 159.597 62.067 L 157.888 62.067 C 157.517 62.04 157.145 62.015 156.775 61.987 C 152.329 61.665 148.27 60.292 144.753 57.493 C 141.978 55.285 139.804 52.591 138.322 49.356 C 137.568 47.713 137.063 45.989 136.727 44.215 C 136.347 42.208 136.227 40.18 136.328 38.145 C 136.543 33.858 137.672 29.855 140.159 26.308 C 143.07 22.158 146.876 19.207 151.789 17.78 C 153.287 17.345 154.813 17.055 156.369 16.936 C 156.863 16.898 157.357 16.879 157.85 16.849 C 157.931 16.844 158.011 16.829 158.091 16.818 L 159.353 16.818 L 159.353 16.817 Z  M 158.677 56.249 C 160.257 56.237 161.786 56.107 163.287 55.736 C 166.555 54.929 169.272 53.234 171.432 50.649 C 173.638 48.011 174.784 44.946 175.095 41.548 C 175.202 40.385 175.214 39.22 175.146 38.053 C 175.07 36.787 174.903 35.534 174.568 34.309 C 173.519 30.485 171.371 27.434 168.072 25.226 C 165.603 23.576 162.841 22.821 159.896 22.675 C 158.286 22.596 156.686 22.668 155.099 22.957 C 152.326 23.46 149.859 24.605 147.732 26.468 C 145.67 28.275 144.179 30.469 143.257 33.051 C 142.558 35.003 142.279 37.025 142.25 39.089 C 142.226 40.692 142.339 42.286 142.688 43.852 C 143.32 46.68 144.591 49.177 146.576 51.304 C 148.328 53.181 150.412 54.531 152.839 55.359 C 154.745 56.007 156.714 56.228 158.677 56.249 Z " fill="rgb(255,255,255)"/><path d=" M 239.759 61.049 C 239.592 61.454 239.464 61.536 239.007 61.536 C 237.516 61.536 236.023 61.537 234.53 61.536 C 234.005 61.536 233.812 61.34 233.812 60.812 L 233.812 18.087 C 233.812 17.539 234.005 17.347 234.561 17.347 C 236.053 17.347 237.545 17.341 239.036 17.355 C 239.221 17.356 239.421 17.429 239.579 17.526 C 239.674 17.586 239.702 17.754 239.76 17.874 L 239.76 61.049 L 239.759 61.049 Z " fill="rgb(255,255,255)"/><path d=" M 118.07 35.272 C 118.823 36.271 119.568 37.262 120.313 38.252 C 121.894 40.352 123.474 42.453 125.055 44.555 C 127.088 47.257 129.12 49.958 131.154 52.659 C 133.146 55.307 135.136 57.955 137.131 60.6 C 137.28 60.795 137.343 60.993 137.238 61.219 C 137.13 61.448 136.921 61.522 136.686 61.534 C 136.578 61.541 136.47 61.535 136.361 61.535 C 134.523 61.535 132.685 61.534 130.847 61.537 C 130.533 61.538 130.302 61.433 130.105 61.171 C 126.639 56.539 123.165 51.911 119.692 47.282 C 117.72 44.655 115.747 42.026 113.774 39.399 C 113.758 39.377 113.739 39.357 113.711 39.324 C 113.472 39.548 113.234 39.769 112.997 39.989 C 111.397 41.485 109.799 42.981 108.199 44.477 C 107.318 45.3 106.436 46.124 105.549 46.943 C 105.435 47.047 105.388 47.152 105.388 47.309 C 105.392 51.783 105.391 56.26 105.391 60.736 C 105.391 60.79 105.393 60.844 105.391 60.899 C 105.38 61.309 105.171 61.532 104.761 61.534 C 103.194 61.54 101.628 61.537 100.061 61.534 C 99.664 61.532 99.455 61.309 99.446 60.909 C 99.446 60.864 99.446 60.815 99.446 60.768 L 99.446 18.126 L 99.446 18.085 C 99.446 17.546 99.641 17.348 100.177 17.348 C 101.608 17.348 103.039 17.348 104.47 17.348 C 104.565 17.348 104.66 17.345 104.755 17.348 C 105.169 17.367 105.373 17.572 105.391 17.984 C 105.394 18.045 105.391 18.106 105.391 18.167 L 105.391 38.838 L 105.391 39.124 C 105.746 38.793 106.067 38.496 106.385 38.196 C 108.274 36.424 110.161 34.651 112.052 32.879 C 114.53 30.557 117.009 28.236 119.488 25.913 C 121.565 23.965 123.641 22.016 125.717 20.068 C 126.593 19.246 127.47 18.427 128.343 17.604 C 128.524 17.432 128.732 17.347 128.981 17.347 C 131.173 17.348 133.362 17.347 135.553 17.348 C 135.926 17.348 136.137 17.483 136.216 17.763 C 136.281 17.993 136.192 18.172 136.031 18.327 C 135.396 18.93 134.763 19.532 134.127 20.132 C 133.002 21.192 131.875 22.251 130.751 23.311 C 129.19 24.781 127.632 26.249 126.075 27.72 C 124.477 29.227 122.881 30.737 121.284 32.243 C 120.22 33.25 119.153 34.251 118.07 35.272 Z " fill="rgb(255,255,255)"/><path d=" M 187.91 39.447 L 187.91 18.166 C 187.91 18.104 187.91 18.043 187.911 17.982 C 187.919 17.58 188.122 17.371 188.521 17.348 C 188.548 17.347 188.575 17.347 188.601 17.347 C 194.686 17.348 200.769 17.333 206.853 17.357 C 209.651 17.366 212.327 17.995 214.882 19.138 C 217.104 20.131 219.056 21.517 220.751 23.26 C 223.515 26.097 225.35 29.445 226.251 33.306 C 226.771 35.529 226.986 37.78 226.939 40.057 C 226.874 43.117 226.343 46.088 225.184 48.93 C 224.216 51.303 222.829 53.411 221.081 55.281 C 218.401 58.153 215.143 60.041 211.326 60.965 C 209.679 61.364 208.011 61.542 206.316 61.54 C 200.423 61.532 194.53 61.537 188.635 61.536 C 188.535 61.536 188.432 61.528 188.333 61.514 C 188.115 61.479 187.98 61.348 187.941 61.131 C 187.921 61.018 187.912 60.903 187.912 60.79 C 187.91 53.675 187.91 46.561 187.91 39.447 Z  M 193.863 55.848 L 194.125 55.848 C 198.086 55.848 202.046 55.852 206.007 55.845 C 206.718 55.842 207.43 55.813 208.138 55.759 C 209.609 55.642 211.013 55.253 212.353 54.637 C 214.107 53.835 215.581 52.665 216.849 51.219 C 218.032 49.874 218.966 48.376 219.655 46.723 C 220.388 44.964 220.782 43.13 220.927 41.231 C 221.062 39.5 221.008 37.777 220.748 36.062 C 220.438 34.036 219.779 32.124 218.761 30.343 C 217.629 28.363 216.167 26.668 214.291 25.358 C 212.045 23.79 209.521 23.06 206.799 23.047 C 202.561 23.027 198.32 23.041 194.082 23.04 L 193.862 23.04 L 193.862 55.848 L 193.863 55.848 L 193.863 55.848 Z " fill="rgb(255,255,255)"/></g><g id="g15"><path d=" M 79.067 40.037 C 78.811 40.864 78.253 41.47 77.654 42.067 C 73.644 46.063 69.646 50.074 65.643 54.078 C 64.201 55.522 62.66 55.518 61.213 54.069 C 57.082 49.935 52.951 45.801 48.823 41.666 C 47.416 40.259 47.417 38.721 48.827 37.31 C 52.979 33.151 57.133 28.994 61.286 24.838 C 62.637 23.485 64.226 23.485 65.577 24.836 C 69.604 28.864 73.625 32.897 77.659 36.918 C 78.258 37.514 78.815 38.122 79.067 38.951 L 79.067 40.037 L 79.067 40.037 L 79.067 40.037 Z " fill="rgb(255,255,255)"/><path d=" M 39.254 78.762 C 38.431 78.5 37.834 77.93 37.24 77.333 C 33.247 73.319 29.242 69.318 25.239 65.311 C 23.808 63.877 23.806 62.348 25.235 60.918 C 29.376 56.774 33.518 52.628 37.66 48.485 C 39.038 47.106 40.615 47.101 41.985 48.472 C 46.127 52.616 50.269 56.762 54.409 60.906 C 55.832 62.332 55.836 63.893 54.419 65.309 C 50.383 69.351 46.34 73.387 42.313 77.436 C 41.737 78.014 41.144 78.535 40.341 78.762 L 39.254 78.762 L 39.254 78.762 Z " fill="rgb(255,255,255)"/><path d=" M 24.719 29.562 C 24.719 24.953 24.761 20.344 24.693 15.736 C 24.674 14.403 24.992 13.361 26.011 12.481 C 26.829 11.773 27.556 10.956 28.323 10.187 C 31.36 7.147 34.395 4.109 37.432 1.07 C 38.861 -0.358 40.401 -0.357 41.828 1.071 C 45.959 5.203 50.089 9.335 54.219 13.469 C 55.639 14.89 55.637 16.451 54.219 17.871 C 49.334 22.762 44.448 27.652 39.562 32.541 C 35.248 36.861 30.934 41.18 26.619 45.497 C 25.819 46.298 25.111 46.112 24.821 45.002 C 24.732 44.659 24.724 44.288 24.724 43.93 C 24.718 39.141 24.719 34.351 24.719 29.562 Z " fill="rgb(255,255,255)"/><path d=" M 14.841 39.548 C 14.841 43.776 14.847 48.008 14.832 52.236 C 14.83 52.637 14.767 53.063 14.623 53.436 C 14.341 54.17 13.811 54.261 13.257 53.708 C 11.312 51.766 9.372 49.819 7.431 47.874 C 5.186 45.626 2.942 43.379 0.699 41.129 C -0.23 40.198 -0.234 38.907 0.691 37.971 C 4.822 33.794 8.953 29.617 13.086 25.44 C 13.359 25.164 13.617 24.789 14.082 24.965 C 14.526 25.133 14.701 25.533 14.764 25.977 C 14.804 26.252 14.835 26.532 14.835 26.81 C 14.839 31.056 14.837 35.301 14.837 39.549 L 14.841 39.549 L 14.841 39.548 Z " fill="rgb(255,255,255)"/></g></svg>