<?xml version="1.0" standalone="no"?><!-- Generator: Gravit.io --><svg xmlns="http://www.w3.org/2000/svg" xmlns:xlink="http://www.w3.org/1999/xlink" style="isolation:isolate" viewBox="0 0 270 82.35" width="270" height="82.35"><linearGradient id="_lgradient_7" x1="216.24317255195103%" y1="-21.92899459865183%" x2="217.00179672704218%" y2="104.42595815818653%"><stop offset="100%" stop-opacity="1" style="stop-color:rgb(255,255,255)"/><stop offset="100%" stop-opacity="1" style="stop-color:rgb(0,211,255)"/></linearGradient><path d=" M 27.095 67.556 C 20.786 60.331 17.707 50.605 17.708 40.119 L 17.708 40.119 C 17.71 33.118 19.071 25.73 21.815 18.317 L 21.815 18.317 C 22.891 15.407 26.124 13.921 29.033 14.998 L 29.033 14.998 C 31.943 16.074 33.43 19.307 32.352 22.217 L 32.352 22.217 C 30.032 28.483 28.943 34.583 28.945 40.119 L 28.945 40.119 C 28.947 48.454 31.384 55.406 35.55 60.158 L 35.55 60.158 C 39.745 64.887 45.637 67.812 54.189 67.861 L 54.189 67.861 C 56.976 67.861 60.035 67.529 63.369 66.791 L 63.369 66.791 C 66.398 66.123 69.397 68.037 70.066 71.066 L 70.066 71.066 C 70.734 74.097 68.822 77.095 65.792 77.763 L 65.792 77.763 C 61.742 78.658 57.872 79.097 54.19 79.097 L 54.19 79.097 C 54.127 79.097 54.066 79.099 54.004 79.099 L 54.004 79.099 C 42.81 79.097 33.34 74.763 27.095 67.556 L 27.095 67.556 Z " fill="url(#_lgradient_7)"/><linearGradient id="_lgradient_8" x1="216.24317255195103%" y1="-21.92899459865183%" x2="217.00179672704218%" y2="104.42595815818653%"><stop offset="100%" stop-opacity="1" style="stop-color:rgb(255,255,255)"/><stop offset="100%" stop-opacity="1" style="stop-color:rgb(0,211,255)"/></linearGradient><path d=" M 65.978 47.722 C 65.982 30.122 80.243 15.86 97.845 15.857 L 97.845 15.857 C 115.444 15.86 129.706 30.122 129.711 47.722 L 129.711 47.722 L 129.71 47.722 C 129.706 65.326 115.444 79.585 97.845 79.589 L 97.845 79.589 C 80.243 79.585 65.982 65.325 65.978 47.722 L 65.978 47.722 L 65.978 47.722 Z  M 77.215 47.722 C 77.235 59.115 86.452 68.331 97.845 68.353 L 97.845 68.353 C 109.234 68.332 118.453 59.115 118.474 47.722 L 118.474 47.722 L 118.472 47.722 C 118.453 36.333 109.234 27.116 97.845 27.094 L 97.845 27.094 C 86.454 27.116 77.235 36.333 77.215 47.722 L 77.215 47.722 L 77.215 47.722 Z " fill="url(#_lgradient_8)"/><linearGradient id="_lgradient_9" x1="216.24317255195103%" y1="-21.92899459865183%" x2="217.00179672704218%" y2="104.42595815818653%"><stop offset="100%" stop-opacity="1" style="stop-color:rgb(255,255,255)"/><stop offset="100%" stop-opacity="1" style="stop-color:rgb(0,211,255)"/></linearGradient><path d=" M 154.587 76.837 C 152.669 75.753 151.033 74.337 149.514 72.708 L 149.514 72.708 C 146.497 69.44 143.878 65.263 141.207 60.292 L 141.207 60.292 C 135.906 50.368 130.531 37.206 124.259 22.741 L 124.259 22.741 L 124.259 22.743 C 123.025 19.896 124.332 16.587 127.179 15.352 L 127.179 15.352 C 130.027 14.118 133.335 15.426 134.57 18.273 L 134.57 18.273 C 138.714 27.838 142.444 36.747 145.904 44.317 L 145.904 44.317 C 149.352 51.881 152.576 58.128 155.443 62.171 L 155.443 62.171 C 157.332 64.88 159.088 66.511 160.093 67.04 L 160.093 67.04 C 160.596 67.317 160.853 67.368 161.029 67.38 L 161.029 67.38 C 161.042 67.376 161.057 67.37 161.078 67.362 L 161.078 67.362 C 161.219 67.309 161.516 67.165 161.911 66.882 L 161.911 66.882 C 162.709 66.327 163.861 65.23 165.1 63.708 L 165.1 63.708 C 167.607 60.661 170.478 55.995 173.27 50.737 L 173.27 50.737 C 178.887 40.186 184.293 27.299 188.154 18.69 L 188.154 18.69 C 189.425 15.86 192.75 14.596 195.581 15.866 L 195.581 15.866 C 198.412 17.137 199.677 20.461 198.406 23.293 L 198.406 23.293 C 195.933 28.795 192.708 36.361 189.114 44.053 L 189.114 44.053 C 185.51 51.754 181.562 59.576 177.427 65.844 L 177.427 65.844 C 174.634 70.028 171.872 73.551 168.41 76.049 L 168.41 76.049 C 166.431 77.445 164.024 78.604 161.104 78.621 L 161.104 78.621 C 161.095 78.621 161.085 78.621 161.078 78.621 L 161.078 78.621 C 158.722 78.622 156.48 77.911 154.587 76.837 L 154.587 76.837 L 154.587 76.837 Z " fill="url(#_lgradient_9)"/><linearGradient id="_lgradient_10" x1="216.24317255195103%" y1="-21.92899459865183%" x2="217.00179672704218%" y2="104.42595815818653%"><stop offset="100%" stop-opacity="1" style="stop-color:rgb(255,255,255)"/><stop offset="100%" stop-opacity="1" style="stop-color:rgb(0,211,255)"/></linearGradient><path d=" M 201.366 68.825 C 195.991 62.661 193.952 54.817 193.95 47.36 L 193.95 47.36 C 193.964 38.462 197.987 30.801 203.271 25.341 L 203.271 25.341 C 208.617 19.893 215.196 16.282 222.009 15.865 L 222.009 15.865 C 222.494 15.838 222.974 15.828 223.447 15.827 L 223.447 15.827 C 227.893 15.838 232.644 16.783 237.131 18.635 L 237.131 18.635 C 241.594 20.506 245.869 23.283 248.857 27.51 L 248.857 27.51 C 250.836 30.309 252.131 33.852 252.117 37.684 L 252.117 37.684 C 252.124 40.993 251.577 44.108 250.244 46.893 L 250.244 46.893 C 248.924 49.684 246.848 51.959 244.489 53.69 L 244.489 53.69 C 239.724 57.145 233.956 59.038 226.556 61.624 L 226.556 61.624 L 226.558 61.624 C 223.622 62.634 220.425 61.075 219.414 58.142 L 219.414 58.142 C 218.404 55.208 219.964 52.007 222.899 50.999 L 222.899 50.999 C 228.41 49.108 232.683 47.569 235.485 46.083 L 235.485 46.083 C 238.338 44.556 239.447 43.392 240.103 42.052 L 240.103 42.052 C 240.545 41.118 240.876 39.817 240.879 37.684 L 240.879 37.684 C 240.866 36.282 240.486 35.178 239.649 33.954 L 239.649 33.954 C 238.812 32.748 237.445 31.511 235.684 30.452 L 235.684 30.452 C 232.19 28.303 227.163 27.034 223.447 27.065 L 223.447 27.065 C 223.146 27.065 222.862 27.073 222.589 27.088 L 222.589 27.088 C 219.744 27.151 214.952 29.346 211.347 33.154 L 211.347 33.154 C 207.682 36.944 205.173 41.983 205.188 47.36 L 205.188 47.36 C 205.185 52.823 206.713 57.901 209.821 61.424 L 209.821 61.424 C 212.945 64.922 217.724 67.524 226.36 67.58 L 226.36 67.58 C 228.159 67.58 230.118 67.455 232.245 67.187 L 232.245 67.187 C 235.324 66.796 238.136 68.974 238.527 72.052 L 238.527 72.052 C 238.917 75.13 236.739 77.943 233.662 78.333 L 233.662 78.333 C 231.105 78.657 228.675 78.817 226.36 78.817 L 226.36 78.817 C 226.278 78.817 226.197 78.817 226.115 78.817 L 226.115 78.817 C 215.212 78.82 206.684 74.974 201.366 68.825 L 201.366 68.825 L 201.366 68.825 Z " fill="url(#_lgradient_10)"/><linearGradient id="_lgradient_11" x1="216.24317255195103%" y1="-21.92899459865183%" x2="217.00179672704218%" y2="104.42595815818653%"><stop offset="100%" stop-opacity="1" style="stop-color:rgb(255,255,255)"/><stop offset="100%" stop-opacity="1" style="stop-color:rgb(0,211,255)"/></linearGradient><path d=" M 84.176 9.501 C 84.176 5.963 87.049 3.09 90.587 3.09 C 94.126 3.09 96.998 5.963 96.998 9.501 C 96.998 13.039 94.126 15.912 90.587 15.912 C 87.049 15.912 84.176 13.039 84.176 9.501 Z " fill="url(#_lgradient_11)"/><linearGradient id="_lgradient_12" x1="216.24317255195103%" y1="-21.92899459865183%" x2="217.00179672704218%" y2="104.42595815818653%"><stop offset="100%" stop-opacity="1" style="stop-color:rgb(255,255,255)"/><stop offset="100%" stop-opacity="1" style="stop-color:rgb(0,211,255)"/></linearGradient><path d=" M 99.901 9.501 C 99.901 5.963 102.774 3.09 106.312 3.09 C 109.851 3.09 112.723 5.963 112.723 9.501 C 112.723 13.039 109.851 15.912 106.312 15.912 C 102.774 15.912 99.901 13.039 99.901 9.501 Z " fill="url(#_lgradient_12)"/></svg>