<?xml version="1.0" standalone="no"?><!-- Generator: Gravit.io --><svg xmlns="http://www.w3.org/2000/svg" xmlns:xlink="http://www.w3.org/1999/xlink" style="isolation:isolate" viewBox="0 0 641.883 266.225" width="641.883" height="266.225"><g id="null"><linearGradient id="_lgradient_29" x1="50.00006302537558%" y1="3.1225022567582528e-15%" x2="50.00006302537558%" y2="29.977548444128942%"><stop offset="0.51%" stop-opacity="1" style="stop-color:rgb(255,255,255)"/><stop offset="40.1%" stop-opacity="1" style="stop-color:rgb(255,255,255)"/><stop offset="54.31%" stop-opacity="1" style="stop-color:rgb(255,255,255)"/><stop offset="100%" stop-opacity="1" style="stop-color:rgb(255,255,255)"/></linearGradient><path d=" M 638.333 3.678 L 542.06 3.678 L 453.117 94.726 L 453.117 3.678 L 396.232 61.726 L 396.232 3.678 L 291.127 109.059 L 291.127 3.678 L 192.918 102.059 L 192.918 3.678 L 132.835 62.059 L 132.835 3.678 L 3.668 130.726 L 51.001 130.726 L 109.168 70.559 L 109.168 130.726 L 161.085 78.809 L 161.085 130.726 L 112.377 179.434 L 161.668 179.434 L 258.855 82.247 L 258.855 130.726 L 311.668 130.726 L 370.502 71.893 L 370.502 130.726 L 421.085 80.143 L 421.085 130.726 L 543.335 130.726 L 575.335 98.726 L 483.667 98.726 L 504.167 79.226 L 535.001 79.226 L 565.417 48.809 L 537.335 48.809 L 558.042 30.101 L 612.667 30.101 L 638.333 3.678 Z " fill="url(#_lgradient_29)"/></g><g id="null"><g id="null"><linearGradient id="_lgradient_30" x1="50.00006302537558%" y1="3.1225022567582528e-15%" x2="50.00006302537558%" y2="29.977548444128942%"><stop offset="0.51%" stop-opacity="1" style="stop-color:rgb(255,255,255)"/><stop offset="40.1%" stop-opacity="1" style="stop-color:rgb(255,255,255)"/><stop offset="54.31%" stop-opacity="1" style="stop-color:rgb(255,255,255)"/><stop offset="100%" stop-opacity="1" style="stop-color:rgb(255,255,255)"/></linearGradient><path d=" M 240.835 174.391 L 240.835 127.058 L 175.002 191.058 L 224.001 191.058 L 224.001 213.392 L 240.835 213.392 L 240.835 191.058 L 259.668 191.058 L 277.502 174.391 L 240.835 174.391 Z  M 224.001 174.391 L 214.002 174.391 L 224.001 163.392 L 224.001 174.391 Z " fill="url(#_lgradient_30)"/></g></g><g id="null"><g id="null"><g id="null"><linearGradient id="_lgradient_31" x1="50.00006302537558%" y1="3.1225022567582528e-15%" x2="50.00006302537558%" y2="29.977548444128942%"><stop offset="0.51%" stop-opacity="1" style="stop-color:rgb(255,255,255)"/><stop offset="40.1%" stop-opacity="1" style="stop-color:rgb(255,255,255)"/><stop offset="54.31%" stop-opacity="1" style="stop-color:rgb(255,255,255)"/><stop offset="100%" stop-opacity="1" style="stop-color:rgb(255,255,255)"/></linearGradient><path d=" M 217.918 264.725 L 340.043 144.6 L 340.043 234.725 L 318.168 234.725 L 318.168 200.725 L 255.918 264.725 L 217.918 264.725 Z " fill="url(#_lgradient_31)"/></g></g></g><g id="null"><g id="null"><g id="null"><linearGradient id="_lgradient_32" x1="50.00006302537558%" y1="3.1225022567582528e-15%" x2="50.00006302537558%" y2="29.977548444128942%"><stop offset="0.51%" stop-opacity="1" style="stop-color:rgb(255,255,255)"/><stop offset="40.1%" stop-opacity="1" style="stop-color:rgb(255,255,255)"/><stop offset="54.31%" stop-opacity="1" style="stop-color:rgb(255,255,255)"/><stop offset="100%" stop-opacity="1" style="stop-color:rgb(255,255,255)"/></linearGradient><path d=" M 369.168 144.6 L 350.668 164.475 L 350.668 234.725 L 474.167 234.725 L 455.667 217.725 L 402.167 217.725 L 402.167 144.6 L 382.917 164.475 L 382.917 217.725 L 369.168 217.725 L 369.168 144.6 Z " fill="url(#_lgradient_32)"/></g></g></g></svg>