<?xml version="1.0" standalone="no"?><!-- Generator: Gravit.io --><svg xmlns="http://www.w3.org/2000/svg" xmlns:xlink="http://www.w3.org/1999/xlink" style="isolation:isolate" viewBox="0 0 685 182" width="685" height="182"><g id="null"><linearGradient id="_lgradient_14" x1="49.99999999999982%" y1="-1.3636611574755904%" x2="49.99999999999981%" y2="98.86543391698031%"><stop offset="70.86956521739131%" stop-opacity="1" style="stop-color:rgb(255,255,255)"/><stop offset="100%" stop-opacity="1" style="stop-color:rgb(255,255,255)"/><stop offset="100%" stop-opacity="1" style="stop-color:rgb(255,255,255)"/></linearGradient><path d=" M 503.083 14.5 C 499.355 14.5 496.333 18.355 496.333 22.083 L 496.333 80.917 C 496.333 84.645 499.355 87.832 503.083 87.832 L 580.333 87.832 L 580.333 67.332 L 519.333 67.332 L 519.333 34.667 L 580.333 34.667 L 580.333 14.5 L 503.083 14.5 L 503.083 14.5 Z " fill="url(#_lgradient_14)"/></g><g id="null"><linearGradient id="_lgradient_15" x1="49.99999999999982%" y1="-1.3636611574755904%" x2="49.99999999999981%" y2="98.86543391698031%"><stop offset="70.86956521739131%" stop-opacity="1" style="stop-color:rgb(255,255,255)"/><stop offset="100%" stop-opacity="1" style="stop-color:rgb(255,255,255)"/><stop offset="100%" stop-opacity="1" style="stop-color:rgb(255,255,255)"/></linearGradient><path d=" M 235 107.084 C 235 103.355 238.022 99.5 241.75 99.5 L 325.334 99.5 L 325.334 172.833 L 301.834 172.833 L 301.834 119.666 L 291.667 119.666 L 291.667 172.833 L 268 172.833 L 268 119.666 L 257.5 119.666 L 257.5 172.833 L 234.333 172.833 L 235 107.084 L 235 107.084 Z " fill="url(#_lgradient_15)"/></g><g id="null"><linearGradient id="_lgradient_16" x1="49.99999999999982%" y1="-1.3636611574755904%" x2="49.99999999999981%" y2="98.86543391698031%"><stop offset="70.86956521739131%" stop-opacity="1" style="stop-color:rgb(255,255,255)"/><stop offset="100%" stop-opacity="1" style="stop-color:rgb(255,255,255)"/><stop offset="100%" stop-opacity="1" style="stop-color:rgb(255,255,255)"/></linearGradient><path d=" M 432 107.084 C 432 103.355 435.021 99.5 438.75 99.5 L 522.334 99.5 L 522.334 172.833 L 498.834 172.833 L 498.834 119.666 L 488.667 119.666 L 488.667 172.833 L 465 172.833 L 465 119.666 L 454.5 119.666 L 454.5 172.833 L 431.334 172.833 L 432 107.084 L 432 107.084 Z " fill="url(#_lgradient_16)"/></g><g id="null"><linearGradient id="_lgradient_17" x1="49.99999999999982%" y1="-1.3636611574755904%" x2="49.99999999999981%" y2="98.86543391698031%"><stop offset="70.86956521739131%" stop-opacity="1" style="stop-color:rgb(255,255,255)"/><stop offset="100%" stop-opacity="1" style="stop-color:rgb(255,255,255)"/><stop offset="100%" stop-opacity="1" style="stop-color:rgb(255,255,255)"/></linearGradient><rect x="15.167" y="14.5" width="24.167" height="24.834" transform="matrix(1,0,0,1,0,0)" fill="url(#_lgradient_17)"/></g><g id="null"><linearGradient id="_lgradient_18" x1="49.99999999999982%" y1="-1.3636611574755904%" x2="49.99999999999981%" y2="98.86543391698031%"><stop offset="70.86956521739131%" stop-opacity="1" style="stop-color:rgb(255,255,255)"/><stop offset="100%" stop-opacity="1" style="stop-color:rgb(255,255,255)"/><stop offset="100%" stop-opacity="1" style="stop-color:rgb(255,255,255)"/></linearGradient><rect x="371.167" y="14.5" width="24.167" height="24.834" transform="matrix(1,0,0,1,0,0)" fill="url(#_lgradient_18)"/></g><g id="null"><linearGradient id="_lgradient_19" x1="49.99999999999982%" y1="-1.3636611574755904%" x2="49.99999999999981%" y2="98.86543391698031%"><stop offset="70.86956521739131%" stop-opacity="1" style="stop-color:rgb(255,255,255)"/><stop offset="100%" stop-opacity="1" style="stop-color:rgb(255,255,255)"/><stop offset="100%" stop-opacity="1" style="stop-color:rgb(255,255,255)"/></linearGradient><rect x="333.166" y="99.5" width="24.168" height="24.834" transform="matrix(1,0,0,1,0,0)" fill="url(#_lgradient_19)"/></g><g id="null"><linearGradient id="_lgradient_20" x1="49.99999999999982%" y1="-1.3636611574755904%" x2="49.99999999999981%" y2="98.86543391698031%"><stop offset="70.86956521739131%" stop-opacity="1" style="stop-color:rgb(255,255,255)"/><stop offset="100%" stop-opacity="1" style="stop-color:rgb(255,255,255)"/><stop offset="100%" stop-opacity="1" style="stop-color:rgb(255,255,255)"/></linearGradient><path d=" M 15.5 87.833 L 74.167 14.5 L 105.667 14.5 L 105.667 87.833 L 54.667 87.833 L 69.5 68.5 L 81.667 68.5 L 81.667 39.333 L 43 87.833 L 15.5 87.833 Z " fill="url(#_lgradient_20)"/></g><g id="null"><linearGradient id="_lgradient_21" x1="49.99999999999982%" y1="-1.3636611574755904%" x2="49.99999999999981%" y2="98.86543391698031%"><stop offset="70.86956521739131%" stop-opacity="1" style="stop-color:rgb(255,255,255)"/><stop offset="100%" stop-opacity="1" style="stop-color:rgb(255,255,255)"/><stop offset="100%" stop-opacity="1" style="stop-color:rgb(255,255,255)"/></linearGradient><path d=" M 334 172.833 L 392.666 99.5 L 424.166 99.5 L 424.166 172.833 L 373.166 172.833 L 388 153.5 L 400.166 153.5 L 400.166 124.334 L 361.5 172.833 L 334 172.833 Z " fill="url(#_lgradient_21)"/></g><g id="null"><linearGradient id="_lgradient_22" x1="49.99999999999982%" y1="-1.3636611574755904%" x2="49.99999999999981%" y2="98.86543391698031%"><stop offset="70.86956521739131%" stop-opacity="1" style="stop-color:rgb(255,255,255)"/><stop offset="100%" stop-opacity="1" style="stop-color:rgb(255,255,255)"/><stop offset="100%" stop-opacity="1" style="stop-color:rgb(255,255,255)"/></linearGradient><path d=" M 395.166 87.833 L 336.5 14.5 L 305 14.5 L 305 87.833 L 356 87.833 L 341.166 68.5 L 329 68.5 L 329 39.333 L 367.666 87.833 L 395.166 87.833 Z " fill="url(#_lgradient_22)"/></g><g id="null"><g id="null"><linearGradient id="_lgradient_23" x1="49.99999999999982%" y1="-1.3636611574755904%" x2="49.99999999999981%" y2="98.86543391698031%"><stop offset="70.86956521739131%" stop-opacity="1" style="stop-color:rgb(255,255,255)"/><stop offset="100%" stop-opacity="1" style="stop-color:rgb(255,255,255)"/><stop offset="100%" stop-opacity="1" style="stop-color:rgb(255,255,255)"/></linearGradient><path d=" M 190.083 13.999 L 113.667 13.999 L 113.667 61.666 L 137.333 61.666 L 137.333 35.5 L 173.666 35.5 L 173.666 68.666 L 113.667 68.668 L 113.667 88.333 L 190.083 88.333 C 194.105 88.326 197.33 84.916 197.332 80.919 L 197.332 22.084 C 197.317 18.107 194.175 14.036 190.083 13.999 Z " fill="url(#_lgradient_23)"/></g></g><g id="null"><linearGradient id="_lgradient_24" x1="49.99999999999982%" y1="-1.3636611574755904%" x2="49.99999999999981%" y2="98.86543391698031%"><stop offset="70.86956521739131%" stop-opacity="1" style="stop-color:rgb(255,255,255)"/><stop offset="100%" stop-opacity="1" style="stop-color:rgb(255,255,255)"/><stop offset="100%" stop-opacity="1" style="stop-color:rgb(255,255,255)"/></linearGradient><path d=" M 206 14.5 L 206 87.833 L 238.833 87.833 L 296 14.5 L 268.667 14.5 L 229.167 62.334 L 229.167 14.5 L 206 14.5 Z " fill="url(#_lgradient_24)"/></g><g id="null"><linearGradient id="_lgradient_25" x1="49.99999999999982%" y1="-1.3636611574755904%" x2="49.99999999999981%" y2="98.86543391698031%"><stop offset="70.86956521739131%" stop-opacity="1" style="stop-color:rgb(255,255,255)"/><stop offset="100%" stop-opacity="1" style="stop-color:rgb(255,255,255)"/><stop offset="100%" stop-opacity="1" style="stop-color:rgb(255,255,255)"/></linearGradient><rect x="272.167" y="62.667" width="24.167" height="25.166" transform="matrix(1,0,0,1,0,0)" fill="url(#_lgradient_25)"/></g><g id="null"><linearGradient id="_lgradient_26" x1="49.99999999999982%" y1="-1.3636611574755904%" x2="49.99999999999981%" y2="98.86543391698031%"><stop offset="70.86956521739131%" stop-opacity="1" style="stop-color:rgb(255,255,255)"/><stop offset="100%" stop-opacity="1" style="stop-color:rgb(255,255,255)"/><stop offset="100%" stop-opacity="1" style="stop-color:rgb(255,255,255)"/></linearGradient><path d=" M 403.833 87.833 L 403.833 14.5 L 431.667 14.5 L 463.833 53.667 L 463.833 14.5 L 487.5 14.5 L 487.5 87.833 L 462.167 87.833 L 427 45.167 L 427 87.833 L 403.833 87.833 Z " fill="url(#_lgradient_26)"/></g><g id="null"><linearGradient id="_lgradient_27" x1="49.99999999999982%" y1="-1.3636611574755904%" x2="49.99999999999981%" y2="98.86543391698031%"><stop offset="70.86956521739131%" stop-opacity="1" style="stop-color:rgb(255,255,255)"/><stop offset="100%" stop-opacity="1" style="stop-color:rgb(255,255,255)"/><stop offset="100%" stop-opacity="1" style="stop-color:rgb(255,255,255)"/></linearGradient><path d=" M 588.167 14.5 L 588.167 87.833 L 671.833 87.833 L 671.833 68.167 L 611.667 68.167 L 611.667 60.667 L 671.833 60.667 L 671.833 40.5 L 611.5 40.5 L 611.5 34.833 L 671.833 34.833 L 671.833 14.5 L 588.167 14.5 Z " fill="url(#_lgradient_27)"/></g><g id="null"><linearGradient id="_lgradient_28" x1="49.99999999999982%" y1="-1.3636611574755904%" x2="49.99999999999981%" y2="98.86543391698031%"><stop offset="70.86956521739131%" stop-opacity="1" style="stop-color:rgb(255,255,255)"/><stop offset="100%" stop-opacity="1" style="stop-color:rgb(255,255,255)"/><stop offset="100%" stop-opacity="1" style="stop-color:rgb(255,255,255)"/></linearGradient><path d=" M 530.166 99.5 L 530.166 172.833 L 613.834 172.833 L 613.834 153.167 L 553.666 153.167 L 553.666 145.667 L 613.834 145.667 L 613.834 125.5 L 553.5 125.5 L 553.5 119.834 L 613.834 119.834 L 613.834 99.5 L 530.166 99.5 Z " fill="url(#_lgradient_28)"/></g></svg>