<?xml version="1.0" standalone="no"?><!-- Generator: Gravit.io --><svg xmlns="http://www.w3.org/2000/svg" xmlns:xlink="http://www.w3.org/1999/xlink" style="isolation:isolate" viewBox="0 0 565.195 186.788" width="565.195" height="186.788"><linearGradient id="_lgradient_33" x1="-0.00003660603483911229%" y1="15.352621465598743%" x2="99.99994509094773%" y2="15.352621465598743%"><stop offset="0%" stop-opacity="1" style="stop-color:rgb(255,255,255)"/><stop offset="100%" stop-opacity="1" style="stop-color:rgb(255,255,255)"/></linearGradient><path d=" M 489.456 27.664 L 535.042 27.948 L 556.214 5.929 L 478.216 5.644 L 404.927 79.219 L 394.665 79.787 L 394.95 9.003 L 353.745 51.057 L 343.89 52.226 L 343.89 9.376 L 259.529 92.843 L 249.04 93.96 L 249.932 8.079 L 176.202 82.942 L 166.52 82.989 L 165.385 11.091 L 125.607 51.152 L 114.543 51.719 L 114.962 8.941 L 9.856 114.898 L 44.474 114.33 L 89.863 70.278 L 98.568 70.278 L 98.148 114.543 L 134.3 77.545 L 142.944 77.545 L 142.944 115.231 L 103.157 154.731 L 141.284 154.168 L 216.301 78.301 L 226.405 78.301 L 226.405 115.571 L 273.162 115.856 L 318.38 70.355 L 327.108 69.788 L 326.973 112.8 L 363.104 76.669 L 371.64 76.669 L 372.206 113.105 L 371.468 115 L 480.643 115 L 501.544 93.817 L 433.663 92.664 L 433.046 82.811 L 443.622 71.672 L 469.233 71.669 L 491.481 49.135 L 478.034 48.567 L 478.034 39.084 L 489.456 27.664 Z " fill="url(#_lgradient_33)"/><linearGradient id="_lgradient_34" x1="-0.00003660603483911229%" y1="15.352621465598743%" x2="99.99994509094773%" y2="15.352621465598743%"><stop offset="0%" stop-opacity="1" style="stop-color:rgb(255,255,255)"/><stop offset="100%" stop-opacity="1" style="stop-color:rgb(255,255,255)"/></linearGradient><path d=" M 197.292 180.487 C 200.527 180.487 203.149 183.408 203.149 186.643 L 185.178 186.643 L 185.178 128.362 L 191.136 128.362 L 191.136 180.487 L 197.292 180.487 Z " fill="url(#_lgradient_34)"/><linearGradient id="_lgradient_35" x1="-0.00003660603483911229%" y1="15.352621465598743%" x2="99.99994509094773%" y2="15.352621465598743%"><stop offset="0%" stop-opacity="1" style="stop-color:rgb(255,255,255)"/><stop offset="100%" stop-opacity="1" style="stop-color:rgb(255,255,255)"/></linearGradient><path d=" M 213.972 186.644 C 210.737 186.644 207.915 183.721 207.915 180.488 L 207.915 140.029 L 213.972 140.029 L 213.972 186.644 Z " fill="url(#_lgradient_35)"/><g id="null"><g id="null"><linearGradient id="_lgradient_36" x1="-0.00003660603483911229%" y1="15.352621465598743%" x2="99.99994509094773%" y2="15.352621465598743%"><stop offset="0%" stop-opacity="1" style="stop-color:rgb(255,255,255)"/><stop offset="100%" stop-opacity="1" style="stop-color:rgb(255,255,255)"/></linearGradient><path d=" M 231.943 140.028 L 225.786 140.028 L 225.786 128.362 L 219.731 128.362 L 219.731 186.643 L 231.943 186.643 C 235.178 186.643 237.8 183.72 237.8 180.487 L 237.8 145.737 C 237.8 142.502 235.178 140.028 231.943 140.028 Z  M 231.843 180.487 L 225.786 180.487 L 225.786 145.837 L 231.843 145.837 L 231.843 180.487 Z " fill="url(#_lgradient_36)"/></g></g><g id="null"><linearGradient id="_lgradient_37" x1="-0.00003660603483911229%" y1="15.352621465598743%" x2="99.99994509094773%" y2="15.352621465598743%"><stop offset="0%" stop-opacity="1" style="stop-color:rgb(255,255,255)"/><stop offset="100%" stop-opacity="1" style="stop-color:rgb(255,255,255)"/></linearGradient><path d=" M 244.352 128.007 C 244.352 128.007 290.817 128.007 292.829 128.007 C 294.841 128.007 295.584 128.453 296.477 130.092 C 297.37 131.732 304.371 146.176 305.04 147.814 C 305.71 149.454 305.114 150.644 304.145 151.912 C 303.176 153.178 293.124 164.644 293.124 164.644 L 305.41 186.289 L 286.869 186.289 C 286.869 186.289 272.348 161.441 271.53 160.251 C 270.71 159.061 270.71 157.123 272.497 157.123 C 274.285 157.123 278.007 157.123 278.827 157.123 C 279.645 157.123 280.018 156.975 280.986 156.156 C 281.954 155.336 286.943 149.303 286.943 149.303 C 286.943 149.303 284.56 142.9 284.039 141.708 C 283.518 140.516 282.4 140.145 281.359 140.145 C 280.317 140.145 262.67 140.145 262.67 140.145 L 262.67 186.288 L 244.351 186.288 L 244.352 128.007 L 244.352 128.007 Z " fill="url(#_lgradient_37)"/><linearGradient id="_lgradient_38" x1="-0.00003660603483911229%" y1="15.352621465598743%" x2="99.99994509094773%" y2="15.352621465598743%"><stop offset="0%" stop-opacity="1" style="stop-color:rgb(255,255,255)"/><stop offset="100%" stop-opacity="1" style="stop-color:rgb(255,255,255)"/></linearGradient><path d=" M 286.583 186.788 L 286.438 186.54 C 286.43 186.528 282.809 180.327 279.079 173.968 L 279.079 173.968 C 275.352 167.619 271.495 161.073 271.12 160.533 L 271.12 160.533 C 270.733 159.965 270.506 159.284 270.504 158.617 L 270.504 158.617 C 270.504 158.126 270.633 157.626 270.977 157.233 L 270.977 157.233 C 271.321 156.839 271.864 156.614 272.499 156.62 L 272.499 156.62 C 274.288 156.62 278.01 156.62 278.829 156.622 L 278.829 156.622 C 279.575 156.597 279.681 156.574 280.666 155.772 L 280.666 155.772 C 281.07 155.436 282.595 153.692 283.948 152.096 L 283.948 152.096 C 285.001 150.858 285.979 149.68 286.375 149.204 L 286.375 149.204 C 285.915 147.971 284.024 142.915 283.582 141.906 L 283.582 141.906 C 283.161 140.948 282.306 140.654 281.362 140.642 L 281.362 140.642 C 280.841 140.642 276.167 140.642 271.625 140.642 L 271.625 140.642 C 267.994 140.642 264.451 140.642 263.172 140.642 L 263.172 140.642 L 263.172 186.786 L 243.851 186.786 L 243.851 128.006 L 243.851 127.504 L 244.353 127.504 C 244.401 127.504 290.817 127.504 292.828 127.504 L 292.828 127.504 C 294.893 127.447 296.039 128.122 296.916 129.852 L 296.916 129.852 C 297.833 131.54 304.808 145.925 305.505 147.623 L 305.505 147.623 C 305.722 148.158 305.825 148.671 305.823 149.16 L 305.823 149.16 C 305.823 150.339 305.239 151.295 304.544 152.214 L 304.544 152.214 C 303.63 153.407 295.251 162.976 293.736 164.704 L 293.736 164.704 L 306.272 186.787 L 286.583 186.788 L 286.583 186.788 Z  M 304.552 185.786 L 292.517 164.578 L 292.749 164.313 C 292.761 164.298 302.817 152.825 303.748 151.608 L 303.748 151.608 C 304.413 150.735 304.827 149.983 304.825 149.161 L 304.825 149.161 C 304.823 148.811 304.754 148.434 304.577 148.003 L 304.577 148.003 C 303.932 146.424 296.906 131.921 296.037 130.332 L 296.037 130.332 C 295.127 128.782 294.785 128.565 292.828 128.507 L 292.828 128.507 C 290.94 128.507 249.865 128.507 244.853 128.507 L 244.853 128.507 L 244.853 185.786 L 262.17 185.786 L 262.17 139.643 L 262.672 139.643 C 262.689 139.643 280.318 139.643 281.361 139.643 L 281.361 139.643 C 282.502 139.63 283.879 140.081 284.499 141.505 L 284.499 141.505 C 285.037 142.736 287.409 149.119 287.413 149.126 L 287.413 149.126 L 287.514 149.397 L 287.33 149.621 C 287.307 149.642 282.383 155.616 281.31 156.536 L 281.31 156.536 C 280.36 157.37 279.719 157.643 278.828 157.622 L 278.828 157.622 C 278.009 157.62 274.287 157.62 272.498 157.62 L 272.498 157.62 C 271.686 157.665 271.559 157.974 271.502 158.617 L 271.502 158.617 C 271.5 159.044 271.667 159.569 271.943 159.965 L 271.943 159.965 C 272.751 161.146 285.642 183.196 287.157 185.786 L 287.157 185.786 L 304.552 185.786 L 304.552 185.786 Z " fill="url(#_lgradient_38)"/></g><g id="null"><linearGradient id="_lgradient_39" x1="-0.00003660603483911229%" y1="15.352621465598743%" x2="99.99994509094773%" y2="15.352621465598743%"><stop offset="0%" stop-opacity="1" style="stop-color:rgb(255,255,255)"/><stop offset="100%" stop-opacity="1" style="stop-color:rgb(255,255,255)"/></linearGradient><path d=" M 431.1 128.007 C 431.1 128.007 477.565 128.007 479.575 128.007 C 481.587 128.007 482.331 128.453 483.223 130.092 C 484.116 131.732 491.118 146.176 491.786 147.814 C 492.458 149.454 491.86 150.644 490.893 151.912 C 489.924 153.178 479.872 164.644 479.872 164.644 L 492.159 186.289 L 473.616 186.289 C 473.616 186.289 459.096 161.441 458.276 160.251 C 457.458 159.061 457.458 157.123 459.245 157.123 C 461.032 157.123 464.757 157.123 465.573 157.123 C 466.393 157.123 466.764 156.975 467.733 156.156 C 468.702 155.336 473.69 149.303 473.69 149.303 C 473.69 149.303 471.307 142.9 470.786 141.708 C 470.266 140.517 469.149 140.145 468.106 140.145 C 467.063 140.145 449.417 140.145 449.417 140.145 L 449.417 186.288 L 431.099 186.288 L 431.099 128.007 L 431.1 128.007 L 431.1 128.007 Z " fill="url(#_lgradient_39)"/><linearGradient id="_lgradient_40" x1="-0.00003660603483911229%" y1="15.352621465598743%" x2="99.99994509094773%" y2="15.352621465598743%"><stop offset="0%" stop-opacity="1" style="stop-color:rgb(255,255,255)"/><stop offset="100%" stop-opacity="1" style="stop-color:rgb(255,255,255)"/></linearGradient><path d=" M 473.329 186.787 L 473.186 186.539 C 473.176 186.526 469.555 180.328 465.825 173.968 L 465.825 173.968 C 462.098 167.62 458.241 161.075 457.866 160.533 L 457.866 160.533 C 457.479 159.966 457.253 159.284 457.251 158.616 L 457.251 158.616 C 457.247 158.127 457.38 157.627 457.724 157.233 L 457.724 157.233 C 458.066 156.838 458.609 156.616 459.247 156.621 L 459.247 156.621 C 461.032 156.621 464.757 156.621 465.575 156.621 L 465.575 156.621 C 466.321 156.599 466.427 156.574 467.413 155.772 L 467.413 155.772 C 467.817 155.434 469.343 153.692 470.696 152.096 L 470.696 152.096 C 471.747 150.858 472.727 149.68 473.122 149.204 L 473.122 149.204 C 472.663 147.975 470.772 142.916 470.329 141.908 L 470.329 141.908 C 469.907 140.947 469.052 140.654 468.108 140.642 L 468.108 140.642 C 467.587 140.642 462.913 140.642 458.372 140.642 L 458.372 140.642 C 454.737 140.642 451.194 140.642 449.919 140.642 L 449.919 140.642 L 449.919 186.785 L 430.599 186.785 L 430.599 128.007 L 430.599 127.505 L 431.101 127.505 C 431.099 127.505 477.566 127.505 479.578 127.505 L 479.578 127.505 C 481.642 127.447 482.787 128.122 483.664 129.85 L 483.664 129.85 C 484.584 131.538 491.555 145.925 492.252 147.621 L 492.252 147.621 C 492.473 148.159 492.572 148.672 492.572 149.161 L 492.572 149.161 C 492.57 150.338 491.988 151.295 491.293 152.213 L 491.293 152.213 C 490.379 153.404 482 162.975 480.484 164.703 L 480.484 164.703 L 493.019 186.786 L 473.329 186.786 L 473.329 186.787 Z  M 491.3 185.786 L 479.263 164.579 L 479.499 164.313 C 479.507 164.297 489.565 152.825 490.495 151.608 L 490.495 151.608 C 491.157 150.735 491.573 149.981 491.571 149.162 L 491.571 149.162 C 491.571 148.809 491.501 148.434 491.323 148.002 L 491.323 148.002 C 490.68 146.425 483.655 131.922 482.784 130.332 L 482.784 130.332 C 481.876 128.782 481.53 128.565 479.575 128.508 L 479.575 128.508 C 477.686 128.506 436.612 128.506 431.6 128.508 L 431.6 128.508 L 431.6 185.786 L 448.914 185.786 L 448.914 139.643 L 449.416 139.643 C 449.436 139.643 467.062 139.643 468.105 139.643 L 468.105 139.643 C 469.246 139.63 470.625 140.081 471.244 141.505 L 471.244 141.505 C 471.781 142.738 474.154 149.118 474.158 149.126 L 474.158 149.126 L 474.26 149.397 L 474.076 149.622 C 474.055 149.643 469.127 155.614 468.056 156.536 L 468.056 156.536 C 467.105 157.372 466.466 157.645 465.574 157.62 L 465.574 157.62 C 464.756 157.62 461.031 157.62 459.246 157.62 L 459.246 157.62 C 458.432 157.665 458.305 157.973 458.248 158.616 L 458.248 158.616 C 458.244 159.046 458.412 159.569 458.689 159.966 L 458.689 159.966 C 459.498 161.146 472.386 183.193 473.904 185.786 L 473.904 185.786 L 491.3 185.786 L 491.3 185.786 Z " fill="url(#_lgradient_40)"/></g><g id="null"><linearGradient id="_lgradient_41" x1="-0.00003660603483911229%" y1="15.352621465598743%" x2="99.99994509094773%" y2="15.352621465598743%"><stop offset="0%" stop-opacity="1" style="stop-color:rgb(255,255,255)"/><stop offset="100%" stop-opacity="1" style="stop-color:rgb(255,255,255)"/></linearGradient><path d=" M 308.765 186.288 C 308.765 186.288 308.765 149.006 308.765 147.739 C 308.765 146.473 309.062 145.953 309.658 144.686 C 310.256 143.419 317.105 130.835 317.851 129.645 C 318.595 128.454 319.638 128.006 321.648 128.006 C 323.658 128.006 369.888 128.006 369.888 128.006 L 369.888 140.069 C 369.888 140.069 334.976 140.069 333.636 140.069 C 332.296 140.069 331.7 140.145 330.806 142.081 C 329.912 144.017 327.083 150.868 327.083 150.868 L 363.794 150.868 L 363.794 163.006 L 327.083 163.006 L 327.083 174.027 L 369.888 174.027 L 369.888 186.289 L 308.765 186.289 L 308.765 186.288 Z " fill="url(#_lgradient_41)"/><linearGradient id="_lgradient_42" x1="-0.00003660603483911229%" y1="15.352621465598743%" x2="99.99994509094773%" y2="15.352621465598743%"><stop offset="0%" stop-opacity="1" style="stop-color:rgb(255,255,255)"/><stop offset="100%" stop-opacity="1" style="stop-color:rgb(255,255,255)"/></linearGradient><path d=" M 308.765 186.788 L 308.765 186.288 L 309.265 186.288 L 308.765 186.288 L 308.765 186.788 L 308.265 186.788 L 308.265 186.288 C 308.265 186.286 308.265 149.005 308.265 147.739 L 308.265 147.739 C 308.257 146.383 308.62 145.703 309.203 144.473 L 309.203 144.473 C 309.832 143.149 316.646 130.626 317.426 129.378 L 317.426 129.378 C 318.248 128.022 319.59 127.481 321.649 127.504 L 321.649 127.504 C 323.659 127.504 369.887 127.504 369.889 127.504 L 369.889 127.504 L 370.387 127.504 L 370.387 140.567 L 369.889 140.567 C 369.887 140.567 334.977 140.567 333.637 140.567 L 333.637 140.567 C 332.295 140.649 332.217 140.436 331.26 142.289 L 331.26 142.289 C 330.549 143.828 328.572 148.577 327.83 150.366 L 327.83 150.366 L 364.295 150.366 L 364.295 163.505 L 327.584 163.503 L 327.584 173.524 L 370.389 173.524 L 370.389 186.787 L 308.765 186.788 L 308.765 186.788 Z  M 369.386 185.786 L 369.386 174.526 L 326.581 174.526 L 326.581 162.504 L 363.294 162.504 L 363.294 151.367 L 326.333 151.367 L 326.618 150.676 C 326.62 150.671 329.446 143.831 330.35 141.871 L 330.35 141.871 C 331.182 139.852 332.295 139.487 333.635 139.569 L 333.635 139.569 C 334.879 139.569 365.114 139.569 369.387 139.569 L 369.387 139.569 L 369.387 128.506 C 364.385 128.506 323.532 128.506 321.645 128.506 L 321.645 128.506 C 319.682 128.53 318.938 128.884 318.272 129.908 L 318.272 129.908 C 317.561 131.043 310.672 143.69 310.108 144.897 L 310.108 144.897 C 309.501 146.2 309.272 146.563 309.262 147.739 L 309.262 147.739 C 309.262 148.917 309.262 181.343 309.262 185.785 L 309.262 185.785 L 369.386 185.786 L 369.386 185.786 Z " fill="url(#_lgradient_42)"/></g><g id="null"><g id="null"><linearGradient id="_lgradient_43" x1="-0.00003660603483911229%" y1="15.352621465598743%" x2="99.99994509094773%" y2="15.352621465598743%"><stop offset="0%" stop-opacity="1" style="stop-color:rgb(255,255,255)"/><stop offset="100%" stop-opacity="1" style="stop-color:rgb(255,255,255)"/></linearGradient><path d=" M 410.11 146.326 L 410.11 128.008 L 388.255 128.008 L 388.255 146.326 L 369.888 146.326 L 369.888 167.733 L 388.255 167.733 L 388.255 186.288 L 410.11 186.288 L 410.11 167.733 L 428.055 167.733 L 428.055 146.326 L 410.11 146.326 Z  M 399.091 163.49 C 395.532 163.49 392.65 160.606 392.65 157.049 C 392.65 153.492 395.533 150.609 399.091 150.609 C 402.648 150.609 405.53 153.493 405.53 157.049 C 405.53 160.606 402.647 163.49 399.091 163.49 Z " fill="url(#_lgradient_43)"/></g><g id="null"><linearGradient id="_lgradient_44" x1="-0.00003660603483911229%" y1="15.352621465598743%" x2="99.99994509094773%" y2="15.352621465598743%"><stop offset="0%" stop-opacity="1" style="stop-color:rgb(255,255,255)"/><stop offset="100%" stop-opacity="1" style="stop-color:rgb(255,255,255)"/></linearGradient><path d=" M 387.754 186.788 L 387.754 168.233 L 369.387 168.233 L 369.387 145.824 L 387.754 145.824 L 387.754 127.506 L 410.61 127.506 L 410.61 145.824 L 428.554 145.824 L 428.554 168.233 L 410.608 168.23 L 410.608 186.788 L 387.754 186.788 L 387.754 186.788 Z  M 370.386 167.232 L 388.755 167.232 L 388.755 185.786 L 409.609 185.786 L 409.609 167.232 L 427.553 167.232 L 427.553 146.825 L 410.11 146.825 L 410.11 146.325 L 410.61 146.325 L 410.11 146.325 L 410.11 146.825 L 409.609 146.825 L 409.609 128.506 L 388.755 128.506 L 388.755 146.825 L 370.386 146.823 L 370.386 167.232 L 370.386 167.232 Z  M 399.091 163.988 L 399.091 163.49 L 399.091 162.988 C 402.37 162.982 405.023 160.33 405.029 157.049 L 405.029 157.049 C 405.023 153.768 402.371 151.113 399.091 151.108 L 399.091 151.108 C 395.808 151.114 393.155 153.768 393.15 157.049 L 393.15 157.049 C 393.156 160.33 395.808 162.983 399.091 162.99 L 399.091 162.99 L 399.091 163.49 L 399.091 163.988 C 395.255 163.988 392.15 160.881 392.147 157.049 L 392.147 157.049 C 392.15 153.215 395.255 150.109 399.091 150.107 L 399.091 150.107 C 402.923 150.109 406.029 153.215 406.029 157.049 L 406.029 157.049 C 406.029 160.881 402.923 163.988 399.091 163.991 L 399.091 163.991 L 399.091 163.988 L 399.091 163.988 Z " fill="url(#_lgradient_44)"/></g></g><linearGradient id="_lgradient_45" x1="-0.00003660603483911229%" y1="15.352621465598743%" x2="99.99994509094773%" y2="15.352621465598743%"><stop offset="0%" stop-opacity="1" style="stop-color:rgb(255,255,255)"/><stop offset="100%" stop-opacity="1" style="stop-color:rgb(255,255,255)"/></linearGradient><path d=" M 405.345 173.58 L 392.761 173.58 L 398.94 179.76 L 405.345 173.58 Z " fill="url(#_lgradient_45)"/><linearGradient id="_lgradient_46" x1="-0.00003660603483911229%" y1="15.352621465598743%" x2="99.99994509094773%" y2="15.352621465598743%"><stop offset="0%" stop-opacity="1" style="stop-color:rgb(255,255,255)"/><stop offset="100%" stop-opacity="1" style="stop-color:rgb(255,255,255)"/></linearGradient><path d=" M 415.657 150.683 L 415.657 163.265 L 421.839 157.085 L 415.657 150.683 Z " fill="url(#_lgradient_46)"/><linearGradient id="_lgradient_47" x1="-0.00003660603483911229%" y1="15.352621465598743%" x2="99.99994509094773%" y2="15.352621465598743%"><stop offset="0%" stop-opacity="1" style="stop-color:rgb(255,255,255)"/><stop offset="100%" stop-opacity="1" style="stop-color:rgb(255,255,255)"/></linearGradient><path d=" M 382.446 163.265 L 382.446 150.683 L 376.266 156.862 L 382.446 163.265 Z " fill="url(#_lgradient_47)"/><g id="null"><g id="null"><linearGradient id="_lgradient_48" x1="-0.00003660603483911229%" y1="15.352621465598743%" x2="99.99994509094773%" y2="15.352621465598743%"><stop offset="0%" stop-opacity="1" style="stop-color:rgb(255,255,255)"/><stop offset="100%" stop-opacity="1" style="stop-color:rgb(255,255,255)"/></linearGradient><path d=" M 541.466 128.007 L 506.417 128.007 C 499.921 128.007 494.651 133.275 494.651 139.773 L 494.651 174.523 C 494.651 181.021 499.921 186.289 506.417 186.289 L 541.466 186.289 C 547.964 186.289 553.232 181.021 553.232 174.523 L 553.232 139.773 C 553.229 133.274 547.964 128.007 541.466 128.007 Z  M 523.94 174.67 C 514.235 174.67 506.366 166.802 506.366 157.097 C 506.366 147.392 514.235 139.525 523.94 139.525 C 533.645 139.525 541.514 147.392 541.514 157.097 C 541.514 166.802 533.645 174.67 523.94 174.67 Z " fill="url(#_lgradient_48)"/></g><g id="null"><linearGradient id="_lgradient_49" x1="-0.00003660603483911229%" y1="15.352621465598743%" x2="99.99994509094773%" y2="15.352621465598743%"><stop offset="0%" stop-opacity="1" style="stop-color:rgb(255,255,255)"/><stop offset="100%" stop-opacity="1" style="stop-color:rgb(255,255,255)"/></linearGradient><path d=" M 506.416 186.787 C 499.644 186.787 494.15 181.296 494.15 174.521 L 494.15 174.521 L 494.15 139.772 C 494.15 132.996 499.643 127.506 506.416 127.504 L 506.416 127.504 L 541.466 127.504 L 541.466 128.005 L 541.466 128.504 L 506.416 128.504 C 500.196 128.518 495.161 133.55 495.15 139.772 L 495.15 139.772 L 495.15 174.521 C 495.161 180.743 500.196 185.775 506.416 185.786 L 506.416 185.786 L 541.466 185.786 C 547.687 185.775 552.719 180.743 552.732 174.521 L 552.732 174.521 L 552.732 139.772 C 552.73 133.548 547.687 128.504 541.466 128.504 L 541.466 128.504 L 541.466 128.005 L 541.466 127.504 C 548.24 127.506 553.728 132.997 553.73 139.772 L 553.73 139.772 L 553.732 174.521 C 553.73 181.295 548.239 186.787 541.466 186.787 L 541.466 186.787 L 506.416 186.787 L 506.416 186.787 Z  M 505.865 157.096 C 505.865 147.115 513.959 139.025 523.938 139.023 L 523.938 139.023 C 533.92 139.025 542.012 147.115 542.014 157.096 L 542.014 157.096 C 542.012 167.078 533.92 175.169 523.938 175.169 L 523.938 175.169 L 523.938 174.67 L 523.938 174.169 C 533.368 174.151 540.997 166.523 541.013 157.096 L 541.013 157.096 C 540.996 147.668 533.367 140.04 523.938 140.024 L 523.938 140.024 C 514.508 140.041 506.882 147.669 506.866 157.096 L 506.866 157.096 C 506.883 166.524 514.509 174.152 523.938 174.169 L 523.938 174.169 L 523.938 174.67 L 523.938 175.169 C 513.959 175.169 505.865 167.078 505.865 157.096 L 505.865 157.096 Z " fill="url(#_lgradient_49)"/></g></g><linearGradient id="_lgradient_50" x1="-0.00003660603483911229%" y1="15.352621465598743%" x2="99.99994509094773%" y2="15.352621465598743%"><stop offset="0%" stop-opacity="1" style="stop-color:rgb(255,255,255)"/><stop offset="100%" stop-opacity="1" style="stop-color:rgb(255,255,255)"/></linearGradient><rect x="207.915" y="128.362" width="6.057" height="6.269" transform="matrix(1,0,0,1,0,0)" fill="url(#_lgradient_50)"/><linearGradient id="_lgradient_51" x1="-0.00003660603483911229%" y1="15.352621465598743%" x2="99.99994509094773%" y2="15.352621465598743%"><stop offset="0%" stop-opacity="1" style="stop-color:rgb(255,255,255)"/><stop offset="100%" stop-opacity="1" style="stop-color:rgb(255,255,255)"/></linearGradient><path d=" M 392.761 140.368 L 405.345 140.368 L 399.163 134.189 L 392.761 140.368 Z " fill="url(#_lgradient_51)"/></svg>