<?xml version="1.0" standalone="no"?><!-- Generator: Gravit.io --><svg xmlns="http://www.w3.org/2000/svg" xmlns:xlink="http://www.w3.org/1999/xlink" style="isolation:isolate" viewBox="0 0 566.929 157.78" width="566.929" height="157.78"><linearGradient id="_lgradient_13" x1="-0.0001281211220480888%" y1="15.35282741803608%" x2="99.99994509094772%" y2="15.35282741803608%"><stop offset="100%" stop-opacity="1" style="stop-color:rgb(255,255,255)"/><stop offset="100%" stop-opacity="1" style="stop-color:rgb(1,58,103)"/></linearGradient><path d=" M 489.886 26.366 L 535.471 26.65 L 556.643 4.631 L 478.646 4.346 L 405.357 77.921 L 395.095 78.488 L 395.381 7.705 L 354.176 49.759 L 344.32 50.928 L 344.32 8.078 L 259.959 91.546 L 249.47 92.662 L 250.362 6.781 L 176.632 81.644 L 166.95 81.691 L 165.815 9.793 L 126.037 49.854 L 114.973 50.421 L 115.392 7.643 L 10.286 113.599 L 44.904 113.032 L 90.293 68.98 L 98.998 68.98 L 98.578 113.244 L 134.73 76.247 L 143.374 76.247 L 143.374 113.934 L 103.587 153.434 L 141.714 152.869 L 216.731 77.003 L 226.835 77.003 L 226.835 114.274 L 273.592 114.558 L 318.81 69.057 L 327.537 68.49 L 327.403 111.503 L 363.534 75.371 L 372.07 75.371 L 372.636 111.806 L 371.898 113.702 L 481.073 113.702 L 501.974 92.519 L 434.093 91.365 L 433.476 81.513 L 444.052 70.374 L 469.662 70.371 L 491.911 47.837 L 478.464 47.269 L 478.464 37.786 L 489.886 26.366 Z " fill="url(#_lgradient_13)"/></svg>