<?xml version="1.0" standalone="no"?><!-- Generator: Gravit.io --><svg xmlns="http://www.w3.org/2000/svg" xmlns:xlink="http://www.w3.org/1999/xlink" style="isolation:isolate" viewBox="0 0 529.675 194.698" width="529.675" height="194.698"><path d=" M 126.595 91.363 L 166.391 91.363 C 182.656 91.363 195.892 78.125 195.892 61.863 C 195.892 45.602 182.656 32.443 166.391 32.443 L 156.015 32.443 C 155.198 32.443 154.541 31.791 154.541 30.972 C 154.541 30.074 155.195 29.421 156.015 29.421 L 195.731 29.421 L 195.813 16.998 L 156.015 16.998 C 148.332 16.998 142.121 23.21 142.121 30.892 C 142.121 38.656 148.33 44.948 156.015 44.948 L 166.391 44.948 C 175.707 44.948 183.309 52.55 183.309 61.865 C 183.309 71.182 175.707 78.699 166.391 78.699 L 126.595 78.699 L 126.595 91.363 L 126.595 91.363 Z " fill="rgb(255,255,255)"/><path d=" M 126.595 75.837 L 166.391 75.837 C 174.156 75.837 180.368 69.545 180.368 61.863 C 180.368 54.181 174.157 47.889 166.391 47.889 L 156.015 47.889 C 146.7 47.889 139.18 40.207 139.18 30.891 C 139.18 21.574 146.701 14.057 156.015 14.057 L 195.811 14.057 L 195.729 1.472 L 156.011 1.472 C 139.75 1.472 126.593 14.628 126.593 30.972 C 126.593 47.234 139.749 60.392 156.011 60.392 L 166.308 60.392 C 167.124 60.392 167.78 61.046 167.78 61.863 C 167.78 62.68 167.125 63.334 166.308 63.334 L 126.592 63.334 L 126.595 75.837 L 126.595 75.837 Z " fill="rgb(255,255,255)"/><path d=" M 226.701 78.778 C 219.839 78.778 214.201 73.303 214.201 66.275 L 214.201 26.313 C 214.201 19.613 219.84 13.974 226.701 13.974 L 269.196 13.974 L 269.196 1.472 L 226.701 1.472 C 212.892 1.472 201.696 12.668 201.696 26.479 L 201.696 66.275 C 201.696 80.087 212.89 91.283 226.701 91.283 L 269.034 91.283 L 269.034 78.78 L 226.701 78.778 L 226.701 78.778 Z " fill="rgb(255,255,255)"/><path d=" M 217.222 26.477 C 217.222 21.247 221.471 16.915 226.701 16.915 L 269.196 16.915 L 269.196 29.419 L 232.587 29.419 C 229.643 29.419 229.643 32.359 229.643 32.359 L 260.206 32.359 L 260.206 44.863 L 217.222 44.863 L 217.222 26.477 L 217.222 26.477 Z " fill="rgb(255,255,255)"/><path d=" M 226.701 75.757 C 221.472 75.757 217.222 71.507 217.222 66.277 L 217.222 47.887 L 260.205 47.887 L 260.205 60.389 L 229.643 60.389 C 229.643 63.331 232.584 63.331 232.584 63.331 L 269.031 63.331 L 269.031 75.754 L 226.701 75.757 L 226.701 75.757 Z " fill="rgb(255,255,255)"/><path d=" M 299.024 78.778 C 292.078 78.778 286.438 73.138 286.438 66.275 L 286.438 26.479 C 286.438 19.613 292.08 13.974 298.944 13.974 L 340.132 13.974 L 340.132 1.472 L 298.861 1.472 C 285.05 1.472 273.856 12.668 273.856 26.479 L 273.856 66.275 C 273.856 80.087 285.13 91.283 298.944 91.283 L 340.132 91.283 L 340.132 32.363 L 304.745 32.363 L 304.745 44.865 L 327.628 44.865 L 327.628 78.779 L 299.024 78.778 L 299.024 78.778 Z " fill="rgb(255,255,255)"/><path d=" M 289.378 66.275 C 289.378 71.505 293.712 75.838 298.941 75.838 L 324.682 75.838 L 324.682 47.807 L 304.744 47.807 L 304.744 60.392 L 312.181 60.392 L 312.181 63.334 L 304.828 63.334 C 303.191 63.334 301.885 61.947 301.885 60.392 L 301.885 32.361 C 301.885 32.361 301.885 29.418 304.828 29.418 L 340.129 29.418 L 340.129 16.914 L 298.942 16.914 C 293.713 16.914 289.379 21.246 289.379 26.477 L 289.378 66.275 L 289.378 66.275 Z " fill="rgb(255,255,255)"/><path d=" M 378.783 16.755 C 379.353 15.121 380.826 13.977 382.625 13.977 C 384.422 13.977 385.896 15.123 386.469 16.755 L 406.407 75.921 L 377.236 75.921 L 377.236 62.027 L 387.044 62.027 L 382.63 48.868 L 368.245 91.282 L 353.536 91.282 L 378.783 16.755 L 378.783 16.755 Z " fill="rgb(255,255,255)"/><path d=" M 410.492 78.778 L 377.231 78.778 L 377.231 91.281 L 427.816 91.281 L 401.503 13.239 C 399.212 5.639 391.612 0 382.622 0 C 373.636 0 366.036 5.558 363.745 13.239 L 337.182 91.281 L 350.423 91.281 L 376.161 15.364 C 377.224 12.83 379.675 11.114 382.616 11.114 C 385.478 11.114 387.932 12.83 388.993 15.364 L 410.492 78.778 L 410.492 78.778 Z " fill="rgb(255,255,255)"/><g id="g6708"><g id="flowRoot6696"><path d=" M 86.576 172.837 L 55.698 172.837 L 55.698 169.339 C 56.816 169.31 58.252 169.193 60.008 168.992 C 61.766 168.798 62.971 168.52 63.629 168.154 C 64.648 167.534 65.396 166.821 65.87 166.012 C 66.347 165.207 66.583 164.199 66.583 162.983 L 66.583 112.162 L 65.845 112.162 L 42.009 171.702 L 39.548 171.702 L 16.844 110.932 L 16.204 110.932 L 16.204 152.644 C 16.204 156.68 16.459 159.752 16.967 161.852 C 17.477 163.954 18.256 165.463 19.308 166.379 C 20.031 167.067 21.522 167.731 23.787 168.355 C 26.052 168.979 27.531 169.308 28.22 169.336 L 28.22 172.832 L 0 172.832 L 0 169.336 C 1.479 169.207 3.028 168.961 4.653 168.601 C 6.278 168.24 7.533 167.7 8.421 166.976 C 9.571 166.061 10.359 164.646 10.785 162.74 C 11.214 160.841 11.425 157.652 11.425 153.186 L 11.425 117.43 C 11.425 115.363 11.18 113.673 10.687 112.361 C 10.196 111.049 9.489 109.982 8.57 109.16 C 7.552 108.273 6.305 107.618 4.827 107.188 C 3.349 106.764 1.889 106.52 0.445 106.45 L 0.445 102.955 L 24.281 102.955 L 44.274 155.354 L 61.365 111.523 C 61.988 109.919 62.522 108.235 62.966 106.475 C 63.409 104.718 63.649 103.543 63.68 102.954 L 86.481 102.954 L 86.481 106.45 C 85.562 106.484 84.387 106.633 82.96 106.894 C 81.532 107.16 80.489 107.406 79.833 107.631 C 78.718 108.024 77.961 108.686 77.566 109.603 C 77.171 110.522 76.975 111.522 76.975 112.606 L 76.975 162.985 C 76.975 164.135 77.171 165.102 77.566 165.891 C 77.961 166.676 78.715 167.37 79.833 167.955 C 80.425 168.289 81.476 168.592 82.986 168.869 C 84.495 169.144 85.694 169.306 86.58 169.334 L 86.58 172.834 L 86.576 172.834 L 86.576 172.837 Z " fill="rgb(255,255,255)"/><path d=" M 130.284 171.948 C 128.742 172.511 127.389 172.958 126.222 173.304 C 125.055 173.649 123.735 173.82 122.257 173.82 C 119.694 173.82 117.653 173.224 116.125 172.024 C 114.599 170.827 113.622 169.081 113.195 166.78 L 112.899 166.78 C 110.765 169.141 108.475 170.952 106.028 172.196 C 103.582 173.448 100.635 174.067 97.188 174.067 C 93.543 174.067 90.548 172.958 88.201 170.717 C 85.853 168.488 84.681 165.566 84.681 161.952 C 84.681 160.08 84.943 158.403 85.469 156.928 C 85.995 155.449 86.783 154.121 87.832 152.94 C 88.654 151.96 89.737 151.083 91.082 150.306 C 92.43 149.537 93.692 148.924 94.874 148.459 C 96.354 147.902 99.349 146.866 103.862 145.355 C 108.377 143.85 111.421 142.668 112.997 141.811 L 112.997 136.937 C 112.997 136.51 112.908 135.689 112.726 134.475 C 112.544 133.261 112.16 132.11 111.568 131.026 C 110.911 129.816 109.985 128.755 108.785 127.851 C 107.588 126.951 105.889 126.497 103.689 126.497 C 102.177 126.497 100.775 126.752 99.478 127.259 C 98.181 127.773 97.27 128.303 96.746 128.861 C 96.746 129.521 96.902 130.486 97.214 131.766 C 97.527 133.044 97.682 134.228 97.682 135.311 C 97.682 136.461 97.164 137.511 96.129 138.461 C 95.096 139.42 93.659 139.889 91.821 139.889 C 90.18 139.889 88.973 139.311 88.2 138.142 C 87.43 136.981 87.044 135.674 87.044 134.227 C 87.044 132.718 87.577 131.272 88.645 129.892 C 89.712 128.514 91.099 127.284 92.808 126.201 C 94.286 125.286 96.075 124.5 98.175 123.861 C 100.278 123.219 102.328 122.9 104.331 122.9 C 107.089 122.9 109.492 123.09 111.546 123.465 C 113.599 123.846 115.461 124.656 117.136 125.904 C 118.809 127.121 120.082 128.77 120.952 130.852 C 121.822 132.94 122.257 135.622 122.257 138.905 C 122.257 143.6 122.206 147.762 122.11 151.387 C 122.01 155.017 121.964 158.982 121.964 163.283 C 121.964 164.562 122.185 165.583 122.628 166.339 C 123.071 167.097 123.753 167.735 124.673 168.257 C 125.165 168.555 125.944 168.718 127.013 168.749 C 128.079 168.783 129.17 168.802 130.286 168.802 L 130.286 171.948 L 130.284 171.948 L 130.284 171.948 Z  M 113.098 145.945 C 110.306 146.768 107.862 147.568 105.76 148.358 C 103.657 149.145 101.705 150.129 99.901 151.313 C 98.258 152.43 96.962 153.751 96.008 155.275 C 95.059 156.801 94.58 158.622 94.58 160.717 C 94.58 163.446 95.294 165.445 96.723 166.726 C 98.152 168.004 99.963 168.647 102.164 168.647 C 104.495 168.647 106.547 168.079 108.32 166.947 C 110.092 165.813 111.588 164.481 112.801 162.932 L 113.098 145.945 Z " fill="rgb(255,255,255)"/><path d=" M 156.707 149.049 C 158.053 150.231 159.088 151.595 159.811 153.133 C 160.534 154.68 160.894 156.568 160.894 158.797 C 160.894 163.299 159.209 166.974 155.848 169.83 C 152.482 172.684 148.121 174.115 142.772 174.115 C 139.947 174.115 137.345 173.603 134.965 172.586 C 132.583 171.569 130.884 170.636 129.867 169.779 L 128.883 172.981 L 125.19 172.981 L 124.698 156.085 L 128.095 156.085 C 128.358 157.364 128.915 158.863 129.769 160.564 C 130.623 162.272 131.657 163.813 132.873 165.193 C 134.153 166.641 135.687 167.853 137.477 168.839 C 139.266 169.821 141.278 170.319 143.51 170.319 C 146.661 170.319 149.092 169.604 150.8 168.173 C 152.506 166.747 153.362 164.702 153.362 162.04 C 153.362 160.661 153.092 159.477 152.549 158.474 C 152.007 157.474 151.21 156.598 150.16 155.837 C 149.077 155.081 147.747 154.404 146.171 153.794 C 144.595 153.188 142.839 152.587 140.901 151.995 C 139.356 151.536 137.642 150.907 135.755 150.099 C 133.866 149.293 132.25 148.347 130.903 147.266 C 129.459 146.12 128.277 144.703 127.357 143.031 C 126.438 141.358 125.977 139.387 125.977 137.122 C 125.977 133.149 127.456 129.786 130.41 127.025 C 133.366 124.267 137.322 122.887 142.28 122.887 C 144.181 122.887 146.129 123.133 148.116 123.622 C 150.1 124.119 151.718 124.707 152.967 125.395 L 154.1 122.835 L 157.645 122.835 L 158.383 138.443 L 154.986 138.443 C 154.297 134.964 152.81 132.134 150.528 129.947 C 148.245 127.766 145.463 126.674 142.178 126.674 C 139.488 126.674 137.367 127.35 135.825 128.695 C 134.282 130.046 133.511 131.67 133.511 133.571 C 133.511 135.05 133.764 136.28 134.274 137.264 C 134.784 138.25 135.545 139.084 136.565 139.777 C 137.548 140.436 138.788 141.052 140.283 141.624 C 141.777 142.198 143.623 142.852 145.825 143.569 C 147.992 144.257 150.036 145.066 151.956 145.981 C 153.876 146.915 155.458 147.936 156.707 149.049 Z " fill="rgb(255,255,255)"/><path d=" M 187.71 170.715 C 185.575 171.604 183.557 172.352 181.652 172.957 C 179.748 173.567 177.416 173.867 174.659 173.867 C 170.587 173.867 167.722 172.846 166.065 170.791 C 164.406 168.74 163.577 165.84 163.577 162.101 L 163.577 129.205 L 154.81 129.205 L 154.81 124.475 L 163.774 124.475 L 163.774 109.357 L 172.737 109.357 L 172.737 124.475 L 186.674 124.475 L 186.674 129.205 L 172.836 129.205 L 172.836 156.338 C 172.836 158.377 172.909 160.076 173.058 161.439 C 173.205 162.801 173.558 163.997 174.116 165.008 C 174.641 165.961 175.43 166.684 176.48 167.174 C 177.53 167.666 178.942 167.912 180.714 167.912 C 181.534 167.912 182.74 167.838 184.335 167.686 C 185.928 167.54 187.051 167.354 187.709 167.121 L 187.71 170.715 L 187.71 170.715 Z " fill="rgb(255,255,255)"/><path d=" M 225.261 161.411 C 223.226 165.286 220.501 168.372 217.086 170.669 C 213.672 172.968 209.748 174.113 205.316 174.113 C 201.41 174.113 197.987 173.425 195.046 172.046 C 192.109 170.669 189.688 168.794 187.782 166.433 C 185.879 164.071 184.458 161.314 183.522 158.162 C 182.585 155.008 182.119 151.683 182.119 148.166 C 182.119 145.015 182.62 141.92 183.621 138.881 C 184.623 135.849 186.092 133.113 188.029 130.683 C 189.901 128.356 192.223 126.474 194.997 125.043 C 197.772 123.614 200.884 122.901 204.331 122.901 C 207.876 122.901 210.913 123.463 213.44 124.575 C 215.969 125.693 218.02 127.219 219.596 129.153 C 221.107 130.997 222.231 133.165 222.97 135.657 C 223.707 138.151 224.078 140.862 224.078 143.78 L 224.078 147.031 L 191.921 147.031 C 191.921 150.219 192.224 153.107 192.83 155.701 C 193.439 158.296 194.398 160.576 195.712 162.548 C 196.99 164.453 198.665 165.954 200.734 167.054 C 202.801 168.158 205.264 168.7 208.121 168.7 C 211.043 168.7 213.562 168.02 215.68 166.653 C 217.8 165.299 219.843 162.84 221.812 159.296 L 225.261 161.411 Z  M 214.377 142.894 C 214.377 141.055 214.222 139.086 213.91 136.985 C 213.597 134.883 213.097 133.128 212.408 131.714 C 211.654 130.207 210.619 128.98 209.304 128.021 C 207.992 127.072 206.299 126.594 204.233 126.594 C 200.784 126.594 197.92 128.03 195.638 130.905 C 193.358 133.778 192.118 137.773 191.921 142.893 L 214.377 142.894 L 214.377 142.894 Z " fill="rgb(255,255,255)"/><path d=" M 257.691 130.531 C 257.691 132.204 257.28 133.691 256.461 134.988 C 255.641 136.288 254.378 136.932 252.671 136.932 C 250.83 136.932 249.428 136.455 248.457 135.502 C 247.49 134.553 247.005 133.501 247.005 132.353 C 247.005 131.63 247.062 130.974 247.177 130.382 C 247.291 129.788 247.398 129.197 247.496 128.609 C 245.954 128.609 244.146 129.232 242.079 130.48 C 240.011 131.73 238.255 133.501 236.808 135.797 L 236.808 164.065 C 236.808 165.219 237.032 166.153 237.474 166.876 C 237.916 167.601 238.615 168.141 239.566 168.501 C 240.388 168.831 241.447 169.075 242.742 169.235 C 244.041 169.405 245.164 169.516 246.118 169.583 L 246.118 172.833 L 220.508 172.833 L 220.508 169.583 C 221.264 169.518 222.044 169.456 222.847 169.388 C 223.652 169.325 224.349 169.194 224.941 168.991 C 225.859 168.696 226.542 168.179 226.984 167.442 C 227.427 166.704 227.648 165.743 227.648 164.563 L 227.648 134.571 C 227.648 133.554 227.41 132.55 226.935 131.567 C 226.459 130.581 225.792 129.795 224.939 129.203 C 224.317 128.807 223.58 128.525 222.724 128.341 C 221.87 128.164 220.951 128.041 219.966 127.974 L 219.966 124.772 L 236.118 123.688 L 236.807 124.377 L 236.807 131.223 L 237.053 131.223 C 239.091 128.562 241.357 126.544 243.85 125.166 C 246.346 123.785 248.627 123.097 250.695 123.097 C 252.764 123.097 254.447 123.772 255.744 125.118 C 257.044 126.462 257.691 128.266 257.691 130.531 L 257.691 130.531 Z " fill="rgb(255,255,255)"/><path d=" M 310.143 140.776 C 311.619 142.422 312.708 144.217 313.414 146.171 C 314.123 148.126 314.477 150.4 314.477 152.99 C 314.477 159.167 312.191 164.257 307.629 168.259 C 303.066 172.267 297.403 174.265 290.64 174.265 C 287.52 174.265 284.404 173.786 281.284 172.815 C 278.165 171.849 275.472 170.671 273.207 169.294 L 271.09 172.891 L 267.152 172.891 L 266.463 148.956 L 270.451 148.956 C 271.272 151.909 272.233 154.581 273.333 156.958 C 274.435 159.343 275.887 161.562 277.692 163.632 C 279.399 165.571 281.393 167.112 283.673 168.261 C 285.956 169.412 288.607 169.984 291.624 169.984 C 293.891 169.984 295.866 169.69 297.56 169.098 C 299.251 168.505 300.624 167.665 301.672 166.585 C 302.722 165.501 303.499 164.231 304.012 162.77 C 304.523 161.312 304.777 159.626 304.777 157.72 C 304.777 154.936 303.99 152.328 302.416 149.913 C 300.841 147.499 298.494 145.671 295.371 144.423 C 293.236 143.569 290.791 142.624 288.033 141.591 C 285.277 140.558 282.895 139.581 280.893 138.658 C 276.955 136.887 273.891 134.564 271.707 131.69 C 269.523 128.819 268.434 125.064 268.434 120.434 C 268.434 117.779 268.976 115.299 270.058 112.998 C 271.142 110.702 272.683 108.646 274.687 106.842 C 276.591 105.138 278.841 103.797 281.434 102.828 C 284.027 101.86 286.738 101.376 289.559 101.376 C 292.777 101.376 295.658 101.866 298.203 102.855 C 300.746 103.837 303.072 104.991 305.17 106.298 L 307.191 102.949 L 311.131 102.949 L 311.527 126.144 L 307.539 126.144 C 306.82 123.485 306.006 120.945 305.101 118.508 C 304.2 116.081 303.028 113.879 301.58 111.91 C 300.17 110.009 298.445 108.484 296.412 107.351 C 294.375 106.221 291.879 105.652 288.927 105.652 C 285.81 105.652 283.149 106.657 280.948 108.655 C 278.748 110.663 277.648 113.107 277.648 115.993 C 277.648 119.016 278.353 121.518 279.766 123.505 C 281.177 125.492 283.231 127.124 285.921 128.403 C 288.318 129.553 290.672 130.545 292.984 131.379 C 295.299 132.219 297.541 133.116 299.707 134.066 C 301.68 134.92 303.572 135.889 305.395 136.974 C 307.21 138.068 308.794 139.331 310.143 140.776 L 310.143 140.776 Z " fill="rgb(255,255,255)"/><path d=" M 307.755 188.694 C 307.755 187.053 308.202 185.715 309.109 184.678 C 310.009 183.643 311.132 183.127 312.482 183.127 C 313.531 183.127 314.433 183.319 315.191 183.719 C 315.945 184.115 316.619 184.625 317.211 185.243 C 317.703 185.733 318.232 186.41 318.787 187.262 C 319.346 188.119 319.789 188.826 320.115 189.381 C 321.76 188.494 323.719 186.178 326.004 182.439 C 328.281 178.694 329.94 175.417 330.951 172.586 C 327.828 164.808 325.01 157.849 322.48 151.705 C 319.951 145.566 317.308 139.215 314.552 132.644 C 313.929 131.138 312.876 129.959 311.4 129.122 C 309.923 128.284 308.445 127.753 306.966 127.52 L 306.966 124.27 L 329.13 124.27 L 329.13 127.717 C 328.142 127.751 326.962 127.958 325.583 128.332 C 324.204 128.712 323.515 129.145 323.515 129.637 C 323.515 129.833 323.588 130.164 323.738 130.622 C 323.885 131.083 324.055 131.56 324.257 132.049 C 325.504 135.3 327.404 139.99 329.969 146.111 C 332.533 152.239 334.517 157.134 335.927 160.813 C 337.406 157.298 338.942 153.666 340.531 149.906 C 342.125 146.146 343.91 141.707 345.877 136.584 C 346.107 135.963 346.44 135.103 346.859 134.001 C 347.285 132.9 347.502 131.956 347.502 131.169 C 347.502 130.317 346.758 129.519 345.262 128.779 C 343.766 128.043 342.349 127.589 341 127.423 L 341 124.272 L 359.025 124.272 L 359.025 127.329 C 358.039 127.496 356.738 128.06 355.133 129.026 C 353.523 129.998 352.323 131.367 351.536 133.138 C 347.628 142.201 344.151 150.457 341.12 157.91 C 338.081 165.364 335.776 170.847 334.202 174.356 C 332.132 178.959 330.286 182.541 328.661 185.119 C 327.036 187.699 325.448 189.723 323.907 191.199 C 322.395 192.58 321.026 193.51 319.798 193.984 C 318.57 194.458 317.29 194.698 315.985 194.698 C 313.422 194.698 311.411 194.092 309.95 192.879 C 308.484 191.669 307.755 190.269 307.755 188.694 L 307.755 188.694 Z " fill="rgb(255,255,255)"/><path d=" M 382.687 149.049 C 384.029 150.231 385.066 151.595 385.789 153.133 C 386.512 154.68 386.871 156.568 386.871 158.797 C 386.871 163.299 385.187 166.974 381.826 169.83 C 378.457 172.684 374.1 174.115 368.748 174.115 C 365.928 174.115 363.32 173.603 360.945 172.586 C 358.561 171.569 356.863 170.636 355.845 169.779 L 354.859 172.981 L 351.166 172.981 L 350.675 156.085 L 354.072 156.085 C 354.332 157.364 354.889 158.863 355.748 160.564 C 356.602 162.272 357.634 163.813 358.852 165.193 C 360.13 166.641 361.664 167.853 363.456 168.839 C 365.243 169.821 367.254 170.319 369.487 170.319 C 372.637 170.319 375.069 169.604 376.776 168.173 C 378.479 166.747 379.337 164.702 379.337 162.04 C 379.337 160.661 379.066 159.477 378.524 158.474 C 377.981 157.474 377.184 156.598 376.132 155.837 C 375.052 155.081 373.721 154.404 372.147 153.794 C 370.571 153.188 368.813 152.587 366.875 151.995 C 365.329 151.536 363.614 150.907 361.729 150.099 C 359.837 149.293 358.225 148.347 356.878 147.266 C 355.436 146.12 354.249 144.703 353.33 143.031 C 352.408 141.358 351.951 139.387 351.951 137.122 C 351.951 133.149 353.431 129.786 356.387 127.025 C 359.343 124.267 363.293 122.887 368.254 122.887 C 370.156 122.887 372.106 123.133 374.088 123.622 C 376.072 124.119 377.693 124.707 378.942 125.395 L 380.077 122.835 L 383.62 122.835 L 384.358 138.443 L 380.961 138.443 C 380.273 134.964 378.784 132.134 376.509 129.947 C 374.222 127.766 371.445 126.674 368.157 126.674 C 365.465 126.674 363.344 127.35 361.803 128.695 C 360.259 130.046 359.49 131.67 359.49 133.571 C 359.49 135.05 359.742 136.28 360.253 137.264 C 360.763 138.25 361.525 139.084 362.543 139.777 C 363.529 140.436 364.772 141.052 366.265 141.624 C 367.753 142.198 369.604 142.852 371.804 143.569 C 373.975 144.257 376.016 145.066 377.938 145.981 C 379.852 146.915 381.437 147.936 382.687 149.049 L 382.687 149.049 Z " fill="rgb(255,255,255)"/><path d=" M 413.686 170.715 C 411.554 171.604 409.535 172.352 407.626 172.957 C 405.725 173.567 403.396 173.867 400.637 173.867 C 396.566 173.867 393.7 172.846 392.042 170.791 C 390.384 168.74 389.555 165.84 389.555 162.101 L 389.555 129.205 L 380.79 129.205 L 380.79 124.475 L 389.749 124.475 L 389.749 109.357 L 398.715 109.357 L 398.715 124.475 L 412.652 124.475 L 412.652 129.205 L 398.812 129.205 L 398.812 156.338 C 398.812 158.377 398.887 160.076 399.035 161.439 C 399.183 162.802 399.537 163.997 400.099 165.008 C 400.62 165.961 401.412 166.684 402.456 167.174 C 403.507 167.666 404.919 167.912 406.69 167.912 C 407.511 167.912 408.717 167.838 410.31 167.686 C 411.903 167.54 413.028 167.354 413.684 167.121 L 413.686 170.715 L 413.686 170.715 Z " fill="rgb(255,255,255)"/><path d=" M 451.238 161.411 C 449.205 165.286 446.478 168.372 443.062 170.669 C 439.648 172.968 435.724 174.113 431.291 174.113 C 427.393 174.113 423.965 173.425 421.025 172.046 C 418.087 170.669 415.668 168.794 413.757 166.433 C 411.857 164.071 410.433 161.314 409.497 158.162 C 408.559 155.008 408.096 151.683 408.096 148.166 C 408.096 145.015 408.6 141.92 409.597 138.881 C 410.598 135.849 412.07 133.113 414.005 130.683 C 415.874 128.356 418.198 126.474 420.973 125.043 C 423.745 123.614 426.859 122.901 430.302 122.901 C 433.851 122.901 436.886 123.463 439.413 124.575 C 441.942 125.693 443.993 127.219 445.569 129.153 C 447.081 130.997 448.204 133.165 448.944 135.657 C 449.678 138.151 450.048 140.862 450.048 143.78 L 450.048 147.031 L 417.894 147.031 C 417.894 150.219 418.199 153.107 418.804 155.701 C 419.408 158.296 420.368 160.576 421.687 162.548 C 422.962 164.453 424.644 165.954 426.707 167.054 C 428.773 168.158 431.234 168.7 434.096 168.7 C 437.02 168.7 439.535 168.02 441.657 166.653 C 443.774 165.299 445.819 162.84 447.792 159.296 L 451.238 161.411 Z  M 440.353 142.894 C 440.353 141.055 440.199 139.086 439.886 136.985 C 439.577 134.883 439.073 133.128 438.384 131.714 C 437.632 130.207 436.599 128.98 435.282 128.021 C 433.966 127.072 432.276 126.594 430.208 126.594 C 426.763 126.594 423.895 128.03 421.614 130.905 C 419.335 133.778 418.093 137.773 417.896 142.893 L 440.353 142.894 L 440.353 142.894 Z " fill="rgb(255,255,255)"/><path d=" M 529.667 172.837 L 505.978 172.837 L 505.978 169.583 C 506.734 169.52 507.498 169.456 508.269 169.39 C 509.039 169.326 509.718 169.194 510.31 168.994 C 511.228 168.697 511.912 168.181 512.355 167.443 C 512.8 166.707 513.021 165.743 513.021 164.564 L 513.021 139.496 C 513.021 136.084 512.24 133.448 510.679 131.593 C 509.118 129.739 507.177 128.811 504.847 128.811 C 503.238 128.811 501.726 129.054 500.316 129.547 C 498.904 130.038 497.607 130.727 496.427 131.615 C 495.47 132.341 494.675 133.116 494.032 133.954 C 493.393 134.792 492.909 135.492 492.579 136.046 L 492.579 164.067 C 492.579 165.221 492.778 166.163 493.173 166.901 C 493.569 167.637 494.237 168.208 495.193 168.6 C 495.949 168.896 496.631 169.118 497.238 169.265 C 497.843 169.411 498.64 169.521 499.625 169.584 L 499.625 172.834 L 476.436 172.834 L 476.436 169.584 C 477.192 169.521 477.915 169.455 478.624 169.389 C 479.327 169.326 479.979 169.194 480.565 168.991 C 481.487 168.696 482.167 168.178 482.61 167.441 C 483.055 166.704 483.28 165.743 483.28 164.559 L 483.28 139.493 C 483.28 136.081 482.497 133.446 480.934 131.59 C 479.377 129.736 477.43 128.807 475.104 128.807 C 473.495 128.807 471.981 129.063 470.571 129.573 C 469.159 130.088 467.862 130.781 466.68 131.667 C 465.729 132.391 464.924 133.203 464.268 134.104 C 463.612 135.012 463.12 135.69 462.788 136.148 L 462.788 163.973 C 462.788 165.09 463.02 166.028 463.479 166.78 C 463.938 167.54 464.625 168.111 465.542 168.507 C 466.231 168.837 466.94 169.079 467.659 169.242 C 468.388 169.409 469.186 169.523 470.073 169.589 L 470.073 172.841 L 446.48 172.841 L 446.48 169.589 C 447.236 169.526 448.015 169.462 448.824 169.394 C 449.625 169.333 450.32 169.2 450.916 168.998 C 451.834 168.703 452.518 168.185 452.957 167.446 C 453.4 166.711 453.621 165.75 453.621 164.566 L 453.621 134.378 C 453.621 133.33 453.389 132.384 452.908 131.548 C 452.431 130.708 451.767 129.993 450.916 129.402 C 450.291 129.006 449.521 128.687 448.603 128.443 C 447.683 128.195 446.732 128.044 445.746 127.972 L 445.746 124.773 L 462 123.69 L 462.688 124.378 L 462.688 131.321 L 463.034 131.321 C 463.854 130.505 464.856 129.531 466.038 128.415 C 467.224 127.304 468.321 126.394 469.339 125.708 C 470.487 124.922 471.927 124.267 473.653 123.737 C 475.374 123.216 477.239 122.949 479.241 122.949 C 482.391 122.949 485.098 123.796 487.366 125.484 C 489.636 127.177 491.261 129.221 492.241 131.617 C 493.425 130.471 494.468 129.461 495.37 128.589 C 496.272 127.721 497.464 126.793 498.94 125.807 C 500.19 124.953 501.655 124.264 503.348 123.738 C 505.036 123.217 506.914 122.95 508.987 122.95 C 513.091 122.95 516.341 124.302 518.741 126.987 C 521.134 129.681 522.333 133.821 522.333 139.402 L 522.333 164.073 C 522.333 165.224 522.528 166.165 522.929 166.905 C 523.324 167.64 523.993 168.215 524.949 168.603 C 525.705 168.899 526.449 169.121 527.187 169.27 C 527.927 169.415 528.753 169.524 529.675 169.587 L 529.675 172.839 L 529.669 172.839 L 529.669 172.837 L 529.667 172.837 Z " fill="rgb(255,255,255)"/></g></g></svg>