<?xml version="1.0" standalone="no"?><!-- Generator: Gravit.io --><svg xmlns="http://www.w3.org/2000/svg" xmlns:xlink="http://www.w3.org/1999/xlink" style="isolation:isolate" viewBox="0 0 1383.593 357.769" width="1383.593" height="357.769"><g id="null"><path d=" M 144.184 355.647 L 270.143 234.754 L 270.143 353.526 L 389.07 231.572 L 389.07 357.769 L 1227.192 357.769 L 1317.125 155.2 L 1180.507 155.2 L 1207.01 94.329 L 1350.491 94.329 L 1382.533 20.598 L 1150.237 20.598 L 1059.917 229.813 L 1199.14 229.813 L 1170.517 291.089 L 982.043 291.089 L 1041.523 155.2 L 903.009 155.2 L 929.51 94.329 L 1078.905 94.329 L 1110.946 20.598 L 874.836 20.598 L 784.514 229.813 L 921.62 229.813 L 892.996 291.089 L 582.598 291.089 L 610.16 229.813 L 675.943 229.813 L 707.963 155.2 L 628.943 155.2 L 655.444 94.329 L 800.186 94.329 L 833.266 20.598 L 599.053 20.598 L 495.491 250.609 L 479.638 250.609 L 479.638 10.299 L 336.026 170.506 L 336.026 0 L 0 355.647 L 144.184 355.647 Z " fill="rgb(255,255,255)"/><g id="null"><g id="null"><path d=" M 589.928 38.507 C 656.52 33.325 736.551 47.338 802.43 91.694 L 834.327 20.598 L 597.992 20.598 L 589.928 38.507 Z  M 1149.175 20.598 L 1131.805 60.309 C 1201.678 52.805 1296.639 51.952 1354.372 87.838 L 1383.593 20.598 L 1149.175 20.598 L 1149.175 20.598 Z  M 841.452 94.492 C 949.312 94.664 986.589 89.163 1049.493 73.756 C 1057.524 71.789 1072.728 68.621 1092.49 65.509 L 1112.007 20.598 L 873.775 20.598 L 841.452 94.492 Z  M 337.086 51.258 L 337.086 0 L 285.215 55.206 C 301.938 52.067 318.511 49.841 337.086 51.258 Z  M 457.519 102.048 C 461.069 91.285 469.127 81.377 480.699 72.718 L 480.699 10.299 L 419.499 78.57 C 431.222 84.977 443.835 92.726 457.519 102.048 Z " fill="rgb(255,255,255)"/></g></g></g></svg>