<?xml version="1.0" standalone="no"?><!-- Generator: Gravit.io --><svg xmlns="http://www.w3.org/2000/svg" xmlns:xlink="http://www.w3.org/1999/xlink" style="isolation:isolate" viewBox="0 0 548.773 78.278" width="548.773" height="78.278"><path d=" M 347.884 70.382 C 347.884 71.212 347.202 71.96 346.363 71.96 L 317.261 71.96 C 316.413 71.96 315.734 71.212 315.734 70.382 L 315.734 49.36 C 315.734 48.528 316.416 47.864 317.261 47.864 L 346.363 47.864 C 347.203 47.864 347.884 48.528 347.884 49.36 L 347.884 70.382 Z  M 346.621 41.548 L 317 41.548 C 312.713 41.548 309.213 45.038 309.213 49.361 L 309.213 70.465 C 309.213 74.701 312.713 78.278 317 78.278 L 346.621 78.278 C 350.918 78.278 354.408 74.704 354.408 70.465 L 354.408 49.36 C 354.408 45.038 350.917 41.548 346.621 41.548 Z " fill="rgb(255,255,255)"/><path d=" M 6.797 9.971 C 6.797 9.971 6.797 36.729 6.797 37.145 C 6.44 37.145 0.364 37.145 0 37.145 C 0 36.729 0 0.831 0 0.416 C 0.382 0.416 5.633 0.416 5.808 0.416 L 33.337 27.172 C 33.337 27.172 33.337 0.831 33.337 0.416 C 33.711 0.416 38.779 0.416 38.779 0.416 C 38.779 0.416 39.743 0.416 40.043 0.416 C 40.043 0.832 40.043 36.729 40.043 37.145 C 39.677 37.145 34.916 37.145 34.732 37.145 L 6.797 9.971 Z " fill="rgb(255,255,255)"/><path d=" M 74.943 9.971 C 74.943 9.971 74.943 36.729 74.943 37.145 C 74.577 37.145 68.52 37.145 68.146 37.145 C 68.146 36.729 68.146 0.832 68.146 0.416 C 68.528 0.416 73.771 0.416 73.946 0.416 L 101.475 27.172 C 101.475 27.172 101.475 0.831 101.475 0.416 C 101.849 0.416 106.926 0.416 106.926 0.416 C 106.926 0.416 107.898 0.416 108.189 0.416 C 108.189 0.832 108.189 36.729 108.189 37.145 C 107.815 37.145 103.062 37.145 102.879 37.145 L 74.943 9.971 Z " fill="rgb(255,255,255)"/><path d=" M 216.179 9.971 C 216.179 9.971 216.179 36.729 216.179 37.145 C 215.804 37.145 209.755 37.145 209.382 37.145 C 209.382 36.729 209.382 0.832 209.382 0.416 C 209.764 0.416 215.017 0.416 215.182 0.416 L 242.711 27.172 C 242.711 27.172 242.711 0.831 242.711 0.416 C 243.085 0.416 248.161 0.416 248.161 0.416 C 248.161 0.416 249.134 0.416 249.425 0.416 C 249.425 0.832 249.425 36.729 249.425 37.145 C 249.051 37.145 244.298 37.145 244.124 37.145 L 216.179 9.971 Z " fill="rgb(255,255,255)"/><path d=" M 56.23 0.416 C 56.23 0.416 57.194 0.416 57.485 0.416 C 57.485 0.832 57.485 36.729 57.485 37.145 C 57.129 37.145 51.054 37.145 50.688 37.145 C 50.688 36.729 50.688 0.832 50.688 0.416 C 51.062 0.416 56.23 0.416 56.23 0.416 Z " fill="rgb(255,255,255)"/><path d=" M 154.482 0.416 C 154.482 0.416 155.429 0.416 155.728 0.416 C 155.728 0.749 155.728 6.399 155.728 6.731 C 155.33 6.731 139.342 6.731 139.342 6.731 C 139.342 6.731 139.342 36.728 139.342 37.144 C 138.976 37.144 132.645 37.144 132.279 37.144 C 132.279 36.728 132.279 6.731 132.279 6.731 C 132.279 6.731 116.293 6.731 115.893 6.731 C 115.893 6.399 115.893 0.748 115.893 0.416 C 116.299 0.416 154.482 0.416 154.482 0.416 Z " fill="rgb(255,255,255)"/><path d=" M 198.023 0.416 C 198.023 0.416 199.003 0.416 199.294 0.416 C 199.294 0.749 199.294 6.399 199.294 6.731 C 198.903 6.731 170.16 6.731 170.16 6.731 L 170.16 14.957 C 170.16 14.957 192.313 14.957 192.696 14.957 C 192.696 15.373 192.696 20.857 192.696 21.273 C 192.313 21.273 170.16 21.273 170.16 21.273 L 170.16 30.828 C 170.16 30.828 198.903 30.828 199.294 30.828 C 199.294 31.161 199.294 36.728 199.294 37.143 C 198.903 37.143 163.82 37.143 163.431 37.143 C 163.431 36.727 163.431 0.83 163.431 0.414 C 163.821 0.416 198.023 0.416 198.023 0.416 Z " fill="rgb(255,255,255)"/><path d=" M 287.216 30.829 L 266.342 30.829 L 266.342 6.733 L 287.216 6.733 C 293.747 6.733 296.068 13.212 296.068 18.782 C 296.066 24.264 293.75 30.829 287.216 30.829 Z  M 298.369 5.819 C 295.711 2.246 291.779 0.418 287.025 0.418 C 287.025 0.418 260.187 0.418 259.787 0.418 C 259.787 0.834 259.787 36.731 259.787 37.147 C 260.185 37.147 287.025 37.147 287.025 37.147 C 291.779 37.147 295.711 35.236 298.369 31.746 C 300.861 28.506 302.182 24.018 302.182 18.784 C 302.181 13.545 300.861 9.059 298.369 5.819 Z " fill="rgb(255,255,255)"/><path d=" M 347.884 29.333 C 347.884 30.081 347.202 30.829 346.363 30.829 L 317.261 30.829 C 316.413 30.829 315.734 30.081 315.734 29.333 L 315.734 8.228 C 315.734 7.397 316.416 6.732 317.261 6.732 L 346.363 6.732 C 347.203 6.732 347.884 7.397 347.884 8.228 L 347.884 29.333 Z  M 346.621 0.416 L 317 0.416 C 312.713 0.416 309.213 3.906 309.213 8.229 L 309.213 29.333 C 309.213 33.654 312.713 37.146 317 37.146 L 346.621 37.146 C 350.918 37.146 354.408 33.656 354.408 29.333 L 354.408 8.228 C 354.408 3.908 350.917 0.416 346.621 0.416 Z " fill="rgb(255,255,255)"/><path d=" M 470.017 62.739 C 477.062 65.563 491.945 67.805 503.562 67.805 C 516.275 67.805 521.535 63.485 521.535 57.999 C 521.535 53.014 516.648 50.188 502.615 45.036 C 483.844 38.14 470.074 32.656 470.074 20.274 C 470.074 7.561 486.644 0 511.896 0 C 525.457 0 530.111 0.831 538.718 2.41 L 538.784 14.541 C 530.325 12.963 522.829 10.22 511.186 10.22 C 498.707 10.22 493.387 14.208 493.387 18.283 C 493.387 24.183 501.578 27.008 515.95 32.159 C 535.95 39.305 547.077 44.788 547.077 56.839 C 547.077 69.302 533.139 78.277 501.716 78.277 C 488.812 78.277 479.911 77.445 470.017 75.785 L 470.017 62.739 Z " fill="rgb(255,255,255)"/><path d=" M 403.125 10.721 L 388.17 10.721 L 388.17 67.392 L 403.125 67.392 C 426.086 67.392 440.568 57.502 440.568 39.14 C 440.568 20.775 426.085 10.721 403.125 10.721 Z  M 443.269 72.626 C 435.873 75.95 421.878 78.11 409.648 78.11 L 362.9 78.11 L 362.9 0.167 L 409.648 0.167 C 421.878 0.167 435.873 2.327 443.285 5.651 C 461.293 13.794 467.158 26.839 467.158 39.136 C 467.158 51.438 461.341 64.483 443.269 72.626 Z " fill="rgb(255,255,255)"/><line x1="548.773" y1="66.477" x2="548.773" y2="65.397"/></svg>