<?xml version="1.0" standalone="no"?><!-- Generator: Gravit.io --><svg xmlns="http://www.w3.org/2000/svg" xmlns:xlink="http://www.w3.org/1999/xlink" style="isolation:isolate" viewBox="0 0 394.401 116.001" width="394.401" height="116.001"><g id="null"><g id="null"><g id="null"><path d=" M 61.867 0 C 23.2 0 0 30.933 0 58 C 0 85.067 19.333 116 61.867 116 C 96.667 116 123.734 85.067 123.734 58 C 123.734 30.933 100.534 0 61.867 0 Z  M 61.867 96.666 C 42.534 96.666 30.934 85.067 30.934 58 C 30.934 30.933 42.534 19.333 61.867 19.333 C 81.2 19.333 92.801 30.934 92.801 58 C 92.8 85.068 81.2 96.666 61.867 96.666 Z " fill="rgb(255,255,255)"/></g></g><g id="null"><path d=" M 359.602 116 C 317.068 116 290.001 92.8 290.001 58 C 290.001 23.2 313.201 0 351.867 0 C 371.201 0 386.668 11.599 394.401 23.2 C 390.535 30.933 375.068 42.534 375.068 42.534 C 371.201 42.534 367.334 38.666 367.334 38.666 C 367.334 30.933 371.201 19.333 351.867 19.333 C 332.535 19.333 320.933 27.066 320.933 58 C 320.933 81.2 340.267 96.666 359.601 96.666 C 363.467 96.666 371.201 96.666 371.201 96.666 C 375.068 92.8 378.934 88.933 378.934 85.067 C 386.667 85.067 386.667 85.067 386.667 85.067 L 386.667 116 C 386.668 116 375.069 116 359.602 116 Z " fill="rgb(255,255,255)"/></g><g id="null"><g id="null"><path d=" M 228.134 104.4 C 224.268 100.534 204.934 65.734 201.068 61.867 C 212.669 61.867 228.134 50.267 228.134 30.934 C 228.134 11.6 212.668 0.001 197.201 0.001 C 181.734 0.001 150.8 0.001 131.467 0.001 L 131.467 7.734 C 139.2 7.734 139.2 19.333 139.2 19.333 C 139.2 19.333 139.2 96.666 139.2 100.534 C 139.2 104.4 135.333 108.267 131.467 108.267 L 131.467 116 L 172.55 116 C 172.55 116 172.55 113.584 172.55 108.267 C 167.233 108.267 166.267 104.4 166.267 100.534 C 166.267 96.667 166.267 73.468 166.267 65.734 C 170.133 65.734 174 65.734 177.867 69.6 C 181.734 73.467 189.467 96.666 193.333 104.4 C 197.201 112.133 201.067 116.001 204.933 116.001 C 208.8 116.001 220.4 116.001 228.133 116.001 C 235.866 116.001 235.866 108.268 235.866 108.268 C 235.866 108.268 232 108.267 228.134 104.4 Z  M 181.734 50.267 C 174.001 50.267 166.268 50.267 166.268 50.267 C 166.268 34.801 166.268 19.333 166.268 19.333 C 166.268 19.333 174.001 19.333 181.734 19.333 C 189.467 19.333 197.201 23.2 197.201 34.801 C 197.201 46.4 189.467 50.267 181.734 50.267 Z " fill="rgb(255,255,255)"/></g></g><g id="null"><path d=" M 278.401 100.533 C 278.401 104.4 282.268 108.266 286.135 108.266 L 286.135 115.999 L 239.735 115.999 L 239.735 108.266 C 243.602 108.266 247.468 104.4 247.468 100.533 L 247.468 15.467 C 247.468 11.6 243.602 7.734 239.735 7.734 L 239.735 0 L 286.135 0 L 286.135 7.733 C 282.268 7.733 278.401 11.599 278.401 15.466 L 278.401 100.533 Z " fill="rgb(255,255,255)"/></g></g></svg>