<?xml version="1.0" standalone="no"?><!-- Generator: Gravit.io --><svg xmlns="http://www.w3.org/2000/svg" xmlns:xlink="http://www.w3.org/1999/xlink" style="isolation:isolate" viewBox="0 0 545 82" width="545" height="82"><g id="null"><g id="null"><path d=" M 22.875 52.728 C 22.798 52.728 22.719 52.71 22.646 52.675 C 15.14 49.031 11.265 44.785 11.438 40.393 C 11.58 36.777 14.53 33.363 19.972 30.519 C 25.134 27.822 32.416 25.681 41.03 24.329 C 41.318 24.283 41.587 24.479 41.632 24.767 C 41.677 25.053 41.481 25.324 41.194 25.369 C 23.745 28.109 12.747 33.883 12.491 40.436 C 12.338 44.322 16.107 48.332 23.106 51.73 C 23.368 51.857 23.477 52.169 23.35 52.433 C 23.258 52.618 23.071 52.728 22.875 52.728 Z " fill="rgb(255,255,255)"/></g><g id="null"><path d=" M 88.305 25.752 C 88.276 25.752 88.247 25.75 88.219 25.745 C 82.675 24.835 76.822 24.227 70.823 23.941 C 70.532 23.926 70.308 23.68 70.323 23.389 C 70.337 23.099 70.588 22.877 70.873 22.889 C 76.913 23.178 82.806 23.789 88.391 24.706 C 88.677 24.753 88.872 25.024 88.824 25.31 C 88.781 25.569 88.558 25.752 88.305 25.752 Z " fill="rgb(255,255,255)"/></g><g id="null"><path d=" M 71.74 61.694 C 71.593 61.694 71.447 61.694 71.299 61.693 C 71.008 61.692 70.774 61.456 70.775 61.166 C 70.776 60.876 71.01 60.642 71.3 60.642 C 71.301 60.642 71.301 60.642 71.302 60.642 C 71.447 60.642 71.594 60.642 71.74 60.642 C 99.903 60.642 122.125 53.323 122.418 43.913 C 122.521 40.62 119.877 37.28 114.768 34.255 C 109.683 31.24 102.393 28.672 93.689 26.826 C 93.405 26.764 93.224 26.486 93.283 26.202 C 93.343 25.918 93.623 25.737 93.907 25.797 C 102.721 27.665 110.12 30.277 115.304 33.35 C 120.762 36.584 123.585 40.247 123.47 43.947 C 123.314 48.95 117.787 53.511 107.907 56.788 C 98.355 59.954 85.526 61.694 71.74 61.694 Z " fill="rgb(255,255,255)"/></g><path d=" M 81.27 34.297 L 95.163 23.707 L 78.846 30.221 L 74.26 25.448 L 75.722 32.062 L 61.829 42.651 L 78.148 36.135 L 82.732 40.909 L 81.27 34.297 Z " fill="rgb(255,255,255)"/><g id="null"><path d=" M 63.871 47.517 C 64.07 46.538 64.434 46.679 65.428 46.521 L 66.354 46.376 L 66.065 47.918 L 65.14 48.066 C 64.146 48.224 63.708 48.49 63.871 47.517 Z  M 61.865 46.104 L 61.145 49.979 C 60.947 51.038 61.268 51.378 62.286 51.217 L 68.181 50.281 L 69.445 43.485 L 63.55 44.42 C 62.53 44.581 62.06 45.046 61.865 46.104 Z  M 99.289 39.987 L 99.22 40.361 L 105.302 39.397 C 105.782 39.319 106.25 38.834 106.347 38.309 C 106.443 37.785 106.135 37.422 105.654 37.498 L 104.092 37.744 L 101.6 38.141 L 100.969 38.24 C 100.239 38.357 99.437 39.19 99.289 39.987 Z  M 56.624 57.512 L 56.673 57.241 C 56.882 57.257 57.163 57.338 57.407 57.301 L 63.727 56.311 C 63.492 57.571 61.827 57.886 59.285 58.29 L 56.392 58.75 L 54.841 67.09 L 58.641 66.488 C 67.997 65.564 71.557 60.728 72.7 54.964 L 84.101 53.155 L 85.938 43.268 L 86.865 43.121 C 87.881 42.96 87.731 42.775 87.536 43.832 L 85.854 52.876 L 94.039 51.578 L 94.151 50.978 C 94.768 51.25 95.49 51.346 96.255 51.226 L 110.41 48.982 L 111.73 41.876 L 110.813 41.224 C 111.608 40.283 112.228 39.13 112.407 38.163 L 112.63 37.042 C 113.336 32.852 109.472 31.738 107.709 32.019 L 99.586 33.308 C 98.148 33.537 96.563 34.539 95.41 35.868 C 94.344 34.812 92.699 34.402 91.742 34.554 L 82.699 35.989 L 83.711 38.226 L 91.867 36.934 C 93.043 36.746 93.829 37.216 94.044 38.147 C 93.958 38.393 91.867 49.526 91.867 49.526 L 88.942 49.991 L 90.51 41.563 C 90.704 40.507 90.385 40.167 89.369 40.328 L 83.765 41.218 L 81.926 51.104 L 78.711 51.616 L 80.815 40.298 L 78.169 37.176 L 68.643 40.619 L 73.158 39.902 L 73.231 39.892 L 70.36 55.338 C 69.63 59.261 65.443 63.013 61.73 63.604 L 57.93 64.206 L 58.506 61.116 L 61.397 60.658 C 63.938 60.253 66.799 57.711 67.293 55.051 L 67.605 53.377 L 60.078 54.57 C 58.464 54.827 57.588 53.846 57.905 52.141 L 59.255 44.879 C 59.494 43.59 60.299 42.519 61.376 41.961 L 61.395 41.768 L 65.171 38.862 L 62.965 39.232 C 61.792 39.418 59.615 40.297 58.232 42.062 C 57.186 40.815 55.357 40.326 54.327 40.489 L 46.214 41.778 L 47.536 34.671 L 53.455 33.733 C 56.606 33.234 60.093 29.69 60.712 26.361 L 61.602 21.573 C 62.222 18.241 59.879 15.623 56.728 16.123 L 43.792 18.175 L 41.035 33.004 L 29.123 34.896 C 28.115 35.055 27.134 36.05 26.937 37.116 L 22.485 61.058 C 22.287 62.124 22.944 62.859 23.953 62.701 L 46.682 59.094 L 48.521 49.208 L 49.446 49.061 C 50.465 48.901 50.315 48.718 50.117 49.774 L 48.436 58.817 L 56.624 57.512 Z  M 39.758 52.091 L 32.158 53.297 L 32.444 51.754 L 38.582 50.777 L 40.076 42.745 L 33.937 43.72 L 34.223 42.175 L 41.823 40.969 L 39.758 52.091 Z  M 39.298 54.563 L 38.667 57.96 L 25.22 60.094 L 29.411 37.54 L 40.52 35.777 L 39.945 38.867 L 32.052 40.121 L 30.847 46.608 L 37.277 45.588 L 36.703 48.676 L 30.272 49.696 L 29.064 56.186 L 39.298 54.563 Z  M 54.744 55.412 L 51.528 55.921 L 53.095 47.494 C 53.292 46.438 52.972 46.097 51.954 46.257 L 46.35 47.147 L 44.514 57.034 L 41.297 57.545 L 43.709 44.569 L 43.784 44.557 L 54.453 42.866 C 56.067 42.608 56.943 43.588 56.625 45.295 L 54.744 55.412 Z  M 75.645 39.502 L 78.789 39.004 L 76.376 51.98 L 73.161 52.49 L 75.571 39.516 L 75.645 39.502 Z  M 95.148 45.617 L 96.264 39.615 C 96.618 37.716 98.658 35.852 100.396 35.576 L 107.916 34.385 C 109.183 34.183 110.063 35.598 109.805 36.984 L 109.436 38.915 C 109.177 40.301 107.763 41.772 106.497 41.973 L 98.691 43.213 L 98.579 43.914 C 98.431 44.71 98.959 45.333 99.69 45.216 L 108.414 43.827 L 107.826 46.993 L 97.984 48.553 C 96.245 48.827 94.797 47.517 95.148 45.617 Z  M 48.627 28.796 L 49.718 22.925 L 53.81 22.278 C 54.347 22.193 54.621 22.499 54.514 23.064 L 53.768 27.083 C 53.661 27.65 53.255 28.062 52.718 28.148 L 48.627 28.796 Z " fill="rgb(255,255,255)"/><g id="null"><path d=" M 74.785 31.542 L 73.916 28.102 L 73.427 28.162 L 73.269 29.01 C 73.16 29.599 72.687 30.077 72.131 30.167 L 68.769 30.699 C 68.214 30.788 67.896 30.432 68.006 29.845 L 69.7 20.731 C 69.809 20.145 70.282 19.666 70.836 19.578 L 74.2 19.045 C 74.755 18.957 75.072 19.312 74.962 19.898 L 74.746 21.058 L 81.543 19.978 L 81.802 18.589 C 82.453 15.082 80.069 12.417 76.75 12.943 L 70.247 13.974 C 66.93 14.501 63.379 18.109 62.728 21.615 L 60.919 31.345 C 60.268 34.853 62.651 37.518 65.97 36.991 L 68.144 36.648 L 74.785 31.542 Z " fill="rgb(255,255,255)"/><path d=" M 79.603 29.466 C 79.78 28.989 79.903 28.808 79.994 28.32 L 80.225 27.082 L 77.52 27.512 L 79.603 29.466 Z " fill="rgb(255,255,255)"/></g></g></g><g id="null"><g id="null"><path d=" M 195.345 61.031 C 195.345 61.031 173.248 61.031 159.831 61.031 C 147.993 61.031 140.101 53.073 140.101 45.247 C 140.101 37.421 147.993 29.463 159.831 29.463 C 168.775 29.463 181.929 29.463 195.345 29.463 L 195.345 21.57 C 195.345 21.57 173.248 21.57 159.831 21.57 C 144.047 21.57 132.209 31.83 132.209 45.247 C 132.209 58.663 144.047 68.923 159.831 68.923 C 177.719 68.923 195.345 68.923 195.345 68.923 L 195.345 61.031 Z " fill="rgb(255,255,255)"/></g><g id="null"><g id="null"><path d=" M 403.607 21.57 L 379.931 21.57 C 364.146 21.57 352.309 31.83 352.309 45.247 C 352.309 58.663 364.146 68.923 379.931 68.923 L 403.607 68.923 C 419.391 68.923 431.228 58.663 431.228 45.247 C 431.228 31.83 419.391 21.57 403.607 21.57 Z  M 403.607 61.031 L 379.931 61.031 C 368.093 61.031 360.201 53.073 360.201 45.247 C 360.201 37.421 368.094 29.463 379.931 29.463 L 403.607 29.463 C 415.445 29.463 423.336 37.421 423.336 45.247 C 423.336 53.073 415.445 61.031 403.607 61.031 Z " fill="rgb(255,255,255)"/></g></g><g id="null"><g id="null"><path d=" M 238.752 21.57 C 220.863 21.57 203.237 21.57 203.237 21.57 L 203.237 68.923 C 203.237 68.923 225.335 68.923 238.752 68.923 C 254.536 68.923 266.373 58.663 266.373 45.247 C 266.373 31.83 254.536 21.57 238.752 21.57 Z  M 238.752 61.031 C 231.492 61.031 222.805 61.031 211.13 61.031 L 211.13 29.463 C 219.899 29.463 230.024 29.463 238.752 29.463 C 250.59 29.463 258.481 37.421 258.481 45.247 C 258.481 53.073 250.59 61.031 238.752 61.031 Z " fill="rgb(255,255,255)"/></g></g><g id="null"><g id="null"><path d=" M 337.401 45.247 C 341.347 45.247 345.294 39.547 345.294 35.601 C 345.294 27.709 341.348 21.571 333.455 21.571 C 325.564 21.571 286.103 21.571 286.103 21.571 L 286.103 68.924 L 293.996 68.924 L 293.996 49.194 C 305.834 49.194 325.564 49.194 329.51 49.194 C 333.456 49.194 337.402 53.141 337.402 57.087 C 337.402 61.033 337.402 68.925 337.402 68.925 L 345.295 68.925 C 345.295 68.925 345.295 64.98 345.295 57.087 C 345.295 49.194 337.401 45.247 337.401 45.247 Z  M 329.51 41.301 C 321.618 41.301 293.996 41.301 293.996 41.301 L 293.996 29.463 C 293.996 29.463 321.618 29.463 329.51 29.463 C 333.455 29.463 337.402 31.655 337.402 35.601 C 337.401 39.547 333.455 41.301 329.51 41.301 Z " fill="rgb(255,255,255)"/></g></g><g id="null"><path d=" M 274.924 49.192 C 272.744 49.192 270.978 47.425 270.978 45.247 C 270.978 43.069 272.745 41.301 274.924 41.301 L 277.883 41.301 C 280.063 41.301 281.829 43.069 281.829 45.247 C 281.829 47.425 280.062 49.192 277.883 49.192 L 274.924 49.192 Z " fill="rgb(255,255,255)"/></g><g id="null"><path d=" M 466.744 29.463 L 466.744 68.923 L 474.636 68.923 L 474.636 29.463 L 482.529 29.463 C 486.474 29.463 494.366 29.463 494.366 37.355 C 494.366 45.248 494.366 68.923 494.366 68.923 L 502.259 68.923 L 502.259 33.409 C 502.259 25.516 494.366 21.57 486.475 21.57 C 482.53 21.57 458.853 21.57 454.907 21.57 C 447.014 21.57 439.123 25.516 439.123 33.409 C 439.123 41.301 439.123 57.085 439.123 68.923 L 447.015 68.923 C 447.015 68.923 447.015 45.247 447.015 37.355 C 447.015 29.463 454.908 29.463 458.854 29.463 L 466.744 29.463 Z " fill="rgb(255,255,255)"/></g><g id="null"><path d=" M 522.795 28.236 C 522.795 28.236 521.849 28.236 525.732 28.236 C 530.991 28.236 534.794 25.551 534.794 19.51 C 534.794 15.627 532.334 11.12 527.028 11.12 C 523.144 11.12 514.514 11.12 510.631 11.12 L 510.631 17.16 C 510.631 17.16 518.645 17.16 522.527 17.16 C 524.223 17.16 526.125 17.441 526.125 19.51 C 526.125 21.468 524.613 22.195 522.863 22.195 L 517.947 22.195 C 509.12 22.195 508.051 28.494 508.051 33.414 L 508.051 37.298 L 534.356 37.298 L 534.356 30.819 L 516.852 30.819 C 516.85 27.799 520.206 28.236 522.795 28.236 Z " fill="rgb(255,255,255)"/></g></g></svg>