<?xml version="1.0" standalone="no"?><!-- Generator: Gravit.io --><svg xmlns="http://www.w3.org/2000/svg" xmlns:xlink="http://www.w3.org/1999/xlink" style="isolation:isolate" viewBox="0 0 566.938 274.332" width="566.938" height="274.332"><g id="null"><path d=" M 57.9 201.665 C 57.51 201.665 57.113 201.577 56.739 201.394 C 18.76 182.96 -0.85 161.472 0.028 139.247 C 0.742 120.951 15.673 103.677 43.205 89.288 C 69.328 75.638 106.174 64.806 149.762 57.958 C 151.216 57.731 152.577 58.724 152.805 60.176 C 153.034 61.628 152.041 62.989 150.588 63.219 C 62.295 77.085 6.644 106.298 5.35 139.458 C 4.573 159.119 23.649 179.415 59.065 196.604 C 60.388 197.248 60.94 198.835 60.298 200.164 C 59.836 201.112 58.888 201.665 57.9 201.665 Z " fill="rgb(255,255,255)"/></g><g id="null"><path d=" M 388.979 65.167 C 388.834 65.167 388.69 65.156 388.543 65.132 C 360.486 60.526 330.873 57.451 300.52 55.999 C 299.049 55.93 297.916 54.682 297.987 53.212 C 298.057 51.744 299.328 50.623 300.774 50.681 C 331.332 52.144 361.153 55.238 389.41 59.877 C 390.858 60.115 391.844 61.484 391.604 62.937 C 391.388 64.242 390.261 65.167 388.979 65.167 Z " fill="rgb(255,255,255)"/></g><g id="null"><path d=" M 305.16 247.033 C 304.414 247.033 303.674 247.033 302.928 247.03 C 301.457 247.027 300.273 245.832 300.277 244.36 C 300.281 242.892 301.467 241.707 302.935 241.707 C 302.939 241.707 302.943 241.707 302.947 241.707 C 303.678 241.709 304.426 241.709 305.162 241.709 C 447.666 241.711 560.115 204.669 561.598 157.063 C 562.119 140.404 548.736 123.502 522.889 108.19 C 497.154 92.939 460.27 79.94 416.229 70.601 C 414.791 70.295 413.873 68.881 414.176 67.444 C 414.479 66.005 415.897 65.09 417.334 65.392 C 461.934 74.851 499.373 88.066 525.604 103.609 C 553.219 119.973 567.506 138.515 566.92 157.229 C 566.133 182.545 538.166 205.624 488.172 222.203 C 439.834 238.231 374.916 247.033 305.16 247.033 Z " fill="rgb(255,255,255)"/></g><path d=" M 353.382 108.404 L 423.681 54.818 L 341.114 87.776 L 317.91 63.624 L 325.308 97.091 L 255.009 150.675 L 337.58 117.708 L 360.78 141.861 L 353.382 108.404 Z " fill="rgb(255,255,255)"/><g id="null"><path d=" M 265.343 175.296 C 266.351 170.335 268.189 171.056 273.22 170.257 L 277.903 169.519 L 276.445 177.328 L 271.762 178.076 C 266.731 178.874 264.516 180.22 265.343 175.296 Z  M 255.19 168.148 L 251.545 187.754 C 250.547 193.108 252.165 194.832 257.317 194.017 L 287.148 189.285 L 293.542 154.899 L 263.709 159.624 C 258.555 160.441 256.179 162.796 255.19 168.148 Z  M 444.558 137.198 L 444.21 139.094 L 474.98 134.209 C 477.409 133.819 479.776 131.364 480.271 128.709 C 480.757 126.056 479.196 124.217 476.765 124.605 L 468.862 125.853 L 456.253 127.86 L 453.058 128.36 C 449.363 128.951 445.308 133.165 444.558 137.198 Z  M 228.671 225.867 L 228.921 224.5 C 229.979 224.58 231.397 224.989 232.635 224.804 L 264.615 219.788 C 263.427 226.168 255 227.767 242.14 229.805 L 227.503 232.13 L 219.655 274.332 L 238.885 271.285 C 286.23 266.612 304.242 242.142 310.023 212.972 L 367.711 203.817 L 377.006 153.796 L 381.698 153.046 C 386.84 152.231 386.082 151.3 385.094 156.643 L 376.586 202.412 L 418.002 195.84 L 418.569 192.807 C 421.695 194.185 425.348 194.672 429.215 194.065 L 500.84 182.704 L 507.52 146.751 L 502.877 143.445 C 506.9 138.682 510.035 132.852 510.943 127.96 L 512.072 122.29 C 515.645 101.083 496.094 95.452 487.172 96.87 L 446.068 103.391 C 438.789 104.547 430.773 109.62 424.941 116.34 C 419.547 110.998 411.221 108.922 406.379 109.691 L 360.619 116.95 L 365.742 128.272 L 407.012 121.732 C 412.963 120.784 416.94 123.16 418.03 127.872 C 417.592 129.12 407.012 185.451 407.012 185.451 L 392.215 187.8 L 400.149 145.155 C 401.131 139.814 399.516 138.087 394.378 138.905 L 366.021 143.408 L 356.718 193.429 L 340.452 196.018 L 351.097 138.747 L 337.706 122.951 L 289.503 140.376 L 312.349 136.751 L 312.718 136.7 L 298.191 214.856 C 294.499 234.71 273.313 253.695 254.522 256.679 L 235.293 259.726 L 238.209 244.085 L 252.836 241.772 C 265.695 239.725 280.172 226.856 282.669 213.397 L 284.247 204.929 L 246.157 210.97 C 237.99 212.268 233.557 207.306 235.164 198.679 L 241.994 161.937 C 243.202 155.408 247.276 149.987 252.727 147.169 L 252.817 146.19 L 271.926 131.483 L 260.763 133.36 C 254.823 134.298 243.81 138.752 236.812 147.677 C 231.52 141.364 222.265 138.891 217.053 139.718 L 175.998 146.239 L 182.688 110.276 L 212.641 105.524 C 228.585 102.998 246.227 85.066 249.362 68.223 L 253.865 43.991 C 257 27.137 245.149 13.888 229.204 16.415 L 163.747 26.799 L 149.799 101.84 L 89.524 111.405 C 84.422 112.215 79.46 117.246 78.462 122.636 L 55.935 243.79 C 54.936 249.184 58.261 252.903 63.364 252.1 L 178.372 233.848 L 187.677 183.827 L 192.359 183.079 C 197.511 182.27 196.752 181.344 195.754 186.683 L 187.248 232.44 L 228.671 225.867 L 228.671 225.867 Z  M 143.328 198.441 L 104.869 204.542 L 106.317 196.734 L 137.378 191.797 L 144.936 151.151 L 113.875 156.086 L 115.322 148.271 L 153.781 142.168 L 143.328 198.441 L 143.328 198.441 Z  M 141.001 210.951 L 137.806 228.143 L 69.764 238.937 L 90.971 124.817 L 147.182 115.901 L 144.276 131.536 L 104.339 137.878 L 98.239 170.706 L 130.778 165.544 L 127.873 181.171 L 95.334 186.333 L 89.224 219.169 L 141.001 210.951 L 141.001 210.951 Z  M 219.157 215.247 L 202.883 217.818 L 210.81 175.186 C 211.809 169.842 210.191 168.108 205.039 168.924 L 176.684 173.428 L 167.39 223.449 L 151.115 226.035 L 163.316 160.383 L 163.695 160.32 L 217.679 151.757 C 225.846 150.458 230.279 155.409 228.672 164.046 L 219.157 215.247 L 219.157 215.247 Z  M 324.918 134.741 L 340.823 132.225 L 328.612 197.877 L 312.346 200.455 L 324.545 134.809 L 324.918 134.741 L 324.918 134.741 Z  M 423.603 165.684 L 429.251 135.312 C 431.042 125.708 441.364 116.272 450.159 114.874 L 488.208 108.845 C 494.62 107.824 499.073 114.985 497.765 121.992 L 495.899 131.766 C 494.589 138.775 487.431 146.224 481.024 147.242 L 441.526 153.513 L 440.958 157.058 C 440.208 161.089 442.884 164.238 446.579 163.649 L 490.726 156.619 L 487.751 172.639 L 437.95 180.535 C 429.154 181.927 421.826 175.296 423.603 165.684 Z  M 188.206 80.568 L 193.728 50.865 L 214.435 47.58 C 217.151 47.15 218.539 48.699 217.999 51.563 L 214.225 71.892 C 213.685 74.767 211.629 76.853 208.913 77.283 L 188.206 80.568 L 188.206 80.568 Z " fill="rgb(255,255,255)"/><g id="null"><path d=" M 320.565 94.466 L 316.17 77.054 L 313.691 77.353 L 312.894 81.646 C 312.343 84.623 309.951 87.046 307.142 87.498 L 290.127 90.193 C 287.319 90.642 285.713 88.845 286.265 85.87 L 294.84 39.753 C 295.39 36.788 297.783 34.361 300.588 33.912 L 317.607 31.217 C 320.414 30.769 322.019 32.566 321.465 35.53 L 320.367 41.4 L 354.763 35.938 L 356.07 28.909 C 359.366 11.168 347.304 -2.32 330.509 0.335 L 297.603 5.558 C 280.82 8.224 262.849 26.475 259.555 44.216 L 250.401 93.459 C 247.106 111.2 259.167 124.688 275.961 122.023 L 286.961 120.286 L 320.565 94.466 L 320.565 94.466 Z " fill="rgb(255,255,255)"/><path d=" M 344.946 83.962 C 345.844 81.546 346.465 80.628 346.925 78.15 L 348.093 71.89 L 334.405 74.066 L 344.946 83.962 L 344.946 83.962 Z " fill="rgb(255,255,255)"/></g></g></svg>