<?xml version="1.0" standalone="no"?><!-- Generator: Gravit.io --><svg xmlns="http://www.w3.org/2000/svg" xmlns:xlink="http://www.w3.org/1999/xlink" style="isolation:isolate" viewBox="0 0 566.929 150.848" width="566.929" height="150.848"><g id="null"><g id="null"><path d=" M 79.797 76.046 C 88.113 66.325 100.461 60.161 114.254 60.161 C 117.021 60.161 119.728 60.423 122.357 60.894 C 124.131 56.043 125.099 50.803 125.099 45.337 C 125.098 20.299 104.794 0 79.755 0 C 54.712 0 34.413 20.299 34.413 45.341 C 34.413 50.814 35.388 56.057 37.164 60.911 C 39.818 60.428 42.548 60.161 45.343 60.161 C 59.136 60.163 71.48 66.328 79.797 76.046 Z  M 122.356 60.898 C 116.914 75.795 103.88 87.029 87.941 89.94 C 89.715 94.794 90.685 100.04 90.685 105.503 C 90.685 116.754 86.58 127.036 79.799 134.959 C 88.114 144.68 100.46 150.848 114.253 150.848 C 139.296 150.848 159.596 130.547 159.596 105.503 C 159.596 83.229 143.531 64.72 122.356 60.898 Z  M 71.654 89.949 C 55.681 87.064 42.619 75.82 37.164 60.913 C 16.029 64.764 0 83.257 0 105.503 C 0 130.547 20.302 150.848 45.342 150.848 C 59.136 150.848 71.482 144.68 79.798 134.962 C 73.018 127.036 68.913 116.754 68.913 105.506 C 68.914 100.039 69.882 94.799 71.654 89.949 Z  M 71.654 89.949 C 74.284 90.425 76.988 90.679 79.756 90.679 C 82.552 90.679 85.286 90.42 87.942 89.937 C 86.067 84.802 83.283 80.119 79.798 76.042 C 76.311 80.119 73.529 84.817 71.654 89.949 Z " fill="rgb(255,255,255)"/></g></g><g id="null"><path d=" M 253.196 55.925 C 253.196 64.828 250.172 71.654 244.124 76.401 C 238.076 81.147 229.509 83.52 218.421 83.52 L 204.184 83.52 L 204.184 121.57 L 197.758 121.57 L 197.758 29.466 L 220.311 29.466 C 242.235 29.466 253.196 38.285 253.196 55.925 Z  M 204.184 77.975 L 216.847 77.975 C 227.22 77.975 234.717 76.264 239.337 72.84 C 243.956 69.417 246.266 63.861 246.266 56.177 C 246.266 49.08 244.082 43.82 239.715 40.396 C 235.346 36.974 228.585 35.262 219.429 35.262 L 204.184 35.262 L 204.184 77.975 L 204.184 77.975 L 204.184 77.975 Z " fill="rgb(255,255,255)"/><path d=" M 350.654 75.392 C 350.654 90.008 347.002 101.569 339.693 110.074 C 332.382 118.582 322.304 122.834 309.455 122.834 C 296.643 122.834 286.586 118.582 279.277 110.074 C 271.969 101.569 268.316 89.97 268.316 75.266 C 268.316 60.61 272.002 49.07 279.372 40.648 C 286.744 32.228 296.812 28.017 309.58 28.017 C 322.434 28.017 332.49 32.249 339.758 40.711 C 347.021 49.175 350.654 60.735 350.654 75.392 Z  M 275.309 75.392 C 275.309 88.58 278.248 98.773 284.128 105.979 C 290.007 113.181 298.45 116.785 309.454 116.785 C 320.542 116.785 329.015 113.218 334.874 106.074 C 340.728 98.933 343.661 88.711 343.661 75.392 C 343.661 62.121 340.727 51.949 334.874 44.871 C 329.015 37.794 320.583 34.256 309.579 34.256 C 298.618 34.256 290.165 37.825 284.224 44.966 C 278.28 52.104 275.309 62.248 275.309 75.392 Z " fill="rgb(255,255,255)"/><path d=" M 378.248 81.44 L 378.248 121.57 L 371.82 121.57 L 371.82 29.466 L 393.744 29.466 C 405.17 29.466 413.613 31.576 419.074 35.797 C 424.533 40.018 427.262 46.371 427.262 54.854 C 427.262 61.029 425.635 66.237 422.381 70.478 C 419.125 74.721 414.186 77.766 407.545 79.616 L 432.555 121.571 L 424.871 121.571 L 401.115 81.44 L 378.248 81.44 L 378.248 81.44 L 378.248 81.44 Z  M 378.248 75.896 L 395.824 75.896 C 403.594 75.896 409.621 74.167 413.906 70.701 C 418.191 67.234 420.334 62.124 420.334 55.359 C 420.334 48.345 418.232 43.245 414.035 40.05 C 409.834 36.86 402.984 35.262 393.492 35.262 L 378.248 35.262 L 378.248 75.896 L 378.248 75.896 Z " fill="rgb(255,255,255)"/><path d=" M 472.494 121.57 L 466.006 121.57 L 466.006 35.514 L 436.08 35.514 L 436.08 29.466 L 502.418 29.466 L 502.418 35.514 L 472.494 35.514 L 472.494 121.57 L 472.494 121.57 L 472.494 121.57 Z " fill="rgb(255,255,255)"/><path d=" M 566.929 97.819 C 566.929 105.507 564.103 111.596 558.452 116.09 C 552.804 120.583 545.298 122.83 535.931 122.83 C 524.675 122.83 516.044 121.59 510.038 119.109 L 510.038 112.683 C 516.675 115.497 525.136 116.907 535.425 116.907 C 542.988 116.907 548.982 115.175 553.413 111.712 C 557.843 108.245 560.058 103.698 560.058 98.068 C 560.058 94.587 559.324 91.696 557.849 89.408 C 556.382 87.121 553.99 85.029 550.671 83.138 C 547.351 81.247 542.483 79.209 536.054 77.027 C 526.648 73.797 520.15 70.298 516.556 66.542 C 512.964 62.783 511.169 57.771 511.169 51.516 C 511.169 44.629 513.866 39.012 519.267 34.665 C 524.663 30.315 531.601 28.144 540.085 28.144 C 548.737 28.144 556.862 29.784 564.466 33.057 L 562.134 38.601 C 554.489 35.412 547.183 33.813 540.212 33.813 C 533.409 33.813 527.991 35.389 523.96 38.542 C 519.925 41.689 517.911 45.976 517.911 51.394 C 517.911 54.795 518.528 57.589 519.765 59.773 C 521.003 61.96 523.035 63.92 525.843 65.666 C 528.657 67.406 533.489 69.498 540.333 71.935 C 547.515 74.414 552.911 76.816 556.524 79.148 C 560.128 81.478 562.766 84.127 564.424 87.086 C 566.097 90.04 566.929 93.619 566.929 97.819 Z " fill="rgb(255,255,255)"/></g></svg>