<?xml version="1.0" encoding="UTF-8" standalone="no"?>
<!-- Generator: Adobe Illustrator 13.0.0, SVG Export Plug-In . SVG Version: 6.00 Build 14948)  -->

<svg
   xmlns:dc="http://purl.org/dc/elements/1.1/"
   xmlns:cc="http://creativecommons.org/ns#"
   xmlns:rdf="http://www.w3.org/1999/02/22-rdf-syntax-ns#"
   xmlns:svg="http://www.w3.org/2000/svg"
   xmlns="http://www.w3.org/2000/svg"
   xmlns:sodipodi="http://sodipodi.sourceforge.net/DTD/sodipodi-0.dtd"
   xmlns:inkscape="http://www.inkscape.org/namespaces/inkscape"
   version="1.1"
   id="Layer_2"
   x="0px"
   y="0px"
   width="568.929px"
   height="116.145px"
   viewBox="-1 -1 568.929 116.145"
   enable-background="new -1 -1 568.929 116.145"
   xml:space="preserve"
   inkscape:version="0.91 r13725"
   sodipodi:docname="system.svg"><metadata
     id="metadata95"><rdf:RDF><cc:Work
         rdf:about=""><dc:format>image/svg+xml</dc:format><dc:type
           rdf:resource="http://purl.org/dc/dcmitype/StillImage" /><dc:title></dc:title></cc:Work></rdf:RDF></metadata><defs
     id="defs93" /><sodipodi:namedview
     pagecolor="#ffffff"
     bordercolor="#666666"
     borderopacity="1"
     objecttolerance="10"
     gridtolerance="10"
     guidetolerance="10"
     inkscape:pageopacity="0"
     inkscape:pageshadow="2"
     inkscape:window-width="640"
     inkscape:window-height="480"
     id="namedview91"
     showgrid="false"
     inkscape:zoom="0.9333326"
     inkscape:cx="126.42867"
     inkscape:cy="58.072498"
     inkscape:current-layer="Layer_2" /><g
     id="g5"
     style="fill:#ffffff;fill-opacity:1"><g
       id="g7"
       style="fill:#ffffff;fill-opacity:1"><path
         fill="#DBBD3B"
         d="M110.903,77.172c-3.131-4.412,1.85-7.685,6.831-12.381c4.98-4.697,5.977-19.497-3.558-26.755    s-31.024-8.397-39.421-7.4c-8.396,0.996-8.396,6.689-7.685,14.089c0.712,7.4,0.657,20.912-0.285,50.094    c-0.285,8.823,5.266,6.974,11.243,7.116c5.977,0.142,7.542-1.566,7.685-5.55c0.142-3.985,1.281-9.82,5.55-10.104    c4.269-0.285,6.689,5.407,8.823,10.673c2.135,5.266,5.266,4.981,17.505,4.554C129.831,101.08,114.034,81.583,110.903,77.172z     M91.691,65.218c-7.685-0.285-7.827-6.405-7.685-8.824s2.704-8.823,7.116-8.681c4.27,0,6.974,1.281,8.396,5.692    C100.941,57.817,99.376,65.502,91.691,65.218z"
         id="path9"
         style="fill:#ffffff;fill-opacity:1" /></g></g><g
     id="g11"
     style="fill:#ffffff;fill-opacity:1"><g
       id="g13"
       style="fill:#ffffff;fill-opacity:1"><path
         fill="#DBBD3B"
         d="M163.559,84.003c-2.277-3.559-8.112-1.708-16.224,1.281c-3.843,1.28-5.978,1.992-6.832,0.427    c-0.853-1.565,3.558-3.273,10.105-5.267c6.546-1.992,13.662-5.834,14.374-11.953c0.711-6.12-5.265-14.374-19.924-14.943    c-14.658-0.569-20.778,11.527-23.055,18.216c-2.276,6.688,0.427,19.64,8.54,25.617c8.112,5.977,17.931,3.415,27.039-1.139    C166.69,91.688,165.836,87.561,163.559,84.003z M138.37,73.045c-2.277-3.842,0-7.4,2.703-9.108    c2.704-1.708,7.828-1.423,9.251,1.565c1.422,2.989,0,6.547-3.131,7.97C144.062,74.895,139.508,74.895,138.37,73.045z"
         id="path15"
         style="fill:#ffffff;fill-opacity:1" /></g></g><path
     fill="#DBBD3B"
     d="M195.438,69.061c4.82,3.686,10.531,4.554,11.955,2.419c1.423-2.135,2.846-7.97-2.135-11.955  c-4.98-3.985-15.369-5.977-23.909-3.131c-8.539,2.847-12.523,10.104-10.815,16.082c1.707,5.977,10.962,8.671,13.946,10.104  c3.558,1.707,5.124,2.988,4.27,4.27c-0.854,1.28-4.127-0.285-7.259-1.708c-3.13-1.424-8.112-3.7-10.104-0.996  c-1.992,2.704-3.7,8.538,3.415,12.666c7.116,4.126,16.793,5.977,25.048,2.276c8.254-3.7,9.108-10.674,7.257-15.37  c-1.85-4.696-8.254-7.826-12.239-10.246c-3.984-2.42-7.116-3.416-6.404-5.123C189.176,66.641,193.018,67.21,195.438,69.061z"
     id="path17"
     style="fill:#ffffff;fill-opacity:1" /><path
     fill="#DBBD3B"
     d="M213.226,65.645c-0.854-3.273,1.851-7.828,6.832-8.255c4.98-0.427,8.823,3.131,8.538,7.116  c-0.284,3.985-1.85,12.809-1.85,18.643c0,5.835,1.708,10.816,1.565,13.805s-3.559,5.408-7.97,5.408c-4.412,0-7.97-0.143-8.254-5.692  c-0.285-5.551,1.281-14.089,1.565-18.786C213.938,73.187,213.369,68.491,213.226,65.645z"
     id="path19"
     style="fill:#ffffff;fill-opacity:1" /><ellipse
     fill="#DBBD3B"
     cx="221.125"
     cy="45.863"
     rx="8.752"
     ry="8.112"
     id="ellipse21"
     style="fill:#ffffff;fill-opacity:1" /><g
     id="g23"
     style="fill:#ffffff;fill-opacity:1"><g
       id="g25"
       style="fill:#ffffff;fill-opacity:1"><path
         fill="#DBBD3B"
         d="M274.279,71.764c0.143-8.823,2.135-21.632,2.135-30.74s-4.98-10.673-9.393-10.247    c-4.412,0.427-5.551,5.408-4.696,11.812c0,9.82-2.419,8.396-5.266,8.539c-19.497,1.281-22.913,11.669-25.331,20.92    c-2.42,9.25,0.853,18.073,6.403,24.336c5.55,6.261,21.063,5.977,22.201,4.695c1.138-1.281,2.419-3.131,4.127-1.139    c1.708,1.993,5.266,2.277,7.827,0.712s3.7-5.692,2.846-8.396C274.279,89.553,274.136,80.587,274.279,71.764z M252.363,85.426    c-4.087,0-7.4-4.078-7.4-9.107c0-5.031,3.313-9.108,7.4-9.108s7.4,4.077,7.4,9.108C259.763,81.348,256.45,85.426,252.363,85.426z"
         id="path27"
         style="fill:#ffffff;fill-opacity:1" /></g></g><path
     fill="#DBBD3B"
     d="M279.403,84.146c0.284-21.489,0.284-21.063,0.284-23.767c0-2.705,4.411-7.827,8.823-8.254  c4.411-0.427,8.539-0.854,8.539,5.692s-0.285,19.355-0.285,21.774c0,2.42,4.127,5.835,4.554,0.284  c0.428-5.55,0.428-18.927,0.569-22.627c0.143-3.7,3.842-5.265,7.685-5.408c3.843-0.142,9.393,1.423,8.396,7.827  c-0.996,6.404-0.996,12.666-0.996,18.073c0,5.408,1.992,12.809,1.565,17.506c-0.427,4.695-3.7,6.973-7.115,6.83  c-3.416-0.142-5.835-1.992-7.115-2.419c-1.281-0.427-8.966,4.839-16.081,0.142C281.11,95.104,279.118,89.268,279.403,84.146z"
     id="path29"
     style="fill:#ffffff;fill-opacity:1" /><g
     id="g31"
     style="fill:#ffffff;fill-opacity:1"><g
       id="g33"
       style="fill:#ffffff;fill-opacity:1"><path
         fill="#DBBD3B"
         d="M360.378,88.557c-1.52-9.115-0.854-15.085-0.285-21.631c0.569-6.547-2.277-10.675-8.254-12.951    c-5.978-2.277-18.358-0.142-22.771,5.266c-4.411,5.408-7.542,16.082-6.688,22.771c0.854,6.688,1.281,15.37,12.238,19.069    c10.959,3.7,11.955-2.419,14.374-2.562c2.42-0.143,3.7,3.131,6.546,3.273c2.847,0.143,5.979-2.847,6.689-5.835    C362.94,92.969,360.805,91.118,360.378,88.557z M342.02,85.995c-3.853,0-6.974-4.174-6.974-9.321c0-5.148,3.121-9.321,6.974-9.321    c3.851,0,6.973,4.173,6.973,9.321C348.993,81.822,345.871,85.995,342.02,85.995z"
         id="path35"
         style="fill:#ffffff;fill-opacity:1" /></g></g><path
     fill="#9A5F1B"
     d="M385.853,30.493c-3.132-8.824,8.396-17.22,13.804-5.978c5.408,11.243,21.347,41.699,23.624,45.115  c2.277,3.415,4.98,2.987,4.554-4.555c-0.427-7.543,0.427-43.264,0.427-46.537s3.131-7.685,8.682-7.827  c5.55-0.143,8.682,3.273,7.97,11.385c-0.712,8.112-2.135,54.222-2.847,65.892c-0.712,11.669-14.517,25.758-25.475,6.261  C405.634,74.753,388.414,36.613,385.853,30.493z"
     id="path37"
     style="fill:#ffffff;fill-opacity:1" /><path
     fill="#9A5F1B"
     d="M450.605,34.763c-1.139-9.678,2.419-13.378,6.119-13.805c3.7-0.427,17.505,14.374,25.189,27.182  c4.412,6.404,5.55,8.396,6.831-1.708c1.281-10.104,5.692-24.051,7.827-28.463s12.239-10.389,14.516,2.846  c2.277,13.236,11.813,50.665,12.809,57.21c0.996,6.547,2.277,13.235-2.135,14.801s-11.67,3.985-13.805-5.123  c-2.134-9.108-4.554-32.875-5.407-34.583c-0.854-1.708-2.135-0.711-2.562,3.7c-0.428,4.412-1.993,20.778-2.563,23.909  s-7.685,10.246-13.377-0.569S473.09,60.379,471.81,58.955c-1.281-1.423-1.851,0.854-1.424,3.985s3.559,16.081,6.546,23.197  c2.989,7.115,2.704,15.654-3.272,17.22c-5.978,1.565-10.389,2.135-13.235-13.521C457.578,74.184,451.601,43.017,450.605,34.763z"
     id="path39"
     style="fill:#ffffff;fill-opacity:1" /><path
     fill="#DBBD3B"
     d="M364.173,40.313c0-4.649,2.751-7.306,7.21-7.211c4.46,0.096,11.292,0.475,10.911,6.927  c-0.38,6.451-1.233,30.265-1.043,39.279c0.189,9.014,0.379,15.37,0.379,17.837c0,2.466-2.087,4.174-6.641,4.174  s-9.108,1.328-9.583-4.839c-0.475-6.166,0.285-23.813,0.285-31.024C365.692,58.244,364.079,44.771,364.173,40.313z"
     id="path41"
     style="fill:#ffffff;fill-opacity:1" /><path
     fill="#FFF8B6"
     d="M68.431,52.027c-0.731-7.158-0.649-13.542,0.812-16.154c1.46-2.612,5.112-5.61,16.556-4.353  s20.127,2.708,28.162,6.771c-11.281-3.771-29.542-4.933-36.197-4.353C71.109,34.519,68.918,36.357,68.431,52.027z"
     id="path43"
     style="fill:#ffffff;fill-opacity:1" /><path
     fill="#F9D84B"
     d="M100.538,57.343c-0.782,4.412-2.134,7.258-5.337,8.254c-3.202,0.996-8.183-0.214-9.606-1.779  c2.206,3.06,7.756,3.345,11.101,2.419C100.041,65.312,100.396,58.837,100.538,57.343z"
     id="path45"
     style="fill:#ffffff;fill-opacity:1" /><path
     fill="#FFF8B6"
     d="M123.806,69.155c5.479-9.464,9.251-12.453,13.52-13.876c4.27-1.422,8.112-1.422,15.725,0.214  c-8.254-0.64-14.942,0.142-18.216,2.206C131.563,59.762,125.229,67.02,123.806,69.155z"
     id="path47"
     style="fill:#ffffff;fill-opacity:1" /><path
     fill="#FFF8B6"
     d="M151.344,69.368c-0.854,3.131-4.625,6.973-12.239,5.052C146.007,77.978,151.202,73.922,151.344,69.368z"
     id="path49"
     style="fill:#ffffff;fill-opacity:1" /><path
     fill="#FFF8B6"
     d="M140.813,86.801c0.925,0.854,3.273,0.569,6.119-0.498c2.847-1.067,8.396-3.628,11.813-3.416  c-2.704,0.285-4.057,1.21-6.262,2.136C150.277,85.948,144.157,89.364,140.813,86.801z"
     id="path51"
     style="fill:#ffffff;fill-opacity:1" /><path
     fill="#FFF8B6"
     d="M171.126,69.012c1.637-9.463,11.385-13.875,21.276-13.235C185.357,55.35,173.829,60.26,171.126,69.012z"
     id="path53"
     style="fill:#ffffff;fill-opacity:1" /><path
     fill="#FFF8B6"
     d="M170.201,89.79c0.783-4.483,2.064-7.97,8.041-5.408C175.252,83.315,171.695,84.168,170.201,89.79z"
     id="path55"
     style="fill:#ffffff;fill-opacity:1" /><path
     fill="#FFF8B6"
     d="M223.852,58.552c-3.201-1.566-10.887,0.356-9.819,8.681C214.673,59.762,220.367,57.556,223.852,58.552z"
     id="path57"
     style="fill:#ffffff;fill-opacity:1" /><path
     fill="#FFF8B6"
     d="M212.965,47.096c-0.07-4.483,4.198-10.816,11.741-7.827C219.228,37.775,213.393,41.688,212.965,47.096z"
     id="path59"
     style="fill:#ffffff;fill-opacity:1" /><path
     fill="#FFF8B6"
     d="M233.458,68.656c6.334-13.519,11.67-16.224,24.977-16.865C246.125,53.287,238.654,59.264,233.458,68.656z"
     id="path61"
     style="fill:#ffffff;fill-opacity:1" /><path
     fill="#FFF8B6"
     d="M247.761,84.097c4.697,4.341,10.887,1.139,12.097-4.197C259.004,87.94,250.608,88.794,247.761,84.097z"
     id="path63"
     style="fill:#ffffff;fill-opacity:1" /><path
     fill="#FFF8B6"
     d="M269.464,31.512c-2.562-0.569-6.404,0.854-6.476,7.543C263.985,33.22,267.044,31.726,269.464,31.512z"
     id="path65"
     style="fill:#ffffff;fill-opacity:1" /><path
     fill="#FFF8B6"
     d="M280.351,65.668c0.428-10.673,5.052-12.738,10.959-12.88C285.759,53.215,281.277,57.129,280.351,65.668z"
     id="path67"
     style="fill:#ffffff;fill-opacity:1" /><path
     fill="#FFF8B6"
     d="M297.571,82.817c1.851,1.707,4.483,1.139,4.839-4.91C302.908,84.595,299.279,85.948,297.571,82.817z"
     id="path69"
     style="fill:#ffffff;fill-opacity:1" /><path
     fill="#FFF8B6"
     d="M302.481,60.26c0-6.261,3.558-7.969,6.831-7.685C306.252,52.86,302.908,55.848,302.481,60.26z"
     id="path71"
     style="fill:#ffffff;fill-opacity:1" /><path
     fill="#FFF8B6"
     d="M324.326,70.507c4.697-11.528,8.824-15.797,21.489-16.651C337.845,55.065,331.228,57.414,324.326,70.507z"
     id="path73"
     style="fill:#ffffff;fill-opacity:1" /><path
     fill="#FFF8B6"
     d="M336.992,84.382c3.487,3.345,9.393,3.486,11.741-2.49C347.95,87.442,341.759,90.004,336.992,84.382z"
     id="path75"
     style="fill:#ffffff;fill-opacity:1" /><path
     fill="#FFF8B6"
     d="M365.027,45.459c-0.212-7.471,0.285-12.666,9.892-11.456C370.151,33.719,365.383,34.501,365.027,45.459z"
     id="path77"
     style="fill:#ffffff;fill-opacity:1" /><path
     fill="#E08A34"
     d="M386.232,27.385c0.427-5.408,4.839-9.393,10.389-6.12C392.779,19.986,388.296,20.839,386.232,27.385z"
     id="path79"
     style="fill:#ffffff;fill-opacity:1" /><path
     fill="#E08A34"
     d="M428.571,24.255c0.355-8.468,2.775-12.381,8.04-12.808C432.057,12.443,429.282,18.206,428.571,24.255z"
     id="path81"
     style="fill:#ffffff;fill-opacity:1" /><path
     fill="#E08A34"
     d="M451.483,28.24c1.922-5.977,4.696-8.396,9.962-3.344C456.724,20.958,453.832,23.116,451.483,28.24z"
     id="path83"
     style="fill:#ffffff;fill-opacity:1" /><path
     fill="#E08A34"
     d="M490.904,38.273c5.621-19.354,6.902-22.059,10.318-23.695c3.414-1.637,6.403,0.711,6.403,0.711  c-3.201-1.565-6.617-0.569-8.681,2.917C496.88,21.693,491.259,36.849,490.904,38.273z"
     id="path85"
     style="fill:#ffffff;fill-opacity:1" /><path
     fill="#E08A34"
     d="M484.855,53.784c1.708,1.068,3.559,0.711,4.697-5.55C488.912,53.429,488.626,56.417,484.855,53.784z"
     id="path87"
     style="fill:#ffffff;fill-opacity:1" /><path
     fill="#E08A34"
     d="M423.234,71.288c2.988,2.277,5.337,2.207,5.764-6.19C430.136,74.278,426.436,75.202,423.234,71.288z"
     id="path89"
     style="fill:#ffffff;fill-opacity:1" /></svg>