<?xml version="1.0" standalone="no"?><!-- Generator: Gravit.io --><svg xmlns="http://www.w3.org/2000/svg" xmlns:xlink="http://www.w3.org/1999/xlink" style="isolation:isolate" viewBox="0 -0.017 1897.282 456.519" width="1897.282" height="456.519"><g id="g236"><path d=" M 1873.105 447.108 C 1873.105 447.103 1837.105 402.67 1816.338 376.837 C 1809.39 368.19 1804.236 361.746 1802.423 359.378 C 1799.903 356.059 1798.109 353.667 1796.93 352.493 C 1795.69 351.299 1795.502 351.235 1794.567 350.905 C 1793.919 350.71 1792.756 350.499 1790.764 350.499 L 1705.764 350.499 C 1702.999 350.499 1700.294 349.381 1698.341 347.425 C 1696.386 345.47 1695.265 342.765 1695.265 340.001 L 1695.265 327.5 L 1621.266 327.5 C 1618.499 327.5 1615.796 326.379 1613.841 324.426 C 1611.886 322.471 1610.765 319.766 1610.765 317.001 L 1610.765 260 C 1610.765 257.235 1611.886 254.53 1613.841 252.575 C 1615.796 250.62 1618.499 249.501 1621.266 249.501 L 1696.265 249.499 L 1696.265 247.5 L 1619.265 247.5 C 1616.5 247.5 1613.795 246.381 1611.84 244.426 C 1609.887 242.471 1608.766 239.766 1608.766 237.001 L 1608.766 183.001 C 1608.766 180.236 1609.887 177.531 1611.84 175.576 C 1613.795 173.62 1616.5 172.502 1619.265 172.502 L 1694.263 172.5 L 1694.263 170.501 L 1604.263 170.501 L 1604.263 340.001 C 1604.263 342.765 1603.145 345.467 1601.189 347.423 C 1599.234 349.378 1596.531 350.499 1593.766 350.499 L 1529.265 350.499 C 1526.5 350.499 1523.795 349.381 1521.84 347.425 C 1519.887 345.47 1518.767 342.765 1518.767 340.001 L 1518.767 150.501 L 1514.267 150.501 L 1514.267 340.001 C 1514.267 342.765 1513.149 345.467 1511.193 347.423 C 1509.238 349.378 1506.535 350.499 1503.77 350.499 L 1346.27 350.499 C 1343.503 350.499 1340.8 349.381 1338.845 347.425 C 1336.89 345.47 1335.769 342.765 1335.769 340.001 L 1335.769 204.501 C 1335.769 201.736 1336.89 199.031 1338.845 197.076 C 1340.8 195.12 1343.503 194 1346.27 194 L 1428.268 194 L 1428.268 94.501 L 1326.768 94.501 L 1326.768 341 C 1326.768 343.764 1325.647 346.469 1323.692 348.425 C 1321.739 350.378 1319.034 351.499 1316.269 351.499 L 1193.77 351.499 C 1191.003 351.499 1188.3 350.38 1186.345 348.425 C 1184.389 346.469 1183.269 343.764 1183.269 341 L 1183.269 305 C 1183.269 302.235 1184.389 299.53 1186.345 297.575 C 1188.3 295.62 1191.003 294.501 1193.77 294.501 L 1241.269 294.499 L 1241.269 168.999 L 1117.269 168.999 L 1117.269 294.499 L 1162.771 294.499 C 1165.536 294.499 1168.241 295.618 1170.196 297.573 C 1172.152 299.528 1173.27 302.233 1173.27 304.998 L 1173.27 340.998 C 1173.27 343.762 1172.149 346.467 1170.194 348.423 C 1168.238 350.376 1165.536 351.497 1162.771 351.497 L 1051.272 351.497 C 1048.141 351.482 1044.613 351.478 1040.581 350.582 C 1036.567 349.711 1032.186 347.703 1028.47 344.496 C 1027.822 343.932 1027.622 343.709 1027.279 343.368 C 1026.967 343.047 1026.637 342.7 1026.257 342.296 C 1025.505 341.491 1024.563 340.467 1023.433 339.22 C 1021.175 336.73 1018.169 333.374 1014.66 329.427 C 1007.64 321.538 998.609 311.303 989.68 301.155 C 971.82 280.858 954.375 260.916 954.372 260.912 C 951.66 257.814 951.012 253.408 952.713 249.66 C 954.413 245.91 958.157 243.499 962.275 243.499 L 1031.274 243.499 L 1031.274 169.999 L 943.275 169.999 L 943.275 339.999 C 943.275 342.763 942.154 345.465 940.199 347.421 C 938.246 349.376 935.541 350.497 932.776 350.497 L 868.776 350.497 C 866.009 350.497 863.306 349.376 861.351 347.421 C 859.395 345.465 858.275 342.763 858.275 339.999 L 858.275 107.96 C 858.275 105.195 859.396 102.49 861.351 100.535 C 863.307 98.582 866.009 97.461 868.776 97.461 L 954.273 97.461 L 954.273 92.961 L 758.854 92.961 L 758.854 97.461 L 842.854 97.461 C 845.619 97.461 848.324 98.582 850.277 100.535 C 852.232 102.491 853.353 105.196 853.353 107.96 L 853.353 339.959 C 853.353 342.723 852.232 345.425 850.277 347.381 C 848.324 349.339 845.619 350.457 842.854 350.457 L 778.35 350.457 C 775.585 350.457 772.883 349.339 770.928 347.383 C 768.972 345.428 767.851 342.723 767.851 339.959 L 767.851 326.456 L 691.851 326.456 C 689.086 326.456 686.382 325.338 684.429 323.383 C 682.473 321.43 681.352 318.725 681.352 315.96 L 681.352 258.959 C 681.352 256.191 682.473 253.489 684.426 251.534 C 686.382 249.578 689.086 248.46 691.851 248.46 L 767.851 248.457 L 767.851 245.959 L 691.351 245.959 C 688.586 245.959 685.881 244.838 683.926 242.885 C 681.971 240.929 680.852 238.224 680.852 235.459 L 680.852 181.959 C 680.852 179.194 681.971 176.489 683.926 174.534 C 685.882 172.578 688.587 171.458 691.351 171.458 L 768.351 171.458 L 768.351 168.457 L 676.851 168.457 L 676.851 339.957 C 676.851 342.721 675.73 345.423 673.775 347.379 C 671.819 349.337 669.117 350.455 666.352 350.455 L 599.353 350.455 C 598.237 350.45 597.031 350.428 595.584 350.208 C 594.149 349.999 592.526 349.522 591.212 348.926 C 588.537 347.679 587.216 346.613 585.027 345.192 C 583.885 344.409 583.459 343.934 583.044 343.526 C 582.654 343.123 582.379 342.797 582.115 342.48 C 581.602 341.853 581.164 341.259 580.68 340.584 C 579.729 339.249 578.644 337.622 577.366 335.642 C 574.817 331.692 571.527 326.375 567.713 320.094 C 560.09 307.541 550.403 291.171 540.857 274.895 C 521.768 242.35 503.262 210.21 503.253 210.199 C 501.38 206.946 501.385 202.95 503.262 199.702 C 505.139 196.456 508.601 194.459 512.351 194.459 L 593.851 194.457 L 593.851 94.458 L 494.271 94.458 L 492.833 340.017 C 492.799 345.751 488.131 350.419 482.396 350.455 C 482.366 350.455 399.961 350.955 396.334 350.955 C 390.053 350.969 384.98 348.883 381.67 346.773 C 378.498 344.761 376.741 342.77 376.122 342.026 L 376.121 342.027 L 299.245 249.15 L 299.245 249.152 C 295.547 244.684 296.171 238.063 300.639 234.368 C 305.107 230.671 311.725 231.294 315.423 235.763 L 392.166 328.477 C 392.265 328.57 392.517 328.79 392.874 329.013 C 393.626 329.465 394.614 329.944 396.335 329.957 C 397.967 329.957 419.548 329.831 440.584 329.707 C 452.33 329.637 463.926 329.567 471.895 329.519 L 473.335 83.9 C 473.367 78.132 478.066 73.462 483.834 73.462 L 604.334 73.462 C 607.098 73.462 609.802 74.581 611.755 76.536 C 613.711 78.492 614.832 81.197 614.832 83.961 L 614.832 204.96 C 614.832 207.725 613.711 210.43 611.755 212.385 C 609.802 214.338 607.097 215.459 604.334 215.459 L 530.525 215.459 C 533.635 220.832 537.38 227.292 541.501 234.377 C 552.991 254.138 567.396 278.773 579.012 298.185 C 586.733 311.095 593.301 321.803 596.675 326.817 C 597.139 327.514 597.557 328.11 597.857 328.526 C 598.472 328.935 598.952 329.249 599.282 329.46 C 599.299 329.461 599.316 329.461 599.334 329.461 C 601.933 329.459 637.636 329.458 655.832 329.459 L 655.832 157.959 C 655.832 155.194 656.953 152.489 658.909 150.536 C 660.865 148.58 663.567 147.459 666.334 147.459 L 778.834 147.459 C 781.599 147.459 784.301 148.58 786.257 150.536 C 788.212 152.489 789.333 155.194 789.333 157.959 L 789.333 181.96 C 789.333 184.725 788.212 187.43 786.257 189.383 C 784.301 191.338 781.599 192.459 778.834 192.459 L 701.832 192.459 L 701.832 224.959 L 778.332 224.959 C 781.097 224.959 783.802 226.08 785.757 228.035 C 787.713 229.99 788.834 232.693 788.834 235.46 L 788.834 258.96 C 788.834 261.725 787.713 264.427 785.757 266.383 C 783.801 268.341 781.096 269.459 778.332 269.459 L 702.332 269.457 L 702.332 305.459 L 778.332 305.459 C 781.097 305.459 783.802 306.58 785.757 308.535 C 787.713 310.491 788.834 313.193 788.834 315.961 L 788.834 329.458 L 832.332 329.458 L 832.332 118.458 L 748.334 118.458 C 745.569 118.458 742.864 117.339 740.909 115.384 C 738.953 113.429 737.832 110.724 737.832 107.96 L 737.832 82.445 C 737.832 79.678 738.953 76.975 740.909 75.02 C 742.865 73.064 745.57 71.943 748.334 71.943 L 964.833 71.943 C 967.598 71.943 970.303 73.064 972.258 75.02 C 974.214 76.975 975.332 79.678 975.332 82.445 L 975.332 107.944 C 975.332 110.709 974.214 113.414 972.258 115.368 C 970.303 117.323 967.598 118.444 964.833 118.444 L 879.333 118.444 L 879.333 329.444 L 922.334 329.444 L 922.334 159.444 C 922.334 156.679 923.455 153.974 925.41 152.019 C 927.366 150.063 930.071 148.943 932.835 148.943 L 1041.835 148.943 C 1044.6 148.943 1047.305 150.064 1049.26 152.019 C 1051.215 153.975 1052.334 156.68 1052.334 159.444 L 1052.334 253.944 C 1052.334 256.709 1051.213 259.412 1049.258 261.367 C 1047.305 263.322 1044.6 264.443 1041.835 264.443 L 985.493 264.443 C 990.243 269.86 995.729 276.11 1001.391 282.551 C 1017.669 301.067 1035.537 321.297 1041.162 327.367 C 1041.666 327.914 1042.094 328.362 1042.303 328.578 C 1043.475 329.509 1044.095 329.742 1045.275 330.045 C 1046.493 330.336 1048.463 330.455 1051.334 330.443 C 1056.165 330.441 1125.5 330.441 1152.333 330.442 L 1152.333 315.442 L 1106.831 315.442 C 1104.066 315.442 1101.361 314.321 1099.408 312.368 C 1097.452 310.412 1096.331 307.707 1096.331 304.942 L 1096.331 158.442 C 1096.331 155.675 1097.452 152.972 1099.408 151.017 C 1101.361 149.061 1104.066 147.941 1106.831 147.941 L 1251.831 147.941 C 1254.596 147.941 1257.301 149.062 1259.254 151.017 C 1261.21 152.973 1262.331 155.675 1262.331 158.442 L 1262.331 304.942 C 1262.331 307.707 1261.21 310.412 1259.254 312.368 C 1257.299 314.321 1254.596 315.442 1251.831 315.442 L 1204.328 315.442 L 1204.328 330.441 L 1305.827 330.441 L 1305.827 83.942 C 1305.827 81.177 1306.946 78.472 1308.901 76.517 C 1310.857 74.561 1313.562 73.443 1316.327 73.443 L 1438.827 73.443 C 1441.592 73.443 1444.297 74.562 1446.252 76.517 C 1448.208 78.473 1449.326 81.178 1449.326 83.942 L 1449.326 204.441 C 1449.326 207.206 1448.208 209.911 1446.252 211.864 C 1444.297 213.819 1441.592 214.94 1438.827 214.94 L 1356.825 214.94 L 1356.825 329.44 L 1493.325 329.44 L 1493.325 139.94 C 1493.325 137.175 1494.446 134.47 1496.401 132.517 C 1498.356 130.561 1501.059 129.44 1503.826 129.44 L 1529.324 129.44 C 1532.089 129.44 1534.794 130.561 1536.749 132.517 C 1538.705 134.472 1539.823 137.175 1539.823 139.94 L 1539.823 329.44 L 1583.324 329.44 L 1583.324 159.94 C 1583.324 157.175 1584.445 154.47 1586.4 152.515 C 1588.356 150.56 1591.058 149.441 1593.825 149.441 L 1704.825 149.441 C 1707.59 149.441 1710.295 150.56 1712.25 152.515 C 1714.206 154.471 1715.324 157.176 1715.324 159.94 L 1715.324 182.94 C 1715.324 185.705 1714.206 188.41 1712.25 190.365 C 1710.295 192.318 1707.59 193.439 1704.825 193.439 L 1629.824 193.439 L 1629.824 226.44 L 1706.826 226.44 C 1709.591 226.44 1712.296 227.559 1714.252 229.514 C 1716.205 231.47 1717.325 234.175 1717.325 236.94 L 1717.325 259.939 C 1717.325 262.704 1716.205 265.409 1714.249 267.365 C 1712.294 269.318 1709.591 270.439 1706.826 270.439 L 1631.823 270.439 L 1631.823 306.439 L 1705.824 306.439 C 1708.589 306.439 1711.294 307.559 1713.25 309.515 C 1715.205 311.47 1716.324 314.173 1716.324 316.94 L 1716.324 329.439 C 1738.285 329.438 1787.339 329.438 1790.824 329.438 C 1794.249 329.441 1797.481 329.789 1800.585 330.706 C 1803.678 331.607 1806.552 333.137 1808.865 334.94 C 1813.528 338.645 1816.015 342.536 1819.165 346.559 C 1820.224 347.949 1823.505 352.073 1827.938 357.602 C 1832.387 363.154 1838.063 370.207 1844.161 377.768 C 1856.357 392.891 1870.235 410.05 1879.385 421.356 C 1885.485 428.893 1889.474 433.815 1889.485 433.829 C 1893.134 438.336 1892.44 444.947 1887.935 448.598 C 1885.99 450.173 1883.653 450.939 1881.331 450.939 C 1878.131 450.939 1875.131 449.619 1873.031 447.049 L 1873.105 447.108 Z " fill="rgb(255,255,255)"/></g><g id="g242"><path d=" M 1507.407 102.43 L 1471.908 66.929 C 1469.922 64.946 1468.811 62.235 1468.833 59.429 C 1468.854 56.624 1470.002 53.929 1472.015 51.973 L 1507.516 17.473 C 1511.651 13.454 1518.262 13.525 1522.308 17.632 L 1556.809 52.634 C 1560.835 56.717 1560.835 63.29 1556.809 67.375 L 1522.308 102.375 C 1520.34 104.375 1517.675 105.494 1514.87 105.505 L 1514.837 105.505 C 1511.937 105.495 1509.237 104.395 1507.337 102.425 L 1507.407 102.43 Z  M 1494.207 59.61 L 1514.697 80.101 L 1534.505 60.003 L 1514.592 39.8 L 1494.192 59.61 L 1494.207 59.61 Z " fill="rgb(255,255,255)"/></g><g id="Layer_5_1_"><path d=" M 140.225 379.02 C 118.542 379.02 97.438 374.908 80.805 367.441 C 62.652 359.289 50.244 347.453 44.923 333.211 C 42.552 326.86 25.888 282.252 17.362 259.423 C 17.757 259.515 18.177 259.597 18.62 259.668 C 19.165 259.754 19.703 259.827 20.236 259.901 C 22.263 260.178 24.013 260.416 25.65 261.294 C 27.844 262.47 28.516 264.253 29.516 267.304 L 32.324 275.779 C 32.942 277.65 35.135 278.378 40.147 278.378 C 40.701 278.378 41.138 278.369 41.364 278.359 C 41.799 278.347 42.231 278.33 42.661 278.314 C 43.68 278.275 44.641 278.24 45.604 278.24 C 47.272 278.24 48.628 278.359 49.871 278.616 C 52.769 279.213 55.161 280.331 56.786 281.845 C 57.689 282.686 58.021 283.606 58.479 284.879 C 58.744 285.614 59.044 286.448 59.492 287.318 C 61.636 291.478 66.635 293.865 73.207 293.865 C 74.355 293.865 75.506 293.792 76.629 293.645 C 78.173 293.445 79.651 293.11 81.081 292.787 C 82.946 292.363 84.708 291.966 86.511 291.871 C 87.03 291.843 87.551 291.828 88.072 291.828 C 90.52 291.828 92.894 292.134 95.131 292.731 C 98.07 293.519 100.417 294.689 102.106 296.215 C 102.54 296.6 102.936 296.98 103.325 297.35 C 104.599 298.566 105.916 299.822 107.834 300.76 C 110.672 302.148 113.984 302.881 117.411 302.881 C 120.981 302.881 124.545 302.103 127.716 300.626 L 128.331 300.341 C 131.147 299.026 133.58 297.89 136.479 297.38 C 138.192 297.08 139.956 296.927 141.722 296.927 C 142.966 296.927 144.226 297.004 145.464 297.154 C 148.33 297.501 150.967 298.6 153.759 299.76 C 156.82 301.033 159.986 302.35 163.596 302.694 C 164.397 302.77 165.206 302.809 166 302.809 C 168.736 302.809 171.338 302.366 173.731 301.491 C 176.757 300.39 178.641 298.613 180.636 296.729 L 181.157 296.238 C 185.32 292.335 191.645 291.751 195.045 291.751 C 195.628 291.751 196.219 291.768 196.802 291.802 C 198.84 291.917 200.808 292.299 202.892 292.704 C 205.377 293.187 207.946 293.688 210.622 293.688 C 212.563 293.688 214.354 293.427 216.098 292.892 C 220.03 291.691 222.806 289.333 223.911 286.256 L 223.941 286.17 L 223.965 286.082 C 224.665 283.453 225.555 282.036 227.245 280.857 C 229.213 279.478 231.742 278.598 234.766 278.235 C 235.397 278.161 236.089 278.124 236.88 278.124 C 237.706 278.124 238.53 278.163 239.405 278.203 C 240.287 278.244 241.201 278.286 242.126 278.286 C 242.773 278.286 243.36 278.265 243.922 278.223 L 244.283 278.199 C 246.038 278.081 249.306 277.863 250.238 275.124 L 251.838 270.409 C 252.086 269.68 252.309 268.895 252.524 268.135 C 253.107 266.082 253.711 263.957 254.826 262.702 C 256.508 260.806 259.309 260.129 261.361 259.892 L 261.812 259.842 C 262.733 259.739 263.737 259.629 264.751 259.414 L 236.753 332.99 C 231.333 347.236 218.733 359.113 200.319 367.332 C 183.41 374.881 162.072 379.034 140.234 379.034" fill="rgb(255,255,255)"/><path d=" M 268.206 255.412 C 268.191 255.425 268.178 255.44 268.164 255.453 C 268.127 255.491 268.096 255.523 268.091 255.528 C 268.129 255.49 268.166 255.453 268.208 255.411 M 268.212 255.407 L 268.208 255.412 L 268.213 255.408 L 268.212 255.407 Z  M 268.216 255.403 C 268.213 255.404 268.212 255.406 268.21 255.408 L 268.214 255.404 L 268.216 255.403 Z  M 268.237 255.382 C 268.22 255.399 268.188 255.432 268.148 255.471 L 268.166 255.453 C 268.191 255.429 268.216 255.404 268.237 255.383 M 268.25 255.366 C 268.245 255.373 268.241 255.376 268.236 255.382 C 268.239 255.378 268.244 255.374 268.246 255.372 L 268.246 255.364 M 268.25 255.36 L 268.243 255.369 C 268.232 255.379 268.222 255.39 268.213 255.4 C 268.242 255.379 268.25 255.362 268.25 255.362 M 13.066 254.056 C 20.414 273.725 40.307 326.979 42.915 333.965 C 54.703 365.521 97.391 381.171 140.227 381.171 C 183.418 381.171 226.753 365.275 238.755 333.745 C 241.552 326.395 261.765 273.302 269.074 254.106 C 268.891 254.582 268.603 255.01 268.252 255.374 C 268.291 255.336 268.322 255.304 268.322 255.304 C 268.322 255.304 268.292 255.336 268.209 255.42 C 268.125 255.505 268.094 255.536 268.094 255.536 C 268.094 255.536 268.094 255.535 268.094 255.535 C 267.629 256.006 267.469 256.168 267.469 256.168 C 267.467 256.168 267.933 255.697 268.149 255.478 C 266.3 257.292 263.545 257.492 261.119 257.77 C 258.266 258.098 255.188 259.074 253.225 261.285 C 251.297 263.455 250.722 267.04 249.809 269.728 C 249.275 271.3 248.741 272.872 248.209 274.442 C 247.697 275.951 245.223 275.982 243.764 276.092 C 243.219 276.133 242.673 276.149 242.128 276.149 C 240.378 276.149 238.634 275.988 236.882 275.988 C 236.096 275.988 235.307 276.02 234.515 276.113 C 231.531 276.471 228.502 277.367 226.02 279.104 C 223.646 280.761 222.62 282.817 221.894 285.539 C 220.889 288.339 218.198 290.016 215.472 290.848 C 213.817 291.356 212.209 291.55 210.625 291.55 C 206.043 291.55 201.664 289.936 196.926 289.668 C 196.311 289.632 195.683 289.613 195.049 289.613 C 189.627 289.613 183.675 290.948 179.692 294.68 C 177.553 296.687 175.846 298.448 173.001 299.484 C 170.77 300.299 168.382 300.672 166.003 300.672 C 165.268 300.672 164.531 300.635 163.803 300.567 C 157.361 299.953 152.181 295.817 145.726 295.032 C 144.399 294.871 143.063 294.79 141.726 294.79 C 139.844 294.79 137.963 294.951 136.111 295.275 C 132.706 295.874 129.905 297.253 126.815 298.691 C 123.942 300.028 120.67 300.746 117.414 300.746 C 114.415 300.746 111.429 300.136 108.779 298.84 C 106.614 297.781 105.293 296.183 103.547 294.63 C 101.353 292.651 98.516 291.424 95.689 290.667 C 93.213 290.004 90.641 289.694 88.076 289.694 C 87.519 289.694 86.959 289.708 86.403 289.736 C 82.95 289.918 79.756 291.083 76.358 291.527 C 75.378 291.653 74.312 291.728 73.211 291.728 C 68.665 291.728 63.523 290.454 61.404 286.343 C 60.272 284.147 60.195 282.094 58.253 280.282 C 56.084 278.262 53.177 277.116 50.309 276.525 C 48.722 276.196 47.167 276.102 45.608 276.102 C 44.187 276.102 42.761 276.179 41.3 276.226 C 41.087 276.233 40.673 276.243 40.15 276.243 C 38.192 276.243 34.69 276.101 34.363 275.114 C 33.495 272.491 32.623 269.864 31.754 267.237 C 30.689 264.023 29.929 261.16 26.667 259.411 C 24.207 258.094 21.647 257.983 18.96 257.558 C 16.759 257.208 13.904 256.347 13.047 254.058 M 13.039 254.042 C 13.041 254.047 13.042 254.05 13.044 254.055 C 13.044 254.055 13.044 254.047 13.04 254.043 M 261.437 262.049 L 250.805 289.978 L 234.722 332.215 C 229.508 345.915 217.3 357.377 199.417 365.36 C 182.779 372.789 161.75 376.877 140.206 376.877 C 118.819 376.877 98.027 372.831 81.665 365.485 C 64.046 357.575 52.029 346.155 46.914 332.462 C 44.657 326.419 29.456 285.722 20.642 262.127 C 22.207 262.348 23.489 262.581 24.616 263.184 C 26.035 263.945 26.498 265.042 27.459 267.971 L 27.657 268.58 L 29.226 273.313 L 30.266 276.454 C 31.613 280.525 37.152 280.525 40.126 280.525 C 40.712 280.525 41.174 280.513 41.412 280.506 C 41.852 280.492 42.289 280.476 42.724 280.458 C 43.722 280.421 44.664 280.385 45.585 280.385 C 47.125 280.385 48.306 280.488 49.419 280.718 C 51.931 281.234 53.967 282.169 55.305 283.415 C 55.785 283.863 55.988 284.345 56.442 285.607 C 56.729 286.404 57.054 287.305 57.566 288.301 C 60.09 293.202 65.784 296.011 73.188 296.011 C 74.429 296.011 75.672 295.93 76.888 295.773 C 78.53 295.561 80.058 295.214 81.536 294.879 C 83.308 294.478 84.983 294.1 86.604 294.014 C 87.087 293.987 87.574 293.977 88.054 293.977 C 90.313 293.977 92.502 294.254 94.557 294.805 C 97.165 295.502 99.214 296.512 100.675 297.831 C 101.059 298.173 101.431 298.528 101.825 298.901 C 103.152 300.171 104.657 301.605 106.87 302.686 C 110.002 304.219 113.639 305.028 117.39 305.028 C 121.272 305.028 125.148 304.18 128.601 302.574 L 129.219 302.285 C 131.897 301.034 134.21 299.954 136.832 299.493 C 138.421 299.215 140.06 299.072 141.702 299.072 C 142.861 299.072 144.033 299.143 145.185 299.284 C 147.759 299.597 150.263 300.639 152.915 301.741 C 156.123 303.077 159.44 304.457 163.373 304.829 C 164.24 304.914 165.117 304.955 165.98 304.955 C 168.968 304.955 171.816 304.467 174.445 303.51 C 177.887 302.256 180.023 300.238 182.088 298.29 L 182.604 297.804 C 185.251 295.321 189.78 293.896 195.025 293.896 C 195.568 293.896 196.118 293.914 196.659 293.944 C 198.553 294.051 200.451 294.421 202.463 294.812 C 205.047 295.315 207.72 295.833 210.601 295.833 C 212.759 295.833 214.756 295.542 216.703 294.946 C 221.301 293.539 224.571 290.711 225.91 286.979 L 225.97 286.811 L 226.016 286.636 C 226.585 284.505 227.2 283.491 228.455 282.614 C 230.106 281.458 232.369 280.682 234.999 280.367 C 235.545 280.303 236.154 280.271 236.859 280.271 C 237.636 280.271 238.437 280.308 239.284 280.347 C 240.192 280.389 241.131 280.432 242.104 280.432 C 242.806 280.432 243.446 280.409 244.06 280.364 L 244.404 280.339 C 246.334 280.211 250.855 279.911 252.248 275.813 L 252.991 273.623 L 253.848 271.1 C 254.113 270.319 254.343 269.508 254.567 268.722 C 255.059 266.985 255.618 265.017 256.409 264.126 C 257.354 263.074 259.135 262.333 261.44 262.05" fill="rgb(255,255,255)"/><path d=" M 130.471 168.532 C 126.325 168.532 122.578 170.124 118.514 170.388 C 114.552 170.645 110.598 169.967 106.629 170.272 C 101.568 170.661 97.266 173.406 92.123 173.406 C 87.39 173.406 82.466 173.321 78.132 175.575 C 71.056 179.253 60.579 176.935 54.729 182.984 C 50.004 187.871 41.091 185.412 35.693 190.52 C 34.295 191.843 34.08 194.051 32.305 194.66 C 30.311 195.35 28.231 195.773 26.229 196.446 C 22.304 197.766 18.117 200.041 16.591 204.163 C 15.612 206.806 16.933 207.156 14.261 208.255 C 12.416 209.014 10.617 209.908 9.033 211.137 C 6.132 213.388 5.357 216.483 4.938 220.165 C 4.906 220.44 4.977 225.158 4.982 225.153 C 3.585 226.287 2.355 227.653 1.463 229.223 C -0.649 232.947 -0.239 236.912 1.328 240.782 C 3.028 244.978 4.467 246.564 4.638 250.884 C 4.455 252.955 5.454 255.108 6.209 256.959 C 9.424 264.856 11.255 270.884 20.845 271.088 C 22.783 271.129 23.694 278.741 24.416 280.658 C 26.194 285.39 30.456 288.646 35.258 289.931 C 41.753 291.674 51.998 287.826 54.9 295.404 C 58.19 303.996 68.402 307.173 76.832 306.485 C 83.642 305.927 93.647 301.615 99.209 307.938 C 105.639 315.246 116.562 317.09 125.661 314.695 C 134.002 312.5 140.123 307.437 149.139 310.908 C 159.092 314.741 168.295 318.124 178.563 312.539 C 185.787 308.608 188.464 303.135 197.861 304.724 C 206.15 306.133 214.071 307.884 221.732 303.073 C 227.323 299.568 227.473 291.473 234.166 290.682 C 240.058 289.987 245.785 291.384 251.372 288.473 C 258.126 284.958 259.697 277.321 261.198 270.486 C 267.144 269.603 272.292 267.99 274.467 261.641 C 275.827 258.638 277.218 255.399 277.663 252.103 C 277.861 250.789 277.801 249.447 277.51 248.154 C 278.488 246.886 279.471 245.757 280.166 244.293 C 283.517 237.227 282.74 228.98 275.912 224.446 C 277.718 217.975 275.689 213.4 269.793 209.983 C 266.813 208.257 265.174 208.54 264.281 205.286 C 263.44 202.27 262.059 199.905 259.41 198.351 C 255.995 196.349 252.127 195.976 248.536 194.492 C 247.061 190.651 243.307 188.377 239.569 187.145 C 236.477 186.125 233.25 185.99 230.127 185.157 C 226.917 184.296 225.104 181.301 221.811 180.104 C 218.243 178.807 214.456 178.689 210.722 178.296 C 206.703 177.873 203.909 175.434 200.105 174.447 C 196.087 173.391 192.14 173.664 188.067 173.417 C 183.973 173.172 180.508 171.031 176.472 170.516 C 173.27 170.107 170.063 170.378 166.855 170.507 C 162.469 170.679 158.516 169.296 154.216 168.76 C 150.162 168.255 146.2 169.014 142.176 169.409 C 138.185 169.825 134.457 168.535 130.474 168.535" fill="rgb(255,255,255)"/><path d=" M 117.966 310.35 C 112.604 310.35 106.94 308.576 103.253 304.3 C 100.366 300.952 95.994 299.544 91.818 299.103 C 85.825 298.47 80.421 301.063 74.509 301.063 C 69.271 301.063 63.177 299.279 60.388 294.207 C 59.326 292.263 59.333 289.971 57.697 288.387 C 55.552 286.286 52.453 285.338 49.604 284.983 C 43.985 284.287 38.465 286.068 33.259 282.767 C 31.181 281.452 29.596 279.376 29.063 276.847 C 28.706 275.526 26.509 267.932 26.203 266.32 C 25.753 263.945 18.527 265.565 16.099 264.179 C 13.895 262.921 12.79 259.573 12.084 258.009 C 11.377 256.445 9.209 251.577 9.069 250.049 C 9.43 249.323 17.361 247.683 17.361 247.683 C 17.361 247.683 15.975 247.294 13.551 246.459 C 11.126 245.625 8.293 243.203 7.586 241.843 C 6.877 240.48 3.525 234.629 4.563 231.661 C 6.098 229.741 13.845 229.943 15.554 228.512 C 15.157 228.028 10.835 224.817 10.348 224.152 C 8.681 221.875 9.067 216.842 10.793 214.787 C 12.609 212.623 20.529 213.712 23.323 212.068 C 24.404 211.432 19.444 211.735 20.417 210.911 C 21.672 209.85 21.173 206.309 21.363 204.792 C 22.141 198.561 32.605 200.53 36.596 198.948 C 37.786 198.475 38.918 199.519 39.917 198.678 C 40.523 198.165 40.466 196.356 40.998 195.518 C 42.39 193.321 47.74 190.457 50.055 189.751 C 52.645 188.961 52.636 190.571 55.217 189.739 C 56.453 189.341 57.785 188.863 58.83 188.035 C 59.694 187.364 60.108 186.055 61.111 185.34 C 63.593 183.57 66.289 182.315 69.107 181.724 C 71.978 181.122 74.976 181.202 78.065 181.203 C 80.154 181.203 81.351 178.829 83.363 178.108 C 86.255 176.698 88.211 176.242 91.049 175.909 C 93.599 176.05 97.164 176.829 99.627 176.121 C 101.828 175.491 103.664 174.177 105.955 173.729 C 111.038 172.738 116.08 174.269 121.178 173.387 C 123.408 173 125.441 172.01 127.698 171.726 C 130.367 171.39 133.166 171.469 135.776 172.166 C 141.062 173.599 145.972 171.517 151.224 171.579 C 155.14 171.626 158.541 173.329 162.38 173.697 C 167.074 174.141 171.651 172.869 176.328 173.967 C 178.463 174.47 180.217 175.747 182.309 176.312 C 184.923 177.013 187.601 176.076 190.279 176.012 C 192.61 176.218 194.186 177.12 197.276 178.496 C 199.997 179.631 201.661 180.709 204.112 181.547 C 206.942 182.512 207.489 181.107 210.579 181.444 C 213.859 181.802 218.841 184.021 221.098 185.981 C 222.008 186.771 222.346 187.966 223.356 188.578 C 224.403 189.216 225.577 189.654 226.736 190.011 C 228.755 190.631 227.204 188.77 229.276 189.129 C 232.45 189.772 237.714 192.733 239.553 194.421 C 240.527 195.313 241.28 196.504 241.427 197.877 C 241.557 199.126 242.686 199.465 243.833 199.24 C 244.269 199.155 244.724 199.014 245.395 199.178 C 247.871 199.979 253.936 198.705 256.516 200.953 C 258.344 202.547 259.819 202.586 260.188 205.292 C 260.355 206.516 260.802 212.356 261.745 212.246 C 264.181 213.339 268.774 212.382 270.981 215.028 C 271.947 216.189 272.724 217.211 272.201 219.193 C 271.676 221.175 269.887 227.288 270.368 227.657 C 272.673 229.418 276.321 228.854 277.341 231.401 C 278.434 234.138 276.932 240.284 275.32 242.092 C 274.839 242.63 272.295 245.912 272.217 246.542 C 273.413 248.184 273.357 248.572 273.302 249.74 C 273.246 250.908 272.397 254.108 270.364 258.643 C 268.471 264.779 261.247 263.516 256.646 265.114 C 256.201 267.561 254.035 277.989 252.138 280.438 C 248.373 285.292 242.08 284.92 236.751 284.747 C 234.049 284.66 231.271 285.055 228.764 286.146 C 227.606 286.649 226.489 287.315 225.567 288.21 C 224.34 289.399 224.135 290.671 223.653 292.254 C 221.944 297.846 216.179 300.387 211.03 300.87 C 206.721 301.27 202.948 299.97 198.77 299.247 C 194.71 298.544 190.402 298.791 186.49 300.171 C 184.643 300.822 182.824 301.755 181.373 303.136 C 180.01 304.436 178.93 305.884 177.36 306.956 C 173.929 309.304 169.758 310.305 165.695 310.305 C 161.539 310.305 157.352 309.254 153.72 307.118 C 150.144 305.026 145.911 304.228 141.854 304.228 C 137.797 304.233 133.555 305.021 129.987 307.132 C 126.35 309.262 122.147 310.323 117.978 310.323" fill="rgb(255,255,255)"/><path d=" M 117.429 296.934 C 111.942 296.934 106.146 295.321 102.374 291.442 C 99.419 288.404 94.946 287.124 90.674 286.724 C 84.54 286.151 79.011 288.504 72.96 288.504 C 67.603 288.504 61.367 286.883 58.511 282.279 C 57.424 280.515 57.433 278.433 55.757 276.995 C 53.564 275.087 50.392 274.228 47.477 273.908 C 41.728 273.272 36.08 274.891 30.754 271.892 C 28.626 270.698 26.945 268.825 26.459 266.519 C 26.229 265.404 26.284 264.259 26.575 263.161 C 26.867 262.076 27.487 261.092 26.98 259.971 C 26.06 257.934 23.148 257.086 21.027 256.753 C 18.308 256.323 15.679 256.279 13.195 255.019 C 10.94 253.877 9.198 251.881 9.085 249.419 C 8.96 246.645 10.736 244.806 12.497 242.817 C 14.281 240.804 13.099 239.412 10.68 238.822 C 8.114 238.197 5.498 236.811 4.696 234.293 C 3.855 231.667 5.448 229.148 7.497 227.448 C 9.265 225.984 12 225.137 13.155 223.108 C 13.549 222.414 11.21 221.382 10.711 220.779 C 9.005 218.712 9.529 216.05 11.294 214.186 C 13.152 212.221 15.725 211.248 18.243 210.25 C 19.415 209.788 20.569 209.223 21.565 208.474 C 22.848 207.51 21.913 207.35 21.655 205.982 C 20.524 199.975 29.993 198.703 34.076 197.266 C 35.294 196.838 36.543 196.319 37.565 195.555 C 38.187 195.09 38.13 193.447 38.673 192.686 C 40.097 190.69 42.793 189.683 45.163 189.041 C 47.81 188.326 50.582 188.196 53.22 187.441 C 54.487 187.078 55.85 186.644 56.919 185.893 C 57.803 185.283 58.226 184.095 59.252 183.446 C 64.379 180.203 71.002 181.603 76.6 179.691 C 78.597 179.01 79.961 177.537 82.021 176.882 C 84.817 175.996 87.89 175.715 90.827 175.854 C 93.435 175.982 96.144 175.721 98.665 175.077 C 100.916 174.506 102.796 173.313 105.14 172.906 C 110.341 172.005 115.5 173.397 120.716 172.596 C 122.997 172.245 125.076 171.346 127.388 171.087 C 130.119 170.783 132.984 170.854 135.652 171.487 C 141.061 172.788 146.086 170.899 151.458 170.955 C 155.466 170.996 158.945 172.543 162.873 172.875 C 167.678 173.28 172.362 172.126 177.147 173.123 C 179.33 173.578 181.126 174.738 183.269 175.25 C 185.941 175.887 188.649 176.004 191.388 175.945 C 193.853 175.893 196.365 176.134 198.738 176.77 C 201.337 177.458 203.068 179.242 205.576 180.004 C 211.154 181.693 218.157 180.328 222.957 184.029 C 223.888 184.744 224.234 185.83 225.268 186.384 C 226.34 186.964 227.539 187.362 228.725 187.687 C 230.793 188.25 232.93 188.412 235.02 188.861 C 237.414 189.376 239.96 190.158 241.841 191.691 C 242.838 192.501 243.61 193.581 243.759 194.829 C 243.891 195.961 245.15 196.401 246.218 196.873 C 249.632 198.377 253.427 198.637 256.665 200.573 C 258.721 201.805 260.579 203.836 260.053 206.273 C 259.84 207.256 259.021 207.604 259.904 208.34 C 260.969 209.227 262.281 209.865 263.591 210.384 C 267.481 211.924 274.744 215.343 271.515 220.416 C 270.917 221.354 270 222.072 268.972 222.58 C 268.242 222.941 269.094 223.609 269.501 224.02 C 271.328 225.861 273.973 226.712 275.739 228.655 C 277.439 230.509 278.241 233.079 276.958 235.34 C 275.516 237.884 272.854 238.157 270.329 239.24 C 267.576 240.423 269.424 242.351 270.798 243.779 C 272.688 245.741 273.939 248.42 273.021 251.056 C 271.084 256.63 264.336 255.711 259.629 257.163 C 257.417 257.844 254.767 259.47 255.844 261.976 C 256.977 264.608 256.659 267.557 254.718 269.78 C 250.868 274.187 244.426 273.848 238.974 273.692 C 236.208 273.615 233.365 273.971 230.8 274.961 C 229.617 275.419 228.474 276.023 227.53 276.834 C 226.275 277.915 226.066 279.07 225.571 280.507 C 223.823 285.583 217.923 287.892 212.654 288.328 C 208.246 288.692 204.385 287.511 200.113 286.853 C 195.955 286.218 191.548 286.439 187.544 287.692 C 185.655 288.284 183.793 289.132 182.308 290.385 C 180.912 291.565 179.808 292.88 178.203 293.854 C 174.69 295.985 170.422 296.895 166.266 296.895 C 162.014 296.895 157.729 295.939 154.012 293.998 C 150.354 292.103 146.022 291.377 141.872 291.377 C 137.72 291.38 133.378 292.096 129.729 294.016 C 125.996 295.971 121.697 296.934 117.428 296.934" fill="rgb(255,255,255)"/><path d=" M 174.31 209.838 C 174.31 218.611 158.702 225.724 139.449 225.724 C 120.196 225.724 104.587 218.611 104.587 209.838 C 104.587 201.063 120.196 193.948 139.449 193.949 C 158.7 193.949 174.308 201.065 174.308 209.828" fill="rgb(255,255,255)"/><path d=" M 177.631 267.309 C 173.743 267.309 169.869 266.608 166.426 265.281 C 162.224 263.66 159.144 261.242 157.515 258.288 C 157.336 257.964 157.192 257.723 157.076 257.527 C 156.403 256.404 156.29 255.978 156.206 254.268 L 156.049 251.077 L 155.815 246.051 L 159.603 249.361 C 160.681 250.302 161.929 251.141 163.313 251.854 C 167.438 253.978 172.349 255.097 177.516 255.097 C 182.391 255.097 187.082 254.094 191.081 252.192 C 192.66 251.441 194.089 250.513 195.328 249.433 L 199.161 246.097 L 198.88 251.169 C 198.826 252.116 198.771 252.521 198.721 252.878 C 198.678 253.193 198.64 253.464 198.598 254.244 C 198.334 259.403 193.959 262.561 191.376 263.983 C 187.421 266.163 182.668 267.312 177.629 267.312" fill="rgb(255,255,255)"/><path d=" M 153.437 241.127 L 153.905 251.176 C 153.935 251.82 153.967 252.461 153.999 253.102 L 154.061 254.371 C 154.156 256.311 154.322 257.106 155.233 258.629 C 155.34 258.807 155.472 259.027 155.638 259.33 C 157.51 262.726 160.974 265.477 165.65 267.283 C 169.339 268.704 173.481 269.455 177.629 269.455 C 183.029 269.455 188.14 268.212 192.409 265.862 C 197.545 263.037 200.503 258.946 200.739 254.348 C 200.776 253.67 200.805 253.451 200.844 253.174 C 200.908 252.709 200.966 252.247 201.019 251.288 L 201.582 241.142 L 193.918 247.814 C 192.825 248.767 191.561 249.587 190.159 250.252 C 186.447 252.02 182.073 252.953 177.514 252.953 C 172.688 252.953 168.115 251.911 164.292 249.947 C 163.063 249.314 161.959 248.573 161.012 247.745 L 153.445 241.125 L 153.437 241.127 Z  M 158.192 250.976 C 159.367 252.002 160.743 252.941 162.332 253.759 C 166.757 256.037 172.006 257.243 177.516 257.243 C 182.708 257.243 187.717 256.165 192.003 254.128 C 193.844 253.253 195.411 252.206 196.737 251.05 C 196.642 252.778 196.549 252.398 196.457 254.128 C 196.271 257.748 193.317 260.467 190.341 262.104 C 186.574 264.177 182.097 265.165 177.631 265.165 C 174.018 265.165 170.411 264.518 167.197 263.278 C 164.144 262.101 161.018 260.199 159.394 257.252 C 158.477 255.595 158.437 255.981 158.348 254.162 C 158.296 253.101 158.242 252.035 158.192 250.974" fill="rgb(255,255,255)"/><path d=" M 177.512 254.801 C 172.435 254.801 167.599 253.82 163.529 251.965 C 157.841 249.378 154.864 245.359 155.366 240.932 C 155.804 237.038 158.914 233.688 164.119 231.501 C 168.061 229.847 172.671 228.973 177.451 228.973 C 182.264 228.973 186.89 229.861 190.835 231.541 C 191.188 231.665 191.672 231.86 192.161 232.145 C 197.006 234.555 199.667 238.029 199.657 241.937 C 199.654 246.155 196.445 249.922 190.853 252.269 C 186.902 253.925 182.289 254.799 177.51 254.799" fill="rgb(255,255,255)"/><path d=" M 177.452 226.828 C 172.39 226.828 167.492 227.761 163.29 229.526 C 157.336 232.026 153.764 235.994 153.235 240.697 C 152.631 246.023 156.148 250.966 162.643 253.921 C 166.988 255.9 172.132 256.947 177.513 256.947 C 182.574 256.947 187.475 256.015 191.683 254.25 C 198.11 251.552 201.799 247.065 201.804 241.938 C 201.816 237.192 198.755 233.049 193.18 230.258 C 192.602 229.926 192.04 229.692 191.615 229.54 C 187.421 227.767 182.528 226.831 177.454 226.831 M 177.454 231.121 C 182.014 231.121 186.361 231.957 190.067 233.545 C 190.414 233.664 190.803 233.832 191.139 234.035 C 193.753 235.323 197.526 237.88 197.516 241.935 C 197.512 245.251 194.782 248.299 190.027 250.296 C 186.339 251.842 182.013 252.658 177.515 252.658 C 172.749 252.658 168.218 251.748 164.42 250.017 C 159.636 247.841 157.109 244.623 157.5 241.178 C 157.847 238.088 160.499 235.353 164.953 233.485 C 168.641 231.941 172.965 231.125 177.454 231.125" fill="rgb(255,255,255)"/><path d=" M 220.679 245.342 C 216.79 245.342 212.917 244.642 209.472 243.312 C 205.272 241.692 202.192 239.276 200.563 236.322 C 200.383 235.999 200.239 235.758 200.124 235.564 C 199.451 234.44 199.338 234.012 199.252 232.305 L 198.844 224.078 L 202.647 227.394 C 203.728 228.338 204.979 229.177 206.361 229.888 C 210.483 232.009 215.394 233.132 220.563 233.132 C 225.436 233.132 230.127 232.127 234.129 230.225 C 235.704 229.476 237.131 228.548 238.373 227.467 L 242.197 224.135 L 241.924 229.199 C 241.873 230.156 241.817 230.562 241.767 230.918 C 241.724 231.235 241.686 231.505 241.643 232.28 C 241.383 237.433 237.009 240.592 234.426 242.017 C 230.474 244.202 225.721 245.351 220.682 245.351" fill="rgb(255,255,255)"/><path d=" M 196.448 219.146 L 196.952 229.225 C 197.005 230.284 197.057 231.34 197.108 232.402 C 197.206 234.347 197.372 235.14 198.28 236.665 C 198.388 236.842 198.52 237.063 198.686 237.364 C 200.56 240.761 204.023 243.512 208.7 245.317 C 212.387 246.738 216.53 247.488 220.678 247.488 C 226.078 247.488 231.189 246.247 235.458 243.898 C 240.596 241.063 243.553 236.975 243.786 232.379 C 243.822 231.712 243.853 231.491 243.891 231.213 C 243.958 230.729 244.014 230.284 244.066 229.316 L 244.612 219.185 L 236.963 225.849 C 235.868 226.802 234.606 227.621 233.208 228.287 C 229.493 230.052 225.118 230.986 220.563 230.986 C 215.733 230.986 211.162 229.945 207.343 227.98 C 206.113 227.348 205.008 226.607 204.056 225.777 L 196.449 219.148 L 196.448 219.146 Z  M 201.238 229.009 C 202.412 230.032 203.787 230.972 205.379 231.793 C 209.802 234.069 215.052 235.274 220.563 235.274 C 225.756 235.274 230.764 234.197 235.05 232.159 C 236.892 231.284 238.456 230.236 239.782 229.08 C 239.689 230.811 239.596 230.43 239.502 232.159 C 239.318 235.778 236.364 238.496 233.39 240.137 C 229.623 242.21 225.145 243.195 220.679 243.195 C 217.065 243.195 213.458 242.549 210.244 241.31 C 207.19 240.134 204.064 238.228 202.44 235.285 C 201.525 233.629 201.485 234.014 201.394 232.195 C 201.341 231.134 201.288 230.073 201.236 229.012" fill="rgb(255,255,255)"/><path d=" M 220.559 232.833 C 215.481 232.833 210.647 231.853 206.575 230 C 200.891 227.414 197.916 223.395 198.412 218.97 C 198.853 215.07 201.962 211.72 207.168 209.535 C 211.113 207.88 215.722 207.006 220.498 207.006 C 225.306 207.006 229.933 207.893 233.884 209.573 C 234.232 209.695 234.713 209.891 235.205 210.178 C 240.051 212.586 242.713 216.061 242.705 219.97 C 242.7 224.187 239.492 227.954 233.903 230.303 C 229.949 231.963 225.336 232.837 220.558 232.837" fill="rgb(255,255,255)"/><path d=" M 220.498 204.861 C 215.44 204.861 210.544 205.794 206.338 207.557 C 200.384 210.056 196.812 214.023 196.281 218.729 C 195.683 224.06 199.199 229.001 205.688 231.954 C 210.035 233.933 215.178 234.979 220.559 234.979 C 225.619 234.979 230.519 234.046 234.729 232.283 C 241.158 229.582 244.845 225.096 244.85 219.971 C 244.859 215.224 241.797 211.077 236.22 208.287 C 235.641 207.957 235.083 207.724 234.664 207.573 C 230.464 205.821 225.57 204.864 220.499 204.864 M 220.499 209.154 C 225.06 209.154 229.407 209.989 233.114 211.579 C 233.462 211.697 233.848 211.866 234.184 212.069 C 236.797 213.355 240.569 215.913 240.561 219.968 C 240.558 223.282 237.825 226.331 233.073 228.329 C 229.383 229.874 225.056 230.689 220.56 230.689 C 215.793 230.689 211.265 229.781 207.466 228.05 C 202.681 225.876 200.159 222.654 200.546 219.212 C 200.895 216.12 203.545 213.386 207.999 211.516 C 211.689 209.968 216.012 209.153 220.501 209.153" fill="rgb(255,255,255)"/><path d=" M 139.63 215.896 C 134.692 215.896 126.257 213.951 125.972 206.661 C 125.411 192.302 119.374 120.314 118.01 104.13 L 161.562 104.298 C 159.193 134.919 153.719 205.118 153.285 207.997 C 152.921 210.245 151.126 212.408 148.36 213.931 C 146.051 215.212 142.95 215.911 139.63 215.911" fill="rgb(255,255,255)"/><path d=" M 114.895 101.244 C 114.895 101.244 122.489 190.787 123.113 206.758 C 123.437 215.037 131.64 218.742 139.629 218.742 C 143.419 218.742 147.011 217.918 149.74 216.418 C 153.28 214.47 155.602 211.56 156.11 208.434 C 156.633 205.232 164.651 101.434 164.651 101.434 L 114.894 101.226 L 114.895 101.244 Z  M 121.124 106.987 L 158.475 107.131 C 155.326 147.83 150.906 204.106 150.46 207.551 C 150.228 208.878 148.9 210.354 146.99 211.406 C 145.117 212.434 142.436 213.023 139.633 213.023 C 139.202 213.023 129.083 212.949 128.834 206.535 C 128.297 192.94 122.863 127.774 121.123 107.009" fill="rgb(255,255,255)"/><path d=" M 196.854 57.009 C 196.854 88.503 171.319 114.036 139.832 114.036 C 108.334 114.036 82.801 88.501 82.801 57.009 C 82.801 25.517 108.334 -0.017 139.832 -0.017 C 171.317 -0.017 196.854 25.533 196.854 56.993" fill="rgb(255,255,255)"/><path d=" M 177.459 91.132 C 157.151 111.442 124.419 111.64 104.353 91.578 C 84.287 71.509 84.484 38.775 104.793 18.468 C 125.103 -1.842 157.838 -2.04 177.903 18.028 C 197.966 38.085 197.767 70.835 177.457 91.142" fill="rgb(255,255,255)"/><path d=" M 170.936 21.347 C 179.175 30.457 180.32 41.319 176.211 43.54 C 172.069 45.84 164.442 41.233 157.365 35.136 C 150.411 28.965 145.908 21.421 148.853 16.182 C 151.72 10.98 162.685 12.187 170.938 21.342" fill="rgb(255,255,255)"/></g></svg>