<?xml version="1.0" standalone="no"?><!-- Generator: Gravit.io --><svg xmlns="http://www.w3.org/2000/svg" xmlns:xlink="http://www.w3.org/1999/xlink" style="isolation:isolate" viewBox="0 0 566.924 121.752" width="566.924" height="121.752"><path d=" M 78.46 38.624 C 78.46 31.665 74.981 27.315 68.891 27.315 C 62.801 27.315 61.061 31.665 61.061 36.884 C 61.061 42.104 65.411 46.454 81.94 54.284 C 98.469 62.114 101.95 72.554 101.95 85.603 C 101.95 98.652 91.51 119.53 68.021 119.53 C 44.532 119.53 34.962 104.741 34.962 82.991 C 50.622 82.991 55.841 82.991 55.841 82.991 C 55.841 91.691 60.191 96.041 67.151 96.041 C 74.11 96.041 76.721 90.822 76.721 86.472 C 76.721 82.123 77.419 79.862 52.362 67.332 C 36.702 59.503 35.832 42.103 35.832 36.883 C 35.832 31.664 38.442 15.135 52.362 7.305 C 66.28 -0.525 86.29 4.695 94.119 15.135 C 101.95 25.574 99.339 38.623 99.339 38.623 C 90.639 38.624 78.46 38.624 78.46 38.624 Z " fill="rgb(255,255,255)"/><g id="null"><g id="null"><path d=" M 266.373 4.695 L 241.144 4.695 L 241.144 67.332 L 200.256 3.825 L 175.027 3.825 L 175.027 69.943 L 132.398 4.695 L 106.299 4.695 L 107.17 119.53 L 135.878 119.53 L 135.878 102.132 L 161.107 102.132 L 171.546 118.661 L 203.735 118.661 C 203.735 118.661 203.735 69.942 203.735 62.982 L 240.274 119.53 L 268.982 119.53 L 268.982 62.982 L 305.521 118.661 L 339.45 118.661 L 266.373 4.695 L 266.373 4.695 Z  M 135.878 79.512 L 135.878 62.982 L 147.187 79.511 L 135.878 79.511 L 135.878 79.512 Z " fill="rgb(255,255,255)"/></g></g><path d=" M 344.67 117.79 L 272.463 4.695 L 417.747 4.695 L 383.818 58.633 C 383.818 58.633 375.118 53.414 363.808 70.813 C 352.499 88.213 357.719 95.172 358.588 97.782 C 355.11 103.871 344.67 117.79 344.67 117.79 Z " fill="rgb(255,255,255)"/><g id="null"><g id="null"><path d=" M 518.911 55.825 C 515.287 57.71 509.921 56.55 508.907 50.606 C 521.52 42.196 524.855 37.411 526.016 30.742 C 527.175 24.073 521.23 23.782 515.141 27.552 C 509.052 31.322 500.788 41.036 500.497 53.36 C 496.583 59.015 492.523 65.54 486.144 65.25 C 493.392 51.765 494.843 45.242 493.828 40.457 C 492.814 35.672 487.594 35.672 475.705 53.506 C 476.864 42.777 481.358 33.208 482.229 30.598 C 483.098 27.988 483.243 25.813 480.487 26.538 C 477.735 27.263 474.109 33.787 469.325 45.676 C 464.54 57.565 456.855 68.148 454.537 70.904 C 452.217 73.659 448.301 74.818 448.591 67.568 C 448.882 60.319 453.521 54.52 454.537 51.331 C 455.552 48.141 453.811 42.776 451.781 44.081 C 449.751 45.386 443.226 57.855 440.037 63.364 C 436.848 68.874 432.933 73.948 431.483 75.398 C 430.034 76.847 427.132 76.413 428.293 71.919 C 429.453 67.424 432.497 62.785 433.948 60.465 C 435.398 58.145 438.443 53.361 435.253 52.056 C 432.063 50.751 424.378 54.811 421.77 72.499 C 419.595 76.993 416.839 79.894 413.505 81.053 C 414.81 74.673 416.404 59.016 410.171 62.06 C 411.186 58.581 409.444 56.986 406.11 57.566 C 402.775 58.146 389.002 65.976 388.131 83.518 C 385.086 88.883 377.402 95.698 373.342 95.698 C 369.283 95.698 366.963 92.072 367.253 88.159 C 367.543 84.244 372.617 78.879 375.082 77.72 C 375.953 79.895 377.401 79.75 378.272 79.75 C 379.142 79.75 381.896 76.56 382.911 71.63 C 383.926 66.7 383.347 64.236 380.882 63.365 C 378.418 62.496 371.603 66.844 367.543 72.645 C 363.483 78.444 356.523 89.752 365.368 99.756 C 374.213 109.761 383.056 98.887 389.436 86.998 C 391.175 93.521 396.105 96.276 399.729 96.276 C 403.354 96.276 409.154 91.781 411.473 86.563 C 414.953 86.707 419.882 82.212 422.057 78.008 C 421.912 82.647 427.712 86.997 431.193 86.273 C 434.672 85.546 439.167 76.847 441.922 70.904 C 441.922 78.589 441.486 84.388 446.997 84.243 C 452.506 84.097 461.06 68.439 470.484 51.185 C 466.134 72.208 462.945 79.603 462.219 85.692 C 461.494 91.781 462.799 100.771 465.407 100.771 C 468.018 100.771 470.339 87.867 471.063 76.413 C 476.572 74.818 477.733 74.384 478.747 74.384 C 479.764 74.384 483.532 75.98 489.185 71.919 C 494.841 67.859 498.174 62.64 502.235 57.275 C 505.28 64.67 510.499 67.279 519.053 62.495 C 527.607 57.71 532.102 44.371 532.827 41.037 C 527.902 48.866 522.535 53.94 518.911 55.825 Z  M 406.112 82.358 C 405.823 88.012 401.907 89.607 400.168 89.607 C 398.429 89.607 395.239 89.318 395.239 83.807 C 395.239 78.299 400.168 71.774 405.387 66.699 C 407.417 64.815 405.241 69.744 404.662 75.253 C 404.081 80.764 404.951 83.083 406.112 82.358 Z  M 474.691 66.265 C 476.286 57.856 482.519 48.577 485.565 48.577 C 488.608 48.577 484.694 58.146 482.955 61.626 C 481.215 65.105 478.315 65.396 474.691 66.265 Z  M 517.752 31.323 C 520.506 29.003 521.666 32.338 518.911 36.253 C 516.158 40.167 510.066 45.822 508.472 46.402 C 509.198 38.718 514.996 33.643 517.752 31.323 Z " fill="rgb(255,255,255)"/></g></g><path d=" M 508.327 23.784 C 508.472 20.159 510.356 15.23 513.692 11.316 C 517.027 7.4 522.825 1.311 525 1.021 C 527.176 0.731 528.191 2.906 528.191 6.386 C 528.191 9.865 528.191 11.025 525.725 12.91 C 523.26 14.795 515.141 20.594 513.837 21.899 C 512.531 23.204 508.182 27.698 508.327 23.784 Z " fill="rgb(255,255,255)"/></svg>