<?xml version="1.0" standalone="no"?><!-- Generator: Gravit.io --><svg xmlns="http://www.w3.org/2000/svg" xmlns:xlink="http://www.w3.org/1999/xlink" style="isolation:isolate" viewBox="-0.001 0 566.931 64.168" width="566.931" height="64.168"><g id="Ebene_1"><g id="null"><radialGradient id="_rgradient_0" fx="-9055.18%" fy="19128.129999999997%" cx="-9055.18%" cy="19128.129999999997%" r="11080.08%" gradientTransform="matrix(0.010201274811937744 0 0 -0.01776277816607977 -0.00007919849011341789 3.113075052985912)"><stop offset="0%" style="stop-color:rgb(255,255,255)"/><stop offset="100%" style="stop-color:rgb(255,255,255)"/></radialGradient><path d=" M 13.163 31.347 C 15.256 29.764 18.247 27.796 21.674 26.08 C 25.104 24.243 28.963 22.591 33.249 20.937 L 33.249 20.999 C 37.474 19.407 41.943 17.937 46.597 16.651 C 51.313 15.303 55.965 14.201 60.619 13.406 C 65.333 12.488 69.864 11.935 74.152 11.69 C 78.561 11.323 83.587 11.665 84.853 11.752 C 86.12 11.839 87.928 11.569 88.724 10.957 C 89.521 10.284 89.949 9.486 90.071 8.508 C 90.194 7.466 89.888 6.548 89.277 5.812 C 88.603 5.017 87.134 4.528 86.154 4.466 C 82.234 4.036 78.5 4.036 73.663 4.342 C 69.13 4.648 64.354 5.26 59.273 6.179 C 54.435 7.036 49.535 8.2 44.637 9.547 C 39.738 10.895 35.087 12.426 30.677 14.077 C 26.085 15.855 21.122 18.103 18.307 19.529 C 15.492 20.954 11.866 23.001 8.801 25.529 C 5.737 28.056 4.439 29.265 2.386 32.447 C 0.333 35.629 -0.138 39.237 1.126 41.398 C 4.379 46.96 15.98 45.137 20.39 44.28 C 23.941 43.547 28.288 42.549 33.494 41.081 C 37.289 39.918 42.128 38.387 48.005 36.427 L 62.579 31.652 C 67.906 29.877 72.252 28.528 75.622 27.61 C 79.725 26.385 87.012 24.649 90.762 25.329 C 90.574 27.679 87.656 33.972 74.639 39.795 C 69.801 42 64.414 44.021 58.473 45.98 L 58.412 45.98 C 53.822 47.449 49.107 48.736 44.268 49.899 C 39.553 51.003 35.143 51.798 30.918 52.472 L 30.98 52.41 C 24.335 53.337 14.78 52.512 12.892 52.759 C 9.155 52.997 8.246 55.35 8.206 56.371 C 8.166 57.389 8.116 59.777 13.093 60.086 C 18.071 60.395 22.718 60.807 32.022 59.696 C 37.796 58.845 41.084 58.166 45.921 57.064 L 45.983 57.064 C 51.005 55.839 55.903 54.491 60.679 52.96 C 66.925 51.002 72.62 48.797 77.7 46.471 C 89.123 41.347 93.236 36.663 95.913 32.637 C 98.591 28.611 99.567 23.078 96.789 20.48 C 93.607 17.503 87.554 18.035 85.475 18.232 C 82.504 18.515 78.068 19.223 73.599 20.508 C 70.171 21.488 65.76 22.836 60.249 24.674 L 45.677 29.449 C 39.86 31.348 35.144 32.879 31.41 33.98 C 26.45 35.452 22.347 36.553 18.916 37.227 C 11.086 39.03 8.568 38.021 8.568 38.021 C 8.463 35.778 11.07 32.929 13.163 31.347 Z " fill="url(#_rgradient_0)"/><radialGradient id="_rgradient_1" fx="-9055.18%" fy="19128.129999999997%" cx="-9055.18%" cy="19128.129999999997%" r="11080.08%" gradientTransform="matrix(0.010201274811937744 0 0 -0.01776277816607977 -0.00007919849011341789 3.113075052985912)"><stop offset="0%" style="stop-color:rgb(255,255,255)"/><stop offset="100%" style="stop-color:rgb(255,255,255)"/></radialGradient><path d=" M 21.008 60.851 C 18.396 60.851 16.174 60.711 14.026 60.574 L 13.068 60.514 C 7.631 60.176 7.743 57.301 7.78 56.356 C 7.83 55.074 8.958 52.582 12.866 52.333 C 13.11 52.3 13.519 52.284 14.127 52.284 C 14.899 52.284 15.92 52.311 17.103 52.342 C 18.687 52.384 20.657 52.436 22.672 52.436 C 26.06 52.436 28.758 52.289 30.922 51.987 C 30.992 51.978 31.059 51.986 31.122 52.007 C 36.042 51.217 40.196 50.414 44.172 49.483 C 49.292 48.252 53.909 46.973 58.282 45.573 C 58.322 45.56 58.364 45.553 58.405 45.552 C 64.672 43.485 69.925 41.473 74.462 39.406 C 85.98 34.254 89.772 28.547 90.284 25.688 C 89.841 25.632 89.338 25.604 88.785 25.604 C 85.137 25.604 79.657 26.852 75.743 28.02 C 72.41 28.928 68.03 30.286 62.714 32.057 L 48.137 36.834 C 43.066 38.526 38.18 40.093 33.618 41.491 C 29.211 42.734 24.915 43.782 20.476 44.699 C 17.088 45.357 14.016 45.691 11.339 45.691 C 5.9 45.691 2.339 44.319 0.756 41.614 C -0.607 39.283 -0.098 35.507 2.026 32.216 C 4.108 28.988 5.464 27.728 8.528 25.2 C 11.025 23.141 14.249 21.105 18.112 19.148 C 20.797 17.789 25.824 15.498 30.521 13.68 C 35.136 11.951 39.845 10.424 44.522 9.136 C 49.877 7.664 54.677 6.56 59.196 5.759 C 64.348 4.828 69.071 4.225 73.633 3.917 C 75.942 3.771 77.937 3.7 79.734 3.7 C 81.984 3.7 84.099 3.812 86.2 4.042 C 87.283 4.11 88.858 4.657 89.602 5.536 C 90.319 6.399 90.627 7.443 90.495 8.558 C 90.357 9.66 89.868 10.551 88.999 11.284 C 88.058 12.01 86.12 12.269 84.824 12.18 C 84.002 12.123 81.503 11.952 78.628 11.952 C 76.996 11.952 75.502 12.008 74.187 12.117 C 69.762 12.37 65.229 12.945 60.7 13.826 C 56.236 14.589 51.664 15.647 46.714 17.062 C 42.216 18.305 37.738 19.763 33.399 21.399 C 33.329 21.425 33.254 21.434 33.182 21.421 C 28.496 23.235 24.899 24.838 21.876 26.457 C 17.915 28.44 14.879 30.585 13.421 31.688 C 11.336 33.265 9.137 35.764 9.002 37.696 C 9.338 37.77 10.005 37.874 11.089 37.874 C 13.153 37.874 15.755 37.515 18.822 36.81 C 21.995 36.186 25.836 35.188 31.29 33.57 C 35.001 32.475 39.738 30.938 45.545 29.043 L 60.118 24.269 C 64.992 22.644 69.489 21.241 73.484 20.099 C 78.89 18.545 83.644 17.98 85.437 17.808 C 86.014 17.753 87.211 17.64 88.586 17.64 C 92.431 17.64 95.29 18.491 97.085 20.169 C 100.143 23.031 98.949 28.852 96.272 32.876 C 93.447 37.122 89.264 41.756 77.877 46.863 C 72.564 49.295 66.821 51.485 60.809 53.37 C 56.237 54.835 51.42 56.18 46.085 57.48 C 46.052 57.489 46.018 57.493 45.984 57.493 L 45.969 57.493 C 40.966 58.633 37.763 59.284 32.084 60.12 C 27.901 60.619 24.385 60.851 21.008 60.851 Z  M 14.127 53.138 C 13.565 53.138 13.179 53.153 12.948 53.183 C 9.62 53.396 8.674 55.372 8.634 56.389 C 8.597 57.358 8.518 59.374 13.12 59.659 L 14.079 59.721 C 16.214 59.857 18.421 59.997 21.007 59.997 C 24.349 59.997 27.834 59.766 31.971 59.272 C 37.628 58.439 40.818 57.788 45.825 56.647 C 45.856 56.64 45.888 56.637 45.92 56.637 L 45.931 56.637 C 51.226 55.345 56.007 54.01 60.549 52.554 C 66.53 50.679 72.24 48.502 77.523 46.083 C 88.715 41.063 92.805 36.541 95.558 32.401 C 98.075 28.617 99.115 23.241 96.499 20.793 C 94.868 19.268 92.206 18.494 88.585 18.494 C 87.25 18.494 86.079 18.606 85.517 18.659 C 83.748 18.828 79.056 19.386 73.719 20.92 C 69.735 22.059 65.249 23.458 60.386 25.08 L 45.811 29.856 C 39.997 31.754 35.254 33.294 31.532 34.391 C 26.052 36.017 22.187 37.021 19 37.647 C 15.883 38.364 13.216 38.73 11.088 38.73 C 9.243 38.73 8.491 38.451 8.411 38.418 C 8.256 38.355 8.151 38.208 8.143 38.042 C 8.018 35.426 11.077 32.389 12.905 31.006 C 14.386 29.886 17.47 27.707 21.483 25.698 C 24.575 24.042 28.268 22.401 33.095 20.538 C 33.168 20.51 33.246 20.503 33.32 20.515 C 37.613 18.905 42.041 17.466 46.484 16.239 C 51.462 14.816 56.062 13.752 60.548 12.985 C 65.105 12.098 69.676 11.518 74.129 11.264 C 75.456 11.153 76.973 11.097 78.63 11.097 C 81.534 11.097 84.055 11.27 84.883 11.326 C 85.029 11.336 85.181 11.341 85.339 11.341 C 86.606 11.341 87.92 11.037 88.463 10.619 C 89.154 10.035 89.536 9.343 89.648 8.455 C 89.751 7.581 89.51 6.76 88.948 6.085 C 88.388 5.424 87.047 4.951 86.128 4.893 C 82.334 4.477 78.871 4.441 73.69 4.769 C 69.162 5.075 64.471 5.673 59.349 6.6 C 54.854 7.396 50.08 8.495 44.751 9.959 C 40.099 11.24 35.414 12.759 30.827 14.478 C 26.162 16.284 21.167 18.56 18.501 19.91 C 14.694 21.838 11.522 23.84 9.074 25.859 C 6.021 28.378 4.772 29.539 2.746 32.679 C 0.824 35.659 0.31 39.155 1.496 41.182 C 2.914 43.607 6.226 44.836 11.34 44.836 C 13.962 44.836 16.979 44.508 20.309 43.861 C 24.723 42.949 28.999 41.906 33.378 40.67 C 37.924 39.277 42.803 37.712 47.87 36.022 L 62.446 31.246 C 67.775 29.47 72.172 28.107 75.509 27.198 C 77.426 26.626 84.079 24.749 88.785 24.749 C 89.563 24.749 90.254 24.802 90.838 24.909 C 91.054 24.949 91.206 25.145 91.188 25.364 C 91.125 26.16 90.126 33.336 74.814 40.186 C 70.235 42.272 64.934 44.302 58.608 46.386 C 58.566 46.4 58.524 46.407 58.479 46.407 C 54.104 47.805 49.488 49.084 44.37 50.314 C 40.299 51.267 36.046 52.086 30.987 52.894 C 30.912 52.907 30.835 52.898 30.765 52.871 C 28.61 53.153 25.958 53.291 22.672 53.291 C 20.646 53.291 18.669 53.239 17.079 53.196 C 15.906 53.165 14.894 53.138 14.127 53.138 Z " fill="url(#_rgradient_1)"/><g id="Ebene_2"><g id="null"><radialGradient id="_rgradient_2" fx="-9055.18%" fy="19128.129999999997%" cx="-9055.18%" cy="19128.129999999997%" r="11080.08%" gradientTransform="matrix(0.010201274811937744 0 0 -0.01776277816607977 -0.00007919849011341789 3.113075052985912)"><stop offset="0%" style="stop-color:rgb(255,255,255)"/><stop offset="100%" style="stop-color:rgb(255,255,255)"/></radialGradient><path d=" M 18.753 32.084 C 18.753 14.848 32.746 0.855 49.982 0.855 C 67.218 0.855 81.211 14.848 81.211 32.084 C 81.211 49.32 67.218 63.313 49.982 63.313 C 32.746 63.313 18.753 49.32 18.753 32.084 Z " fill="url(#_rgradient_2)"/><radialGradient id="_rgradient_3" fx="-9055.18%" fy="19128.129999999997%" cx="-9055.18%" cy="19128.129999999997%" r="11080.08%" gradientTransform="matrix(0.010201274811937744 0 0 -0.01776277816607977 -0.00007919849011341789 3.113075052985912)"><stop offset="0%" style="stop-color:rgb(255,255,255)"/><stop offset="100%" style="stop-color:rgb(255,255,255)"/></radialGradient><path d=" M 49.982 64.168 C 32.291 64.168 17.899 49.775 17.899 32.084 C 17.899 14.392 32.292 0 49.982 0 C 67.672 0 82.067 14.393 82.067 32.084 C 82.067 49.775 67.673 64.168 49.982 64.168 Z  M 49.982 1.711 C 33.234 1.711 19.609 15.336 19.609 32.085 C 19.609 48.833 33.234 62.458 49.982 62.458 C 66.73 62.458 80.355 48.833 80.355 32.085 C 80.355 15.335 66.73 1.711 49.982 1.711 Z " fill="url(#_rgradient_3)"/></g></g><g id="Ebene_4"><radialGradient id="_rgradient_4" fx="-9055.18%" fy="19128.129999999997%" cx="-9055.18%" cy="19128.129999999997%" r="11080.08%" gradientTransform="matrix(0.010201274811937744 0 0 -0.01776277816607977 -0.00007919849011341789 3.113075052985912)"><stop offset="0%" style="stop-color:rgb(255,255,255)"/><stop offset="100%" style="stop-color:rgb(255,255,255)"/></radialGradient><path d=" M 20.39 44.281 C 23.941 43.548 28.288 42.55 33.494 41.082 C 37.289 39.919 48.005 36.428 48.005 36.428 L 62.579 31.653 C 67.906 29.878 72.252 28.529 75.622 27.611 C 75.622 27.611 80.661 26.284 81.517 26.131 C 81.211 22.952 79.386 19.13 79.386 19.13 C 77.546 19.486 75.577 19.941 73.601 20.509 C 70.173 21.489 65.762 22.837 60.251 24.674 L 45.679 29.449 C 39.862 31.348 35.146 32.879 31.412 33.98 C 23.722 36.377 18.491 37.323 18.284 37.369 C 18.283 37.369 18.977 41.924 20.39 44.281 Z " fill="url(#_rgradient_4)"/></g><g id="Ebene_3"><g id="null"><radialGradient id="_rgradient_5" fx="-9055.18%" fy="19128.129999999997%" cx="-9055.18%" cy="19128.129999999997%" r="11080.08%" gradientTransform="matrix(0.010201274811937744 0 0 -0.01776277816607977 -0.00007919849011341789 3.113075052985912)"><stop offset="0%" style="stop-color:rgb(255,255,255)"/><stop offset="100%" style="stop-color:rgb(255,255,255)"/></radialGradient><path d=" M 11.091 38.728 C 9.228 38.728 8.468 38.44 8.411 38.417 C 8.192 38.329 8.085 38.08 8.173 37.861 C 8.26 37.641 8.51 37.535 8.729 37.623 C 8.75 37.63 11.292 38.542 18.822 36.81 C 21.995 36.187 25.836 35.188 31.29 33.57 C 35.002 32.475 39.738 30.938 45.545 29.042 L 60.116 24.268 C 64.99 22.643 69.488 21.239 73.483 20.098 C 78.889 18.544 83.643 17.979 85.436 17.808 C 85.668 17.789 85.88 17.958 85.902 18.193 C 85.924 18.428 85.752 18.637 85.517 18.659 C 83.748 18.827 79.056 19.386 73.719 20.92 C 69.735 22.058 65.249 23.458 60.386 25.08 L 45.811 29.856 C 39.997 31.754 35.254 33.293 31.532 34.391 C 26.052 36.017 22.187 37.021 19 37.647 C 15.296 38.499 12.755 38.728 11.091 38.728 Z " fill="url(#_rgradient_5)"/></g><g id="null"><radialGradient id="_rgradient_6" fx="-9055.18%" fy="19128.129999999997%" cx="-9055.18%" cy="19128.129999999997%" r="11080.08%" gradientTransform="matrix(0.010201274811937744 0 0 -0.01776277816607977 -0.00007919849011341789 3.113075052985912)"><stop offset="0%" style="stop-color:rgb(255,255,255)"/><stop offset="100%" style="stop-color:rgb(255,255,255)"/></radialGradient><path d=" M 11.383 45.678 C 6.906 45.678 2.59 44.749 0.756 41.615 C 0.637 41.411 0.706 41.149 0.909 41.03 C 1.112 40.911 1.375 40.98 1.494 41.183 C 4.389 46.133 14.523 44.985 20.307 43.862 C 24.722 42.95 28.998 41.906 33.376 40.671 C 37.115 39.525 47.764 36.056 47.871 36.022 L 62.444 31.247 C 67.773 29.471 72.169 28.108 75.507 27.199 C 75.524 27.194 77.564 26.622 81.417 25.716 C 85.042 24.862 88.017 24.548 90.021 24.805 C 90.256 24.835 90.421 25.05 90.391 25.284 C 90.361 25.518 90.147 25.684 89.912 25.654 C 88.585 25.482 86.068 25.5 81.613 26.549 C 77.78 27.451 75.755 28.019 75.735 28.024 C 72.408 28.93 68.027 30.288 62.711 32.06 L 48.137 36.837 C 48.029 36.872 37.374 40.343 33.618 41.494 C 29.211 42.737 24.915 43.785 20.476 44.702 C 17.952 45.19 14.625 45.678 11.383 45.678 Z " fill="url(#_rgradient_6)"/></g></g><g id="null"><g id="null"><radialGradient id="_rgradient_7" fx="-9055.18%" fy="19128.129999999997%" cx="-9055.18%" cy="19128.129999999997%" r="11080.08%" gradientTransform="matrix(0.010201274811937744 0 0 -0.01776277816607977 -0.00007919849011341789 3.113075052985912)"><stop offset="0%" style="stop-color:rgb(255,255,255)"/><stop offset="100%" style="stop-color:rgb(255,255,255)"/></radialGradient><path d=" M 154.974 16.942 C 154.401 15.986 153.626 15.411 152.666 15.093 C 135.149 10.177 123.853 10.883 118.85 17.329 C 117.052 19.436 115.961 21.479 115.64 23.584 C 115.253 25.689 115.51 27.669 116.472 29.586 L 116.406 29.586 C 117.114 31.051 118.204 32.391 119.617 33.606 L 119.681 33.606 C 120.836 34.562 122.054 35.33 123.466 35.97 C 124.426 36.479 126.675 36.798 130.267 36.861 C 130.975 36.926 132.323 36.926 134.374 36.926 C 136.171 36.991 137.585 36.991 138.609 37.053 L 138.674 37.053 C 141.883 37.119 145.141 37.43 146.184 37.753 C 147.223 38.079 149.052 39.973 149.195 40.823 C 149.343 41.665 149.195 40.823 149.195 40.823 C 149.389 41.331 149.582 41.468 149.399 42.76 C 149.211 44.052 148.815 43.822 148.3 44.461 L 148.3 44.393 C 147.72 44.904 146.759 45.286 145.412 45.672 C 143.49 46.123 141.176 46.439 138.482 46.503 C 135.786 46.567 133.092 46.503 130.333 46.184 C 127.702 45.863 125.393 45.413 123.466 44.842 C 122.505 44.526 121.479 44.588 120.577 45.1 C 119.617 45.547 118.973 46.312 118.654 47.333 C 118.333 48.289 118.462 49.31 118.907 50.267 C 119.423 51.159 120.195 51.796 121.156 52.12 C 123.465 52.882 126.224 53.391 129.433 53.779 C 132.58 54.097 135.656 54.226 138.738 54.16 C 142.077 54.031 144.965 53.652 147.338 53.077 C 150.673 52.244 152.986 50.968 154.204 49.309 L 154.268 49.309 C 155.293 48.029 156.062 46.878 156.512 45.856 L 156.512 45.791 C 157.028 44.519 157.284 43.239 157.284 41.902 L 157.284 41.771 C 157.22 40.815 157.301 39.415 156.787 38.073 C 156.594 37.373 156.406 36.986 155.374 34.756 C 154.339 32.533 151.954 31.11 147.782 30.219 L 147.719 30.219 C 145.665 29.833 142.714 29.514 138.929 29.388 C 137.839 29.322 136.362 29.322 134.437 29.257 C 132.514 29.257 131.167 29.257 130.458 29.193 C 128.406 29.133 127.059 29.066 126.545 28.941 C 125.837 28.62 125.197 28.238 124.682 27.791 C 124.108 27.28 123.657 26.77 123.399 26.262 L 123.399 26.196 C 123.14 25.814 123.076 25.365 123.205 24.916 C 123.399 24.087 123.849 23.197 124.682 22.365 C 128.531 18.664 137.131 18.664 150.542 22.494 C 151.573 22.747 152.534 22.686 153.43 22.112 C 154.396 21.604 155.035 20.835 155.293 19.814 C 155.618 18.862 155.491 17.901 154.974 16.942 Z " fill="url(#_rgradient_7)"/><radialGradient id="_rgradient_8" fx="-9055.18%" fy="19128.129999999997%" cx="-9055.18%" cy="19128.129999999997%" r="11080.08%" gradientTransform="matrix(0.010201274811937744 0 0 -0.01776277816607977 -0.00007919849011341789 3.113075052985912)"><stop offset="0%" style="stop-color:rgb(255,255,255)"/><stop offset="100%" style="stop-color:rgb(255,255,255)"/></radialGradient><path d=" M 192.732 13.706 C 191.96 13.003 191.063 12.62 189.973 12.62 L 164.303 12.62 C 163.277 12.62 162.315 13.004 161.607 13.706 C 160.838 14.469 160.454 15.368 160.454 16.451 L 160.454 48.372 C 160.454 49.393 160.84 50.354 161.607 51.054 C 162.315 51.826 163.275 52.205 164.303 52.205 L 189.973 52.205 C 191.063 52.205 191.96 51.824 192.732 51.054 C 193.437 50.354 193.823 49.393 193.823 48.372 C 193.823 47.284 193.437 46.394 192.732 45.623 C 191.96 44.923 191.063 44.537 189.973 44.537 L 168.156 44.537 L 168.156 36.242 L 184.196 36.242 C 185.286 36.242 186.183 35.861 186.955 35.093 C 187.659 34.387 188.047 33.431 188.047 32.41 C 188.047 31.326 187.66 30.432 186.955 29.665 C 186.183 28.956 185.286 28.575 184.196 28.575 L 168.156 28.575 L 168.156 20.279 L 189.972 20.279 C 191.062 20.279 191.959 19.892 192.731 19.128 C 193.436 18.423 193.822 17.535 193.822 16.446 C 193.822 15.367 193.436 14.469 192.732 13.706 Z " fill="url(#_rgradient_8)"/><radialGradient id="_rgradient_9" fx="-9055.18%" fy="19128.129999999997%" cx="-9055.18%" cy="19128.129999999997%" r="11080.08%" gradientTransform="matrix(0.010201274811937744 0 0 -0.01776277816607977 -0.00007919849011341789 3.113075052985912)"><stop offset="0%" style="stop-color:rgb(255,255,255)"/><stop offset="100%" style="stop-color:rgb(255,255,255)"/></radialGradient><path d=" M 237.047 18.223 C 236.858 17.114 236.279 16.214 235.449 15.593 C 228.405 10.533 220.684 9.572 213.221 10.883 C 210.278 11.573 209.325 11.504 206.11 13.098 C 202.901 14.686 200.665 17.638 200.665 17.638 C 199.129 19.304 198.296 21.337 197.27 24.032 C 196.244 26.727 196.249 28.064 196.121 31.389 C 195.993 34.718 196.438 37.769 197.398 40.675 C 198.358 43.59 199.831 46.156 201.819 48.304 L 201.819 48.229 C 203.74 50.451 206.11 52.176 208.863 53.287 C 211.617 54.467 214.628 55.092 217.892 55.092 C 225.576 55.092 231.154 53.353 234.612 49.892 C 238.647 46.359 240.31 41.027 239.671 33.891 C 239.607 32.782 239.162 31.945 238.453 31.187 C 237.686 30.492 236.854 30.145 235.826 30.145 L 219.175 30.145 C 218.154 30.145 217.194 30.557 216.48 31.322 C 215.713 32.153 215.329 33.119 215.329 34.301 C 215.329 35.41 215.713 36.448 216.48 37.209 C 217.194 38.04 218.155 38.454 219.175 38.454 L 231.988 38.454 C 231.73 40.534 230.896 42.272 229.614 43.583 C 227.118 45.731 223.213 46.77 217.896 46.77 C 215.652 46.77 213.538 46.356 211.683 45.593 L 211.618 45.525 C 209.95 44.83 208.544 43.859 207.324 42.474 C 206.11 41.159 205.209 39.563 204.635 37.834 C 203.995 35.963 203.738 33.885 203.804 31.667 C 203.867 29.313 204.125 28.034 204.57 26.443 C 204.894 25.261 205.403 24.295 206.108 23.532 C 206.108 23.532 207.254 21.753 209.185 20.792 C 211.117 19.826 212.515 19.545 214.885 18.92 L 214.95 18.92 C 220.59 17.535 225.968 18.712 231.158 22.521 C 232.051 23.146 233.012 23.352 234.033 23.146 C 235.061 22.87 235.891 22.313 236.47 21.344 C 237.047 20.443 237.24 19.404 237.047 18.223 Z " fill="url(#_rgradient_9)"/><radialGradient id="_rgradient_10" fx="-9055.18%" fy="19128.129999999997%" cx="-9055.18%" cy="19128.129999999997%" r="11080.08%" gradientTransform="matrix(0.010201274811937744 0 0 -0.01776277816607977 -0.00007919849011341789 3.113075052985912)"><stop offset="0%" style="stop-color:rgb(255,255,255)"/><stop offset="100%" style="stop-color:rgb(255,255,255)"/></radialGradient><path d=" M 285.541 51.896 C 286.183 51.003 286.436 50.112 286.31 49.025 C 282.268 22.402 275.018 9.377 264.494 10.017 C 253.975 9.377 246.655 21.956 242.739 47.746 C 242.608 48.767 242.805 49.725 243.449 50.559 C 244.089 51.45 244.922 51.959 245.948 52.09 C 246.977 52.277 247.938 52.021 248.836 51.381 C 249.668 50.744 250.187 49.916 250.378 48.89 C 250.859 45.687 251.389 42.727 251.958 40.016 L 251.979 40.016 L 276.873 40.016 C 277.52 43.085 278.123 46.466 278.676 50.162 C 278.868 51.183 279.319 52.016 280.215 52.656 C 281.047 53.296 282.012 53.547 283.039 53.354 C 284.064 53.239 284.897 52.729 285.541 51.896 Z  M 253.865 32.364 C 256.673 22.917 260.225 18.024 264.49 17.68 C 268.627 18.019 272.137 22.917 274.951 32.364 L 253.865 32.364 Z " fill="url(#_rgradient_10)"/></g></g><g id="null"><radialGradient id="_rgradient_11" fx="-9055.18%" fy="19128.129999999997%" cx="-9055.18%" cy="19128.129999999997%" r="11080.08%" gradientTransform="matrix(0.010201274811937744 0 0 -0.01776277816607977 -0.00007919849011341789 3.113075052985912)"><stop offset="0%" style="stop-color:rgb(255,255,255)"/><stop offset="100%" style="stop-color:rgb(255,255,255)"/></radialGradient><path d=" M 346.722 16.601 C 346.144 15.637 345.364 15.058 344.394 14.736 C 326.729 9.779 315.338 10.487 310.292 16.991 C 308.479 19.114 307.379 21.174 307.054 23.299 C 306.664 25.422 306.924 27.416 307.894 29.349 L 307.829 29.349 C 308.543 30.829 309.643 32.178 311.067 33.403 L 311.131 33.403 C 312.294 34.367 313.525 35.141 314.949 35.786 C 315.918 36.303 318.185 36.624 321.806 36.687 C 322.522 36.75 323.881 36.75 325.947 36.75 C 327.762 36.816 329.186 36.816 330.219 36.882 L 330.284 36.882 C 333.52 36.949 336.805 37.261 337.858 37.585 C 338.905 37.918 340.753 39.826 340.896 40.684 C 341.045 41.537 340.896 40.684 340.896 40.684 C 341.089 41.197 341.287 41.332 341.098 42.635 C 340.91 43.944 340.509 43.708 339.991 44.353 L 339.991 44.288 C 339.406 44.8 338.436 45.183 337.078 45.575 C 335.14 46.027 332.807 46.348 330.088 46.411 C 327.369 46.48 324.653 46.411 321.87 46.092 C 319.22 45.769 316.891 45.318 314.948 44.738 C 313.976 44.417 312.943 44.486 312.035 44.996 C 311.063 45.451 310.416 46.217 310.095 47.247 C 309.772 48.211 309.902 49.241 310.35 50.205 C 310.871 51.106 311.649 51.751 312.619 52.075 C 314.945 52.845 317.729 53.361 320.968 53.75 C 324.139 54.069 327.241 54.2 330.349 54.135 C 333.717 54.006 336.629 53.618 339.023 53.039 C 342.383 52.199 344.718 50.916 345.947 49.241 L 346.012 49.241 C 347.047 47.953 347.822 46.79 348.277 45.761 L 348.277 45.695 C 348.797 44.409 349.055 43.123 349.055 41.771 L 349.055 41.642 C 348.991 40.678 349.075 39.268 348.555 37.911 C 348.36 37.204 348.169 36.815 347.131 34.57 C 346.085 32.325 343.679 30.889 339.474 29.992 L 339.408 29.992 C 337.34 29.602 334.362 29.284 330.547 29.156 C 329.446 29.093 327.959 29.093 326.016 29.023 C 324.077 29.023 322.718 29.023 322.003 28.958 C 319.935 28.9 318.575 28.83 318.057 28.705 C 317.343 28.378 316.699 27.994 316.178 27.545 C 315.598 27.031 315.144 26.515 314.884 26.003 L 314.884 25.937 C 314.623 25.551 314.561 25.101 314.69 24.649 C 314.884 23.813 315.339 22.913 316.178 22.077 C 320.061 18.341 328.733 18.341 342.255 22.208 C 343.296 22.461 344.265 22.4 345.168 21.821 C 346.143 21.308 346.787 20.53 347.048 19.501 C 347.371 18.534 347.242 17.565 346.722 16.601 Z " fill="url(#_rgradient_11)"/><radialGradient id="_rgradient_12" fx="-9055.18%" fy="19128.129999999997%" cx="-9055.18%" cy="19128.129999999997%" r="11080.08%" gradientTransform="matrix(0.010201274811937744 0 0 -0.01776277816607977 -0.00007919849011341789 3.113075052985912)"><stop offset="0%" style="stop-color:rgb(255,255,255)"/><stop offset="100%" style="stop-color:rgb(255,255,255)"/></radialGradient><path d=" M 357.237 54.18 C 358.079 53.534 358.599 52.697 358.791 51.667 C 359.281 48.438 359.814 45.452 360.385 42.723 L 385.517 42.723 C 386.171 45.818 386.774 49.227 387.33 52.955 C 387.524 53.985 387.975 54.825 388.883 55.466 C 389.724 56.109 390.693 56.368 391.731 56.174 C 392.766 56.044 393.606 55.528 394.253 54.695 C 394.898 53.79 395.159 52.888 395.029 51.797 C 390.954 24.953 383.638 11.82 373.027 12.465 C 362.415 11.82 355.102 24.505 351.089 50.511 C 350.896 51.541 351.154 52.505 351.799 53.344 C 352.449 54.248 353.287 54.764 354.327 54.887 C 355.428 55.081 356.331 54.826 357.237 54.18 Z  M 362.311 34.994 C 365.146 25.469 368.731 20.538 373.031 20.191 C 377.241 20.527 380.77 25.468 383.59 34.994 L 362.311 34.994 Z " fill="url(#_rgradient_12)"/><radialGradient id="_rgradient_13" fx="-9055.18%" fy="19128.129999999997%" cx="-9055.18%" cy="19128.129999999997%" r="11080.08%" gradientTransform="matrix(0.010201274811937744 0 0 -0.01776277816607977 -0.00007919849011341789 3.113075052985912)"><stop offset="0%" style="stop-color:rgb(255,255,255)"/><stop offset="100%" style="stop-color:rgb(255,255,255)"/></radialGradient><path d=" M 428.227 15.487 C 427.452 14.781 426.543 14.394 425.445 14.394 L 391.797 14.394 C 390.759 14.394 389.789 14.781 389.075 15.487 C 388.301 16.261 387.912 17.162 387.912 18.256 C 387.912 19.286 388.302 20.25 389.075 20.961 C 389.789 21.739 390.759 22.122 391.797 22.122 L 404.736 22.122 L 404.736 51.731 C 404.736 52.764 405.126 53.73 405.9 54.439 C 406.614 55.213 407.584 55.599 408.619 55.599 C 409.723 55.599 410.628 55.212 411.4 54.439 C 412.115 53.73 412.504 52.764 412.504 51.731 L 412.504 22.12 L 425.444 22.12 C 426.543 22.12 427.451 21.735 428.225 20.961 C 428.939 20.25 429.325 19.286 429.325 18.256 C 429.327 17.163 428.941 16.262 428.227 15.487 Z " fill="url(#_rgradient_13)"/><radialGradient id="_rgradient_14" fx="-9055.18%" fy="19128.129999999997%" cx="-9055.18%" cy="19128.129999999997%" r="11080.08%" gradientTransform="matrix(0.010201274811937744 0 0 -0.01776277816607977 -0.00007919849011341789 3.113075052985912)"><stop offset="0%" style="stop-color:rgb(255,255,255)"/><stop offset="100%" style="stop-color:rgb(255,255,255)"/></radialGradient><path d=" M 473.567 14.718 C 472.792 13.944 471.885 13.56 470.784 13.56 C 469.749 13.56 468.78 13.944 468.067 14.718 C 467.291 15.422 466.901 16.391 466.901 17.421 L 466.901 36.538 C 466.901 38.023 466.643 39.438 466.065 40.726 C 465.545 42.075 464.704 43.171 463.731 44.201 C 462.696 45.165 461.597 46.005 460.24 46.519 C 458.947 47.099 457.521 47.353 456.033 47.353 L 450.273 47.353 C 448.786 47.353 447.426 47.102 446.068 46.519 C 444.709 46.005 443.612 45.165 442.576 44.201 C 441.602 43.171 440.827 42.076 440.243 40.787 L 440.243 40.726 C 439.731 39.438 439.407 38.023 439.407 36.538 L 439.407 17.42 C 439.407 16.39 439.016 15.421 438.305 14.717 C 437.524 13.943 436.625 13.559 435.523 13.559 C 434.491 13.559 433.515 13.943 432.806 14.717 C 432.026 15.421 431.641 16.39 431.641 17.42 L 431.641 36.537 C 431.641 39.053 432.156 41.432 433.066 43.749 L 433.129 43.749 C 434.035 46.004 435.394 47.932 437.077 49.673 C 438.821 51.346 440.765 52.697 443.026 53.666 C 445.296 54.63 447.689 55.081 450.278 55.081 L 456.037 55.081 C 458.625 55.081 461.02 54.63 463.35 53.666 L 463.284 53.666 C 465.547 52.697 467.489 51.346 469.241 49.673 C 470.919 47.932 472.279 46.004 473.253 43.749 L 473.253 43.815 C 474.223 41.495 474.68 39.116 474.68 36.537 L 474.68 17.42 C 474.669 16.391 474.28 15.421 473.567 14.718 Z " fill="url(#_rgradient_14)"/><radialGradient id="_rgradient_15" fx="-9055.18%" fy="19128.129999999997%" cx="-9055.18%" cy="19128.129999999997%" r="11080.08%" gradientTransform="matrix(0.010201274811937744 0 0 -0.01776277816607977 -0.00007919849011341789 3.113075052985912)"><stop offset="0%" style="stop-color:rgb(255,255,255)"/><stop offset="100%" style="stop-color:rgb(255,255,255)"/></radialGradient><path d=" M 478.782 14.756 C 478.096 15.46 477.683 16.29 477.683 17.31 L 477.683 50.56 C 477.683 51.58 478.096 52.539 478.851 53.245 C 479.679 54.009 480.712 54.394 481.812 54.394 C 482.98 54.394 483.943 54.009 484.702 53.245 C 485.531 52.539 485.94 51.58 485.94 50.56 L 485.94 20.89 C 494.821 20.382 501.627 20.829 506.375 22.171 C 509.954 23.256 511.881 25.046 512.084 27.541 C 512.154 29.522 511.33 30.931 509.608 31.766 C 506.853 32.917 502.794 33.236 497.432 32.658 C 496.468 32.592 495.64 32.723 494.813 33.232 C 493.987 33.677 493.436 34.317 493.092 35.152 C 492.747 35.919 492.747 36.745 492.956 37.579 C 493.229 38.414 493.784 39.049 494.542 39.559 L 515.189 53.626 C 516.083 54.257 517.112 54.518 518.216 54.327 C 519.385 54.197 520.28 53.687 520.967 52.787 C 521.588 51.957 521.863 50.998 521.728 49.976 C 521.519 48.888 520.967 48.06 520.073 47.418 L 509.132 40.001 C 510.718 39.622 512.09 39.167 513.263 38.597 C 517.944 36.417 520.285 32.716 520.358 27.534 C 520.63 21.4 516.775 17.18 508.936 14.874 C 502.809 12.958 493.654 12.508 481.474 13.47 C 480.44 13.539 479.545 13.984 478.782 14.756 Z " fill="url(#_rgradient_15)"/><radialGradient id="_rgradient_16" fx="-9055.18%" fy="19128.129999999997%" cx="-9055.18%" cy="19128.129999999997%" r="11080.08%" gradientTransform="matrix(0.010201274811937744 0 0 -0.01776277816607977 -0.00007919849011341789 3.113075052985912)"><stop offset="0%" style="stop-color:rgb(255,255,255)"/><stop offset="100%" style="stop-color:rgb(255,255,255)"/></radialGradient><path d=" M 526.586 15.421 C 526.13 16.067 525.876 16.777 525.876 17.61 L 525.876 51.088 C 525.876 52.12 526.261 53.087 527.038 53.791 C 527.749 54.565 528.719 54.95 529.756 54.95 C 530.857 54.95 531.761 54.566 532.535 53.791 C 533.248 53.087 533.638 52.121 533.638 51.088 L 533.638 27.208 L 559.326 53.729 C 559.911 54.306 560.553 54.695 561.336 54.885 C 562.11 55.014 562.821 54.948 563.598 54.695 C 564.314 54.368 564.891 53.921 565.348 53.215 C 565.802 52.57 565.996 51.861 565.996 51.087 L 565.996 17.61 C 565.996 16.517 565.606 15.616 564.891 14.842 C 564.116 14.138 563.214 13.745 562.111 13.745 C 561.077 13.745 560.108 14.139 559.393 14.842 C 558.618 15.616 558.229 16.517 558.229 17.61 L 558.229 41.495 L 532.606 14.908 C 532.021 14.396 531.376 14.011 530.596 13.813 C 529.823 13.688 529.043 13.75 528.334 14.073 C 527.619 14.329 526.976 14.781 526.586 15.421 Z " fill="url(#_rgradient_16)"/></g></g></g></svg>