<?xml version="1.0" standalone="no"?><!-- Generator: Gravit.io --><svg xmlns="http://www.w3.org/2000/svg" xmlns:xlink="http://www.w3.org/1999/xlink" style="isolation:isolate" viewBox="0 -10.631 539.635 72.319" width="539.635" height="72.319"><g id="null"><g id="null"><path d=" M 63.4 18.858 L 61.847 18.139 C 61.944 17.819 62.041 17.42 62.041 17.02 C 62.041 15.981 52.914 10.387 37.088 10.387 C 21.942 10.387 15.437 14.223 15.437 19.177 C 15.437 32.281 72.623 13.105 72.623 42.031 C 72.623 52.579 60.195 60.73 35.34 60.73 C 11.651 60.73 4.854 54.497 2.621 54.497 C 2.038 54.497 1.747 54.894 1.262 55.137 L 0 54.897 L 8.058 41.311 L 9.612 41.951 C 9.612 42.272 9.417 42.593 9.417 43.231 C 9.417 47.947 21.942 51.299 34.37 51.299 C 52.041 51.299 58.06 47.147 58.06 42.749 C 58.06 27.089 1.65 46.504 1.65 19.978 C 1.65 6.553 18.835 0.959 37.671 0.959 C 54.565 0.959 66.41 7.032 67.575 7.032 C 68.837 7.032 69.031 6.713 69.323 6.473 L 70.876 6.872 L 63.4 18.858 Z " fill="rgb(255,255,255)"/><path d=" M 80.095 58.81 C 82.231 58.81 82.619 58.171 82.619 56.413 L 82.619 5.274 C 82.619 3.516 82.23 2.877 80.095 2.877 L 80.095 1.758 L 143.107 1.758 C 145.437 1.758 146.408 1.118 146.408 0 L 147.767 0 L 147.767 13.265 L 146.408 13.265 C 146.408 11.827 145.437 11.188 143.107 11.188 L 96.406 11.188 L 96.406 25.412 L 126.893 25.412 C 129.223 25.412 130.194 24.772 130.194 23.334 L 131.553 23.334 L 131.553 36.756 L 130.194 36.756 C 130.194 36.117 130 35.639 129.417 35.318 C 128.932 34.999 128.058 34.838 126.893 34.838 L 96.406 34.838 L 96.406 50.502 L 143.981 50.502 C 146.311 50.502 147.282 49.861 147.282 48.584 L 148.641 48.584 L 148.641 61.688 L 147.282 61.688 C 147.282 60.57 146.311 59.93 143.981 59.93 L 80.095 59.93 L 80.095 58.81 Z " fill="rgb(255,255,255)"/><path d=" M 234.754 29.246 L 234.754 30.365 C 233.783 30.525 232.909 31.164 232.909 32.922 L 232.909 48.663 C 232.909 49.942 233.395 50.42 234.657 50.66 L 234.657 51.779 C 228.54 54.655 213.588 60.73 196.791 60.73 C 174.46 60.73 154.848 51.618 154.848 30.844 C 154.848 10.068 177.761 0.958 197.956 0.958 C 205.918 0.958 213.491 2.476 219.025 3.915 C 224.171 5.753 227.957 7.192 228.637 7.192 C 229.511 7.192 230.385 6.792 230.773 6.313 L 232.132 6.792 L 222.715 19.896 L 221.355 19.177 C 221.452 18.858 221.549 18.378 221.549 17.819 C 221.549 15.341 211.064 10.387 198.151 10.387 C 181.84 10.387 168.636 17.02 168.636 30.525 C 168.636 44.668 181.84 51.298 196.792 51.298 C 209.026 51.298 216.21 47.861 219.123 46.105 L 219.123 39.474 L 202.424 39.474 C 200.482 39.474 199.317 40.273 199.317 41.39 L 197.957 41.39 L 197.957 27.329 L 199.317 27.329 C 199.317 28.447 200.482 29.246 202.424 29.246 L 234.754 29.246 Z " fill="rgb(255,255,255)"/><path d=" M 239.602 59.932 L 239.602 58.813 C 241.35 58.733 241.932 58.334 243.291 55.776 L 269.797 6.713 C 270.281 5.914 270.863 5.035 270.863 4.317 C 270.863 3.438 270.089 3.038 268.824 2.879 L 268.824 1.759 L 289.991 1.759 L 289.991 2.878 C 288.534 3.038 287.95 3.517 287.95 4.077 C 287.95 4.716 288.34 5.355 288.825 6.155 L 316.981 55.776 C 318.338 58.254 318.729 58.813 320.766 58.813 L 320.766 59.932 L 301.446 59.932 L 301.446 58.813 C 302.71 58.813 303.194 58.413 303.194 58.014 C 303.194 57.135 302.321 56.016 295.815 44.588 L 262.512 44.588 C 256.881 54.975 255.425 56.574 255.425 57.613 C 255.425 58.332 256.007 58.732 256.881 58.81 L 256.881 59.929 L 239.6 59.929 L 239.6 59.932 L 239.602 59.932 Z  M 290.187 35.478 L 278.536 14.542 L 267.079 35.478 L 290.187 35.478 Z " fill="rgb(255,255,255)"/></g><path d=" M 337.602 1.758 L 337.602 59.929 L 524.457 59.929 L 524.457 1.758 L 337.602 1.758 Z  M 345.524 42.594 C 343.969 32.237 378.374 18.431 423.194 11.156 C 422.182 11.417 420.225 11.918 420.225 11.918 C 420.225 11.918 415.821 12.994 414.602 13.292 C 391.739 18.879 375.721 28.944 377.057 37.869 C 378.426 47.006 397.526 51.952 421.823 50.262 C 423.173 50.166 427.962 49.936 429.005 49.889 C 384.016 56.068 347.075 52.953 345.524 42.594 Z  M 457.563 44.831 C 447.631 47.088 435.217 49.004 435.217 49.004 L 435.217 23.045 L 441.617 44.169 C 441.617 44.169 456.859 41.695 468.461 36.865 C 478.545 32.666 484.801 27.399 484.379 21.788 C 483.695 12.673 464.311 7.81 440.379 9.349 C 438.783 9.452 433.484 9.724 432.443 9.77 C 477.423 3.589 514.359 6.706 515.914 17.063 C 517.235 25.873 492.543 37.172 457.563 44.831 Z " fill="rgb(255,255,255)"/></g><g id="null"><line x1="539.635" y1="-9.207" x2="539.635" y2="-10.631"/></g></svg>