<?xml version="1.0" standalone="no"?><!-- Generator: Gravit.io --><svg xmlns="http://www.w3.org/2000/svg" xmlns:xlink="http://www.w3.org/1999/xlink" style="isolation:isolate" viewBox="0 0 477.948 205.538" width="477.948" height="205.538"><path d=" M 297.504 204.876 C 295.244 202.491 289.164 202.276 288.219 202.276 C 245.631 202.276 203.046 202.274 160.454 202.278 C 156.125 202.278 155.346 202.81 155.876 197.321 C 156.744 188.342 160.043 179.999 166.564 173.556 C 167.813 172.285 168.23 171.856 171.084 169.269 C 183.176 158.312 207.266 149.526 207.266 149.526 C 207.266 149.526 227.425 142.083 238.745 137.629 C 243.83 135.629 248.795 133.319 253.323 130.184 C 269.744 117.241 261.217 104.395 239.568 101.403 C 224.405 99.233 210.59 102.936 197.82 111.08 C 196.153 112.143 194.746 113.205 193.136 114.361 C 190.28 116.775 187.829 119.59 187.3 122.701 C 187.014 124.382 187.287 125.539 187.321 125.813 C 187.429 126.684 187.696 128.063 187.049 128.697 C 186.271 129.457 184.655 128.695 183.938 128.016 C 177.358 121.797 170.766 115.592 164.179 109.379 C 163.767 108.99 163.006 108.158 163.006 108.158 C 163.006 108.158 162.286 107.324 162.261 106.752 C 162.232 106.108 162.865 105.503 163.621 105.267 C 167.21 104.606 168.866 104.394 171.02 102.819 C 176.817 98.582 182.875 94.794 189.345 91.639 C 197.996 87.42 207.092 84.913 216.617 83.629 C 223.942 82.641 245.457 79.291 270.59 90.466 C 277.219 93.373 282.903 97.49 287.188 103.297 C 289.723 106.734 299.284 125.578 279.805 140.63 C 272.842 146.218 264.532 149.668 256.131 152.601 C 248.943 155.112 243.666 156.997 231.904 160.396 C 222.973 163.054 216.562 165.132 206.341 169.981 C 198.212 173.837 192.876 178.524 192.876 178.524 C 192.876 178.524 190.214 180.577 190.729 182.183 C 191.175 183.577 193.397 183.437 194.704 183.44 C 226.149 183.46 257.596 183.454 289.041 183.456 C 292.295 183.456 295.449 183.227 297.934 180.672 C 298.295 180.299 299.252 180.098 299.684 180.316 C 300.098 180.523 300.387 181.377 300.391 181.949 C 300.44 189.314 300.442 196.843 300.399 204.207 C 300.393 204.923 300.159 205.179 299.803 205.386 C 299.265 205.697 298.125 205.531 297.504 204.876 Z " fill="rgb(255,255,255)"/><path d=" M 63.231 203.95 C 58.072 203.635 52.899 202.971 47.804 202.071 C 27.065 198.415 17.419 193.517 11.63 191.245 C 8.864 190.159 6.16 189.131 3.154 190.233 C 2.811 190.36 2.409 190.353 2.033 190.36 C 0.122 190.381 -0.463 189.638 0.367 187.933 C 1.356 185.901 2.515 183.948 3.684 182.007 C 6.851 176.755 10.06 171.528 13.254 166.289 C 13.401 166.05 13.569 165.818 13.714 165.574 C 14.365 164.484 15.08 163.473 16.572 163.682 C 17.975 163.879 18.278 165.036 18.572 166.133 C 19.214 168.521 20.671 170.299 22.588 171.78 C 27.124 175.291 32.247 177.653 37.621 179.528 C 44.59 181.959 51.764 183.481 59.05 184.625 C 67.677 185.979 76.349 186.151 85.011 185.649 C 92.353 185.222 99.587 183.897 106.509 181.192 C 110.722 179.546 113.918 176.64 116.477 173.089 C 119.872 168.378 118.481 161.901 113.855 158.218 C 107.571 153.216 100.263 151.239 92.522 149.908 C 85.562 148.716 78.61 148.843 71.643 148.932 C 68.372 148.975 60.553 149.286 57.556 152.068 C 56.452 153.04 55.577 153.113 55.052 152.639 C 54.527 152.163 54.504 151.411 54.498 150.754 C 54.439 143.953 54.432 137.15 54.477 130.353 C 54.492 128.125 55.531 127.451 57.257 128.66 C 59.437 130.187 61.856 130.855 64.382 131.179 C 68.578 131.718 82.274 131.242 85.072 130.876 C 92.553 129.898 91.9 130.017 96.266 128.847 C 100.939 127.595 105.397 124.316 107.724 121.605 C 107.762 121.562 107.8 121.517 107.837 121.472 C 111.081 117.564 109.991 113.066 106.973 109.845 C 104.075 106.755 100.432 104.776 96.376 103.578 C 89.729 101.618 82.92 100.546 76.011 100.871 C 63.504 101.459 51.237 103.368 39.928 109.187 C 37.339 110.519 34.912 112.195 32.521 113.873 C 30.479 115.306 29.451 117.404 29.393 119.929 C 29.363 121.242 29.573 122.744 28.014 123.318 C 26.441 123.896 25.626 122.527 24.729 121.617 C 18.969 115.765 13.233 109.89 7.491 104.019 C 7.161 103.682 6.793 103.361 6.549 102.966 C 5.855 101.843 6.282 100.912 7.612 100.758 C 9.1 100.586 10.694 100.821 12.076 100.371 C 14.118 99.706 16.028 98.618 17.971 97.664 C 23.136 95.131 28.166 92.278 33.473 90.094 C 41.878 86.636 50.723 84.778 59.758 83.657 C 68.406 82.584 83.664 82.138 94.702 83.768 C 102.08 84.883 109.393 86.365 116.241 89.417 C 122.282 92.109 128.181 95.115 132.691 100.196 C 135.951 103.868 138.14 107.971 138.874 112.947 C 139.578 117.717 138.793 122.074 136.754 126.353 C 135.35 129.3 133.25 131.208 130.361 132.941 C 124.693 136.339 121.337 137.189 120.62 137.627 C 119.48 138.32 119.43 139.244 120.593 139.91 C 121.639 140.51 122.841 140.863 124.006 141.226 C 130.827 143.355 136.685 147.099 141.569 152.228 C 145.136 155.972 147.249 160.458 147.959 165.763 C 148.685 171.197 147.41 175.999 145.063 180.72 C 143.236 184.396 140.207 186.982 137.02 189.325 C 130.576 194.069 123.398 197.28 115.704 199.557 C 109.977 201.249 104.173 202.399 98.295 203.176 C 78.199 205.376 67.934 204.238 63.231 203.95 Z " fill="rgb(255,255,255)"/><path d=" M 340.045 83.696 C 346.75 83.696 353.455 83.696 360.162 83.697 C 360.822 83.697 361.49 83.647 362.142 83.725 C 363.636 83.903 363.867 84.535 362.929 85.757 C 361.253 87.939 361.267 88.174 363.175 90.192 C 363.238 90.261 363.308 90.326 363.374 90.393 C 372.729 99.858 382.089 109.324 391.448 118.789 C 391.913 119.26 392.348 119.769 392.886 120.15 C 393.825 120.826 394.831 120.839 395.755 120.095 C 396.269 119.683 396.724 119.197 397.189 118.726 C 406.429 109.408 415.669 100.087 424.908 90.765 C 425.242 90.43 425.59 90.106 425.885 89.739 C 427.117 88.208 427.088 87.666 425.938 86.025 C 424.903 84.627 424.903 83.776 427.014 83.723 C 427.475 83.711 427.953 83.697 428.426 83.697 C 442.026 83.697 455.625 83.694 469.225 83.702 C 470.069 83.702 470.936 83.692 471.75 83.871 C 472.098 83.947 472.521 84.471 472.58 84.842 C 472.637 85.209 472.381 85.852 472.076 86.004 C 471.158 86.465 470.174 86.859 469.17 87.079 C 465.363 87.911 462.262 89.791 459.51 92.595 C 447.672 104.658 435.711 116.599 423.815 128.607 C 420.833 131.623 417.897 134.699 414.973 137.777 C 413.123 139.722 413.119 140.64 414.994 142.558 C 418.289 145.918 421.674 149.191 424.953 152.566 C 427.383 155.066 429.641 157.736 432.09 160.214 C 438.598 166.796 445.186 173.296 451.703 179.866 C 456.09 184.288 460.439 188.747 464.75 193.243 C 467.232 195.837 470.123 197.643 473.611 198.536 C 474.882 198.858 476.125 199.343 477.326 199.874 C 477.652 200.02 477.992 200.638 477.943 200.983 C 477.892 201.338 477.427 201.796 477.052 201.915 C 476.439 202.108 475.751 202.11 475.097 202.11 C 461.214 202.12 447.331 202.118 433.449 202.112 C 432.886 202.112 432.299 202.124 431.765 201.971 C 430.882 201.719 430.548 201.188 431.095 200.272 C 431.554 199.501 432.281 198.624 432.197 197.87 C 432.105 197.069 431.283 196.282 430.638 195.628 C 419.87 184.638 409.081 173.667 398.296 162.694 C 397.9 162.29 397.501 161.885 397.093 161.493 C 394.71 159.19 393.837 159.161 391.45 161.536 C 384.554 168.393 377.649 175.251 370.817 182.177 C 366.379 186.675 362.053 191.284 357.688 195.856 C 356.043 197.578 356.043 197.687 357.293 199.97 C 358.006 201.275 357.736 201.849 356.248 202.062 C 355.602 202.156 354.932 202.119 354.268 202.119 C 340.858 202.121 327.45 202.137 314.039 202.096 C 312.834 202.092 310.816 202.42 310.713 200.953 C 310.502 199.42 312.354 199.342 313.442 199.086 C 318.325 197.943 322.053 195.158 325.506 191.615 C 336.514 180.324 347.705 169.217 358.785 157.996 C 362.224 154.512 365.514 150.877 368.912 147.351 C 370.223 145.996 371.676 144.783 373.016 143.455 C 375.815 140.678 375.827 139.937 373.133 137.219 C 364.967 128.959 356.785 120.721 348.625 112.457 C 341.992 105.742 335.334 99.049 328.785 92.252 C 326.264 89.635 323.303 88.008 319.818 87.193 C 319.175 87.043 318.545 86.844 317.914 86.649 C 317.018 86.372 315.91 86.16 316.033 84.939 C 316.158 83.696 317.25 83.696 318.221 83.698 C 318.789 83.699 319.356 83.696 319.922 83.696 C 326.632 83.696 333.339 83.696 340.045 83.696 Z " fill="rgb(255,255,255)"/><path d=" M 123.772 70.841 L 154.645 70.816 C 167.272 70.816 177.507 60.583 177.507 47.955 C 177.507 35.33 167.273 25.095 154.645 25.095 L 146.629 25.134 C 145.989 25.134 145.473 24.615 145.473 23.978 C 145.473 23.335 145.99 22.818 146.629 22.818 L 177.427 22.822 L 177.445 13.144 L 146.622 13.144 C 140.648 13.144 135.808 17.986 135.808 23.957 C 135.808 29.931 140.648 34.771 146.622 34.771 L 154.678 34.861 C 161.908 34.861 167.768 40.72 167.768 47.948 C 167.768 55.18 161.909 61.04 154.678 61.04 L 123.784 61.04 L 123.772 70.841 Z " fill="rgb(255,255,255)"/><path d=" M 123.784 58.761 L 154.678 58.761 C 160.652 58.761 165.492 53.921 165.492 47.947 C 165.492 41.978 160.651 37.135 154.678 37.135 L 146.622 37.047 C 139.392 37.047 133.532 31.189 133.532 23.956 C 133.532 16.728 139.392 10.868 146.622 10.868 L 177.445 10.854 L 177.427 1.124 L 146.629 1.114 C 134.003 1.114 123.768 11.35 123.768 23.978 C 123.768 36.602 134.002 46.836 146.629 46.836 L 154.598 46.843 C 155.216 46.843 155.715 47.342 155.715 47.962 C 155.715 48.579 155.216 49.081 154.598 49.081 L 123.772 49.092 L 123.784 58.761 Z " fill="rgb(255,255,255)"/><path d=" M 201.433 61.1 C 196.085 61.1 191.698 56.815 191.698 51.367 L 191.698 20.421 C 191.698 15.174 196.085 10.836 201.433 10.836 L 234.386 10.845 L 234.384 1.126 L 201.434 1.119 C 190.717 1.119 182.032 9.807 182.032 20.52 L 182.032 51.367 C 182.032 62.08 190.718 70.766 201.434 70.766 L 234.249 70.78 L 234.238 61.087 L 201.433 61.1 Z " fill="rgb(255,255,255)"/><path d=" M 194.06 20.52 C 194.06 16.435 197.345 13.122 201.434 13.122 L 234.387 13.122 L 234.385 22.825 L 205.995 22.825 C 203.72 22.826 203.693 25.112 203.693 25.112 L 227.366 25.112 L 227.373 34.784 L 194.043 34.784 L 194.06 20.52 Z " fill="rgb(255,255,255)"/><path d=" M 201.433 58.748 C 197.356 58.748 194.051 55.441 194.051 51.367 L 194.044 37.094 L 227.374 37.094 L 227.367 46.795 L 203.691 46.795 C 203.719 49.079 205.994 49.082 205.994 49.082 L 234.249 49.082 L 234.238 58.736 L 201.433 58.748 Z " fill="rgb(255,255,255)"/><path d=" M 257.474 61.075 C 252.125 61.075 247.765 56.714 247.765 51.367 L 247.765 20.52 C 247.765 15.175 252.099 10.837 257.448 10.837 L 289.351 10.831 L 289.355 1.122 L 257.373 1.12 C 246.657 1.12 237.972 9.808 237.972 20.521 L 237.972 51.368 C 237.972 62.081 246.735 70.767 257.449 70.767 L 289.356 70.781 L 289.353 25.102 L 261.931 25.102 L 261.931 34.784 L 279.66 34.784 L 279.66 61.078 L 257.474 61.075 Z " fill="rgb(255,255,255)"/><path d=" M 250.048 51.367 C 250.048 55.451 253.361 58.816 257.447 58.816 L 277.372 58.817 L 277.372 37.073 L 261.955 37.073 L 261.955 46.787 L 267.677 46.787 L 267.7 49.073 L 262.007 49.065 C 260.75 49.065 259.73 48.044 259.73 46.787 L 259.695 25.089 C 259.695 25.089 259.689 22.827 261.982 22.779 L 289.378 22.779 L 289.352 13.097 L 257.448 13.121 C 253.362 13.121 250.05 16.434 250.05 20.519 L 250.05 51.367" fill="rgb(255,255,255)"/><path d=" M 319.334 12.961 C 319.763 11.727 320.938 10.839 322.317 10.839 C 323.699 10.839 324.877 11.731 325.302 12.967 L 340.778 58.866 L 318.114 58.866 L 318.138 48.072 L 325.72 48.072 L 322.299 37.909 L 311.193 70.771 L 299.746 70.771 L 319.334 12.961 Z " fill="rgb(255,255,255)"/><path d=" M 343.908 61.078 L 318.151 61.078 L 318.151 70.772 L 357.366 70.772 L 336.967 10.235 C 335.18 4.333 329.296 0 322.311 0 C 315.332 0 309.451 4.33 307.66 10.223 L 287.072 70.771 L 297.34 70.771 L 317.312 11.911 C 318.129 9.963 320.05 8.593 322.295 8.593 C 324.536 8.593 326.453 9.952 327.272 11.893 L 343.908 61.078 Z " fill="rgb(255,255,255)"/></svg>