<?xml version="1.0" standalone="no"?><!-- Generator: Gravit.io --><svg xmlns="http://www.w3.org/2000/svg" xmlns:xlink="http://www.w3.org/1999/xlink" style="isolation:isolate" viewBox="0 0 400 120" width="400" height="120"><g id="g4172"><g id="g4156"><path d=" M 163.3 37.019 L 140.292 71.042 L 159.139 88.42 L 199.036 58.559 L 163.3 37.019 L 163.3 37.019 Z " fill-rule="evenodd" fill="rgb(254,254,254)"/><g id="g4204"><path d=" M 160.82 36.779 C 160.82 20.912 173.702 8.029 189.57 8.029 C 205.437 8.029 218.32 20.912 218.32 36.779 C 218.32 52.647 205.437 65.529 189.57 65.529 C 173.702 65.529 160.82 52.647 160.82 36.779 Z " fill="rgb(255,255,255)"/><path d=" M 211.581 36.779 C 211.59 44.649 207.397 51.925 200.583 55.863 C 193.769 59.801 185.371 59.801 178.557 55.863 C 171.743 51.925 167.55 44.649 167.559 36.779 C 167.55 28.909 171.743 21.633 178.557 17.695 C 185.371 13.758 193.769 13.758 200.583 17.695 C 207.397 21.633 211.59 28.909 211.581 36.779 L 211.581 36.779 Z " fill-rule="evenodd" fill="rgb(7,7,7)"/><path d=" M 207.125 36.791 C 207.119 46.482 199.261 54.334 189.57 54.334 C 179.879 54.334 172.021 46.482 172.015 36.791 C 172.01 30.516 175.355 24.716 180.789 21.578 C 186.222 18.439 192.917 18.439 198.351 21.578 C 203.784 24.716 207.129 30.516 207.125 36.791 L 207.125 36.791 Z " fill-rule="evenodd" fill="rgb(254,254,254)"/></g></g><g id="g4163"><g id="g4152"><path d=" M 161.105 85.016 C 161.107 91.314 157.749 97.134 152.295 100.283 C 146.842 103.433 140.122 103.433 134.669 100.283 C 129.215 97.134 125.856 91.314 125.859 85.016 C 125.856 78.718 129.215 72.898 134.669 69.749 C 140.122 66.599 146.842 66.599 152.295 69.749 C 157.749 72.898 161.107 78.718 161.105 85.016 L 161.105 85.016 Z " fill-rule="evenodd" fill="rgb(255,255,255)"/><path d=" M 156.639 85.016 C 156.639 92.503 150.749 98.573 143.482 98.573 C 136.215 98.573 130.324 92.503 130.324 85.016 C 130.324 80.172 132.832 75.697 136.903 73.275 C 140.974 70.853 145.99 70.853 150.061 73.275 C 154.132 75.697 156.639 80.172 156.639 85.016 L 156.639 85.016 Z " fill-rule="evenodd" fill="rgb(7,7,7)"/></g><g id="g4148"><path d=" M 48.259 38.977 C 48.26 45.274 44.901 51.094 39.448 54.243 C 33.995 57.392 27.276 57.392 21.822 54.243 C 16.369 51.094 13.01 45.274 13.012 38.977 C 13.01 32.68 16.369 26.86 21.822 23.711 C 27.276 20.562 33.995 20.562 39.448 23.711 C 44.901 26.86 48.26 32.68 48.259 38.977 L 48.259 38.977 Z " fill-rule="evenodd" fill="rgb(255,255,255)"/><path d=" M 43.866 38.977 C 43.867 43.562 41.346 47.799 37.252 50.092 C 33.157 52.384 28.113 52.384 24.019 50.092 C 19.925 47.799 17.403 43.562 17.405 38.977 C 17.403 34.392 19.925 30.155 24.019 27.863 C 28.113 25.57 33.157 25.57 37.252 27.863 C 41.346 30.155 43.867 34.392 43.866 38.977 L 43.866 38.977 Z " fill-rule="evenodd" fill="rgb(7,7,7)"/></g><path d="M 38.301 30.011 L 144.163 73.213 C 151.154 76.066 154.902 83.107 152.527 88.927 L 152.527 88.927 C 150.152 94.746 142.548 97.154 135.557 94.301 L 29.695 51.099 C 22.704 48.246 18.956 41.205 21.331 35.385 L 21.331 35.385 C 23.706 29.566 31.31 27.158 38.301 30.011 Z" style="stroke:none;fill:#FEFEFE;stroke-miterlimit:10;"/></g></g><g id="g4174"><path d=" M 250.747 26.723 L 250.747 33.547 Q 248.344 32.36 246.059 31.755 Q 243.774 31.15 241.743 31.15 Q 239.047 31.15 237.758 31.971 Q 236.469 32.792 236.469 34.519 Q 236.469 35.815 237.329 36.549 Q 238.208 37.262 240.493 37.781 L 243.696 38.493 Q 248.559 39.573 250.61 41.776 Q 252.661 43.979 252.661 48.039 Q 252.661 53.374 249.79 55.987 Q 246.938 58.579 241.059 58.579 Q 238.286 58.579 235.493 57.995 Q 232.7 57.412 229.907 56.268 L 229.907 49.249 Q 232.7 50.89 235.297 51.732 Q 237.915 52.553 240.336 52.553 Q 242.797 52.553 244.106 51.646 Q 245.415 50.739 245.415 49.054 Q 245.415 47.542 244.516 46.722 Q 243.637 45.901 240.981 45.253 L 238.071 44.54 Q 233.696 43.504 231.665 41.236 Q 229.653 38.968 229.653 35.124 Q 229.653 30.308 232.465 27.716 Q 235.278 25.125 240.551 25.125 Q 242.954 25.125 245.493 25.535 Q 248.032 25.924 250.747 26.723 L 250.747 26.723 Z " fill="rgb(255,255,255)"/><path d=" M 258.465 25.708 L 285.34 25.708 L 285.34 31.992 L 275.672 31.992 L 275.672 57.952 L 268.153 57.952 L 268.153 31.992 L 258.465 31.992 L 258.465 25.708 L 258.465 25.708 Z " fill="rgb(255,255,255)"/><path d=" M 291.867 25.708 L 312.16 25.708 L 312.16 31.992 L 299.387 31.992 L 299.387 37.997 L 311.399 37.997 L 311.399 44.281 L 299.387 44.281 L 299.387 51.668 L 312.59 51.668 L 312.59 57.952 L 291.867 57.952 L 291.867 25.708 L 291.867 25.708 Z " fill="rgb(255,255,255)"/><path d=" M 339.567 52.078 L 327.809 52.078 L 325.953 57.952 L 318.395 57.952 L 329.195 25.708 L 338.16 25.708 L 348.961 57.952 L 341.402 57.952 L 339.567 52.078 L 339.567 52.078 Z  M 329.684 46.095 L 337.672 46.095 L 333.688 33.267 L 329.684 46.095 L 329.684 46.095 Z " fill="rgb(255,255,255)"/><path d=" M 355.469 25.708 L 365.039 25.708 L 371.68 42.964 L 378.359 25.708 L 387.91 25.708 L 387.91 57.952 L 380.801 57.952 L 380.801 34.368 L 374.082 51.754 L 369.316 51.754 L 362.598 34.368 L 362.598 57.952 L 355.469 57.952 L 355.469 25.708 L 355.469 25.708 Z " fill="rgb(255,255,255)"/></g></svg>