<?xml version="1.0" standalone="no"?><!-- Generator: Gravit.io --><svg xmlns="http://www.w3.org/2000/svg" xmlns:xlink="http://www.w3.org/1999/xlink" style="isolation:isolate" viewBox="0 0 491.678 147.655" width="491.678" height="147.655"><path d=" M 362.973 146.91 C 362.017 146.345 359.692 144.392 357.808 142.566 C 353.708 138.593 352.41 138.154 350.106 139.961 C 348.671 141.085 348.444 141.618 348.562 143.563 C 348.638 144.817 348.481 145.844 348.222 145.844 C 347.199 145.844 344.1 142.114 342.719 139.218 C 339.898 133.303 339.438 127.652 341.633 125.887 C 342.247 125.391 343.878 125.182 346.489 125.259 C 352.023 125.42 354.898 127.081 361.297 133.806 C 366.633 139.414 367.427 139.833 370.542 138.685 C 372.588 137.932 372.781 136.33 371.509 130.659 C 370.276 125.166 369.096 122.082 367.838 121.071 C 367.158 120.523 366.8 120.731 365.85 122.219 C 365.213 123.217 363.92 124.749 362.977 125.623 L 361.263 127.212 L 355.405 123.704 C 352.183 121.775 347.525 119.406 345.053 118.44 C 342.582 117.474 340.332 116.463 340.053 116.193 C 339.32 115.483 339.371 113.766 340.342 106.64 C 341.519 97.962 341.545 74.71 340.399 71.578 C 339.949 70.363 339.574 69.193 339.569 68.978 C 339.511 68.346 342.245 66.013 349.526 60.344 C 355.877 55.398 363.073 48.894 365.304 46.081 C 366.829 44.161 368.419 45.019 370.358 48.805 C 372.834 53.641 375.619 57.208 381.869 63.549 C 384.924 66.648 387.425 69.633 387.425 70.18 C 387.425 70.728 386.744 71.607 385.912 72.136 L 384.398 73.097 L 384.784 84.761 C 384.997 91.176 385.413 98.91 385.707 101.947 C 386.574 110.893 386.418 121.454 385.373 124.899 C 382.139 135.523 373.904 145.483 366.774 147.39 C 365.111 147.834 364.414 147.748 362.996 146.912 L 362.973 146.91 Z  M 367.743 90.904 C 367.743 71.232 367.687 70.999 366.422 68.428 C 365.146 65.918 361.76 62.468 360.572 62.468 C 360.255 62.468 359.57 63.399 359.055 64.538 C 358.258 66.297 358.084 69.517 357.9 85.934 L 357.681 105.26 L 359.17 107.188 C 361.016 109.579 363.782 111.079 366.032 110.91 L 367.741 110.778 L 367.743 90.904 Z  M 51.921 132.843 C 51.229 132.377 49.839 130.821 48.831 129.392 C 46.15 125.591 39.996 119.74 36.399 117.57 C 31.36 114.531 23.232 112.194 20.236 112.922 C 16.966 113.718 15.746 116.672 16.973 120.823 C 17.617 122.997 16.691 123.52 14.583 122.178 C 9.815 119.148 4.49 108.737 4.489 102.443 C 4.489 97.012 5.222 95.706 9.28 93.924 C 15.85 91.038 20.879 90.661 31.501 92.263 C 36.271 92.982 37.146 92.753 38.65 90.396 C 40.793 87.034 40.466 86.613 33.692 84.001 C 15.267 76.897 3.594 67.84 0.85 58.517 C -0.414 54.225 -0.312 52.476 1.45 48.205 C 5.134 39.28 12.227 29.468 32.254 5.595 L 36.192 0.902 L 39.962 0.735 C 43.034 0.602 44.821 0.925 49.61 2.474 C 52.843 3.519 56.646 4.863 58.061 5.459 C 66.381 8.969 73.963 10.403 76.696 8.987 C 77.367 8.64 81.505 2.878 82.174 1.966 C 83.844 -0.306 86.439 -0.866 88.735 1.666 C 92.882 7.964 83.698 28.953 76.584 38.699 C 74.808 41.032 74.767 42.274 76.428 43.4 C 87.641 50.999 90.865 53.408 94.534 56.925 C 96.917 59.211 99.95 62.849 101.273 65.011 C 104.563 70.388 105.19 73.9 104.291 81.939 C 103.045 93.089 100.28 100.117 95.546 104.166 C 82.149 115.622 63.896 128.962 57.07 132.285 C 53.679 133.935 53.557 133.948 51.921 132.838 L 51.921 132.843 Z  M 78.144 109.097 C 80.515 107.412 82.602 105.657 82.784 105.197 C 83.216 104.101 81.699 101.308 79.795 99.7 C 78.962 98.997 76.737 97.687 74.851 96.79 C 71.581 95.235 68.942 94.398 56.132 90.857 L 50.509 89.302 L 48.298 91.6 C 46.039 93.946 45.463 96.071 46.797 97.134 C 47.19 97.445 48.868 98.129 50.528 98.653 C 54.948 100.048 65.469 107.03 69.109 110.983 C 70.985 113.02 73.311 112.535 78.144 109.097 L 78.144 109.097 Z  M 93.608 90.023 C 94.496 84.637 92.168 79.906 85.475 73.496 C 79.919 68.174 73.146 63.959 68.552 62.962 C 64.843 62.158 64.167 62.403 62.349 65.191 C 60.3 68.338 60.441 69.781 62.914 70.924 C 64.022 71.436 65.401 71.854 65.978 71.854 C 68.282 71.854 79.309 77.027 83.413 80.033 C 85.626 81.653 86.836 83.206 88.995 87.193 C 90.511 89.993 92.085 92.284 92.493 92.284 C 92.919 92.284 93.392 91.325 93.608 90.023 L 93.608 90.023 Z  M 50.93 66.462 C 52.629 65.254 55.203 61.702 55.203 60.565 C 55.203 58.849 51.611 57.125 45.954 56.125 C 40.457 55.154 37.568 54.218 32.246 51.684 C 26.75 49.066 18.87 43.012 17.387 40.268 C 15.91 37.536 14.486 38.185 13.97 41.826 C 13.486 45.237 14.957 47.696 20.558 52.851 C 24.277 56.274 33.06 61.915 34.671 61.915 C 35.005 61.915 35.72 62.151 36.264 62.439 C 39.41 64.11 46.892 66.528 49.789 66.811 C 50.1 66.868 50.616 66.684 50.93 66.459 L 50.93 66.462 Z  M 66.439 38.586 C 68.083 36.854 70.018 33.171 70.018 31.774 C 70.018 30.673 69.643 30.586 63.607 30.269 C 56.135 29.877 54.711 29.486 44.165 24.944 C 34.808 20.914 31.725 20.352 28.75 22.134 C 25.122 24.307 25.28 27.679 29.113 29.961 C 33.434 32.532 42.021 35.004 57.681 38.183 C 60.456 38.748 62.87 39.347 63.046 39.518 C 63.747 40.196 65.318 39.766 66.437 38.586 L 66.439 38.586 Z  M 261.799 129.515 C 261.332 129.066 258.807 126.03 256.186 122.775 C 247.261 111.69 246.108 109.451 248.323 107.508 C 249.489 106.486 249.508 106.077 249.508 82.223 C 249.508 66.566 249.301 57.599 248.918 56.91 C 248.538 56.222 247.725 55.841 246.639 55.841 C 243.198 55.841 244.49 53.687 256.623 39.197 C 258.821 36.571 261.364 33.373 262.273 32.088 L 263.928 29.754 L 264.916 31.024 C 266.178 32.645 266.602 35.717 266.602 43.238 C 266.602 49.888 266.672 50.022 271.161 52.724 C 274.014 54.44 275.161 57.123 275.554 62.996 C 275.946 68.873 275.624 69.108 271.061 66.271 C 266.399 63.371 266.537 62.727 266.725 86.342 L 266.887 106.737 L 268.486 108.069 C 269.365 108.802 270.711 109.401 271.477 109.401 C 272.338 109.401 272.87 109.718 272.87 110.234 C 272.87 110.966 270.648 116 265.632 126.63 C 264.006 130.078 263.091 130.767 261.799 129.515 L 261.799 129.515 Z  M 124.39 127.761 C 123.507 126.622 122.636 125.566 122.454 125.414 C 121.698 124.783 114.589 115.602 113.471 113.812 C 111.064 109.963 110.903 108.96 112.478 107.634 L 113.893 106.441 L 113.893 83.212 C 113.893 68.813 113.662 59.195 113.296 57.912 C 112.754 56.03 112.524 55.841 110.735 55.841 C 109.652 55.841 108.768 55.686 108.768 55.496 C 108.768 54.362 112.905 48.57 118.002 42.566 C 121.237 38.756 124.761 34.313 125.835 32.693 L 127.787 29.745 L 129.103 31.229 C 130.351 32.635 130.421 33.143 130.421 40.868 C 130.421 49.989 130.3 49.686 135.194 52.528 C 138.045 54.183 139.299 57.004 139.799 62.885 C 140.278 68.519 139.724 68.953 135.395 66.346 C 130.508 63.402 130.706 62.593 130.706 85.499 C 130.706 101.366 130.868 105.659 131.494 106.798 C 132.205 108.085 133.146 108.639 136.26 109.609 C 137.195 109.897 137.185 110.104 136.087 112.958 C 135.442 114.63 133.948 117.93 132.768 120.292 C 131.587 122.654 130.128 125.766 129.526 127.207 C 128.136 130.535 126.67 130.693 124.398 127.761 L 124.39 127.761 Z  M 465.472 126.57 C 461.389 122.45 458.856 121.586 455.632 123.215 C 454.44 123.818 453.226 124.31 452.935 124.31 C 452.082 124.31 450.013 121.974 449.159 120.047 C 448.39 118.313 448.494 118.03 453.4 108.452 C 456.166 103.052 458.58 98.067 458.765 97.374 C 459.203 95.735 457.766 94.817 452.922 93.636 C 447.593 92.337 447.536 92.243 448.749 86.709 C 449.849 81.69 450.211 66.981 449.314 63.783 C 448.749 61.776 448.801 61.718 454.07 58.469 C 458.499 55.739 465.478 49.096 466.548 46.591 C 467.55 44.248 468.407 44.33 470.57 46.972 C 471.818 48.5 473.306 49.496 475.558 50.313 C 479.448 51.723 481.504 51.593 482.276 49.887 C 483.172 47.906 484.375 48.661 486.417 52.483 C 487.878 55.219 488.223 56.41 487.932 57.724 C 487.649 59.007 481.552 71.912 479.894 74.739 C 479.761 74.964 480.502 75.645 481.536 76.256 C 482.962 77.098 484.413 77.367 487.547 77.368 L 491.678 77.368 L 491.621 79.163 C 491.563 80.149 491.229 81.44 490.766 82.029 C 490.13 82.844 489.929 84.822 489.929 90.275 C 489.929 94.219 489.641 99.654 489.28 102.35 C 488.796 106.017 488.796 107.411 489.28 107.882 C 491.217 109.759 488.917 113.03 482.564 117.439 C 479.915 119.276 476.412 122.454 474.023 125.189 C 471.794 127.738 469.677 129.824 469.318 129.824 C 468.961 129.824 467.212 128.356 465.434 126.562 L 465.472 126.57 Z  M 473.203 108.554 C 473.838 107.083 474.006 104.748 473.887 99.088 C 473.754 92.637 473.587 91.488 472.731 90.966 C 472.031 90.539 471.452 90.528 470.789 90.908 C 469.908 91.444 466.587 97.075 465.848 99.284 C 465.67 99.82 464.611 101.879 463.501 103.853 C 462.391 105.827 461.481 107.99 461.48 108.661 C 461.48 109.787 461.785 109.893 465.608 110.069 C 467.881 110.173 470.329 110.306 471.051 110.369 C 472.061 110.455 472.555 110.029 473.203 108.527 L 473.203 108.554 Z  M 469.581 78.894 C 471.129 77.725 476.292 68.402 476.292 66.775 C 476.292 65.417 475.854 65.047 472.51 63.577 C 468.633 61.874 467.436 61.604 466.985 62.33 C 466.847 62.554 466.547 66.115 466.318 70.235 C 465.955 76.854 466.019 77.835 466.866 78.656 C 468.012 79.767 468.381 79.799 469.579 78.892 L 469.581 78.894 Z  M 204.28 126.227 C 202.539 124.853 200.912 123.386 200.667 122.968 C 200.418 122.548 198.863 120.799 197.205 119.077 C 193.381 115.105 193.098 113.757 193.093 99.525 C 193.092 93.568 192.822 87.772 192.502 86.645 C 192.116 85.285 191.058 83.914 189.372 82.575 C 186.838 80.563 185.925 78.134 187.541 77.704 C 187.933 77.6 189.663 77.203 191.388 76.821 C 197.55 75.457 197.861 74.21 192.44 72.597 C 189.908 71.843 188.807 71.197 188.222 70.117 C 187.5 68.783 187.577 68.373 189.116 65.423 C 193.568 56.881 206.579 43.142 210.216 43.142 C 212.367 43.142 217.903 46.915 222.442 51.473 C 226.617 55.665 232.219 59.578 234.763 60.076 C 236.888 60.491 238.943 64.145 238.381 66.509 C 238.151 67.475 237.783 76.341 237.562 86.21 C 237.343 96.081 236.96 104.715 236.714 105.398 C 236.328 106.471 236.461 106.64 237.7 106.64 C 241.157 106.64 239.882 109.988 233.071 118.788 C 227.972 125.378 225.402 127.925 224.435 127.346 C 224.072 127.127 222.888 125.61 221.807 123.972 C 220.673 122.254 219.429 121 218.863 121.002 C 218.327 121.002 215.732 122.745 213.102 124.868 C 210.473 126.99 208.124 128.727 207.884 128.727 C 207.642 128.727 206.022 127.602 204.28 126.227 L 204.28 126.227 Z  M 217.825 111.421 L 219.592 109.301 L 219.76 91.87 C 219.852 82.283 219.702 74.232 219.448 73.979 C 218.792 73.342 211.689 76.077 210.393 77.464 C 209.442 78.48 209.317 79.855 209.145 91.09 C 208.897 107.009 209.088 108.615 211.719 111.577 C 214.189 114.375 215.389 114.344 217.825 111.421 L 217.825 111.421 Z  M 211.122 67.748 C 214.266 66.304 216.459 64.967 216.459 64.492 C 214.302 60.086 205.293 56.108 201.66 58.591 C 199.488 60.089 199.036 61.816 199.952 65.113 C 200.83 68.276 202.506 70.197 204.384 70.197 C 205.155 70.197 208.187 69.095 211.122 67.748 L 211.122 67.748 Z  M 299.073 127.356 C 297.979 126.602 294.931 123.721 292.299 120.956 C 288.516 116.981 287.417 115.446 287.054 113.631 C 286.8 112.367 286.581 106.365 286.57 100.291 C 286.513 94.217 286.276 88.319 285.95 87.184 C 285.587 85.919 284.25 84.063 282.494 82.388 C 279.993 80.002 279.71 79.511 280.26 78.516 C 280.606 77.889 281.418 77.376 282.064 77.376 C 282.71 77.376 284.624 76.984 286.318 76.508 C 290.693 75.276 290.554 73.966 285.908 72.616 C 283.656 71.963 282.11 71.148 281.55 70.321 C 280.754 69.144 280.795 68.805 282.052 66.182 C 284.775 60.489 294.755 48.562 299.796 44.975 C 302.077 43.354 302.87 43.074 304.368 43.365 C 307.061 43.889 310.164 46.115 316.023 51.735 C 320.852 56.367 326.686 60.259 328.799 60.259 C 330.054 60.259 332.358 64.974 331.826 66.455 C 331.578 67.147 331.19 75.788 330.964 85.658 C 330.74 95.528 330.372 104.266 330.149 105.076 C 329.803 106.34 329.936 106.575 331.082 106.733 C 333.577 107.079 333.142 109.473 329.665 114.528 C 325.688 120.311 319.143 127.749 318.274 127.475 C 317.911 127.359 316.634 125.915 315.445 124.268 C 314.256 122.62 312.911 121.193 312.457 121.095 C 311.505 120.888 309.563 122.155 304.932 125.996 C 303.128 127.493 301.521 128.72 301.36 128.722 C 301.199 128.722 300.174 128.11 299.079 127.356 L 299.073 127.356 Z  M 310.311 112.576 C 313.259 109.452 313.326 108.971 313.326 90.964 C 313.326 81.704 313.113 73.996 312.836 73.836 C 312.271 73.496 305.544 75.955 304.072 77.037 C 302.587 78.127 301.703 87.428 302.125 97.53 C 302.54 107.542 302.998 109.537 305.415 111.954 C 307.6 114.139 308.702 114.279 310.309 112.576 L 310.311 112.576 Z  M 300.086 69.699 C 300.628 69.422 302.926 68.383 305.188 67.384 C 307.449 66.387 309.417 65.273 309.56 64.911 C 308.102 59.831 297.834 56.255 294.566 58.928 C 292.605 60.527 292.317 62.471 293.551 65.78 C 294.898 69.395 295.599 70.197 297.4 70.197 C 298.333 70.197 299.542 69.973 300.086 69.696 L 300.086 69.699 Z  M 157.366 126.932 C 155.805 125.277 145.232 109.908 145.232 109.295 C 145.232 109.03 145.78 107.269 146.45 105.381 C 147.571 102.218 147.689 100.485 147.95 83.409 L 148.232 64.871 L 146.732 63.728 C 145.908 63.099 145.233 62.283 145.233 61.915 C 145.233 61.29 150.037 54.328 155.03 47.716 C 156.27 46.075 157.521 44.952 157.937 45.108 C 158.341 45.258 159.171 46.649 159.786 48.201 C 161.126 51.588 164.607 55.619 165.806 55.173 C 166.963 54.741 169.696 50.806 170.593 48.278 C 171.003 47.124 171.634 46.178 171.996 46.178 C 172.699 46.178 182.219 63.313 182.251 64.638 C 182.308 65.07 180.804 67.283 179.012 69.551 C 173.966 75.934 173.574 76.179 172.461 73.649 C 172.098 72.813 170.525 70.438 168.975 68.369 C 166.964 65.686 165.981 64.78 165.544 65.203 C 165.129 65.607 164.924 72.998 164.91 88.289 L 164.853 110.782 L 166.421 112.981 C 168.597 116.035 168.437 117.194 165.512 119.516 C 163.657 120.989 162.721 122.321 161.778 124.828 C 160.38 128.542 159.318 129.044 157.328 126.932 L 157.366 126.932 Z  M 409.624 123.832 C 407.273 121.514 403.079 117.629 400.305 115.199 L 395.259 110.782 L 395.346 89.8 C 395.403 78.259 395.669 67.823 395.953 66.609 C 396.391 64.763 396.298 64.231 395.422 63.373 C 394.538 62.508 394.461 62.025 394.944 60.335 C 396.726 54.072 403.998 43.6 405.857 44.619 C 407.065 45.281 411.627 48.849 413.761 50.799 C 416.351 53.167 416.466 54.64 414.326 58.05 L 412.766 60.534 L 412.604 82.475 C 412.483 97.833 412.661 104.761 413.071 105.565 C 413.835 106.947 418.57 109.953 419.984 109.953 C 420.537 109.953 421.258 109.475 421.582 108.885 C 421.963 108.195 422.167 99.274 422.159 83.624 L 422.102 59.43 L 420.408 57.82 C 417.689 55.234 418.088 53.98 423.228 48.94 C 425.705 46.51 427.998 44.522 428.32 44.522 C 428.901 44.522 435.327 52.011 439.076 57.058 C 440.566 59.064 440.88 59.881 440.458 60.647 C 439.385 62.589 438.658 73.922 438.658 88.674 C 438.658 102.379 438.749 103.823 439.758 105.738 C 440.844 107.802 440.844 107.863 439.758 110.303 C 438.321 113.551 434.421 119.963 431.587 123.735 L 429.322 126.749 L 427.44 122.907 C 426.404 120.793 425.04 118.722 424.406 118.302 C 423.362 117.613 423.08 117.72 421.408 119.44 C 420.393 120.485 418.793 122.864 417.853 124.728 C 416.587 127.236 415.848 128.106 415.004 128.082 C 414.366 128.025 411.981 126.191 409.59 123.832 L 409.624 123.832 Z " fill-rule="evenodd" fill="rgb(255,255,255)"/></svg>