<?xml version="1.0" standalone="no"?><!-- Generator: Gravit.io --><svg xmlns="http://www.w3.org/2000/svg" xmlns:xlink="http://www.w3.org/1999/xlink" style="isolation:isolate" viewBox="0 0 316.575 154.868" width="316.575" height="154.868"><path d=" M 44.946 0 L 13.679 0 L 0 15.634 L 0 48.855 L 15.633 64.488 L 29.312 64.488 L 29.312 42.992 L 23.45 42.992 L 23.45 19.542 L 39.083 19.542 L 39.083 35.176 L 60.579 35.176 L 60.579 15.634 L 44.946 0 Z " fill="rgb(255,255,255)"/><path d=" M 15.633 109.434 L 48.854 109.434 L 62.533 93.801 L 62.533 58.626 L 46.9 42.992 L 33.221 42.992 L 33.221 64.488 L 39.083 64.488 L 39.083 87.938 L 23.45 87.938 L 23.45 72.304 L 0 72.304 L 0 93.801 L 15.633 109.434 Z " fill="rgb(255,255,255)"/><path d=" M 66.441 93.801 L 83.052 109.434 L 95.754 109.434 L 95.754 89.893 L 89.891 89.893 L 89.891 0 L 66.441 0 L 66.441 93.801 Z " fill="rgb(255,255,255)"/><path d=" M 128.974 93.801 L 112.365 109.434 L 99.662 109.434 L 99.662 89.893 L 105.524 89.893 L 105.524 0 L 128.974 0 L 128.974 93.801 Z " fill="rgb(255,255,255)"/><path d=" M 162.196 0 L 162.196 19.542 L 170.012 19.542 L 170.012 52.763 L 162.196 52.763 L 162.196 74.259 L 177.828 74.259 L 193.462 58.626 L 193.462 16.611 L 176.852 0 L 162.196 0 Z " fill="rgb(255,255,255)"/><rect x="134.837" y="0" width="23.45" height="109.433" transform="matrix(1,0,0,1,0,0)" fill="rgb(255,255,255)"/><path d=" M 222.774 21.497 L 248.179 21.497 L 248.179 0 L 201.279 0 L 201.279 109.434 L 248.179 109.434 L 248.179 89.893 L 222.774 89.893 L 222.774 21.497 Z " fill="rgb(255,255,255)"/><rect x="226.683" y="42.992" width="15.634" height="19.542" transform="matrix(1,0,0,1,0,0)" fill="rgb(255,255,255)"/><path d=" M 283.354 0 L 300.942 0 L 316.575 15.634 L 316.575 44.946 L 305.827 55.694 L 316.575 66.442 L 316.575 109.434 L 295.078 109.434 L 295.078 66.442 L 283.354 66.442 L 283.354 44.946 L 293.124 44.946 L 293.124 19.542 L 283.354 19.542 L 283.354 0 Z " fill="rgb(255,255,255)"/><rect x="255.996" y="0" width="23.448" height="109.433" transform="matrix(1,0,0,1,0,0)" fill="rgb(255,255,255)"/><path d=" M 46.9 121.158 L 42.014 126.044 L 42.014 148.518 L 48.365 154.868 L 84.029 154.868 L 84.029 134.838 L 64.488 134.838 L 64.488 140.701 L 78.166 140.701 L 78.166 148.518 L 50.808 148.518 L 50.808 127.021 L 84.029 127.021 L 84.029 121.158 L 46.9 121.158 Z " fill="rgb(255,255,255)"/><g id="null"><path d=" M 130.929 135.815 L 130.929 127.021 L 125.067 121.158 L 91.846 121.158 L 91.846 154.379 L 99.662 154.379 L 99.662 140.701 L 113.341 140.701 L 123.112 154.379 L 130.929 154.379 L 121.158 140.701 L 125.067 140.701 L 130.929 135.815 Z  M 123.112 134.838 L 99.662 134.838 L 99.662 127.022 L 123.112 127.022 L 123.112 134.838 Z " fill="rgb(255,255,255)"/></g><path d=" M 134.837 154.379 L 150.471 121.158 L 166.104 121.158 L 183.692 154.379 L 173.92 154.379 L 160.242 128.976 L 156.333 128.976 L 144.608 154.379 L 134.837 154.379 Z " fill="rgb(255,255,255)"/><path d=" M 185.645 121.158 L 185.645 154.379 L 193.462 154.379 L 193.462 140.701 L 218.866 140.701 L 218.866 134.838 L 193.462 134.838 L 193.462 127.021 L 222.774 127.021 L 222.774 121.158 L 185.645 121.158 Z " fill="rgb(255,255,255)"/><path d=" M 226.683 121.158 L 242.317 136.792 L 224.729 154.379 L 236.453 154.379 L 248.179 142.654 L 259.904 154.379 L 271.628 154.379 L 254.041 136.792 L 271.628 121.158 L 259.904 121.158 L 248.179 132.884 L 236.453 121.158 L 226.683 121.158 Z " fill="rgb(255,255,255)"/></svg>