<?xml version="1.0" standalone="no"?><!-- Generator: Gravit.io --><svg xmlns="http://www.w3.org/2000/svg" xmlns:xlink="http://www.w3.org/1999/xlink" style="isolation:isolate" viewBox="0 0 580.309 130" width="580.309" height="130"><g id="Ebene_1"><g id="null"><path d=" M 17.193 7.275 L 43.614 7.275 L 43.614 15.049 L 35.881 15.049 L 35.881 120.581 L 26.536 120.581 L 26.536 15.049 L 17.193 15.049 L 17.193 7.275 Z " fill="rgb(255,255,255)"/><path d=" M 67.548 112.856 L 77.861 112.856 L 77.861 38.921 L 86.882 38.921 L 86.882 112.857 C 86.882 117.642 82.533 121.032 78.075 121.032 L 67.548 121.032 C 62.837 121.032 58.634 117.199 58.634 112.762 L 58.634 38.921 L 67.548 38.921 L 67.548 112.856 Z " fill="rgb(255,255,255)"/><path d=" M 261.515 56.979 L 275.292 56.979 L 275.292 121.103 L 255.88 121.103 C 251.729 121.103 246.616 117.925 246.616 113.105 L 246.616 16.172 C 246.616 12.101 250.883 7.763 255.676 7.763 L 266.269 7.763 C 270.967 7.763 275.231 12.061 275.231 16.077 L 275.231 39.042 L 265.946 39.042 L 265.946 16.397 L 255.396 16.397 L 255.396 113.177 L 266.19 113.177 L 266.19 64.826 L 261.515 64.826 L 261.515 56.979 L 261.515 56.979 Z " fill="rgb(255,255,255)"/><path d=" M 394.725 81.75 L 394.725 120.618 L 386.028 120.618 L 386.028 46.175 C 386.028 42.813 389.371 39.149 393.599 39.149 L 407.938 39.149 L 407.938 46.324 L 394.725 46.324 L 394.725 73.827 L 405.602 73.827 L 405.602 81.784 L 394.725 81.75 Z " fill="rgb(255,255,255)"/><path d=" M 425.577 39.169 L 434.707 39.169 L 434.707 68.819 L 439.862 74.002 L 444.908 68.964 L 444.908 39.169 L 453.928 39.169 L 453.928 67.379 C 453.928 70.824 445.018 79.9 445.018 79.9 C 445.018 79.9 454.037 88.97 454.037 92.646 L 454.037 120.783 L 445.554 120.783 L 445.554 91.488 L 440.076 85.949 L 434.598 91.416 L 434.598 120.784 L 425.577 120.784 L 425.577 92.713 C 425.577 89.261 435.133 79.828 435.133 79.828 C 435.133 79.828 425.577 70.853 425.577 67.238 L 425.577 39.169 L 425.577 39.169 Z " fill="rgb(255,255,255)"/><path d=" M 125.975 81.933 C 129.036 81.933 133.104 78.274 133.104 73.378 L 133.104 46.622 C 133.104 42.773 128.714 39.187 123.719 39.187 L 105.192 39.187 L 105.192 120.945 L 113.732 120.945 L 113.732 82.535 L 116.955 82.535 L 126.459 120.801 L 134.836 120.801 L 125.975 81.933 Z  M 124.284 73.94 L 114.053 73.94 L 114.053 47.109 L 124.284 47.109 L 124.284 73.94 Z " fill="rgb(255,255,255)"/><path d=" M 314.941 81.72 C 318.003 81.72 322.074 78.054 322.074 73.159 L 322.074 46.406 C 322.074 42.556 317.681 38.969 312.689 38.969 L 294.163 38.969 L 294.163 120.73 L 302.696 120.73 L 302.696 82.314 L 305.922 82.314 L 315.428 120.58 L 323.804 120.58 L 314.941 81.72 Z  M 313.128 73.632 L 302.903 73.632 L 302.903 46.804 L 313.128 46.804 L 313.128 73.632 Z " fill="rgb(255,255,255)"/><path d=" M 178.754 83.859 C 178.714 80.196 174.89 77.879 174.89 77.879 C 174.89 77.879 178.754 75.378 178.754 71.9 L 178.754 46.942 C 178.754 42.23 174.608 39.167 170.379 39.167 L 150.885 39.167 L 150.885 120.783 L 170.379 120.783 C 174.326 120.783 178.754 118.316 178.754 113.008 C 178.754 113.008 178.797 87.52 178.754 83.859 Z  M 169.975 112.786 L 159.746 112.786 L 159.746 82.365 L 169.975 82.365 L 169.975 112.786 L 169.975 112.786 Z  M 169.975 73.92 L 159.746 73.92 L 159.746 47.091 L 169.975 47.091 L 169.975 73.92 L 169.975 73.92 Z " fill="rgb(255,255,255)"/><path d=" M 216.088 38.563 L 210.933 38.563 L 205.938 38.563 C 200.822 38.563 197.098 42.937 197.098 46.263 L 197.098 112.545 C 197.098 116.83 201.87 120.716 205.899 120.716 L 216.934 120.716 C 221.243 120.716 225.553 116.266 225.553 112.719 L 225.553 46.039 C 225.553 43.051 221.483 38.563 216.088 38.563 Z  M 216.41 112.291 L 206.529 112.291 L 206.529 46.638 L 216.41 46.638 L 216.41 112.291 Z " fill="rgb(255,255,255)"/><path d=" M 359.384 39.149 L 348.113 39.149 C 343.035 39.149 340.055 43.333 340.055 46.623 L 340.055 120.619 L 348.592 120.619 L 348.592 81.75 L 359.385 81.75 L 359.385 120.618 L 367.923 120.618 L 367.923 47.069 C 367.923 42.188 364.545 39.149 359.384 39.149 Z  M 359.139 73.679 L 348.916 73.679 L 348.916 47.372 L 359.139 47.372 L 359.139 73.679 Z " fill="rgb(255,255,255)"/></g></g><g id="null"><g id="null"><path d=" M 528.447 20.444 C 499.803 20.444 476.584 43.664 476.584 72.307 C 476.584 100.951 499.804 124.17 528.447 124.17 C 557.09 124.17 580.309 100.95 580.309 72.307 C 580.309 43.665 557.09 20.444 528.447 20.444 Z  M 525.853 59.342 L 520.666 59.342 L 520.666 56.747 L 518.073 54.155 L 497.327 54.155 L 497.327 93.051 L 518.073 93.051 L 520.666 90.459 L 520.666 87.865 L 525.853 87.865 L 525.853 93.051 L 520.666 98.239 L 494.735 98.239 L 492.141 95.645 L 492.141 51.562 L 494.735 48.968 L 520.666 48.968 L 525.853 54.156 L 525.853 59.342 Z  M 564.75 93.051 L 559.565 98.239 L 531.039 98.239 L 531.039 93.051 L 533.634 93.051 L 533.634 54.155 L 531.039 54.155 L 531.039 48.967 L 559.565 48.967 L 564.75 54.155 L 564.75 93.051 Z  M 538.819 93.051 L 559.565 93.051 L 559.565 54.155 L 538.819 54.155 L 538.819 93.051 Z " fill="rgb(255,255,255)"/></g></g></svg>