<?xml version="1.0" standalone="no"?><!-- Generator: Gravit.io --><svg xmlns="http://www.w3.org/2000/svg" xmlns:xlink="http://www.w3.org/1999/xlink" style="isolation:isolate" viewBox="0 0 566.927 121.783" width="566.927" height="121.783"><path d=" M 0 0 L 28.081 0 L 28.081 8.264 L 19.862 8.264 L 19.862 120.425 L 9.929 120.425 L 9.929 8.264 L 0 8.264 L 0 0 Z " fill="rgb(255,255,255)"/><path d=" M 53.519 112.216 L 64.48 112.216 L 64.48 33.634 L 74.067 33.634 L 74.067 112.216 C 74.067 117.301 69.445 120.904 64.707 120.904 L 53.519 120.904 C 48.512 120.904 44.045 116.829 44.045 112.113 L 44.045 33.634 L 53.519 33.634 L 53.519 112.216 L 53.519 112.216 Z " fill="rgb(255,255,255)"/><path d=" M 259.674 52.827 L 274.316 52.827 L 274.316 120.982 L 253.684 120.982 C 249.272 120.982 243.838 117.605 243.838 112.482 L 243.838 9.457 C 243.838 5.129 248.373 0.52 253.467 0.52 L 264.726 0.52 C 269.72 0.52 274.251 5.087 274.251 9.356 L 274.251 33.763 L 264.383 33.763 L 264.383 9.696 L 253.17 9.696 L 253.17 112.558 L 264.642 112.558 L 264.642 61.168 L 259.674 61.168 L 259.674 52.827 L 259.674 52.827 Z " fill="rgb(255,255,255)"/><path d=" M 401.255 79.154 L 401.255 120.464 L 392.011 120.464 L 392.011 41.345 C 392.011 37.771 395.563 33.877 400.058 33.877 L 415.298 33.877 L 415.298 41.503 L 401.255 41.503 L 401.255 70.735 L 412.815 70.735 L 412.815 79.193 L 401.255 79.154 L 401.255 79.154 Z " fill="rgb(255,255,255)"/><path d=" M 434.045 33.899 L 443.748 33.899 L 443.748 65.411 L 449.227 70.92 L 454.59 65.564 L 454.59 33.899 L 464.176 33.899 L 464.176 63.881 C 464.176 67.542 454.706 77.187 454.706 77.187 C 454.706 77.187 464.292 86.826 464.292 90.733 L 464.292 120.638 L 455.275 120.638 L 455.275 89.504 L 449.453 83.617 L 443.632 89.427 L 443.632 120.639 L 434.045 120.639 L 434.045 90.805 C 434.045 87.137 444.2 77.111 444.2 77.111 C 444.2 77.111 434.045 67.573 434.045 63.73 L 434.045 33.899 L 434.045 33.899 Z " fill="rgb(255,255,255)"/><path d=" M 115.616 79.349 C 118.869 79.349 123.194 75.461 123.194 70.257 L 123.194 41.82 C 123.194 37.728 118.527 33.918 113.219 33.918 L 93.528 33.918 L 93.528 120.812 L 102.604 120.812 L 102.604 79.988 L 106.029 79.988 L 116.13 120.658 L 125.034 120.658 L 115.616 79.349 L 115.616 79.349 Z  M 113.82 70.852 L 102.946 70.852 L 102.946 42.337 L 113.82 42.337 L 113.82 70.852 L 113.82 70.852 Z " fill="rgb(255,255,255)"/><path d=" M 316.457 79.122 C 319.711 79.122 324.038 75.227 324.038 70.027 L 324.038 41.59 C 324.038 37.499 319.368 33.685 314.063 33.685 L 294.373 33.685 L 294.373 120.585 L 303.442 120.585 L 303.442 79.755 L 306.87 79.755 L 316.974 120.424 L 325.875 120.424 L 316.457 79.122 L 316.457 79.122 Z  M 314.529 70.528 L 303.662 70.528 L 303.662 42.014 L 314.529 42.014 L 314.529 70.528 L 314.529 70.528 Z " fill="rgb(255,255,255)"/><path d=" M 171.712 81.398 C 171.67 77.504 167.605 75.04 167.605 75.04 C 167.605 75.04 171.712 72.382 171.712 68.687 L 171.712 42.16 C 171.712 37.153 167.304 33.896 162.811 33.896 L 142.092 33.896 L 142.092 120.639 L 162.811 120.639 C 167.006 120.639 171.712 118.019 171.712 112.378 C 171.712 112.378 171.758 85.287 171.712 81.398 Z  M 162.381 112.139 L 151.51 112.139 L 151.51 79.808 L 162.381 79.808 L 162.381 112.139 L 162.381 112.139 Z  M 162.381 70.832 L 151.51 70.832 L 151.51 42.318 L 162.381 42.318 L 162.381 70.832 L 162.381 70.832 Z " fill="rgb(255,255,255)"/><path d=" M 211.392 33.255 L 205.913 33.255 L 200.605 33.255 C 195.168 33.255 191.209 37.903 191.209 41.438 L 191.209 111.885 C 191.209 116.439 196.281 120.567 200.563 120.567 L 212.291 120.567 C 216.871 120.567 221.451 115.838 221.451 112.067 L 221.451 41.199 C 221.451 38.023 217.126 33.255 211.392 33.255 Z  M 211.734 111.614 L 201.232 111.614 L 201.232 41.836 L 211.734 41.836 L 211.734 111.614 L 211.734 111.614 Z " fill="rgb(255,255,255)"/><path d=" M 363.691 33.876 L 351.712 33.876 C 346.316 33.876 343.148 38.323 343.148 41.82 L 343.148 120.464 L 352.223 120.464 L 352.223 79.154 L 363.692 79.154 L 363.692 120.464 L 372.768 120.464 L 372.768 42.295 C 372.767 37.107 369.177 33.876 363.691 33.876 Z  M 363.432 70.576 L 352.565 70.576 L 352.565 42.616 L 363.432 42.616 L 363.432 70.576 L 363.432 70.576 Z " fill="rgb(255,255,255)"/><g id="null"><g id="null"><rect x="518.902" y="79.943" width="28.094" height="10.479" transform="matrix(1,0,0,1,0,0)" fill="rgb(255,255,255)"/><path d=" M 522.37 32.673 C 497.763 32.673 477.819 52.619 477.819 77.226 C 477.819 101.833 497.762 121.783 522.37 121.783 C 546.976 121.783 566.927 101.834 566.927 77.226 C 566.926 52.62 546.976 32.673 522.37 32.673 Z  M 507.207 95.533 L 493.079 95.533 L 493.079 90.584 L 497.633 90.584 L 497.633 64.438 L 493.163 64.438 L 493.163 59.325 L 502.743 59.325 L 502.743 90.5 L 507.207 90.5 L 507.207 95.533 L 507.207 95.533 Z  M 551.867 68.824 L 547.326 68.824 L 547.326 64.276 L 518.656 64.276 L 518.656 75.156 L 549.273 75.156 L 551.867 77.757 L 551.867 92.131 L 548.62 95.378 L 517.279 95.378 L 514.031 92.131 L 514.031 62.491 L 517.039 59.486 L 549.111 59.486 L 551.867 62.245 L 551.867 68.824 L 551.867 68.824 Z " fill="rgb(255,255,255)"/></g></g></svg>