<?xml version="1.0" standalone="no"?><!-- Generator: Gravit.io --><svg xmlns="http://www.w3.org/2000/svg" xmlns:xlink="http://www.w3.org/1999/xlink" style="isolation:isolate" viewBox="0 0 1897.3 456.5" width="1897.3" height="456.5"><g id="null"><path d=" M 223.087 24.132 L 429.453 24.132 L 429.453 85.766 L 359.013 85.766 L 359.013 266.818 L 290.225 266.818 L 290.225 85.766 L 222.537 85.766 L 223.087 24.132 Z " fill="rgb(255,255,255)"/><path d=" M 448.714 24.132 L 516.402 24.132 L 516.402 267.368 L 447.613 267.368 L 448.714 24.132 Z " fill="rgb(255,255,255)"/><rect x="537.313" y="113.282" width="61.084" height="47.877" transform="matrix(1,0,0,1,0,0)" fill="rgb(255,255,255)"/><g id="null"><path d=" M 614.022 213.782 L 685.353 205.391 C 687.23 214.715 690.4 221.296 694.864 225.134 C 699.325 228.974 704.785 230.892 711.243 230.892 C 722.749 230.892 731.732 225.462 738.19 214.604 C 742.885 206.599 746.407 189.653 748.758 163.767 C 740.185 171.993 731.379 178.026 722.339 181.865 C 713.296 185.705 702.847 187.623 690.989 187.623 C 667.856 187.623 648.337 179.947 632.427 164.59 C 616.515 149.236 608.562 129.822 608.562 106.349 C 608.562 90.337 612.613 75.748 620.715 62.586 C 628.817 49.424 639.97 39.47 654.179 32.725 C 668.384 25.979 686.234 22.607 707.721 22.607 C 733.551 22.607 754.276 26.748 769.893 35.028 C 785.507 43.311 797.985 56.472 807.32 74.513 C 816.654 92.556 821.321 116.384 821.321 145.998 C 821.321 189.542 811.516 221.432 791.908 241.668 C 772.297 261.903 745.116 272.022 710.362 272.022 C 689.813 272.022 673.61 269.8 661.752 265.359 C 649.891 260.917 640.028 254.418 632.163 245.863 C 624.295 237.309 618.25 226.615 614.022 213.782 Z  M 746.116 106.185 C 746.116 93.134 742.594 82.905 735.549 75.501 C 728.504 68.098 719.931 64.396 709.835 64.396 C 700.324 64.396 692.426 67.743 686.146 74.432 C 679.863 81.123 676.724 91.159 676.724 104.539 C 676.724 118.03 679.982 128.341 686.499 135.469 C 693.015 142.6 701.145 146.163 710.893 146.163 C 720.99 146.163 729.386 142.708 736.079 135.798 C 742.77 128.889 746.116 119.018 746.116 106.185 Z " fill="rgb(255,255,255)"/><path d=" M 836.574 213.782 L 907.904 205.391 C 909.78 214.715 912.951 221.296 917.415 225.134 C 921.875 228.974 927.336 230.892 933.794 230.892 C 945.3 230.892 954.283 225.462 960.742 214.604 C 965.437 206.599 968.96 189.653 971.309 163.767 C 962.737 171.993 953.931 178.026 944.891 181.865 C 935.848 185.705 925.398 187.623 913.54 187.623 C 890.408 187.623 870.888 179.947 854.979 164.59 C 839.067 149.236 831.114 129.822 831.114 106.349 C 831.114 90.337 835.165 75.748 843.266 62.586 C 851.368 49.424 862.522 39.47 876.73 32.725 C 890.935 25.979 908.784 22.607 930.272 22.607 C 956.101 22.607 976.827 26.748 992.444 35.028 C 1008.059 43.311 1020.536 56.472 1029.871 74.513 C 1039.206 92.556 1043.873 116.384 1043.873 145.998 C 1043.873 189.542 1034.067 221.432 1014.461 241.668 C 994.85 261.903 967.668 272.022 932.914 272.022 C 912.366 272.022 896.162 269.8 884.304 265.359 C 872.443 260.917 862.58 254.418 854.715 245.863 C 846.847 237.309 840.801 226.615 836.574 213.782 Z  M 968.667 106.185 C 968.667 93.134 965.145 82.905 958.101 75.501 C 951.055 68.098 942.483 64.396 932.387 64.396 C 922.876 64.396 914.978 67.743 908.698 74.432 C 902.415 81.123 899.275 91.159 899.275 104.539 C 899.275 118.03 902.533 128.341 909.05 135.469 C 915.567 142.6 923.696 146.163 933.443 146.163 C 943.54 146.163 951.936 142.708 958.629 135.798 C 965.321 128.889 968.667 119.018 968.667 106.185 Z " fill="rgb(255,255,255)"/></g><path d=" M 1132.198 23.581 L 1165.862 23.581 L 1055.8 273.972 L 1025.989 273.972 L 1132.198 23.581 Z " fill="rgb(255,255,255)"/><g id="null"><g id="null"><path d=" M 1255.066 278.075 L 1255.066 232.996 L 1124.382 232.996 L 1124.382 166.458 L 1259.647 16.263 L 1334.1 16.263 L 1334.1 164.498 L 1366.508 164.498 L 1366.508 232.996 L 1334.1 232.996 L 1334.1 278.075 L 1255.066 278.075 L 1255.066 278.075 L 1255.066 278.075 Z  M 1271.578 216.487 L 1271.578 216.487 L 1271.575 261.565 L 1317.592 261.565 L 1317.592 216.487 L 1349.998 216.485 L 1349.998 181.007 L 1317.592 181.007 L 1317.59 32.772 L 1266.996 32.774 L 1140.892 172.795 L 1140.892 216.487 M 1271.578 181.007 L 1175.6 181.007 L 1175.6 181.007 L 1271.578 75.507 M 1212.939 164.499 L 1255.066 164.499 L 1255.066 118.19 L 1212.939 164.499 L 1212.939 164.499 L 1212.939 164.499 Z " fill="rgb(255,255,255)"/><path d=" M 1564.834 278.076 L 1551.918 238.26 L 1473.384 238.26 L 1460.801 278.076 L 1361.069 278.076 L 1464.756 20.375 L 1562.939 20.375 L 1666.603 278.076 L 1564.834 278.076 L 1564.834 278.076 L 1564.834 278.076 Z  M 1563.917 221.752 L 1576.836 261.565 L 1642.164 261.565 L 1551.784 36.885 L 1475.91 36.885 L 1385.509 261.565 L 1448.705 261.565 L 1461.291 221.752 L 1557.919 221.752 L 1557.919 230.007 L 1550.066 232.554 L 1557.919 230.007 L 1557.919 221.752 L 1563.917 221.752 L 1563.917 221.752 L 1563.917 221.752 Z  M 1552.769 186.108 L 1473.3 186.108 L 1473.3 186.108 L 1512.823 64.586 M 1496.03 169.598 L 1529.967 169.598 L 1512.91 117.708 L 1496.03 169.598 L 1496.03 169.598 L 1496.03 169.598 Z " fill="rgb(255,255,255)"/></g></g><g id="null"><path d=" M 368.916 381.396 L 385.893 383.095 C 384.038 392.11 379.29 399.167 371.65 404.267 C 364.009 409.366 354.626 411.914 343.5 411.914 C 329.56 411.914 318.354 408.404 309.883 401.384 C 301.41 394.363 297.175 384.302 297.175 371.197 C 297.175 362.724 298.997 355.309 302.642 348.955 C 306.287 342.6 311.833 337.833 319.283 334.655 C 326.731 331.477 334.835 329.888 343.596 329.888 C 354.658 329.888 363.705 332.043 370.739 336.355 C 377.772 340.666 382.28 346.787 384.262 354.717 L 367.477 356.713 C 365.878 351.442 363.049 347.475 358.989 344.816 C 354.928 342.155 350.022 340.826 344.267 340.826 C 335.57 340.826 328.504 343.227 323.071 348.031 C 317.635 352.834 314.918 360.433 314.918 370.827 C 314.918 381.371 317.539 389.031 322.783 393.809 C 328.025 398.588 334.868 400.977 343.308 400.977 C 350.084 400.977 355.743 399.376 360.284 396.174 C 364.823 392.974 367.7 388.046 368.916 381.396 Z " fill="rgb(255,255,255)"/><path d=" M 394.237 370.902 C 394.237 356.37 399.479 345.605 409.966 338.61 C 418.725 332.797 429.403 329.889 442.001 329.889 C 456.004 329.889 467.448 333.425 476.336 340.493 C 485.223 347.562 489.668 357.33 489.668 369.793 C 489.668 379.893 487.702 387.837 483.77 393.625 C 479.838 399.414 474.114 403.909 466.602 407.111 C 459.088 410.313 450.888 411.914 442.001 411.914 C 427.741 411.914 416.216 408.393 407.424 401.347 C 398.632 394.303 394.237 384.156 394.237 370.902 Z  M 411.98 370.902 C 411.98 380.952 414.824 388.478 420.516 393.477 C 426.206 398.478 433.368 400.978 442 400.978 C 450.567 400.978 457.696 398.465 463.388 393.44 C 469.078 388.416 471.924 380.755 471.924 370.459 C 471.924 360.754 469.062 353.402 463.34 348.4 C 457.617 343.401 450.503 340.9 442 340.9 C 433.368 340.9 426.206 343.388 420.516 348.364 C 414.824 353.341 411.98 360.853 411.98 370.902 Z " fill="rgb(255,255,255)"/><path d=" M 509.905 410.142 L 509.905 331.664 L 525.347 331.664 L 525.347 342.675 C 528.543 338.832 532.795 335.741 538.103 333.401 C 543.41 331.061 549.452 329.89 556.23 329.89 C 563.774 329.89 569.96 331.098 574.79 333.511 C 579.617 335.925 583.021 339.3 585.004 343.635 C 593.06 334.472 603.546 329.89 616.462 329.89 C 626.565 329.89 634.333 332.045 639.768 336.357 C 645.202 340.668 647.921 347.306 647.921 356.271 L 647.921 410.142 L 630.753 410.142 L 630.753 360.704 C 630.753 355.384 630.192 351.554 629.074 349.214 C 627.955 346.874 625.924 344.99 622.984 343.561 C 620.042 342.132 616.589 341.418 612.626 341.418 C 605.464 341.418 599.518 343.254 594.787 346.923 C 590.055 350.594 587.69 356.469 587.69 364.548 L 587.69 410.142 L 570.426 410.142 L 570.426 359.153 C 570.426 353.242 569.019 348.808 566.206 345.853 C 563.392 342.896 558.788 341.418 552.395 341.418 C 547.535 341.418 543.043 342.403 538.919 344.373 C 534.795 346.345 531.805 349.227 529.951 353.019 C 528.096 356.814 527.169 362.282 527.169 369.424 L 527.169 410.141 L 509.905 410.141 L 509.905 410.142 Z " fill="rgb(255,255,255)"/><path d=" M 673.529 440.218 L 673.529 331.664 L 689.259 331.664 L 689.259 341.861 C 692.966 337.871 697.155 334.878 701.823 332.882 C 706.489 330.887 712.148 329.889 718.799 329.889 C 727.494 329.889 735.167 331.615 741.818 335.062 C 748.467 338.511 753.486 343.375 756.876 349.657 C 760.264 355.938 761.959 362.824 761.959 370.311 C 761.959 378.341 760.089 385.571 756.349 391.999 C 752.608 398.428 747.173 403.355 740.044 406.778 C 732.914 410.202 725.418 411.914 717.553 411.914 C 711.798 411.914 706.634 410.977 702.063 409.105 C 697.491 407.234 693.734 404.87 690.793 402.011 L 690.793 440.216 L 673.529 440.216 L 673.529 440.218 Z  M 689.163 371.346 C 689.163 381.446 691.816 388.909 697.124 393.737 C 702.43 398.566 708.856 400.979 716.402 400.979 C 724.075 400.979 730.645 398.479 736.112 393.478 C 741.579 388.479 744.312 380.732 744.312 370.238 C 744.312 360.238 741.642 352.751 736.303 347.773 C 730.964 342.798 724.586 340.31 717.169 340.31 C 709.815 340.31 703.31 342.958 697.651 348.253 C 691.993 353.55 689.163 361.248 689.163 371.346 Z " fill="rgb(255,255,255)"/><path d=" M 849.526 410.142 L 849.526 398.615 C 841.597 407.482 830.823 411.916 817.205 411.916 C 811.194 411.916 805.583 411.029 800.372 409.256 C 795.16 407.483 791.292 405.254 788.767 402.568 C 786.241 399.883 784.466 396.594 783.444 392.703 C 782.739 390.093 782.389 385.954 782.389 380.288 L 782.389 331.665 L 799.653 331.665 L 799.653 375.189 C 799.653 382.135 800.004 386.816 800.708 389.23 C 801.794 392.728 804.097 395.474 807.614 397.468 C 811.13 399.464 815.479 400.461 820.658 400.461 C 825.837 400.461 830.696 399.44 835.236 397.395 C 839.776 395.351 842.988 392.568 844.875 389.044 C 846.76 385.523 847.705 380.411 847.705 373.711 L 847.705 331.664 L 864.969 331.664 L 864.969 410.142 L 849.526 410.142 L 849.526 410.142 Z " fill="rgb(255,255,255)"/><path d=" M 929.708 398.244 L 932.202 409.994 C 927.342 410.781 922.995 411.177 919.159 411.177 C 912.891 411.177 908.033 410.411 904.58 408.886 C 901.127 407.36 898.697 405.351 897.291 402.863 C 895.884 400.377 895.182 395.141 895.182 387.161 L 895.182 342.01 L 882.52 342.01 L 882.52 331.665 L 895.181 331.665 L 895.181 312.229 L 912.348 304.249 L 912.348 331.665 L 929.708 331.665 L 929.708 342.01 L 912.348 342.01 L 912.348 387.901 C 912.348 391.695 912.651 394.133 913.259 395.216 C 913.865 396.3 914.856 397.162 916.233 397.802 C 917.607 398.443 919.573 398.763 922.131 398.763 C 924.049 398.762 926.575 398.59 929.708 398.244 Z " fill="rgb(255,255,255)"/><path d=" M 1016.315 384.869 L 1034.156 386.568 C 1031.341 394.599 1026.13 400.831 1018.522 405.264 C 1010.912 409.699 1001.194 411.914 989.365 411.914 C 974.466 411.914 962.654 408.38 953.926 401.31 C 945.199 394.243 940.834 384.327 940.834 371.568 C 940.834 358.366 945.246 348.118 954.07 340.827 C 962.893 333.537 974.34 329.889 988.407 329.889 C 1002.026 329.889 1013.151 333.462 1021.784 340.604 C 1030.416 347.748 1034.732 357.798 1034.732 370.754 C 1034.732 371.543 1034.699 372.725 1034.635 374.301 L 958.673 374.301 C 959.313 382.923 962.477 389.524 968.169 394.106 C 973.858 398.688 980.956 400.978 989.461 400.978 C 995.792 400.978 1001.194 399.698 1005.67 397.135 C 1010.144 394.575 1013.693 390.485 1016.315 384.869 Z  M 959.632 363.365 L 1016.508 363.365 C 1015.739 356.764 1013.565 351.813 1009.985 348.511 C 1004.485 343.388 997.357 340.826 988.597 340.826 C 980.668 340.826 974.002 342.87 968.6 346.959 C 963.196 351.05 960.208 356.519 959.632 363.365 Z " fill="rgb(255,255,255)"/><path d=" M 1055.639 410.142 L 1055.639 331.664 L 1071.177 331.664 L 1071.177 343.56 C 1075.141 337.994 1078.802 334.323 1082.158 332.55 C 1085.514 330.776 1089.208 329.889 1093.236 329.889 C 1099.053 329.889 1104.968 331.319 1110.979 334.176 L 1105.033 346.516 C 1100.813 344.595 1096.593 343.634 1092.373 343.634 C 1088.599 343.634 1085.211 344.509 1082.206 346.257 C 1079.199 348.007 1077.059 350.433 1075.78 353.536 C 1073.862 358.265 1072.902 363.438 1072.902 369.055 L 1072.902 410.141 L 1055.639 410.141 L 1055.639 410.142 Z " fill="rgb(255,255,255)"/></g></g></svg>