<?xml version="1.0" standalone="no"?><!-- Generator: Gravit.io --><svg xmlns="http://www.w3.org/2000/svg" xmlns:xlink="http://www.w3.org/1999/xlink" style="isolation:isolate" viewBox="0 0 1894 384" width="1894" height="384"><g id="Layer_2"><g id="null"><g id="null"><path d=" M 1860.703 341.872 L 1860.703 334.467 L 1860.703 341.872 L 1860.703 341.872 Z " fill="rgb(255,255,255)"/></g><g id="null"><g id="null"><g id="null"><path d=" M 697.277 190.185 C 689.914 190.185 683.945 196.154 683.945 203.518 C 683.945 210.88 689.914 216.85 697.277 216.85 C 704.638 216.85 710.609 210.88 710.609 203.518 C 710.609 196.154 704.64 190.185 697.277 190.185 Z  M 233.329 190.185 C 225.967 190.185 219.997 196.154 219.997 203.518 C 219.997 210.88 225.967 216.85 233.329 216.85 C 240.692 216.85 246.662 210.88 246.662 203.518 C 246.662 196.154 240.692 190.185 233.329 190.185 Z  M 310.654 203.518 C 310.654 210.88 316.623 216.85 323.986 216.85 C 331.348 216.85 337.318 210.88 337.318 203.518 C 337.318 196.155 331.348 190.185 323.986 190.185 C 316.623 190.185 310.654 196.154 310.654 203.518 Z  M 446.639 190.185 C 439.277 190.185 433.307 196.154 433.307 203.518 C 433.307 210.88 439.277 216.85 446.639 216.85 C 454.002 216.85 459.971 210.88 459.971 203.518 C 459.971 196.154 454.001 190.185 446.639 190.185 Z  M 914.438 62.199 L 85.493 62.199 C 71.422 62.199 60.014 73.606 60.014 87.678 L 60.014 287.36 C 60.014 301.43 71.422 312.839 85.493 312.839 L 914.437 312.839 C 928.508 312.839 939.916 301.433 939.916 287.36 L 939.916 87.678 C 939.917 73.606 928.51 62.199 914.438 62.199 Z  M 172.002 232.848 L 156.003 206.184 L 156.003 232.848 L 124.006 232.848 L 124.006 131.524 L 172.001 131.524 C 187.999 131.524 203.998 142.19 203.998 163.521 C 203.998 184.852 187.999 190.185 182.667 190.185 L 209.331 232.848 L 172.002 232.848 L 172.002 232.848 Z  M 225.33 232.848 C 214.665 232.848 203.999 222.182 203.999 206.184 C 203.999 188.009 219.997 184.852 225.33 184.921 C 227.274 184.947 234.417 184.852 235.996 184.852 C 246.662 184.852 241.329 174.186 235.996 174.186 C 230.663 174.186 214.665 174.186 214.665 174.186 L 214.665 152.855 L 257.327 152.855 C 267.993 152.855 271.992 163.521 271.992 174.186 C 271.992 184.852 273.325 232.846 273.325 232.846 L 225.33 232.846 L 225.33 232.848 L 225.33 232.848 Z  M 363.98 232.848 C 363.98 232.848 342.65 232.848 321.319 232.848 C 289.322 232.848 283.99 206.184 283.99 190.185 C 283.99 180.376 289.322 152.856 321.319 152.856 L 331.985 152.856 L 331.985 131.524 L 363.982 131.524 L 363.982 232.848 L 363.98 232.848 L 363.98 232.848 Z  M 401.311 232.848 L 374.647 232.848 L 374.647 152.856 L 401.311 152.856 L 401.311 232.848 L 401.311 232.848 Z  M 446.639 232.848 C 424.55 232.848 406.643 214.942 406.643 192.852 C 406.643 170.764 424.549 152.856 446.639 152.856 C 468.729 152.856 486.634 170.762 486.634 192.852 C 486.634 214.939 468.729 232.848 446.639 232.848 Z  M 582.623 163.521 C 571.958 163.521 566.625 168.854 566.625 179.519 C 566.625 190.184 566.625 184.852 566.625 200.85 C 566.625 222.182 561.292 232.848 518.63 232.848 C 518.63 211.516 518.63 200.85 518.63 200.85 C 529.296 200.85 539.961 200.85 539.961 184.852 C 539.961 168.854 539.961 168.854 539.961 158.188 C 539.961 147.522 545.294 131.524 582.623 131.524 C 582.623 142.19 582.623 163.521 582.623 163.521 Z  M 662.614 232.848 L 630.618 232.848 L 630.618 184.852 C 630.618 179.519 619.952 179.519 619.952 184.852 C 619.952 190.185 619.952 232.848 619.952 232.848 L 593.288 232.848 L 593.288 131.524 L 619.952 131.524 L 619.952 158.188 C 630.618 147.522 662.614 152.855 662.614 174.186 C 662.614 195.518 662.614 232.848 662.614 232.848 Z  M 689.278 232.848 C 678.612 232.848 667.947 222.182 667.947 206.184 C 667.947 188.009 683.945 184.852 689.278 184.921 C 691.22 184.947 698.365 184.852 699.944 184.852 C 710.61 184.852 705.277 174.186 699.944 174.186 C 694.611 174.186 678.612 174.186 678.612 174.186 L 678.612 152.855 L 721.274 152.855 C 731.94 152.855 735.939 163.521 735.939 174.186 C 735.939 184.852 737.271 232.846 737.271 232.846 L 689.278 232.846 L 689.278 232.848 L 689.278 232.848 Z  M 822.364 197.188 L 794.323 197.161 C 792.064 193.006 787.662 190.185 782.601 190.185 C 775.239 190.185 769.269 196.153 769.269 203.517 C 769.269 210.881 775.238 216.849 782.601 216.849 C 787.738 216.849 792.197 213.943 794.422 209.685 L 818.892 209.683 C 812.538 223.363 798.676 232.847 782.601 232.847 C 760.511 232.847 742.605 214.941 742.605 192.853 C 742.605 170.764 760.511 152.856 782.601 152.856 C 804.689 152.856 822.596 170.762 822.596 192.853 C 822.597 194.316 822.518 195.764 822.364 197.188 Z  M 865.259 232.848 L 854.593 200.85 L 849.26 200.85 L 849.26 232.848 L 827.929 232.848 L 827.929 131.524 L 849.26 131.524 L 849.26 174.187 L 854.593 174.187 L 865.259 158.189 L 891.923 158.189 L 875.924 184.853 L 897.256 232.848 L 865.259 232.848 L 865.259 232.848 L 865.259 232.848 Z  M 158.67 168.854 C 151.307 168.854 145.338 174.823 145.338 182.186 C 145.338 189.548 151.307 195.518 158.67 195.518 C 166.033 195.518 172.002 189.549 172.002 182.186 C 172.002 174.823 166.034 168.854 158.67 168.854 Z " fill="rgb(255,255,255)"/></g></g><rect x="1005.936" y="214.4" width="239.976" height="53.328" transform="matrix(1,0,0,1,0,0)" fill="rgb(255,255,255)"/><rect x="1267.24" y="214.4" width="239.974" height="53.328" transform="matrix(1,0,0,1,0,0)" fill="rgb(255,255,255)"/><rect x="1528.545" y="214.4" width="239.975" height="53.328" transform="matrix(1,0,0,1,0,0)" fill="rgb(255,255,255)"/><g id="null"><g id="null"><path d=" M 1138.662 110.022 L 1216.779 110.022 L 1216.779 125.645 L 1185.532 125.645 L 1185.532 180.326 L 1169.909 180.326 L 1169.909 125.645 L 1138.662 125.645 L 1138.662 110.022 L 1138.662 110.022 Z " fill="rgb(255,255,255)"/><path d=" M 1251.73 152.986 L 1251.73 180.326 L 1236.107 180.326 L 1236.107 110.022 L 1290.79 110.022 C 1306.414 110.022 1314.225 117.157 1314.225 131.425 C 1314.225 138.196 1313.106 143.17 1310.868 146.345 C 1313.106 150.043 1314.225 154.86 1314.225 160.797 L 1314.225 180.326 L 1298.604 180.326 L 1298.604 160.797 C 1298.604 155.59 1295.999 152.985 1290.791 152.985 L 1251.73 152.986 L 1251.73 152.986 L 1251.73 152.986 Z  M 1251.73 137.363 L 1298.601 137.363 L 1298.601 125.645 L 1251.73 125.645 L 1251.73 137.363 L 1251.73 137.363 Z " fill="rgb(255,255,255)"/><path d=" M 1429.225 152.986 L 1429.225 141.268 L 1456.215 141.268 L 1456.215 152.986 L 1429.225 152.986 L 1429.225 152.986 Z " fill="rgb(255,255,255)"/><path d=" M 1551.415 125.646 L 1489.391 125.646 L 1489.391 137.364 L 1528.451 137.364 C 1544.074 137.364 1551.885 144.525 1551.885 158.844 C 1551.885 173.166 1544.073 180.326 1528.451 180.326 L 1497.205 180.326 C 1483.976 180.326 1476.348 175.119 1474.315 164.703 L 1536.261 164.703 L 1536.261 152.985 L 1497.203 152.985 C 1481.578 152.985 1473.767 145.929 1473.767 131.815 C 1473.767 117.286 1481.578 110.021 1497.203 110.021 L 1528.449 110.021 C 1541.781 110.022 1549.436 115.231 1551.415 125.646 Z  M 1474.314 164.704 C 1473.948 162.829 1473.767 160.772 1473.767 158.533 C 1473.767 153.013 1474.963 148.56 1477.359 145.175 C 1481.109 150.384 1487.722 152.987 1497.203 152.987 L 1489.39 152.987 L 1489.39 164.705 L 1474.314 164.704 L 1474.314 164.704 L 1474.314 164.704 Z  M 1548.213 145.174 C 1550.659 141.737 1551.883 137.181 1551.883 131.504 C 1551.883 129.421 1551.729 127.468 1551.415 125.645 L 1536.261 125.645 L 1536.261 137.363 L 1528.449 137.363 C 1537.874 137.363 1544.463 139.968 1548.213 145.174 Z " fill="rgb(255,255,255)"/><path d=" M 1564.496 156.892 L 1564.496 133.457 C 1564.496 117.834 1572.309 110.022 1587.932 110.022 L 1611.368 110.022 C 1626.992 110.022 1634.804 117.834 1634.804 133.457 L 1634.804 156.892 C 1634.804 172.516 1626.992 180.327 1611.368 180.327 L 1587.932 180.327 C 1572.309 180.327 1564.496 172.516 1564.496 156.892 Z  M 1611.366 164.704 C 1616.573 164.704 1619.179 162.1 1619.179 156.892 L 1619.179 133.457 C 1619.179 128.25 1616.575 125.645 1611.366 125.645 L 1587.93 125.645 C 1582.721 125.645 1580.118 128.249 1580.118 133.457 L 1580.118 156.892 C 1580.118 162.1 1582.721 164.704 1587.93 164.704 L 1611.366 164.704 L 1611.366 164.704 Z " fill="rgb(255,255,255)"/></g><path d=" M 1330.756 156.989 L 1350.926 156.989 C 1350.926 162.031 1353.762 165.499 1357.702 165.499 C 1361.64 165.499 1391.19 165.499 1394.025 165.499 C 1396.864 165.499 1397.808 163.45 1397.808 160.613 C 1397.808 157.777 1399.068 151.631 1393.396 151.631 C 1387.723 151.631 1354.549 151.631 1349.034 151.631 C 1343.519 151.631 1330.596 147.061 1330.596 131.618 C 1330.596 116.175 1340.68 110.502 1347.773 110.502 C 1354.866 110.502 1394.889 110.502 1401.349 110.502 C 1407.81 110.502 1413.798 113.496 1413.798 130.043 C 1409.069 130.043 1394.732 130.043 1394.732 130.043 C 1394.732 126.418 1392.84 123.859 1386.223 123.859 C 1379.604 123.859 1362.502 123.859 1357.777 123.859 C 1353.048 123.859 1351.315 124.212 1351.315 131.618 C 1351.315 139.024 1355.57 138.432 1358.721 138.432 C 1361.872 138.432 1395.992 138.432 1403.713 138.432 C 1411.434 138.432 1418.682 146.273 1418.682 158.407 C 1418.682 170.54 1412.853 180.865 1400.406 180.865 C 1387.957 180.865 1353.289 180.865 1346.985 180.865 C 1340.681 180.865 1330.756 177.79 1330.756 156.989 Z " fill="rgb(255,255,255)"/></g></g><g id="null"><g id="null"><g id="null"><path d=" M 314.505 207.665 C 314.505 215.027 320.474 220.997 327.837 220.997 C 335.2 220.997 341.169 215.027 341.169 207.665 C 341.169 200.302 335.2 194.333 327.837 194.333 C 320.474 194.333 314.505 200.302 314.505 207.665 Z  M 450.49 194.333 C 443.127 194.333 437.158 200.302 437.158 207.665 C 437.158 215.027 443.127 220.997 450.49 220.997 C 457.853 220.997 463.822 215.027 463.822 207.665 C 463.822 200.302 457.854 194.333 450.49 194.333 Z  M 701.128 194.333 C 693.765 194.333 687.796 200.302 687.796 207.665 C 687.796 215.027 693.765 220.997 701.128 220.997 C 708.491 220.997 714.46 215.027 714.46 207.665 C 714.46 200.302 708.491 194.333 701.128 194.333 Z  M 162.522 173.002 C 155.159 173.002 149.19 178.971 149.19 186.334 C 149.19 193.695 155.159 199.666 162.522 199.666 C 169.885 199.666 175.854 193.697 175.854 186.334 C 175.854 178.971 169.885 173.002 162.522 173.002 Z  M 237.18 194.333 C 229.817 194.333 223.848 200.302 223.848 207.665 C 223.848 215.027 229.817 220.997 237.18 220.997 C 244.543 220.997 250.512 215.027 250.512 207.665 C 250.512 200.302 244.543 194.333 237.18 194.333 Z  M 918.29 66.347 L 89.345 66.347 C 75.274 66.347 63.866 77.755 63.866 91.826 L 63.866 291.507 C 63.866 305.578 75.273 316.986 89.345 316.986 L 918.29 316.986 C 932.361 316.986 943.769 305.579 943.769 291.507 L 943.769 91.826 C 943.77 77.754 932.361 66.347 918.29 66.347 Z  M 175.854 236.994 L 159.856 210.331 L 159.856 236.994 L 127.859 236.994 L 127.859 135.672 L 175.853 135.672 C 191.852 135.672 207.85 146.338 207.85 167.669 C 207.85 189 191.852 194.333 186.519 194.333 L 213.183 236.995 L 175.854 236.994 L 175.854 236.994 L 175.854 236.994 Z  M 229.181 236.994 C 218.516 236.994 207.85 226.329 207.85 210.331 C 207.85 192.157 223.849 188.999 229.181 189.069 C 231.125 189.094 238.268 189 239.847 189 C 250.513 189 245.18 178.335 239.847 178.335 C 234.514 178.335 218.516 178.335 218.516 178.335 L 218.516 157.004 L 261.178 157.004 C 271.843 157.004 275.843 167.67 275.843 178.335 C 275.843 189 277.176 236.995 277.176 236.995 L 229.181 236.994 L 229.181 236.994 L 229.181 236.994 Z  M 367.832 236.994 C 367.832 236.994 346.501 236.994 325.171 236.994 C 293.174 236.994 287.841 210.331 287.841 194.332 C 287.841 184.524 293.174 157.003 325.171 157.003 L 335.836 157.003 L 335.836 135.672 L 367.832 135.672 L 367.832 236.994 L 367.832 236.994 Z  M 405.162 236.994 L 378.498 236.994 L 378.498 157.003 L 405.162 157.003 L 405.162 236.994 L 405.162 236.994 Z  M 450.49 236.994 C 428.401 236.994 410.494 219.088 410.494 196.999 C 410.494 174.91 428.401 157.003 450.49 157.003 C 472.579 157.003 490.486 174.91 490.486 196.999 C 490.486 219.088 472.579 236.994 450.49 236.994 Z  M 586.475 167.669 C 575.809 167.669 570.476 173.002 570.476 183.667 C 570.476 194.333 570.476 189 570.476 204.998 C 570.476 226.329 565.143 236.994 522.481 236.994 C 522.481 215.663 522.481 204.998 522.481 204.998 C 533.147 204.998 543.813 204.998 543.813 188.999 C 543.813 173.001 543.813 173.001 543.813 162.335 C 543.813 151.67 549.147 135.671 586.475 135.671 C 586.475 146.338 586.475 167.669 586.475 167.669 Z  M 666.466 236.994 L 634.469 236.994 L 634.469 189 C 634.469 183.667 623.803 183.667 623.803 189 C 623.803 194.333 623.803 236.995 623.803 236.995 L 597.14 236.995 L 597.14 135.672 L 623.804 135.672 L 623.804 162.336 C 634.47 151.671 666.466 157.003 666.466 178.335 C 666.466 199.667 666.466 236.994 666.466 236.994 Z  M 693.129 236.994 C 682.464 236.994 671.798 226.329 671.798 210.331 C 671.798 192.157 687.797 188.999 693.129 189.069 C 695.072 189.094 702.216 189 703.795 189 C 714.461 189 709.128 178.335 703.795 178.335 C 698.462 178.335 682.464 178.335 682.464 178.335 L 682.464 157.004 L 725.126 157.004 C 735.792 157.004 739.791 167.67 739.791 178.335 C 739.791 189 741.124 236.995 741.124 236.995 L 693.129 236.994 L 693.129 236.994 L 693.129 236.994 Z  M 826.215 201.336 L 798.174 201.309 C 795.916 197.153 791.513 194.332 786.451 194.332 C 779.089 194.332 773.119 200.301 773.119 207.664 C 773.119 215.025 779.088 220.996 786.451 220.996 C 791.588 220.996 796.047 218.09 798.273 213.832 L 822.743 213.83 C 816.388 227.509 802.527 236.994 786.451 236.994 C 764.363 236.994 746.456 219.088 746.456 196.999 C 746.456 174.91 764.363 157.003 786.451 157.003 C 808.54 157.003 826.447 174.91 826.447 196.999 C 826.448 198.465 826.37 199.912 826.215 201.336 Z  M 869.11 236.994 L 858.444 204.998 L 853.111 204.998 L 853.111 236.994 L 831.78 236.994 L 831.78 135.672 L 853.111 135.672 L 853.111 178.335 L 858.444 178.335 L 869.11 162.336 L 895.773 162.336 L 879.775 189 L 901.105 236.995 L 869.11 236.994 L 869.11 236.994 L 869.11 236.994 Z " fill="rgb(255,255,255)"/></g></g><rect x="1009.787" y="218.548" width="239.975" height="53.328" transform="matrix(1,0,0,1,0,0)" fill="rgb(255,255,255)"/><rect x="1271.092" y="218.548" width="239.975" height="53.328" transform="matrix(1,0,0,1,0,0)" fill="rgb(255,255,255)"/><rect x="1532.396" y="218.548" width="239.973" height="53.328" transform="matrix(1,0,0,1,0,0)" fill="rgb(255,255,255)"/><g id="null"><g id="null"><path d=" M 1142.514 114.17 L 1220.63 114.17 L 1220.63 129.793 L 1189.384 129.793 L 1189.384 184.475 L 1173.76 184.475 L 1173.76 129.793 L 1142.514 129.793 L 1142.514 114.17 L 1142.514 114.17 Z " fill="rgb(255,255,255)"/><path d=" M 1255.583 157.134 L 1255.583 184.475 L 1239.961 184.475 L 1239.961 114.17 L 1294.641 114.17 C 1310.266 114.17 1318.078 121.305 1318.078 135.573 C 1318.078 142.344 1316.958 147.317 1314.721 150.493 C 1316.958 154.191 1318.078 159.008 1318.078 164.944 L 1318.078 184.473 L 1302.455 184.473 L 1302.455 164.944 C 1302.455 159.737 1299.851 157.132 1294.642 157.132 L 1255.584 157.132 L 1255.584 157.134 L 1255.583 157.134 Z  M 1255.583 141.511 L 1302.453 141.511 L 1302.453 129.793 L 1255.583 129.793 L 1255.583 141.511 L 1255.583 141.511 Z " fill="rgb(255,255,255)"/><path d=" M 1433.076 157.134 L 1433.076 145.417 L 1460.064 145.417 L 1460.064 157.134 L 1433.076 157.134 L 1433.076 157.134 Z " fill="rgb(255,255,255)"/><path d=" M 1555.266 129.793 L 1493.243 129.793 L 1493.243 141.511 L 1532.303 141.511 C 1547.926 141.511 1555.739 148.672 1555.739 162.993 C 1555.739 177.315 1547.926 184.475 1532.303 184.475 L 1501.056 184.475 C 1487.827 184.475 1480.201 179.268 1478.168 168.851 L 1540.112 168.851 L 1540.112 157.134 L 1501.054 157.134 C 1485.43 157.134 1477.619 150.078 1477.619 135.965 C 1477.619 121.435 1485.43 114.171 1501.054 114.171 L 1532.301 114.171 C 1545.632 114.17 1553.287 119.378 1555.266 129.793 Z  M 1478.166 168.851 C 1477.8 166.976 1477.619 164.92 1477.619 162.681 C 1477.619 157.161 1478.814 152.708 1481.212 149.323 C 1484.962 154.531 1491.575 157.135 1501.055 157.135 L 1493.242 157.135 L 1493.242 168.852 L 1478.166 168.851 L 1478.166 168.851 L 1478.166 168.851 Z  M 1552.064 149.322 C 1554.509 145.884 1555.734 141.328 1555.734 135.652 C 1555.734 133.569 1555.579 131.617 1555.265 129.793 L 1540.111 129.793 L 1540.111 141.511 L 1532.299 141.511 C 1541.727 141.511 1548.314 144.115 1552.064 149.322 Z " fill="rgb(255,255,255)"/><path d=" M 1568.348 161.04 L 1568.348 137.605 C 1568.348 121.981 1576.161 114.17 1591.785 114.17 L 1615.222 114.17 C 1630.845 114.17 1638.656 121.981 1638.656 137.605 L 1638.656 161.04 C 1638.656 176.663 1630.844 184.475 1615.222 184.475 L 1591.785 184.475 C 1576.16 184.475 1568.348 176.663 1568.348 161.04 Z  M 1615.219 168.851 C 1620.425 168.851 1623.031 166.248 1623.031 161.04 L 1623.031 137.605 C 1623.031 132.397 1620.427 129.793 1615.219 129.793 L 1591.783 129.793 C 1586.574 129.793 1583.97 132.397 1583.97 137.605 L 1583.97 161.04 C 1583.97 166.248 1586.574 168.851 1591.783 168.851 L 1615.219 168.851 L 1615.219 168.851 Z " fill="rgb(255,255,255)"/></g><path d=" M 1334.605 161.137 L 1354.777 161.137 C 1354.777 166.179 1357.613 169.646 1361.551 169.646 C 1365.491 169.646 1395.04 169.646 1397.876 169.646 C 1400.713 169.646 1401.658 167.597 1401.658 164.76 C 1401.658 161.924 1402.919 155.779 1397.246 155.779 C 1391.574 155.779 1358.4 155.779 1352.884 155.779 C 1347.368 155.779 1334.447 151.209 1334.447 135.766 C 1334.447 120.323 1344.531 114.65 1351.624 114.65 C 1358.715 114.65 1398.74 114.65 1405.2 114.65 C 1411.661 114.65 1417.647 117.644 1417.647 134.19 C 1412.92 134.19 1398.582 134.19 1398.582 134.19 C 1398.582 130.565 1396.69 128.007 1390.073 128.007 C 1383.455 128.007 1366.352 128.007 1361.626 128.007 C 1356.9 128.007 1355.166 128.36 1355.166 135.766 C 1355.166 143.172 1359.421 142.579 1362.571 142.579 C 1365.721 142.579 1399.842 142.579 1407.563 142.579 C 1415.284 142.579 1422.533 150.42 1422.533 162.554 C 1422.533 174.687 1416.703 185.012 1404.255 185.012 C 1391.806 185.012 1357.14 185.012 1350.835 185.012 C 1344.532 185.012 1334.605 181.938 1334.605 161.137 Z " fill="rgb(255,255,255)"/></g></g><g id="null"><g id="null"><g id="null"><path d=" M 313.024 205.889 C 313.024 213.251 318.993 219.22 326.355 219.22 C 333.718 219.22 339.687 213.251 339.687 205.889 C 339.687 198.526 333.718 192.557 326.355 192.557 C 318.993 192.557 313.024 198.525 313.024 205.889 Z  M 699.646 192.557 C 692.285 192.557 686.314 198.526 686.314 205.889 C 686.314 213.251 692.284 219.22 699.646 219.22 C 707.009 219.22 712.978 213.251 712.978 205.889 C 712.979 198.525 707.01 192.557 699.646 192.557 Z  M 235.699 192.557 C 228.336 192.557 222.367 198.526 222.367 205.889 C 222.367 213.251 228.336 219.22 235.699 219.22 C 243.062 219.22 249.031 213.251 249.031 205.889 C 249.031 198.525 243.062 192.557 235.699 192.557 Z  M 916.809 64.57 L 87.864 64.57 C 73.793 64.57 62.385 75.978 62.385 90.049 L 62.385 289.73 C 62.385 303.801 73.792 315.209 87.864 315.209 L 916.808 315.209 C 930.879 315.209 942.287 303.803 942.287 289.73 L 942.287 90.049 C 942.287 75.978 930.88 64.57 916.809 64.57 Z  M 174.373 235.219 L 158.374 208.555 L 158.374 235.219 L 126.377 235.219 L 126.377 133.896 L 174.372 133.896 C 190.37 133.896 206.368 144.562 206.368 165.893 C 206.368 187.224 190.37 192.557 185.037 192.557 L 211.701 235.22 L 174.373 235.219 L 174.373 235.219 L 174.373 235.219 Z  M 227.7 235.219 C 217.034 235.219 206.369 224.553 206.369 208.555 C 206.369 190.381 222.367 187.224 227.7 187.293 C 229.643 187.318 236.787 187.224 238.366 187.224 C 249.031 187.224 243.699 176.558 238.366 176.558 C 233.033 176.558 217.035 176.558 217.035 176.558 L 217.035 155.226 L 259.697 155.226 C 270.363 155.226 274.362 165.892 274.362 176.558 C 274.362 187.224 275.695 235.219 275.695 235.219 L 227.7 235.219 L 227.7 235.219 Z  M 366.352 235.219 C 366.352 235.219 345.02 235.219 323.691 235.219 C 291.693 235.219 286.361 208.555 286.361 192.557 C 286.361 182.747 291.694 155.226 323.691 155.226 L 334.357 155.226 L 334.357 133.895 L 366.354 133.895 L 366.354 235.219 L 366.352 235.219 L 366.352 235.219 Z  M 403.681 235.219 L 377.017 235.219 L 377.017 155.227 L 403.681 155.227 L 403.681 235.219 L 403.681 235.219 Z  M 449.009 235.219 C 426.92 235.219 409.013 217.313 409.013 195.223 C 409.013 173.134 426.92 155.227 449.009 155.227 C 471.098 155.227 489.005 173.134 489.005 195.223 C 489.005 217.313 471.098 235.219 449.009 235.219 Z  M 584.994 165.893 C 574.328 165.893 568.995 171.226 568.995 181.892 C 568.995 192.557 568.995 187.225 568.995 203.223 C 568.995 224.554 563.663 235.22 521.001 235.22 C 521.001 213.889 521.001 203.223 521.001 203.223 C 531.667 203.223 542.332 203.223 542.332 187.225 C 542.332 171.226 542.332 171.226 542.332 160.561 C 542.332 149.896 547.665 133.897 584.994 133.897 C 584.994 144.562 584.994 165.893 584.994 165.893 Z  M 664.984 235.219 L 632.988 235.219 L 632.988 187.224 C 632.988 181.891 622.322 181.891 622.322 187.224 C 622.322 192.557 622.322 235.219 622.322 235.219 L 595.658 235.219 L 595.658 133.896 L 622.322 133.896 L 622.322 160.56 C 632.988 149.895 664.984 155.227 664.984 176.559 C 664.984 197.889 664.984 235.219 664.984 235.219 Z  M 691.648 235.219 C 680.982 235.219 670.317 224.553 670.317 208.555 C 670.317 190.381 686.316 187.224 691.648 187.293 C 693.59 187.318 700.735 187.224 702.314 187.224 C 712.98 187.224 707.646 176.558 702.314 176.558 C 696.98 176.558 680.983 176.558 680.983 176.558 L 680.983 155.226 L 723.644 155.226 C 734.31 155.226 738.31 165.892 738.31 176.558 C 738.31 187.224 739.642 235.219 739.642 235.219 L 691.648 235.219 L 691.648 235.219 Z  M 824.734 199.561 L 796.693 199.533 C 794.435 195.378 790.032 192.557 784.97 192.557 C 777.608 192.557 771.638 198.526 771.638 205.889 C 771.638 213.251 777.608 219.22 784.97 219.22 C 790.108 219.22 794.567 216.315 796.792 212.057 L 821.262 212.055 C 814.908 225.733 801.046 235.219 784.97 235.219 C 762.881 235.219 744.974 217.313 744.974 195.223 C 744.974 173.134 762.88 155.227 784.97 155.227 C 807.058 155.227 824.966 173.134 824.966 195.223 C 824.967 196.688 824.888 198.135 824.734 199.561 Z  M 867.629 235.219 L 856.963 203.223 L 851.63 203.223 L 851.63 235.219 L 830.3 235.219 L 830.3 133.896 L 851.631 133.896 L 851.631 176.559 L 856.964 176.559 L 867.63 160.56 L 894.294 160.56 L 878.295 187.224 L 899.626 235.219 L 867.629 235.219 L 867.629 235.219 Z  M 161.041 171.225 C 153.678 171.225 147.709 177.194 147.709 184.557 C 147.709 191.92 153.678 197.889 161.041 197.889 C 168.403 197.889 174.373 191.92 174.373 184.557 C 174.373 177.194 168.403 171.225 161.041 171.225 Z  M 449.009 192.557 C 441.647 192.557 435.677 198.526 435.677 205.889 C 435.677 213.251 441.647 219.22 449.009 219.22 C 456.372 219.22 462.341 213.251 462.341 205.889 C 462.341 198.525 456.372 192.557 449.009 192.557 Z " fill="rgb(255,255,255)"/></g></g><rect x="1008.307" y="216.771" width="239.975" height="53.328" transform="matrix(1,0,0,1,0,0)" fill="rgb(255,255,255)"/><rect x="1269.61" y="216.771" width="239.974" height="53.328" transform="matrix(1,0,0,1,0,0)" fill="rgb(255,255,255)"/><rect x="1530.915" y="216.771" width="239.974" height="53.328" transform="matrix(1,0,0,1,0,0)" fill="rgb(255,255,255)"/><g id="null"><g id="null"><path d=" M 1141.032 112.394 L 1219.148 112.394 L 1219.148 128.017 L 1187.902 128.017 L 1187.902 182.699 L 1172.278 182.699 L 1172.278 128.017 L 1141.032 128.017 L 1141.032 112.394 L 1141.032 112.394 Z " fill="rgb(255,255,255)"/><path d=" M 1254.104 155.357 L 1254.104 182.698 L 1238.481 182.698 L 1238.481 112.393 L 1293.162 112.393 C 1308.786 112.393 1316.598 119.528 1316.598 133.797 C 1316.598 140.568 1315.478 145.541 1313.24 148.717 C 1315.478 152.415 1316.598 157.232 1316.598 163.169 L 1316.598 182.698 L 1300.975 182.698 L 1300.975 163.169 C 1300.975 157.961 1298.371 155.357 1293.162 155.357 L 1254.104 155.357 L 1254.104 155.357 Z  M 1254.104 139.734 L 1300.973 139.734 L 1300.973 128.016 L 1254.104 128.016 L 1254.104 139.734 L 1254.104 139.734 Z " fill="rgb(255,255,255)"/><path d=" M 1431.596 155.357 L 1431.596 143.64 L 1458.584 143.64 L 1458.584 155.357 L 1431.596 155.357 L 1431.596 155.357 Z " fill="rgb(255,255,255)"/><path d=" M 1553.785 128.017 L 1491.76 128.017 L 1491.76 139.735 L 1530.821 139.735 C 1546.444 139.735 1554.256 146.896 1554.256 161.217 C 1554.256 175.539 1546.444 182.699 1530.821 182.699 L 1499.574 182.699 C 1486.346 182.699 1478.718 177.492 1476.686 167.075 L 1538.631 167.075 L 1538.631 155.358 L 1499.572 155.358 C 1483.949 155.358 1476.136 148.302 1476.136 134.189 C 1476.136 119.659 1483.949 112.395 1499.572 112.395 L 1530.819 112.395 C 1544.15 112.394 1551.807 117.602 1553.785 128.017 Z  M 1476.686 167.075 C 1476.32 165.2 1476.139 163.144 1476.139 160.904 C 1476.139 155.384 1477.335 150.932 1479.731 147.546 C 1483.481 152.754 1490.094 155.358 1499.574 155.358 L 1491.761 155.358 L 1491.761 167.075 L 1476.686 167.075 L 1476.686 167.075 L 1476.686 167.075 Z  M 1550.583 147.546 C 1553.029 144.109 1554.254 139.553 1554.254 133.876 C 1554.254 131.793 1554.098 129.84 1553.785 128.017 L 1538.631 128.017 L 1538.631 139.735 L 1530.818 139.735 C 1540.245 139.734 1546.833 142.338 1550.583 147.546 Z " fill="rgb(255,255,255)"/><path d=" M 1566.867 159.264 L 1566.867 135.829 C 1566.867 120.205 1574.679 112.394 1590.302 112.394 L 1613.739 112.394 C 1629.362 112.394 1637.174 120.206 1637.174 135.829 L 1637.174 159.264 C 1637.174 174.887 1629.362 182.699 1613.739 182.699 L 1590.302 182.699 C 1574.679 182.698 1566.867 174.887 1566.867 159.264 Z  M 1613.737 167.075 C 1618.941 167.075 1621.548 164.472 1621.548 159.264 L 1621.548 135.829 C 1621.548 130.621 1618.944 128.017 1613.737 128.017 L 1590.3 128.017 C 1585.091 128.017 1582.488 130.621 1582.488 135.829 L 1582.488 159.264 C 1582.488 164.472 1585.091 167.075 1590.3 167.075 L 1613.737 167.075 L 1613.737 167.075 Z " fill="rgb(255,255,255)"/></g><path d=" M 1333.125 159.36 L 1353.296 159.36 C 1353.296 164.402 1356.133 167.87 1360.071 167.87 C 1364.01 167.87 1393.56 167.87 1396.398 167.87 C 1399.234 167.87 1400.179 165.821 1400.179 162.984 C 1400.179 160.148 1401.439 154.003 1395.767 154.003 C 1390.093 154.003 1356.919 154.003 1351.404 154.003 C 1345.889 154.003 1332.967 149.433 1332.967 133.99 C 1332.967 118.547 1343.052 112.874 1350.144 112.874 C 1357.235 112.874 1397.259 112.874 1403.72 112.874 C 1410.181 112.874 1416.167 115.868 1416.167 132.414 C 1411.44 132.414 1397.103 132.414 1397.103 132.414 C 1397.103 128.79 1395.21 126.231 1388.592 126.231 C 1381.976 126.231 1364.873 126.231 1360.147 126.231 C 1355.419 126.231 1353.687 126.584 1353.687 133.99 C 1353.687 141.396 1357.941 140.803 1361.091 140.803 C 1364.243 140.803 1398.362 140.803 1406.083 140.803 C 1413.804 140.803 1421.054 148.644 1421.054 160.778 C 1421.054 172.911 1415.222 183.236 1402.776 183.236 C 1390.327 183.236 1355.66 183.236 1349.355 183.236 C 1343.054 183.237 1333.125 180.161 1333.125 159.36 Z " fill="rgb(255,255,255)"/></g></g></g></g></svg>