<?xml version="1.0" standalone="no"?><!-- Generator: Gravit.io --><svg xmlns="http://www.w3.org/2000/svg" xmlns:xlink="http://www.w3.org/1999/xlink" style="isolation:isolate" viewBox="0 0 515.518 246.587" width="515.518" height="246.587"><path d=" M 355.764 28.076 C 355.764 43.555 368.797 56.119 384.84 56.119 C 401.516 56.119 414.61 43.815 414.61 28.076 C 414.609 12.333 401.516 0 384.84 0 C 368.797 0 355.764 12.582 355.764 28.076 Z " fill="rgb(255,255,255)"/><rect x="360.59" y="84.227" width="49.639" height="160.606" transform="matrix(1,0,0,1,0,0)" fill="rgb(255,255,255)"/><path d=" M 456.672 28.076 C 456.672 43.555 469.731 56.119 485.764 56.119 C 502.45 56.119 515.518 43.815 515.518 28.076 C 515.518 12.333 502.449 0 485.764 0 C 469.73 0 456.672 12.582 456.672 28.076 Z " fill="rgb(255,255,255)"/><rect x="461.482" y="84.227" width="49.652" height="160.606" transform="matrix(1,0,0,1,0,0)" fill="rgb(255,255,255)"/><path d=" M 281.654 13.507 L 238.126 184.161 C 238.126 184.161 204.845 56.064 199.431 37.895 C 194.017 19.696 182.873 11.723 167.071 11.723 C 151.262 11.723 140.1 19.696 134.687 37.895 C 129.293 56.064 96.004 184.161 96.004 184.161 L 52.447 13.507 L 0 13.507 C 0 13.507 50.371 195.587 57.219 216.671 C 62.546 233.13 75.163 246.587 93.867 246.587 C 115.251 246.587 125.252 230.995 129.883 216.671 C 134.465 202.431 167.071 82.173 167.071 82.173 C 167.071 82.173 199.675 202.431 204.246 216.671 C 208.875 230.995 218.876 246.587 240.255 246.587 C 258.974 246.587 271.568 233.13 276.928 216.671 C 283.759 195.587 334.098 13.507 334.098 13.507 L 281.654 13.507 Z " fill="rgb(255,255,255)"/></svg>